<svg xmlns="http://www.w3.org/2000/svg" xmlns:xlink="http://www.w3.org/1999/xlink" width="1366" zoomAndPan="magnify" viewBox="0 0 1024.5 1023.75" height="1365" preserveAspectRatio="xMidYMid meet" version="1.0"><defs><clipPath id="2f0602df07"><path d="M 0 0.125 L 1024 0.125 L 1024 1023.375 L 0 1023.375 Z M 0 0.125 " clip-rule="nonzero"/></clipPath><clipPath id="fd44dcb126"><path d="M 0 0.125 L 1024 0.125 L 1024 1023.375 L 0 1023.375 Z M 0 0.125 " clip-rule="nonzero"/></clipPath><clipPath id="31b9f1ab00"><rect x="0" width="1024" y="0" height="1024"/></clipPath></defs><g clip-path="url(#2f0602df07)"><g transform="matrix(1, 0, 0, 1, 0, 0.000000000000066058)"><g clip-path="url(#31b9f1ab00)"><g clip-path="url(#fd44dcb126)"><path fill="#ffffff" d="M 512 0.125 C 793.9375 0.125 1024 230.1875 1024 512.125 C 1024 794.0625 793.9375 1024.125 512 1024.125 C 230.0625 1024.125 0 794.0625 0 512.125 C 0 230.1875 230.0625 0.125 512 0.125 Z M 365.390625 601.21875 L 554.855469 790.679688 L 643.949219 701.585938 L 455.613281 512.125 L 643.949219 323.789062 L 554.855469 234.699219 L 365.390625 423.03125 L 276.300781 512.125 Z M 365.390625 601.21875 " fill-opacity="1" fill-rule="nonzero"/></g></g></g></g></svg>