<svg xmlns="http://www.w3.org/2000/svg" xmlns:xlink="http://www.w3.org/1999/xlink" width="1366" zoomAndPan="magnify" viewBox="0 0 1024.5 981.75" height="1309" preserveAspectRatio="xMidYMid meet" version="1.0"><path fill="#111028" d="M 534.886719 945.046875 C 531.921875 948.65625 529.058594 952.34375 525.984375 955.832031 C 520.675781 961.835938 515.625 968.128906 509.753906 973.527344 C 502.28125 980.398438 493.457031 982.964844 483.75 977.992188 C 474.136719 973.074219 468.898438 965.722656 469.191406 954.28125 C 469.472656 943.925781 474.03125 935.238281 477.949219 926.214844 C 484.003906 912.316406 484.273438 912.140625 472.828125 902.585938 C 444.257812 878.699219 415.085938 855.550781 386.957031 831.171875 C 337.410156 788.230469 290.804688 742.210938 247.902344 692.613281 C 206.914062 645.203125 166.164062 597.570312 126.3125 549.199219 C 98.769531 515.773438 73.691406 480.367188 53.824219 441.6875 C 29.15625 393.691406 11.269531 343.554688 4.917969 289.464844 C 1.761719 262.628906 0.359375 235.871094 2.953125 209.152344 C 7.363281 163.84375 24.652344 124.574219 61.738281 96.027344 C 76.816406 84.410156 93.769531 76.152344 112.40625 72.0625 C 118.929688 70.632812 123.128906 67.890625 126.925781 62.359375 C 141.058594 41.773438 159.171875 25.695312 182.289062 15.511719 C 213.867188 1.597656 245.859375 0.128906 278.707031 10.765625 C 330.6875 27.59375 372.144531 58.976562 404.925781 102.027344 C 441.101562 149.527344 469.125 201.601562 489.433594 257.777344 C 494.832031 272.71875 500.140625 287.6875 506.570312 305.636719 C 515.074219 289.960938 522.441406 276.675781 529.539062 263.257812 C 550.449219 223.679688 571.253906 184.050781 599.355469 148.875 C 632.65625 107.1875 671.523438 71.753906 719.238281 47.347656 C 758.433594 27.300781 800.132812 15.792969 844.640625 22.636719 C 902.570312 31.535156 943.8125 63.960938 968.558594 116.542969 C 975.886719 132.097656 980.683594 149.289062 983.855469 166.25 C 986.566406 180.816406 990.847656 194.167969 997.890625 207.105469 C 1019.75 247.296875 1023.8125 290.160156 1015.644531 334.589844 C 1002.90625 403.902344 973.414062 466.078125 933.425781 523.445312 C 894.320312 579.539062 850.296875 631.824219 806.015625 683.871094 C 779.757812 714.71875 753.527344 745.59375 726.695312 775.945312 C 691.429688 815.855469 655.503906 855.191406 620.0625 894.953125 C 611.949219 904.054688 604.863281 914.078125 596.90625 923.339844 C 584.101562 938.242188 568.820312 948.347656 548.015625 946.542969 C 544.285156 946.238281 540.558594 945.703125 534.886719 945.046875 Z M 713.566406 719.128906 C 714.503906 718.3125 715.425781 717.484375 716.363281 716.667969 C 717.40625 715.839844 718.449219 715.027344 719.492188 714.195312 C 724.078125 710.226562 729.007812 706.589844 733.179688 702.222656 C 751.722656 682.789062 770.320312 663.382812 788.382812 643.507812 C 834.71875 592.515625 877.289062 538.625 912.6875 479.335938 C 939.613281 434.253906 962.167969 387.273438 972.917969 335.496094 C 976.460938 318.429688 981.113281 301.292969 979.242188 281.5 C 977.675781 284.574219 976.902344 285.738281 976.472656 287.007812 C 975.566406 289.667969 974.777344 292.378906 974.027344 295.078125 C 959.121094 348.449219 937.113281 398.96875 908.597656 446.242188 C 885.804688 484.042969 860.738281 520.570312 835.027344 556.46875 C 801.84375 602.792969 766.953125 647.875 732.964844 693.628906 C 728.074219 700.214844 724.167969 707.539062 719.796875 714.53125 C 718.753906 715.347656 717.710938 716.160156 716.683594 716.964844 C 715.613281 717.804688 714.542969 718.648438 713.472656 719.488281 C 713.328125 719.636719 713.179688 719.769531 713.046875 719.917969 C 713.207031 719.664062 713.394531 719.394531 713.566406 719.128906 Z M 232.035156 612.203125 L 232.582031 612.671875 L 231.742188 612.363281 C 230.765625 611.535156 229.789062 610.695312 228.8125 609.863281 C 228.503906 608.113281 228.679688 606.070312 227.808594 604.652344 C 205.882812 568.980469 183.425781 533.628906 161.925781 497.714844 C 131.269531 446.484375 108.636719 391.777344 96.671875 333.222656 C 91.324219 307.027344 88.984375 280.164062 86.308594 253.5 C 83.101562 221.515625 84.746094 189.503906 89.652344 157.773438 C 91.9375 142.992188 95.683594 128.449219 98.757812 113.789062 L 99.414062 113.414062 L 98.972656 113.960938 C 79.570312 125.445312 69.707031 144.183594 62.914062 164.308594 C 49.746094 203.285156 51.484375 243.300781 58.421875 283.078125 C 67.300781 333.917969 85.414062 381.726562 108.515625 427.785156 C 129.867188 470.367188 154.628906 510.894531 182.300781 549.558594 C 197.046875 570.15625 213.503906 589.550781 229.1875 609.492188 C 230.148438 610.375 231.097656 611.28125 232.035156 612.203125 Z M 405.59375 215.179688 C 405.648438 216.328125 405.703125 217.492188 405.742188 218.640625 C 406.074219 218.589844 406.410156 218.519531 406.742188 218.46875 C 406.222656 217.480469 405.714844 216.488281 405.191406 215.5 C 396.542969 200.449219 388.710938 184.851562 379.070312 170.472656 C 362.050781 145.078125 344.390625 120.136719 319.65625 101.132812 C 298.039062 84.53125 274.550781 72.207031 247.757812 66.957031 C 233.828125 64.230469 219.894531 64.789062 204.910156 72.757812 C 210.578125 74.789062 214.425781 75.992188 218.144531 77.527344 C 235.925781 84.878906 254.214844 91.269531 271.339844 99.941406 C 318.746094 123.988281 356.835938 159.378906 390.285156 200.183594 C 394.792969 205.703125 400.460938 210.222656 405.59375 215.179688 Z M 175.441406 98.671875 C 164.398438 113.601562 157.835938 130.1875 153.007812 147.402344 C 141.511719 188.503906 142.246094 230.257812 146.6875 272.277344 C 153.410156 335.953125 173.851562 395.335938 203.585938 451.46875 C 233.359375 507.671875 268.652344 560.601562 304.75 612.871094 C 358.640625 690.914062 417.878906 764.71875 483.015625 833.726562 C 490.113281 841.238281 497.28125 848.816406 505.25 855.351562 C 515.625 863.851562 519.929688 863.023438 528.980469 852.890625 C 531.171875 850.433594 533.164062 847.800781 535.234375 845.21875 C 552 824.261719 568.6875 803.238281 585.515625 782.347656 C 618.621094 741.261719 651.9375 700.351562 684.917969 659.171875 C 722.898438 611.75 760.105469 563.726562 794.316406 513.460938 C 825.054688 468.308594 855.269531 422.855469 879.332031 373.628906 C 899.226562 332.929688 915.710938 291.042969 924.910156 246.535156 C 930.308594 220.378906 930.832031 194.304688 924.507812 168.132812 C 922.917969 161.570312 919.679688 157.492188 914.066406 154.074219 C 890.164062 139.503906 863.984375 132.714844 836.378906 131.03125 C 802.953125 128.984375 770.75 135.132812 739.355469 146.453125 C 698.273438 161.261719 663.367188 185.777344 631.789062 215.246094 C 622.5625 223.855469 613.578125 233.410156 607.09375 244.128906 C 596.171875 262.199219 586.960938 281.367188 577.695312 300.398438 C 563.914062 328.746094 551.828125 357.777344 542.441406 387.957031 C 538.578125 400.386719 533.351562 412.871094 526.292969 423.75 C 515.675781 440.121094 491.238281 442.128906 479.847656 428.039062 C 471.382812 417.574219 464.273438 405.867188 457.574219 394.132812 C 446.382812 374.523438 436.746094 353.996094 425.128906 334.65625 C 394.03125 282.929688 360.605469 232.835938 318.535156 189.089844 C 289.644531 159.042969 258.210938 132.191406 220.75 113.386719 C 206.648438 106.289062 191.902344 99.886719 175.441406 98.671875 Z M 891.390625 112.011719 C 873.382812 93.820312 851.445312 83.542969 825.574219 82.566406 C 799.078125 81.5625 774.597656 89.742188 750.746094 100.210938 C 747.203125 101.757812 743.96875 104.046875 740.601562 105.984375 C 791.445312 95.757812 841.378906 94.609375 891.390625 112.011719 Z M 891.390625 112.011719 " fill-opacity="1" fill-rule="nonzero"/></svg>