<svg xmlns="http://www.w3.org/2000/svg" xmlns:xlink="http://www.w3.org/1999/xlink" width="1366" zoomAndPan="magnify" viewBox="0 0 1024.5 954.75" height="1273" preserveAspectRatio="xMidYMid meet" version="1.0"><defs><clipPath id="074f00b4b4"><path d="M 5 31.34375 L 1018 31.34375 L 1018 923 L 5 923 Z M 5 31.34375 " clip-rule="nonzero"/></clipPath></defs><g clip-path="url(#074f00b4b4)"><path fill="#000000" d="M 451.644531 70.808594 C 397.464844 165.554688 263.621094 402.617188 156.078125 593.117188 L 13.804688 844.933594 C 1 867.476562 5.777344 885.300781 9.757812 893.921875 C 17.824219 911.367188 35.042969 920.070312 48.453125 922.421875 L 51.15625 922.882812 L 969.320312 922.90625 L 967.398438 922.839844 C 981.800781 923.722656 1000.921875 918.535156 1011.371094 901.347656 C 1018.054688 890.3125 1022.855469 871.546875 1007.648438 844.867188 L 723.375 348.027344 L 566.0625 73.207031 C 546.359375 38.746094 523.496094 31.492188 507.792969 31.492188 C 492.457031 31.492188 470.265625 38.308594 451.660156 70.808594 L 451.640625 70.808594 Z M 212.054688 625.753906 C 319.574219 435.320312 453.351562 198.34375 507.449219 103.75 L 508.097656 102.722656 C 508.789062 103.773438 509.460938 104.742188 510.238281 106.125 L 667.59375 380.996094 C 667.59375 380.996094 918.644531 819.8125 940.125 857.328125 L 81.207031 857.304688 L 212.042969 625.753906 " fill-opacity="1" fill-rule="evenodd"/></g><path fill="#000000" d="M 511.644531 809.757812 C 539.460938 809.757812 562 786.414062 562 757.628906 C 562 728.859375 539.460938 705.515625 511.644531 705.515625 C 483.785156 705.515625 461.25 728.859375 461.25 757.628906 C 461.25 786.414062 483.785156 809.757812 511.644531 809.757812 " fill-opacity="1" fill-rule="evenodd"/><path fill="#000000" d="M 511.644531 299.085938 C 551.832031 299.085938 588.753906 337.105469 584.40625 374.378906 L 549.992188 636.5625 C 546.640625 659.46875 532.816406 676.234375 511.644531 676.234375 C 490.46875 676.234375 476.601562 659.46875 473.292969 636.5625 L 438.859375 374.378906 C 434.492188 337.105469 471.433594 299.085938 511.644531 299.085938 " fill-opacity="1" fill-rule="evenodd"/></svg>