<svg xmlns="http://www.w3.org/2000/svg" xmlns:xlink="http://www.w3.org/1999/xlink" width="1366" zoomAndPan="magnify" viewBox="0 0 1024.5 576" height="768" preserveAspectRatio="xMidYMid meet" version="1.0"><path fill="#1a1a1a" d="M 153.210938 569.617188 C 160.925781 569.578125 168.660156 570.425781 169.152344 570.660156 C 169.625 570.898438 167.382812 571.921875 167.65625 572.15625 C 167.933594 572.394531 182.242188 572.789062 189.679688 573.714844 C 197.023438 574.640625 209.582031 572.277344 209.953125 572.21875 C 209.738281 572.316406 206 573.910156 206.570312 574.148438 C 207.140625 574.382812 217.511719 576.015625 226.980469 573.535156 C 236.445312 571.054688 248.097656 571.3125 252.902344 570.386719 C 257.722656 569.480469 260.378906 569.519531 260.378906 569.519531 L 257.820312 570.621094 C 257.820312 570.621094 267.898438 572.039062 277.089844 570.820312 C 286.28125 569.597656 296.125 567.355469 297.421875 567.039062 C 298.722656 566.742188 297.34375 568.121094 296.636719 568.457031 C 295.925781 568.8125 302.027344 569.144531 310.253906 568.75 C 318.503906 568.359375 322.554688 566.78125 324.625 566.921875 C 326.691406 567.078125 343.519531 568.082031 351.765625 567.394531 C 360.03125 566.703125 361.449219 566.210938 362.214844 566.46875 C 362.984375 566.722656 366.371094 569.144531 371.09375 570.761719 C 375.816406 572.375 381.644531 572.414062 391.957031 570.78125 C 402.25 569.144531 432.1875 572.097656 439.449219 571.332031 C 446.730469 570.5625 459.996094 571.625 459.996094 571.625 C 459.996094 571.625 465.488281 572.316406 468.421875 572.628906 C 471.375 572.945312 476.039062 572.691406 476.964844 569.183594 C 477.910156 565.699219 476.292969 564.675781 475.289062 563.632812 C 474.289062 562.570312 473.714844 560.757812 472.652344 559.085938 C 471.589844 557.429688 466.730469 554.714844 463.5 554.28125 C 460.273438 553.847656 456.535156 553.570312 451.59375 553.511719 C 446.652344 553.453125 423.625 552.191406 421.539062 550.855469 C 419.453125 549.515625 422.070312 543.46875 422.167969 542.09375 C 422.265625 540.714844 424.097656 533.230469 426.953125 529.097656 C 429.824219 524.941406 439.765625 515.886719 445.472656 508.089844 C 451.179688 500.292969 452.753906 491.609375 452.753906 491.609375 C 455.3125 481.585938 455.195312 470.363281 452.832031 463.570312 C 450.472656 456.757812 442.421875 446.796875 442.421875 446.796875 C 442.421875 446.796875 444.765625 441.046875 446.890625 438.644531 C 448.996094 436.242188 453.128906 432.875 453.917969 431.59375 C 454.703125 430.335938 454.074219 433.742188 453.738281 434.332031 C 453.382812 434.921875 460.746094 425.964844 460.746094 425.964844 C 460.746094 425.964844 460.765625 428.621094 460.53125 429.3125 C 460.273438 430.019531 461.984375 427.480469 463.460938 423.917969 C 464.9375 420.351562 465.09375 419.644531 464.9375 417.695312 C 464.761719 415.746094 466.492188 418.835938 467.144531 419.683594 C 467.792969 420.550781 467.28125 414.898438 469.269531 405.761719 C 471.257812 396.625 478.558594 387.253906 481.414062 376.03125 C 484.265625 364.808594 484.738281 353.921875 484.738281 353.921875 C 484.738281 353.921875 486.648438 354.351562 489.835938 355.417969 C 493.023438 356.460938 500.640625 359.769531 505.148438 360.910156 C 509.65625 362.050781 505.445312 362.367188 504.144531 363.390625 C 502.847656 364.414062 506.546875 364.078125 507.984375 363.765625 C 509.441406 363.46875 508.75 364.433594 507.53125 365.675781 C 506.328125 366.914062 511.898438 364.671875 513.515625 363.253906 C 515.148438 361.835938 513.554688 365.496094 513.414062 365.910156 C 513.296875 366.304688 514.242188 365.773438 516.566406 363.273438 C 518.886719 360.792969 524.554688 354.375 530.65625 351.636719 C 536.777344 348.917969 540.164062 347.109375 547.898438 340.214844 C 555.632812 333.324219 571.734375 316.628906 574.726562 314.601562 C 577.71875 312.574219 578.367188 313.539062 585.175781 312.492188 C 591.988281 311.449219 594.015625 310.070312 595.648438 310.089844 C 597.28125 310.089844 609.742188 312.632812 609.742188 312.632812 C 609.742188 312.632812 608.027344 313.734375 604.582031 316.136719 C 601.140625 318.539062 596.710938 322.003906 592.953125 327.4375 C 589.191406 332.871094 587.402344 343.464844 588.621094 357.9375 C 589.820312 372.410156 603.953125 401.371094 606.277344 407.457031 C 608.597656 413.539062 616.117188 450.496094 620.25 461.109375 C 624.382812 471.703125 636.054688 489.382812 636.566406 490.9375 C 637.058594 492.496094 638.671875 495.78125 638.574219 502.714844 C 638.476562 509.644531 639.265625 508.777344 640.25 513.542969 C 641.230469 518.308594 639.402344 518.289062 639.246094 521.734375 C 639.105469 525.199219 639.183594 525.394531 639.183594 525.394531 C 639.183594 525.394531 638.515625 526.261719 637.21875 527.304688 C 635.917969 528.328125 622.554688 535.535156 620.742188 536.617188 C 618.933594 537.722656 617.476562 538.015625 615.742188 537.996094 C 614.011719 537.976562 613.875 537.148438 611.984375 537.722656 C 610.113281 538.3125 599.664062 540.398438 594.683594 541.582031 C 589.703125 542.742188 584.683594 545.851562 585.925781 549.929688 C 587.164062 554.003906 593.03125 554.734375 602.554688 557.035156 C 612.082031 559.359375 633.28125 559.457031 639.875 558.492188 C 646.46875 557.546875 657.902344 557.234375 657.902344 557.234375 C 657.902344 557.234375 664.121094 564.320312 671.621094 566.488281 C 679.121094 568.652344 694.984375 569.085938 705.613281 564.558594 C 716.242188 560.007812 742.183594 552.507812 749.503906 548.433594 C 756.828125 544.375 776.054688 542.289062 787.804688 539.058594 C 799.554688 535.832031 819.21875 527.660156 820.949219 527.777344 C 822.683594 527.894531 822.878906 529.136719 826.070312 530.496094 C 829.238281 531.851562 830.457031 530.496094 830.457031 530.496094 C 830.457031 530.496094 831.027344 531.144531 832.347656 533.902344 C 833.6875 536.636719 835.988281 535.792969 835.199219 541.046875 C 834.414062 546.304688 827.367188 546.503906 827.269531 552.113281 C 827.171875 557.726562 826.914062 558.414062 835.871094 561.503906 C 844.824219 564.597656 859.175781 565.128906 865.433594 563.023438 C 871.691406 560.914062 880.253906 554.082031 881.023438 544.769531 C 881.789062 535.4375 877.105469 532.445312 872.519531 518.445312 C 867.914062 504.445312 866.910156 481.625 863.601562 472.195312 C 860.316406 462.78125 858.484375 462.546875 858.484375 462.546875 C 858.484375 462.546875 865.394531 452.9375 868.464844 444.292969 C 871.535156 435.632812 871.101562 433.171875 871.140625 432.558594 C 871.179688 431.949219 873.601562 414.070312 873.679688 413.046875 C 873.757812 412.023438 875.039062 406.824219 874.152344 397.886719 C 873.265625 388.949219 869.527344 381.425781 869.960938 381.152344 C 870.375 380.875 872.617188 378.175781 872.65625 377.664062 C 872.695312 377.152344 870.964844 374.179688 868.738281 369.730469 C 866.515625 365.28125 864.960938 349.863281 862.304688 338.757812 C 859.648438 327.65625 853.566406 314.167969 853.839844 313.359375 C 854.097656 312.550781 853.230469 306.171875 850.023438 294.003906 C 846.8125 281.835938 843.960938 270.613281 843.507812 268.230469 C 843.074219 265.847656 842.40625 263.566406 841.578125 253.820312 C 840.75 244.074219 842.011719 233.558594 842.835938 227.691406 C 843.664062 221.824219 842.859375 221.667969 841.28125 208.101562 C 839.707031 194.515625 833.960938 163.800781 830.457031 154.464844 C 830.101562 153.519531 829.652344 152.617188 829.160156 151.75 C 829.570312 144.246094 827.171875 134.597656 816.207031 125.363281 C 793.925781 106.5625 802.292969 86.832031 792.078125 68.480469 C 782.375 51.039062 779.164062 58.382812 776.273438 53.339844 C 776.546875 52.199219 776.765625 51.058594 776.667969 49.894531 C 776.46875 47.433594 774.875 45.171875 772.59375 44.207031 C 771.726562 43.832031 770.917969 43.613281 770.152344 43.535156 C 769.070312 38.910156 767.238281 33.21875 764.207031 27.707031 C 757.632812 15.695312 756.355469 13.570312 741.433594 6.894531 C 726.515625 0.21875 712.480469 2.425781 702.246094 4.335938 C 692.011719 6.242188 672.644531 15.519531 668.707031 20.539062 C 664.773438 25.558594 665.816406 29.617188 665.597656 29.910156 C 665.382812 30.207031 663.117188 34.636719 664.871094 39.953125 C 666.621094 45.289062 667.507812 45.03125 667.507812 45.03125 C 667.507812 45.03125 666.722656 53.144531 666.503906 58.933594 C 666.289062 64.722656 668.394531 69.367188 669.457031 70.472656 C 669.457031 70.472656 670.066406 72.144531 672.289062 74.09375 C 674.515625 76.042969 675.222656 75.789062 676.34375 76.851562 C 677.449219 77.914062 678.195312 78.761719 678.195312 78.761719 C 678.195312 78.761719 675.5 79.902344 674.457031 79.84375 C 674.871094 80.019531 675.539062 80.257812 676.207031 80.296875 C 677.585938 80.394531 678.882812 80.097656 678.882812 80.097656 C 678.882812 80.097656 680.085938 81.359375 680.242188 81.773438 C 680.417969 82.1875 680.558594 82.777344 681.128906 84.609375 C 681.699219 86.4375 681.03125 92.917969 680.378906 96.421875 C 679.730469 99.945312 679.0625 102.367188 682.230469 103.570312 C 685.417969 104.789062 688.449219 103.726562 688.746094 103.84375 C 689.019531 103.960938 690.203125 105.539062 690.082031 107.210938 C 689.964844 108.886719 689.925781 109.277344 690.96875 109.851562 C 692.011719 110.421875 692.976562 110.796875 692.859375 111.070312 C 692.742188 111.347656 692.425781 112.824219 693.214844 114.359375 C 694 115.894531 695.496094 115.5 695.792969 115.617188 C 696.085938 115.738281 696.972656 115.617188 697.425781 119.105469 C 697.859375 122.589844 698.132812 125.679688 705.277344 128.082031 C 712.421875 130.484375 721.671875 124.027344 723.445312 122.863281 C 725.214844 121.703125 727.855469 122 730.765625 124.085938 C 733.679688 126.171875 735.472656 131.449219 735.351562 131.726562 C 735.234375 132.019531 725.335938 136.449219 717.933594 138.773438 C 710.554688 141.117188 711.496094 141.667969 707.621094 148.914062 C 703.742188 156.160156 698.882812 174.292969 696.265625 183.09375 C 693.644531 191.894531 684.59375 210.542969 684.101562 207.921875 C 683.589844 205.324219 684.277344 205.558594 683 199.832031 C 681.738281 194.101562 681.894531 182.246094 681.894531 179.472656 C 681.894531 176.714844 680.125 169.746094 680.125 169.746094 C 680.125 169.746094 681.875 165.925781 682.488281 158.835938 C 683.097656 151.769531 683.902344 148.636719 685.988281 144.148438 C 688.097656 139.660156 687.625 137.179688 687.800781 134.621094 C 687.976562 132.058594 688.15625 131.191406 686.089844 127.078125 C 684.023438 122.984375 685.003906 113.453125 681.640625 115.558594 C 681.226562 115.816406 680.871094 116.128906 680.578125 116.503906 C 680.695312 115.421875 680.773438 114.222656 680.890625 113.039062 C 681.285156 109.042969 677.410156 105.636719 676.1875 105.085938 C 676.1875 105.085938 674.574219 104.652344 673.3125 104.96875 C 672.054688 105.28125 672.507812 106.1875 671.757812 109.789062 C 671.308594 111.898438 671.976562 113.628906 672.824219 115.027344 C 670.480469 114.96875 668.886719 117.292969 668.609375 117.527344 C 668.296875 117.804688 665.777344 115.441406 662.507812 116.878906 C 659.300781 118.296875 660.167969 122.273438 660.246094 122.472656 C 660.109375 122.390625 657.707031 119.714844 654.046875 121.464844 C 650.246094 123.257812 651.132812 128.96875 651.132812 128.96875 C 651.132812 128.96875 647.746094 127.570312 646.132812 129.324219 C 644.519531 131.09375 645.679688 136.527344 646.015625 141.492188 C 646.351562 146.453125 652.863281 169.429688 652.214844 170.179688 C 651.566406 170.925781 651.625 172.894531 651.703125 174.492188 C 651.78125 176.085938 652.234375 178.191406 652.390625 182.738281 C 652.550781 187.289062 650.996094 208.945312 647.726562 221.371094 C 644.460938 233.792969 646.703125 250.667969 649.046875 262.109375 C 651.386719 273.546875 656.527344 281.738281 656.527344 281.738281 L 653.394531 281.207031 C 653.394531 281.207031 640.917969 278.824219 637.75 278.980469 C 634.578125 279.160156 629.738281 279.101562 627.75 280.539062 C 625.761719 281.976562 619.226562 283.570312 619.226562 283.570312 C 619.226562 283.570312 615.960938 279.574219 613.519531 280.398438 C 611.097656 281.207031 612.417969 284.671875 612.417969 284.671875 C 612.417969 284.671875 611.277344 285.28125 609.089844 285.519531 C 606.886719 285.753906 594.878906 285.183594 592.203125 285.382812 C 589.527344 285.578125 580.277344 283.628906 573.800781 287.113281 C 567.324219 290.597656 554.789062 298.496094 544.21875 303.871094 C 533.648438 309.246094 520.621094 310.367188 518.730469 310.445312 C 516.859375 310.503906 513.652344 309.679688 511.015625 307.710938 C 508.378906 305.738281 506.863281 303.554688 502.492188 295.519531 C 498.121094 287.488281 492.730469 278.707031 492.652344 275.734375 C 492.570312 272.761719 491.035156 270.574219 490.132812 268.230469 C 489.207031 265.890625 486.253906 263.015625 483.972656 260.472656 C 481.6875 257.933594 481.609375 256.140625 479.976562 252.675781 C 478.339844 249.191406 478.085938 246.121094 478.085938 239.089844 C 478.085938 232.0625 481.117188 222.984375 483.675781 220.601562 C 486.214844 218.21875 490.859375 218.160156 496.09375 218.339844 C 501.3125 218.515625 506.152344 221.429688 511.898438 222.632812 C 517.648438 223.832031 521.289062 219.855469 521.289062 219.855469 C 521.289062 219.855469 521.722656 220.683594 522.351562 221.707031 C 522.960938 222.75 524.4375 224.324219 525.125 218.851562 C 525.816406 213.355469 525.363281 214.125 521.917969 211.113281 C 518.472656 208.101562 506.761719 202.015625 505.976562 201.761719 C 505.207031 201.503906 514.539062 200.894531 517.863281 199.949219 C 521.191406 199.003906 526.996094 195.261719 529.496094 192.09375 C 531.996094 188.902344 534.335938 183.84375 534.335938 183.84375 C 534.335938 183.84375 534.457031 182.167969 535.222656 181.144531 C 535.992188 180.121094 536.445312 175.199219 534.378906 173.566406 C 532.332031 171.929688 515.679688 169.546875 507.453125 167.285156 C 499.226562 165 488.734375 162.183594 486.765625 159.566406 C 484.777344 156.945312 485.78125 155.550781 483.558594 153.304688 C 481.351562 151.078125 477.691406 149.820312 468.597656 146.984375 C 459.503906 144.148438 443.25 146.335938 437.699219 147.832031 C 432.148438 149.308594 429.882812 149.25 425.710938 152.398438 C 421.539062 155.550781 408.585938 167.777344 404.21875 176.460938 C 399.847656 185.140625 400.929688 190.558594 400.890625 191.148438 C 400.851562 191.738281 399.082031 202.585938 398.53125 204.613281 C 398 206.664062 396.246094 209.007812 390.753906 223.242188 C 385.285156 237.476562 386.425781 240.921875 386.03125 244.859375 C 385.65625 248.777344 384.59375 255.335938 382.015625 259.410156 C 379.4375 263.488281 370.324219 277.542969 365.347656 287.585938 C 360.367188 297.609375 352.316406 324.328125 344.109375 335.589844 C 335.882812 346.871094 323.933594 367.171875 318.285156 383.964844 C 312.617188 400.761719 311.335938 410.371094 310.039062 423.03125 C 308.738281 435.691406 299.46875 460.046875 296.378906 468.710938 C 293.289062 477.394531 291.066406 501.257812 290.632812 510.019531 C 290.199219 518.800781 290.535156 533.25 290.535156 533.25 C 290.535156 533.25 287.816406 535.238281 286.617188 536.816406 C 285.417969 538.410156 281.222656 541.679688 277.5625 543.292969 C 273.882812 544.90625 268.960938 546.128906 258.570312 546.167969 C 248.195312 546.207031 232.863281 547.683594 232.863281 547.683594 L 234.105469 548.472656 C 234.105469 548.472656 230.265625 549.671875 225.011719 549.890625 C 219.757812 550.105469 197.476562 550.578125 197.160156 550.753906 C 196.847656 550.933594 199.464844 551.71875 200.152344 551.859375 C 200.839844 552.015625 173.796875 555.402344 161.554688 560.640625 C 149.3125 565.898438 146.578125 568.160156 144.3125 569.578125 C 142.03125 570.996094 145.394531 569.558594 153.113281 569.519531 Z M 767.257812 75.511719 C 767.296875 73.03125 767.554688 70.570312 767.90625 68.246094 C 769.089844 68.679688 770.367188 68.835938 771.589844 68.601562 C 772.710938 68.402344 773.753906 67.851562 774.578125 67.066406 C 778.457031 71.710938 781.390625 79.941406 778.179688 94.53125 C 776.507812 102.09375 777.316406 107.25 779.125 111.445312 C 775.523438 106.976562 771.546875 101.621094 771.136719 100.554688 C 770.542969 98.980469 767.0625 86.378906 767.238281 75.492188 Z M 679.335938 120.265625 C 678.902344 124.144531 680.242188 128.8125 679.925781 129.460938 C 679.632812 130.109375 678.472656 124.203125 676.855469 119.8125 C 677.171875 119.949219 677.546875 120.089844 678.019531 120.265625 C 678.570312 120.460938 678.984375 120.460938 679.335938 120.265625 Z M 716.242188 288.511719 C 716.144531 289.929688 710.160156 287.804688 707.128906 286.109375 C 704.078125 284.417969 699.609375 284.929688 694.769531 284.789062 C 689.925781 284.652344 679.316406 282.40625 679.316406 282.40625 C 680.8125 282.308594 687.210938 278.332031 687.722656 277.09375 C 688.234375 275.871094 689.652344 273.84375 692.445312 270.261719 C 695.242188 266.65625 702.304688 256.398438 702.304688 256.398438 C 702.304688 256.398438 704.53125 257.621094 708.171875 265.910156 C 711.792969 274.199219 716.359375 287.09375 716.261719 288.511719 Z M 664.890625 399.601562 C 664.890625 399.601562 665.027344 399.679688 665.1875 399.777344 C 668.492188 401.941406 697.328125 423.542969 712.816406 430.648438 C 728.996094 438.09375 741 441.597656 741 441.597656 C 741 441.597656 708.722656 462.410156 700.96875 467.566406 C 693.214844 472.726562 688.902344 476.585938 688.902344 476.585938 C 688.902344 476.585938 685.066406 462.09375 682.328125 453.824219 C 679.574219 445.535156 680.929688 448.152344 676.816406 437.542969 C 672.703125 426.929688 669.300781 416.097656 667.46875 410.664062 C 665.636719 405.230469 664.910156 399.601562 664.910156 399.601562 Z M 631.332031 312.550781 L 635.03125 311.136719 C 636.132812 310.582031 651.839844 303.476562 654.144531 303.851562 C 655.855469 304.125 664.695312 303.277344 669.613281 304.894531 C 676.070312 306.074219 672.742188 305.582031 672.742188 305.582031 C 672.742188 305.582031 672.882812 306.527344 673.019531 307.90625 C 680.597656 310.484375 710.140625 317.886719 713.464844 318.480469 C 717.421875 319.1875 721.632812 319.285156 722.027344 319.9375 C 722.402344 320.605469 724.152344 343.109375 722.304688 345.511719 C 720.433594 347.914062 709.863281 342.285156 703.820312 338.265625 C 701.480469 336.710938 695.457031 333.816406 688.566406 330.726562 C 688.546875 330.941406 688.527344 331.0625 688.527344 331.0625 C 688.527344 331.0625 682.78125 328.402344 676.070312 325.273438 C 669.101562 322.300781 662.921875 319.796875 660.460938 318.871094 C 654.085938 316.511719 631.351562 312.550781 631.351562 312.550781 Z M 631.332031 312.550781 " fill-opacity="1" fill-rule="nonzero"/></svg>