<svg xmlns="http://www.w3.org/2000/svg" xmlns:xlink="http://www.w3.org/1999/xlink" width="1366" zoomAndPan="magnify" viewBox="0 0 1024.5 1012.5" height="1350" preserveAspectRatio="xMidYMid meet" version="1.0"><defs><clipPath id="6ccf7bfae6"><path d="M 200 3.75 L 826.59375 3.75 L 826.59375 819 L 200 819 Z M 200 3.75 " clip-rule="nonzero"/></clipPath><clipPath id="775307d77f"><path d="M 1.507812 899.554688 L 1023.492188 899.554688 L 1023.492188 1007.003906 L 1.507812 1007.003906 Z M 1.507812 899.554688 " clip-rule="nonzero"/></clipPath></defs><g clip-path="url(#6ccf7bfae6)"><path fill="#ffffff" d="M 512.949219 818.707031 C 508.15625 818.707031 503.355469 816.90625 500.359375 813.308594 L 205.390625 509.875 C 199.992188 505.074219 198.796875 497.277344 201.191406 490.683594 C 204.191406 484.085938 210.785156 479.289062 217.980469 479.289062 L 390.644531 479.289062 L 390.644531 21.734375 C 390.644531 11.542969 399.039062 3.75 408.628906 3.75 L 617.269531 3.75 C 627.457031 3.75 635.25 11.542969 635.25 21.734375 L 635.25 479.289062 L 808.519531 479.289062 C 815.710938 479.289062 822.308594 484.085938 824.707031 490.683594 C 827.703125 497.277344 825.902344 505.074219 821.105469 509.875 L 526.136719 813.308594 C 522.542969 816.90625 517.742188 818.707031 512.949219 818.707031 Z M 512.949219 818.707031 " fill-opacity="1" fill-rule="nonzero"/></g><g clip-path="url(#775307d77f)"><path fill="#ffffff" d="M 970.988281 1007.003906 L 54.910156 1007.003906 C 25.535156 1007.003906 1.554688 983.019531 1.554688 953.628906 C 1.554688 923.648438 25.535156 899.660156 54.910156 899.660156 L 970.988281 899.660156 C 1000.964844 899.660156 1024.945312 923.648438 1024.945312 953.628906 C 1024.945312 983.019531 1000.964844 1007.003906 970.988281 1007.003906 Z M 970.988281 1007.003906 " fill-opacity="1" fill-rule="nonzero"/></g></svg>