<svg xmlns="http://www.w3.org/2000/svg" xmlns:xlink="http://www.w3.org/1999/xlink" width="1366" zoomAndPan="magnify" viewBox="0 0 1024.5 576" height="768" preserveAspectRatio="xMidYMid meet" version="1.0"><defs><clipPath id="ccb0ea1c71"><path d="M 133.238281 0.140625 L 891.117188 0.140625 L 891.117188 575.859375 L 133.238281 575.859375 Z M 133.238281 0.140625 " clip-rule="nonzero"/></clipPath></defs><g clip-path="url(#ccb0ea1c71)"><path fill="#211d1d" d="M 538.511719 284.855469 C 523.507812 298.148438 500.875 298.148438 485.871094 284.863281 L 228.191406 56.472656 L 796.191406 56.472656 Z M 639.023438 306.21875 L 600.648438 347.121094 L 784.691406 519.644531 L 237.601562 519.644531 L 412.285156 346.410156 L 372.78125 306.597656 L 189.367188 488.5 L 189.367188 96.996094 L 448.644531 326.808594 C 466.164062 342.34375 488.738281 350.894531 512.191406 350.894531 C 535.648438 350.894531 558.214844 342.34375 575.734375 326.808594 L 835.03125 96.988281 L 835.03125 489.957031 Z M 807.355469 0.398438 L 217.03125 0.398438 C 170.839844 0.398438 133.265625 37.960938 133.265625 84.132812 L 133.265625 491.996094 C 133.265625 538.160156 170.839844 575.71875 217.03125 575.71875 L 807.355469 575.71875 C 853.546875 575.71875 891.128906 538.160156 891.128906 491.996094 L 891.128906 84.132812 C 891.128906 37.960938 853.546875 0.398438 807.355469 0.398438 " fill-opacity="1" fill-rule="nonzero"/></g></svg>