<svg xmlns="http://www.w3.org/2000/svg" xmlns:xlink="http://www.w3.org/1999/xlink" width="1366" zoomAndPan="magnify" viewBox="0 0 1024.5 654.75" height="873" preserveAspectRatio="xMidYMid meet" version="1.0"><defs><clipPath id="6954323cea"><path d="M 0.00390625 0.0351562 L 1023.996094 0.0351562 L 1023.996094 654.464844 L 0.00390625 654.464844 Z M 0.00390625 0.0351562 " clip-rule="nonzero"/></clipPath><clipPath id="a72ab1ec0c"><path d="M 176 7.25 L 400 7.25 L 400 133 L 176 133 Z M 176 7.25 " clip-rule="nonzero"/></clipPath><clipPath id="cc57c865a2"><path d="M 624 7.25 L 848 7.25 L 848 133 L 624 133 Z M 624 7.25 " clip-rule="nonzero"/></clipPath><clipPath id="96c2ed1472"><path d="M 172 519 L 400 519 L 400 647.4375 L 172 647.4375 Z M 172 519 " clip-rule="nonzero"/></clipPath><clipPath id="a96f2a0315"><path d="M 624 519 L 852 519 L 852 647.4375 L 624 647.4375 Z M 624 519 " clip-rule="nonzero"/></clipPath><clipPath id="bbf16dd7e3"><path d="M 0 7.25 L 388 7.25 L 388 200 L 0 200 Z M 0 7.25 " clip-rule="nonzero"/></clipPath><clipPath id="cf9d19d8b3"><path d="M 0 455 L 384 455 L 384 647.4375 L 0 647.4375 Z M 0 455 " clip-rule="nonzero"/></clipPath><clipPath id="67fe3f2069"><path d="M 640 455 L 1024 455 L 1024 647.4375 L 640 647.4375 Z M 640 455 " clip-rule="nonzero"/></clipPath><clipPath id="83e473cc49"><path d="M 636 7.25 L 1024 7.25 L 1024 200 L 636 200 Z M 636 7.25 " clip-rule="nonzero"/></clipPath><clipPath id="2b4ebb65f0"><path d="M 0 7.25 L 1024 7.25 L 1024 647.4375 L 0 647.4375 Z M 0 7.25 " clip-rule="nonzero"/></clipPath></defs><g clip-path="url(#6954323cea)"><path stroke-linecap="butt" transform="matrix(0.749634, 0, 0, 0.749634, 0.00465578, 0.0347701)" fill="none" stroke-linejoin="miter" d="M -0.000999867 0.00051513 L 1365.988223 0.00051513 L 1365.988223 874.421834 L -0.000999867 874.421834 Z M -0.000999867 0.00051513 " stroke="#ffffff" stroke-width="52" stroke-opacity="1" stroke-miterlimit="4"/></g><g clip-path="url(#a72ab1ec0c)"><path fill="#ffffff" d="M 400 7.25 L 176 7.25 L 400 132.050781 Z M 400 7.25 " fill-opacity="1" fill-rule="nonzero"/></g><g clip-path="url(#cc57c865a2)"><path fill="#ffffff" d="M 624 7.25 L 624 132.050781 L 848 7.25 Z M 624 7.25 " fill-opacity="1" fill-rule="nonzero"/></g><path fill="#ffffff" d="M 0 138.449219 L 0 199.25 L 108.800781 199.25 Z M 0 138.449219 " fill-opacity="1" fill-rule="nonzero"/><path fill="#ffffff" d="M 0 455.25 L 0 516.050781 L 108.800781 455.25 Z M 0 455.25 " fill-opacity="1" fill-rule="nonzero"/><g clip-path="url(#96c2ed1472)"><path fill="#ffffff" d="M 400 647.25 L 400 519.25 L 172.800781 647.25 Z M 400 647.25 " fill-opacity="1" fill-rule="nonzero"/></g><g clip-path="url(#a96f2a0315)"><path fill="#ffffff" d="M 624 647.25 L 851.199219 647.25 L 624 519.25 Z M 624 647.25 " fill-opacity="1" fill-rule="nonzero"/></g><path fill="#ffffff" d="M 1024 199.25 L 1024 138.449219 L 915.199219 199.25 Z M 1024 199.25 " fill-opacity="1" fill-rule="nonzero"/><path fill="#ffffff" d="M 1024 516.050781 L 1024 455.25 L 915.199219 455.25 Z M 1024 516.050781 " fill-opacity="1" fill-rule="nonzero"/><g clip-path="url(#bbf16dd7e3)"><path fill="#ffffff" d="M 387.199219 199.25 L 44.800781 7.25 L 0 7.25 L 0 64.851562 L 240 199.25 Z M 387.199219 199.25 " fill-opacity="1" fill-rule="nonzero"/></g><g clip-path="url(#cf9d19d8b3)"><path fill="#ffffff" d="M 240 455.25 L 0 589.648438 L 0 647.25 L 44.800781 647.25 L 384 455.25 Z M 240 455.25 " fill-opacity="1" fill-rule="nonzero"/></g><g clip-path="url(#67fe3f2069)"><path fill="#ffffff" d="M 640 455.25 L 979.199219 647.25 L 1024 647.25 L 1024 589.648438 L 784 455.25 Z M 640 455.25 " fill-opacity="1" fill-rule="nonzero"/></g><g clip-path="url(#83e473cc49)"><path fill="#ffffff" d="M 979.199219 7.25 L 636.800781 199.25 L 784 199.25 L 1024 64.851562 L 1024 7.25 Z M 979.199219 7.25 " fill-opacity="1" fill-rule="nonzero"/></g><g clip-path="url(#2b4ebb65f0)"><path fill="#ffffff" d="M 576 7.25 L 448 7.25 L 448 263.25 L 0 263.25 L 0 391.25 L 448 391.25 L 448 647.25 L 576 647.25 L 576 391.25 L 1024 391.25 L 1024 263.25 L 576 263.25 Z M 576 7.25 " fill-opacity="1" fill-rule="nonzero"/></g></svg>