<svg xmlns="http://www.w3.org/2000/svg" xmlns:xlink="http://www.w3.org/1999/xlink" width="1366" zoomAndPan="magnify" viewBox="0 0 1024.5 1026" height="1368" preserveAspectRatio="xMidYMid meet" version="1.0"><defs><clipPath id="19216e03de"><path d="M 0 0.25 L 1024 0.25 L 1024 1024.25 L 0 1024.25 Z M 0 0.25 " clip-rule="nonzero"/></clipPath></defs><g clip-path="url(#19216e03de)"><path fill="#000000" d="M 512 0.25 C 229.234375 0.25 0 229.484375 0 512.25 C 0 795.015625 229.234375 1024.25 512 1024.25 C 794.765625 1024.25 1024 795.015625 1024 512.25 C 1024 229.484375 794.765625 0.25 512 0.25 Z M 881.777344 512.25 C 881.777344 585.210938 860.359375 653.050781 823.894531 710.367188 L 313.914062 200.386719 C 371.199219 163.890625 439.039062 142.472656 512 142.472656 C 716.230469 142.472656 881.777344 308.046875 881.777344 512.25 Z M 142.222656 512.25 C 142.222656 439.289062 163.640625 371.449219 200.136719 314.164062 L 710.117188 824.144531 C 652.800781 860.609375 584.960938 882.027344 512 882.027344 C 307.796875 882.027344 142.222656 716.480469 142.222656 512.25 Z M 142.222656 512.25 " fill-opacity="1" fill-rule="nonzero"/></g></svg>