<svg xmlns="http://www.w3.org/2000/svg" xmlns:xlink="http://www.w3.org/1999/xlink" width="1366" zoomAndPan="magnify" viewBox="0 0 1024.5 2019" height="2692" preserveAspectRatio="xMidYMid meet" version="1.0"><defs><clipPath id="db9487fdaf"><path d="M 4.570312 0.492188 L 1024 0.492188 L 1024 2018.507812 L 4.570312 2018.507812 Z M 4.570312 0.492188 " clip-rule="nonzero"/></clipPath><clipPath id="237f5ff36c"><path d="M 647.9375 2018.507812 L 250.410156 2018.507812 L 250.410156 996.148438 L 4.640625 996.148438 L 4.640625 658.925781 L 250.410156 658.925781 L 250.410156 550.53125 C 250.410156 369.433594 292.042969 232.492188 375.308594 139.710938 C 459.46875 46.933594 594.664062 0.542969 780.894531 0.542969 C 814.917969 0.542969 856.101562 2.773438 904.449219 7.230469 C 953.691406 10.800781 993.535156 14.816406 1023.976562 19.277344 L 1023.976562 352.484375 C 1009.652344 350.699219 988.164062 348.914062 959.515625 347.128906 C 931.757812 344.453125 910.269531 343.113281 895.050781 343.113281 C 807.304688 343.113281 744.183594 360.957031 705.6875 396.644531 C 667.1875 432.328125 647.9375 493.882812 647.9375 581.3125 L 647.9375 658.925781 L 1015.917969 658.925781 L 971.601562 996.148438 L 647.9375 996.148438 Z M 647.9375 2018.507812 " clip-rule="nonzero"/></clipPath></defs><g clip-path="url(#db9487fdaf)"><g clip-path="url(#237f5ff36c)"><path fill="#485e7d" d="M 4.640625 0.542969 L 4.640625 2018.507812 L 1023.976562 2018.507812 L 1023.976562 0.542969 Z M 4.640625 0.542969 " fill-opacity="1" fill-rule="nonzero"/></g></g></svg>