<svg xmlns="http://www.w3.org/2000/svg" xmlns:xlink="http://www.w3.org/1999/xlink" width="1366" zoomAndPan="magnify" viewBox="0 0 1024.5 1022.25" height="1363" preserveAspectRatio="xMidYMid meet" version="1.0"><defs><clipPath id="397776d578"><path d="M 0.125 0.738281 L 1023.875 0.738281 L 1023.875 1020.738281 L 0.125 1020.738281 Z M 0.125 0.738281 " clip-rule="nonzero"/></clipPath></defs><g clip-path="url(#397776d578)"><path fill="#000000" d="M 1023.988281 512.679688 C 1023.988281 229.921875 794.804688 0.738281 512.09375 0.738281 C 229.378906 0.738281 0.148438 229.921875 0.148438 512.679688 C 0.148438 752.753906 165.421875 954.230469 388.402344 1009.550781 L 388.402344 669.128906 L 282.816406 669.128906 L 282.816406 512.679688 L 388.402344 512.679688 L 388.402344 445.273438 C 388.402344 271.042969 467.246094 190.269531 638.308594 190.269531 C 670.746094 190.269531 726.710938 196.609375 749.59375 202.996094 L 749.59375 344.789062 C 737.507812 343.503906 716.511719 342.859375 690.457031 342.859375 C 606.511719 342.859375 574.074219 374.65625 574.074219 457.3125 L 574.074219 512.632812 L 741.277344 512.632812 L 712.558594 669.082031 L 574.074219 669.082031 L 574.074219 1020.808594 C 827.566406 990.207031 1023.988281 774.347656 1023.988281 512.632812 Z M 1023.988281 512.679688 " fill-opacity="1" fill-rule="nonzero"/></g></svg>