<svg xmlns="http://www.w3.org/2000/svg" xmlns:xlink="http://www.w3.org/1999/xlink" width="1366" zoomAndPan="magnify" viewBox="0 0 1024.5 576" height="768" preserveAspectRatio="xMidYMid meet" version="1.0"><defs><clipPath id="4d45b0a4bb"><path d="M 183.019531 6 L 733 6 L 733 551 L 183.019531 551 Z M 183.019531 6 " clip-rule="nonzero"/></clipPath></defs><path fill="#ffcd99" d="M 443.09375 558.628906 C 445.878906 561.414062 449.835938 556.871094 447.050781 553.9375 C 442.652344 549.394531 438.253906 544.847656 433.855469 540.304688 C 431.511719 540.746094 429.019531 541.183594 426.527344 541.625 C 432.097656 547.195312 437.667969 552.914062 443.09375 558.628906 Z M 443.09375 558.628906 " fill-opacity="1" fill-rule="nonzero"/><path fill="#ffcd99" d="M 496.457031 119.257812 C 497.628906 117.941406 498.800781 116.472656 499.828125 115.15625 C 491.617188 104.746094 482.675781 95.070312 473 85.6875 C 462.152344 75.277344 450.714844 65.457031 438.988281 55.925781 C 426.378906 45.8125 413.625 35.84375 399.84375 27.339844 C 386.796875 19.277344 372.722656 12.679688 357.476562 10.332031 C 359.234375 10.039062 360.996094 9.894531 362.753906 9.746094 C 416.703125 17.222656 460.683594 53.726562 495.136719 94.191406 C 498.949219 98.589844 502.761719 103.132812 506.425781 107.679688 C 507.597656 106.796875 508.769531 106.066406 510.089844 105.480469 C 492.644531 81.289062 473.144531 59.152344 449.542969 40.828125 C 434.589844 29.246094 418.023438 19.570312 400.429688 12.679688 C 432.832031 20.300781 462.003906 39.652344 486.195312 62.085938 C 499.242188 74.105469 511.554688 88.324219 519.765625 104.453125 C 522.257812 104.890625 524.75 105.773438 526.949219 107.089844 C 522.257812 95.804688 515.367188 85.101562 507.453125 75.71875 C 497.777344 64.136719 486.78125 53.875 474.90625 44.492188 C 460.390625 33.054688 444.703125 22.792969 427.699219 15.316406 C 407.613281 6.519531 385.476562 1.683594 363.632812 3.148438 C 341.644531 0.21875 319.066406 1.832031 297.953125 8.867188 C 272.300781 17.371094 251.335938 34.230469 236.820312 56.953125 C 204.421875 107.824219 203.101562 173.503906 216.589844 230.53125 C 222.894531 256.921875 232.421875 282.429688 243.710938 307.058594 C 245.472656 305.738281 247.230469 304.273438 249.136719 302.953125 C 242.246094 287.707031 235.941406 272.019531 230.8125 256.1875 C 222.308594 230.238281 216.738281 202.675781 215.417969 175.261719 C 216.148438 189.921875 218.347656 204.582031 221.429688 218.65625 C 227.878906 247.539062 238.433594 275.246094 250.164062 302.21875 C 250.601562 301.925781 251.042969 301.488281 251.480469 301.195312 C 252.65625 300.023438 253.679688 298.847656 254.855469 297.675781 C 247.523438 280.667969 240.925781 263.515625 235.355469 245.925781 C 217.617188 190.070312 212.632812 126.003906 243.859375 73.664062 C 259.398438 47.570312 285.492188 27.046875 314.667969 18.984375 C 298.542969 29.390625 285.347656 44.34375 275.964844 61.351562 C 270.6875 66.777344 266.140625 72.785156 262.476562 78.796875 C 241.21875 112.957031 239.460938 156.058594 244.296875 194.90625 C 248.257812 226.425781 256.757812 256.773438 268.488281 285.800781 C 270.246094 284.480469 272.152344 283.164062 274.058594 281.988281 C 265.261719 260.144531 258.371094 237.421875 253.972656 214.257812 C 246.789062 176.582031 244.589844 134.945312 259.542969 98.734375 C 261.011719 95.214844 262.625 91.699219 264.53125 88.328125 C 256.171875 114.714844 254.707031 143.15625 256.464844 170.570312 C 258.371094 201.210938 263.355469 231.851562 270.539062 261.613281 C 272.152344 268.0625 273.910156 274.511719 275.671875 280.964844 C 277.578125 279.9375 279.484375 278.910156 281.390625 278.175781 C 274.644531 253.988281 269.515625 229.503906 266.140625 204.582031 C 261.890625 172.328125 259.691406 139.199219 266.140625 107.089844 C 269.074219 92.285156 274.207031 77.625 281.535156 64.429688 C 285.199219 60.617188 289.160156 56.953125 293.410156 53.875 C 308.511719 42.585938 325.664062 37.308594 344.28125 36.136719 C 346.1875 35.988281 346.480469 32.910156 344.429688 32.617188 C 326.542969 29.976562 308.949219 35.988281 293.703125 46.105469 C 298.835938 39.800781 304.699219 34.082031 311.148438 29.097656 C 319.066406 23.085938 327.570312 18.394531 336.660156 15.316406 C 350 14.585938 363.488281 16.636719 376.535156 21.914062 C 391.929688 28.21875 405.707031 38.042969 418.902344 48.011719 C 430.632812 56.804688 442.210938 65.894531 453.207031 75.425781 C 468.894531 88.914062 483.554688 103.425781 496.457031 119.257812 Z M 334.753906 9.160156 C 334.460938 9.308594 334.164062 9.308594 333.871094 9.453125 C 329.328125 9.746094 324.929688 10.480469 320.386719 11.359375 C 295.316406 16.636719 272.152344 29.976562 254.851562 48.890625 C 237.554688 67.800781 226.558594 90.378906 220.695312 114.421875 C 222.894531 104.890625 225.824219 95.507812 229.492188 86.273438 C 239.898438 60.179688 256.613281 37.015625 281.683594 23.234375 C 298.394531 14 317.304688 9.453125 336.363281 8.574219 C 335.777344 8.71875 335.339844 9.011719 334.753906 9.160156 Z M 334.753906 9.160156 " fill-opacity="1" fill-rule="nonzero"/><path fill="#ffcd99" d="M 826.460938 190.949219 C 826.167969 190.363281 826.019531 189.777344 825.726562 189.1875 C 823.527344 179.074219 820.15625 169.25 815.320312 159.867188 C 792.007812 113.980469 742.308594 83.339844 691.4375 79.53125 C 641.445312 75.863281 591.75 94.628906 553.339844 126.003906 C 546.59375 130.253906 540.144531 135.09375 533.988281 140.078125 C 533.253906 144.035156 532.226562 147.992188 530.90625 151.953125 C 531.640625 152.097656 532.519531 151.804688 532.8125 151.074219 C 538.382812 145.355469 544.394531 139.929688 550.550781 134.800781 C 576.648438 117.5 606.117188 105.773438 637.488281 100.933594 C 628.839844 102.839844 620.480469 105.773438 612.566406 109.875 C 608.3125 112.074219 604.355469 114.421875 600.542969 117.207031 C 598.933594 118.378906 600.542969 120.578125 602.304688 119.699219 C 637.046875 100.054688 677.804688 100.496094 715.480469 110.464844 C 731.019531 114.566406 746.5625 120.140625 760.929688 127.617188 C 764.300781 131.425781 767.085938 135.679688 769.429688 140.222656 C 779.988281 160.75 780.867188 185.230469 777.496094 207.660156 C 773.390625 235.371094 763.128906 261.90625 749.347656 286.386719 C 721.34375 336.085938 679.417969 376.109375 638.074219 414.664062 C 597.613281 452.34375 555.539062 488.992188 508.769531 518.753906 C 503.054688 522.417969 497.1875 526.082031 491.617188 529.894531 C 489.125 531.65625 491.179688 536.347656 494.109375 534.878906 C 507.011719 528.578125 519.03125 520.367188 530.761719 512.304688 C 542.34375 504.238281 553.777344 495.882812 564.773438 487.085938 C 587.496094 469.347656 609.195312 450.289062 630.453125 430.792969 C 673.699219 391.207031 717.828125 350.601562 748.761719 300.316406 C 763.859375 275.832031 775.734375 249.003906 781.746094 220.710938 C 786.730469 197.253906 787.902344 171.890625 779.988281 148.875 C 779.839844 148.582031 779.695312 148.140625 779.695312 147.847656 C 791.714844 169.984375 794.648438 196.078125 791.570312 221.441406 C 786.585938 262.492188 767.820312 301.632812 744.65625 335.5 C 719.734375 371.855469 688.359375 403.230469 654.789062 431.523438 C 622.828125 458.5 588.960938 483.714844 554.363281 507.027344 C 535.453125 519.78125 515.953125 531.800781 495.722656 542.503906 C 485.605469 547.929688 475.199219 553.058594 464.644531 557.605469 C 457.019531 551.152344 449.394531 544.703125 441.917969 537.957031 C 439.425781 538.691406 436.933594 539.277344 434.296875 539.863281 C 442.066406 546.902344 449.984375 553.792969 458.046875 560.242188 C 457.753906 560.390625 457.605469 560.390625 457.3125 560.535156 C 457.605469 560.683594 457.898438 560.976562 458.046875 561.269531 C 459.367188 562.734375 460.832031 564.054688 462.445312 565.375 C 462.738281 565.226562 462.882812 565.226562 463.175781 565.082031 C 463.324219 564.933594 463.617188 564.933594 463.761719 564.789062 C 467.867188 567.867188 471.972656 570.945312 476.078125 573.875 C 478.863281 575.78125 482.234375 571.972656 479.597656 569.917969 C 476.371094 567.28125 473.144531 564.789062 469.921875 562.148438 C 470.800781 561.707031 471.828125 561.269531 472.707031 560.828125 C 471.09375 562.148438 472.558594 565.082031 474.90625 564.492188 C 506.277344 557.015625 535.746094 541.183594 563.601562 525.203125 C 592.480469 508.636719 620.777344 491.046875 648.484375 472.71875 C 704.046875 435.921875 756.96875 392.820312 792.15625 335.207031 C 811.652344 303.394531 826.898438 264.542969 828.660156 225.988281 C 831.589844 249.296875 829.390625 273.339844 822.648438 295.625 C 808.429688 342.976562 776.027344 382.707031 740.992188 416.425781 C 707.125 449.117188 670.035156 478.4375 628.691406 501.015625 C 623.707031 503.800781 618.578125 506.292969 613.59375 509.078125 C 612.125 509.8125 613.445312 512.15625 614.910156 511.570312 C 637.488281 504.09375 658.597656 490.898438 677.949219 477.265625 C 697.890625 463.335938 716.507812 447.503906 734.394531 431.085938 C 771.777344 396.78125 806.667969 357.195312 824.699219 309.109375 C 838.921875 271.726562 840.972656 228.917969 826.460938 190.949219 Z M 729.703125 108.703125 C 718.265625 105.039062 706.246094 101.960938 694.078125 100.054688 C 698.621094 100.640625 703.3125 101.375 707.859375 102.253906 C 719.292969 104.453125 730.726562 107.53125 741.136719 112.664062 C 737.324219 111.195312 733.515625 109.875 729.703125 108.703125 Z M 765.914062 123.65625 C 764.886719 122.484375 763.859375 121.3125 762.835938 120.285156 C 753.160156 110.316406 740.257812 104.304688 727.210938 100.347656 C 704.632812 93.457031 680.441406 91.257812 656.839844 92.578125 C 636.902344 93.75 617.109375 97.855469 598.050781 104.453125 C 621.65625 93.015625 647.3125 86.128906 673.554688 85.246094 C 723.835938 83.636719 774.417969 107.824219 802.5625 150.046875 C 803.738281 151.804688 804.761719 153.566406 805.9375 155.324219 C 802.417969 151.074219 798.460938 146.96875 794.355469 143.15625 C 785.703125 135.386719 776.175781 129.082031 765.914062 123.65625 Z M 822.503906 227.160156 C 820.597656 259.117188 810.039062 290.34375 795.085938 318.492188 C 764.152344 376.402344 713.867188 420.53125 660.652344 457.328125 C 634.261719 475.652344 606.847656 492.511719 579.285156 509.078125 C 552.3125 525.351562 524.605469 540.449219 495.28125 552.179688 C 488.539062 554.816406 481.796875 557.605469 474.90625 560.242188 C 480.476562 557.605469 486.046875 554.964844 491.617188 552.179688 C 510.382812 542.503906 528.707031 531.800781 546.449219 520.367188 C 582.804688 496.910156 617.988281 470.8125 651.414062 443.253906 C 686.015625 414.664062 718.707031 383.292969 744.949219 346.640625 C 769.578125 312.191406 790.25 272.3125 796.847656 230.089844 C 801.539062 200.476562 799.484375 165.292969 781.453125 140.515625 C 796.699219 151.804688 808.722656 166.613281 816.929688 183.765625 C 818.105469 186.257812 819.128906 188.601562 820.15625 191.09375 C 822.355469 202.675781 823.234375 214.84375 822.503906 227.160156 Z M 822.503906 227.160156 " fill-opacity="1" fill-rule="nonzero"/><g clip-path="url(#4d45b0a4bb)"><path fill="#000000" d="M 723.835938 204.144531 C 717.386719 199.453125 709.175781 198.570312 701.554688 199.597656 C 703.3125 197.984375 705.21875 196.226562 707.125 194.761719 C 714.160156 188.894531 722.226562 183.910156 728.96875 177.753906 C 729.703125 177.019531 728.96875 175.554688 727.941406 175.847656 C 719.292969 178.632812 711.375 184.644531 704.484375 190.363281 C 697.15625 196.371094 690.414062 203.117188 684.253906 210.300781 C 678.246094 217.484375 672.820312 225.105469 667.980469 233.023438 C 665.636719 236.980469 663.4375 241.085938 661.53125 245.339844 C 659.625 249.441406 657.425781 253.839844 656.398438 258.09375 C 647.019531 259.707031 637.636719 264.984375 631.039062 270.261719 C 619.164062 279.789062 609.632812 294.890625 608.609375 310.429688 C 605.382812 309.109375 601.863281 308.523438 598.492188 308.671875 C 589.257812 309.257812 581.339844 314.683594 575.035156 320.984375 C 567.851562 328.023438 562.28125 336.671875 558.46875 346.054688 C 555.242188 354.117188 552.75 364.085938 553.925781 373.03125 C 553.191406 373.03125 552.457031 373.03125 551.726562 373.03125 C 532.519531 373.324219 516.6875 387.542969 508.917969 404.109375 C 505.691406 410.855469 503.492188 418.039062 501.734375 425.367188 C 500.5625 426.246094 499.535156 427.125 498.507812 428.007812 C 496.015625 429.910156 493.378906 431.523438 490.445312 432.84375 C 484.875 435.042969 478.570312 435.921875 472.707031 434.898438 C 466.550781 433.871094 461.125 430.5 455.847656 427.273438 C 451.886719 424.78125 447.34375 421.554688 442.652344 420.382812 C 451.59375 414.226562 454.234375 402.789062 447.492188 393.554688 C 444.410156 389.449219 439.71875 385.929688 434.441406 385.636719 C 432.242188 385.492188 429.457031 386.078125 427.257812 387.398438 C 427.40625 386.957031 427.699219 386.515625 427.84375 386.078125 C 429.605469 382.707031 432.097656 379.773438 434.589844 376.988281 C 439.71875 371.125 445.144531 365.699219 450.714844 360.421875 C 456.433594 355.144531 462.445312 350.304688 468.601562 345.761719 C 471.535156 343.5625 474.613281 341.511719 477.542969 339.605469 C 480.621094 337.550781 484.140625 335.644531 486.632812 332.714844 C 487.660156 331.542969 486.632812 329.929688 485.167969 330.222656 C 477.835938 331.6875 470.800781 337.84375 464.9375 342.097656 C 458.339844 346.933594 452.035156 352.066406 446.171875 357.636719 C 440.160156 363.207031 434.441406 369.070312 429.3125 375.230469 C 424.179688 381.386719 420.957031 387.984375 421.25 396.191406 C 421.25 396.339844 421.25 396.339844 421.25 396.488281 C 417.4375 402.9375 415.382812 410.558594 417.289062 417.597656 C 418.609375 422.433594 422.566406 426.6875 427.699219 427.125 C 431.804688 427.566406 435.324219 424.925781 438.546875 422.582031 C 441.1875 424.339844 444.117188 425.808594 446.902344 427.566406 C 447.492188 428.007812 448.222656 428.445312 448.808594 428.886719 C 450.714844 430.5 452.621094 432.257812 454.527344 433.871094 C 459.367188 437.535156 465.082031 440.320312 470.945312 441.640625 C 471.09375 441.640625 471.386719 441.785156 471.535156 441.785156 C 464.351562 452.050781 452.328125 459.085938 440.894531 463.484375 C 431.21875 467.148438 420.957031 469.347656 410.691406 470.519531 C 408.492188 470.519531 406.148438 470.519531 403.949219 470.375 C 403.800781 470.375 403.507812 470.375 403.363281 470.375 C 397.9375 470.082031 392.515625 469.347656 387.089844 468.46875 C 382.25 467.734375 377.414062 466.417969 372.574219 465.535156 C 373.015625 464.511719 373.308594 463.628906 373.601562 462.605469 C 374.1875 460.40625 371.988281 459.085938 370.082031 459.964844 C 367.003906 461.285156 363.632812 462.457031 360.261719 463.335938 C 362.167969 458.644531 360.554688 452.636719 355.863281 449.851562 C 354.984375 449.261719 353.8125 449.851562 353.519531 450.875 C 352.929688 452.636719 351.90625 453.953125 350.585938 455.128906 C 349.121094 448.382812 343.988281 442.960938 338.125 439.148438 C 336.660156 437.976562 335.191406 436.800781 333.726562 435.628906 C 330.5 434.164062 327.570312 432.550781 325.957031 429.324219 C 325.664062 428.886719 325.515625 428.300781 325.371094 427.859375 C 325.222656 426.980469 324.929688 425.953125 324.785156 424.925781 C 324.050781 419.941406 323.609375 415.105469 324.195312 410.121094 C 324.34375 408.066406 324.636719 406.164062 325.078125 404.109375 C 327.421875 394.875 333.433594 387.542969 340.175781 381.09375 C 346.921875 374.640625 354.691406 369.363281 361.582031 363.0625 C 367.886719 357.488281 375.363281 350.597656 378.148438 342.390625 C 378.585938 341.65625 379.027344 340.777344 379.464844 340.042969 C 380.492188 338.429688 381.664062 337.113281 381.957031 335.207031 C 382.105469 334.621094 381.664062 334.179688 381.078125 334.328125 C 378.148438 335.207031 376.679688 338.578125 375.214844 341.070312 C 372.136719 344.734375 369.351562 348.546875 365.980469 351.917969 C 362.167969 355.730469 357.914062 358.957031 353.519531 362.179688 C 345.601562 368.191406 337.539062 374.054688 330.941406 381.53125 C 324.488281 388.714844 319.652344 397.21875 318.773438 406.894531 C 318.332031 411.585938 318.773438 416.425781 319.945312 421.117188 C 318.625 419.796875 317.304688 418.476562 316.132812 417.011719 C 313.203125 413.199219 311.296875 408.800781 310.269531 404.257812 C 308.070312 393.699219 312.46875 382.851562 317.304688 373.761719 C 321.703125 365.113281 327.421875 357.195312 334.164062 350.304688 C 337.246094 347.082031 340.46875 344.003906 343.84375 341.21875 C 344.136719 340.777344 344.429688 340.484375 344.867188 340.191406 C 350.292969 336.085938 355.570312 331.835938 360.847656 327.582031 C 369.203125 320.839844 379.027344 313.507812 384.746094 304.125 C 385.476562 302.953125 383.863281 301.78125 382.839844 302.660156 C 381.8125 303.539062 380.785156 304.566406 379.757812 305.445312 C 377.707031 307.058594 375.949219 308.816406 374.042969 310.578125 C 371.550781 312.921875 369.058594 315.121094 366.417969 317.320312 C 370.378906 310.285156 374.480469 303.394531 379.171875 296.796875 C 387.675781 284.773438 397.351562 273.632812 407.90625 263.371094 C 419.34375 252.230469 432.097656 242.847656 444.703125 233.171875 C 456.875 223.789062 468.308594 213.820312 479.15625 202.96875 C 521.820312 160.308594 554.804688 109.289062 597.027344 66.1875 C 608.460938 54.460938 620.628906 43.464844 633.824219 33.789062 C 647.164062 23.96875 661.53125 16.488281 675.898438 8.28125 C 676.632812 7.839844 676.191406 6.667969 675.3125 6.960938 C 661.53125 11.210938 648.921875 19.128906 637.046875 27.191406 C 625.175781 35.253906 614.03125 44.34375 603.328125 54.019531 C 581.339844 74.105469 561.988281 96.976562 543.222656 119.992188 C 540.289062 123.65625 537.359375 127.324219 534.425781 130.839844 C 537.796875 121.164062 536.917969 110.167969 528.269531 103.28125 C 523.578125 99.46875 517.421875 98.292969 511.847656 100.789062 C 505.546875 103.574219 501.148438 109.730469 496.457031 114.421875 C 474.613281 136.558594 449.984375 155.761719 423.007812 171.449219 C 396.914062 186.695312 368.324219 197.398438 343.402344 214.699219 C 330.648438 223.496094 320.09375 234.34375 309.683594 245.777344 C 298.394531 258.09375 286.078125 269.234375 273.179688 279.789062 C 245.910156 301.925781 218.054688 325.675781 184.191406 336.671875 C 183.019531 337.113281 183.457031 339.019531 184.777344 338.578125 C 212.925781 331.101562 237.113281 314.683594 259.839844 297.089844 C 266.875 291.664062 273.910156 286.242188 280.800781 280.667969 C 289.011719 275.097656 296.488281 268.207031 303.527344 261.464844 C 313.054688 252.375 322.292969 242.992188 332.261719 234.488281 C 352.785156 217.042969 376.828125 204.875 400.285156 191.976562 C 406.734375 188.457031 413.332031 184.792969 419.636719 180.832031 C 439.867188 169.691406 459.070312 156.789062 476.957031 141.984375 C 483.261719 136.707031 489.273438 131.28125 495.136719 125.5625 C 500.707031 120.140625 505.691406 113.835938 511.703125 108.996094 C 518.445312 103.574219 526.65625 106.945312 529.882812 114.566406 C 533.105469 122.632812 529 131.722656 526.363281 139.34375 C 526.214844 139.636719 526.214844 139.785156 526.214844 140.078125 C 526.214844 140.078125 526.214844 140.222656 526.070312 140.222656 C 524.898438 142.570312 522.992188 144.914062 521.964844 147.40625 C 509.503906 162.652344 496.894531 177.609375 483.261719 191.828125 C 472.707031 202.824219 461.5625 213.378906 449.691406 222.90625 C 436.789062 233.316406 423.152344 242.554688 410.839844 253.546875 C 398.523438 264.542969 387.53125 276.710938 377.707031 289.90625 C 373.308594 295.769531 368.910156 302.074219 364.953125 308.523438 C 363.046875 311.308594 361.289062 313.949219 359.382812 316.734375 C 357.035156 320.253906 354.835938 323.769531 352.34375 327.289062 C 351.023438 329.195312 349.558594 330.808594 347.945312 332.421875 C 345.308594 334.035156 342.960938 335.9375 340.761719 337.699219 C 336.511719 340.925781 332.554688 344.441406 329.035156 348.253906 C 321.410156 356.316406 315.109375 365.699219 310.417969 375.816406 C 305.578125 386.371094 302.207031 397.953125 305.726562 409.386719 C 306.605469 412.027344 307.628906 414.519531 309.097656 416.863281 C 306.898438 420.53125 305.433594 424.78125 303.671875 428.59375 C 302.207031 431.816406 300.742188 435.042969 301.179688 438.5625 C 301.765625 443.839844 307.925781 448.089844 313.347656 447.210938 C 313.640625 448.675781 314.375 449.996094 315.546875 451.460938 C 321.851562 459.085938 339.882812 459.085938 346.628906 451.167969 C 347.800781 453.074219 348.53125 455.421875 348.679688 457.914062 C 348.828125 459.085938 349.851562 459.820312 351.023438 459.234375 C 353.519531 458.058594 355.277344 456.300781 356.449219 454.101562 C 359.234375 457.179688 358.941406 462.3125 355.570312 465.097656 C 354.398438 466.125 355.277344 468.320312 356.890625 468.320312 C 360.554688 468.027344 364.074219 467.441406 367.445312 466.5625 C 366.273438 468.027344 366.710938 469.933594 368.617188 470.667969 C 375.949219 473.308594 383.277344 475.066406 390.902344 476.09375 C 411.71875 479.464844 433.710938 478.4375 452.769531 468.910156 C 463.175781 463.632812 472.414062 456.152344 479.742188 447.066406 C 480.914062 446.039062 482.089844 444.867188 483.261719 443.691406 C 485.167969 443.691406 486.925781 443.546875 488.832031 443.253906 C 492.203125 442.667969 496.894531 441.199219 499.535156 438.414062 C 498.507812 446.332031 498.800781 454.394531 503.054688 461.285156 C 504.226562 463.191406 507.011719 461.578125 506.132812 459.527344 C 502.027344 450.875 502.90625 441.199219 504.664062 432.109375 C 504.8125 431.523438 504.957031 430.9375 504.957031 430.351562 C 504.957031 430.351562 504.957031 430.207031 505.105469 430.207031 C 505.398438 427.273438 505.984375 424.339844 507.011719 421.410156 C 507.15625 421.261719 507.15625 420.96875 507.304688 420.824219 C 508.625 416.425781 510.089844 412.027344 511.996094 407.921875 C 519.03125 393.113281 532.082031 379.480469 549.378906 378.160156 C 558.324219 377.429688 568.292969 380.214844 570.492188 390.035156 C 572.398438 398.6875 569.171875 408.066406 565.507812 415.839844 C 561.988281 423.609375 557.734375 431.085938 554.65625 439 C 551.578125 446.917969 549.234375 455.128906 546.300781 463.191406 C 546.300781 463.191406 546.15625 463.335938 546.15625 463.335938 C 546.007812 464.363281 545.566406 465.390625 545.128906 466.417969 C 541.902344 474.1875 537.945312 481.515625 532.226562 487.820312 C 532.226562 487.820312 532.082031 487.96875 532.082031 487.96875 C 526.949219 491.925781 522.257812 496.324219 517.128906 499.988281 C 509.503906 505.558594 501.585938 510.691406 493.523438 515.382812 C 485.460938 520.074219 477.105469 524.472656 468.601562 528.429688 C 462.445312 531.363281 455.992188 533.707031 449.835938 536.492188 C 445.4375 537.664062 441.039062 538.691406 436.496094 539.425781 C 426.527344 541.039062 416.265625 540.890625 406.292969 540.304688 C 386.503906 539.132812 366.710938 536.492188 347.066406 533.855469 C 308.511719 528.871094 261.304688 522.273438 228.757812 549.101562 C 227.878906 549.832031 229.050781 551.300781 230.078125 550.714844 C 231.105469 550.128906 231.984375 549.539062 233.007812 548.953125 C 237.699219 548.074219 242.246094 546.609375 246.789062 545.289062 C 252.65625 543.675781 258.519531 542.0625 264.527344 540.890625 C 277.285156 538.253906 290.332031 537.371094 303.378906 537.371094 C 315.988281 537.371094 328.449219 538.253906 340.910156 539.277344 C 347.214844 539.71875 353.371094 540.15625 359.675781 540.597656 C 362.167969 540.746094 364.953125 541.039062 367.738281 541.332031 C 383.132812 543.238281 398.671875 544.996094 414.066406 545.289062 C 434.296875 545.730469 453.207031 541.476562 471.679688 533.5625 C 489.859375 525.789062 507.15625 515.820312 522.40625 503.359375 C 529.441406 497.644531 536.039062 491.191406 541.316406 483.714844 C 544.835938 478.585938 547.472656 472.867188 549.820312 467.148438 C 565.652344 460.113281 579.578125 448.96875 590.136719 435.191406 C 591.308594 433.722656 592.480469 432.109375 593.507812 430.5 C 593.945312 429.914062 594.386719 429.179688 594.828125 428.59375 C 600.25 420.238281 604.0625 411.292969 606.996094 401.910156 C 607.289062 401.910156 607.582031 401.765625 607.875 401.617188 C 612.273438 398.980469 615.496094 394.726562 618.871094 391.0625 C 622.535156 387.105469 626.347656 383.144531 630.011719 379.1875 C 636.316406 372.589844 642.472656 365.847656 648.335938 358.808594 C 660.359375 344.296875 669.300781 328.460938 674.726562 310.429688 C 677.363281 301.339844 679.855469 291.957031 681.46875 282.722656 C 682.347656 277.589844 682.203125 272.605469 680.003906 268.355469 C 684.988281 266.304688 689.824219 263.808594 694.808594 261.757812 C 700.382812 259.414062 705.953125 257.214844 711.082031 254.132812 C 720.171875 248.855469 728.824219 241.234375 731.609375 230.679688 C 734.101562 220.710938 731.902344 210.007812 723.835938 204.144531 Z M 439.28125 414.957031 C 435.46875 418.476562 428.433594 421.847656 423.449219 419.355469 C 421.980469 417.011719 421.542969 413.933594 421.542969 411.148438 C 421.6875 405.28125 423.59375 399.125 426.527344 393.847656 C 429.75 392.234375 432.097656 390.183594 436.054688 391.355469 C 440.160156 392.527344 443.53125 396.191406 445.144531 400.152344 C 445.292969 400.445312 445.4375 400.882812 445.585938 401.179688 C 445 403.082031 444.851562 405.136719 444.265625 407.1875 C 443.238281 410.121094 441.480469 412.757812 439.28125 414.957031 Z M 313.347656 436.363281 C 310.855469 438.121094 308.070312 438.5625 305.136719 439.148438 C 304.550781 438.414062 304.113281 437.390625 304.113281 436.363281 C 304.113281 434.164062 305.285156 431.671875 306.164062 429.765625 C 307.484375 426.394531 309.242188 423.023438 310.417969 419.503906 C 311.003906 420.53125 311.734375 421.410156 312.46875 422.289062 C 314.226562 424.488281 316.574219 426.980469 319.210938 428.738281 C 319.210938 428.738281 319.210938 428.886719 319.066406 428.886719 C 317.746094 431.671875 315.988281 434.457031 313.347656 436.363281 Z M 340.324219 446.625 C 340.175781 446.773438 339.882812 446.917969 339.589844 447.210938 C 338.710938 447.652344 337.683594 448.089844 336.660156 448.382812 C 335.046875 448.96875 333.433594 449.410156 331.820312 449.558594 C 328.742188 450.144531 325.222656 450.144531 321.996094 449.703125 C 321.117188 449.265625 320.238281 448.675781 319.503906 447.945312 C 315.839844 443.984375 321.410156 437.390625 323.757812 433.871094 C 323.757812 433.722656 323.902344 433.722656 324.050781 433.578125 C 325.371094 435.484375 326.980469 437.242188 329.328125 438.5625 C 332.992188 440.613281 336.804688 442.082031 340.324219 444.132812 C 340.761719 444.574219 341.203125 444.867188 341.644531 445.304688 C 340.910156 445.453125 340.46875 445.890625 340.324219 446.625 Z M 606.554688 383.730469 C 603.035156 400.445312 598.050781 415.691406 587.9375 429.617188 C 586.175781 431.964844 584.269531 434.308594 582.367188 436.65625 C 579.285156 439.441406 576.0625 442.226562 572.691406 444.71875 C 568.878906 447.652344 564.917969 450.4375 560.816406 453.074219 C 558.175781 454.6875 555.390625 456.300781 552.898438 458.058594 C 555.976562 448.96875 558.761719 439.882812 563.015625 431.230469 C 567.117188 422.875 571.664062 414.664062 574.007812 405.574219 C 575.914062 397.953125 576.648438 388.863281 572.101562 382.121094 C 568.585938 376.839844 562.574219 374.347656 556.417969 373.617188 C 557.296875 365.847656 557.882812 358.222656 560.523438 350.746094 C 563.453125 342.535156 567.851562 334.914062 573.714844 328.609375 C 579.433594 322.453125 586.761719 316.441406 594.972656 314.535156 C 603.183594 312.628906 612.566406 316 614.617188 324.796875 C 615.644531 328.902344 614.910156 333.445312 614.472656 337.699219 C 613.738281 343.121094 613.003906 348.695312 612.125 354.117188 C 610.511719 363.941406 608.609375 373.761719 606.554688 383.730469 Z M 674.871094 287.121094 C 672.964844 295.625 670.914062 303.980469 668.273438 312.191406 C 664.023438 325.382812 657.574219 337.113281 649.511719 348.105469 C 648.777344 348.988281 647.898438 349.867188 647.164062 350.746094 C 643.058594 355.144531 638.953125 359.394531 634.703125 363.648438 C 630.890625 367.460938 627.078125 371.269531 623.269531 375.082031 C 622.386719 375.960938 621.507812 376.839844 620.628906 377.574219 C 617.402344 380.652344 614.03125 383.878906 610.808594 386.957031 C 611.246094 385.34375 611.539062 383.585938 611.980469 381.972656 C 614.324219 370.683594 616.378906 359.394531 618.136719 347.960938 C 619.457031 338.871094 622.535156 327.875 618.136719 319.226562 C 616.523438 316.148438 614.179688 313.65625 611.246094 311.894531 C 614.03125 298.847656 619.457031 287.121094 629.425781 277.738281 C 634.410156 273.046875 640.273438 269.089844 646.578125 266.597656 C 653.761719 263.664062 662.996094 261.171875 670.179688 264.984375 C 678.976562 269.675781 676.632812 279.058594 674.871094 287.121094 Z M 725.449219 233.757812 C 724.277344 236.101562 722.664062 238.300781 720.90625 240.355469 C 718.414062 242.257812 715.921875 244.3125 713.28125 245.777344 C 708.738281 248.5625 703.898438 250.910156 699.0625 252.960938 C 694.222656 255.015625 689.09375 256.625 683.960938 257.945312 C 680.148438 258.824219 675.75 259.117188 671.941406 260.144531 C 668.570312 258.386719 664.757812 257.800781 660.945312 257.800781 C 662.558594 254.574219 663.730469 251.054688 665.488281 247.832031 C 667.542969 243.871094 669.59375 239.914062 671.941406 236.101562 C 676.632812 228.039062 682.054688 220.5625 688.214844 213.527344 C 691.292969 209.859375 694.664062 206.34375 698.035156 202.96875 C 706.246094 203.261719 715.480469 203.261719 721.933594 208.394531 C 729.117188 214.550781 729.410156 225.695312 725.449219 233.757812 Z M 725.449219 233.757812 " fill-opacity="1" fill-rule="nonzero"/></g></svg>