<svg xmlns="http://www.w3.org/2000/svg" xmlns:xlink="http://www.w3.org/1999/xlink" width="1366" zoomAndPan="magnify" viewBox="0 0 1024.5 576" height="768" preserveAspectRatio="xMidYMid meet" version="1.0"><path fill="#ffffff" d="M 525.40625 553.695312 C 523.667969 555.808594 521.992188 557.96875 520.191406 560.011719 C 517.082031 563.527344 514.121094 567.214844 510.683594 570.378906 C 506.308594 574.402344 501.140625 575.90625 495.457031 572.992188 C 489.828125 570.113281 486.757812 565.804688 486.929688 559.105469 C 487.09375 553.035156 489.761719 547.945312 492.058594 542.660156 C 495.605469 534.519531 495.761719 534.417969 489.058594 528.820312 C 472.328125 514.828125 455.242188 501.265625 438.769531 486.984375 C 409.75 461.828125 382.457031 434.871094 357.332031 405.8125 C 333.324219 378.042969 309.460938 350.136719 286.121094 321.800781 C 269.992188 302.21875 255.304688 281.476562 243.667969 258.820312 C 229.222656 230.703125 218.746094 201.332031 215.027344 169.644531 C 213.179688 153.925781 212.355469 138.25 213.875 122.597656 C 216.460938 96.054688 226.582031 73.050781 248.304688 56.328125 C 257.136719 49.523438 267.0625 44.683594 277.976562 42.289062 C 281.796875 41.449219 284.257812 39.84375 286.480469 36.605469 C 294.757812 24.546875 305.367188 15.125 318.902344 9.160156 C 337.398438 1.007812 356.132812 0.148438 375.371094 6.378906 C 405.8125 16.238281 430.09375 34.621094 449.292969 59.84375 C 470.480469 87.667969 486.890625 118.171875 498.785156 151.082031 C 501.945312 159.835938 505.054688 168.605469 508.820312 179.121094 C 513.800781 169.9375 518.113281 162.152344 522.273438 154.292969 C 534.519531 131.109375 546.703125 107.894531 563.160156 87.285156 C 582.664062 62.863281 605.425781 42.109375 633.367188 27.8125 C 656.324219 16.066406 680.746094 9.324219 706.8125 13.332031 C 740.738281 18.546875 764.890625 37.542969 779.386719 68.34375 C 783.675781 77.457031 786.488281 87.527344 788.34375 97.464844 C 789.929688 106 792.4375 113.820312 796.5625 121.398438 C 809.363281 144.941406 811.746094 170.054688 806.960938 196.078125 C 799.5 236.683594 782.226562 273.109375 758.808594 306.714844 C 735.90625 339.574219 710.125 370.203125 684.191406 400.691406 C 668.8125 418.765625 653.453125 436.851562 637.738281 454.632812 C 617.082031 478.011719 596.042969 501.054688 575.289062 524.347656 C 570.535156 529.679688 566.386719 535.550781 561.726562 540.976562 C 554.226562 549.707031 545.277344 555.628906 533.09375 554.570312 C 530.910156 554.390625 528.722656 554.078125 525.40625 553.695312 Z M 630.046875 421.347656 C 630.597656 420.871094 631.136719 420.386719 631.683594 419.90625 C 632.296875 419.421875 632.90625 418.945312 633.515625 418.457031 C 636.203125 416.132812 639.09375 414.003906 641.535156 411.441406 C 652.394531 400.058594 663.285156 388.691406 673.863281 377.046875 C 701 347.175781 725.929688 315.609375 746.664062 280.875 C 762.433594 254.464844 775.640625 226.945312 781.9375 196.613281 C 784.011719 186.613281 786.738281 176.574219 785.640625 164.980469 C 784.726562 166.78125 784.269531 167.460938 784.019531 168.207031 C 783.488281 169.761719 783.027344 171.351562 782.585938 172.933594 C 773.855469 204.199219 760.96875 233.792969 744.269531 261.488281 C 730.917969 283.632812 716.238281 305.03125 701.179688 326.058594 C 681.75 353.199219 661.3125 379.609375 641.410156 406.410156 C 638.542969 410.269531 636.257812 414.558594 633.699219 418.65625 C 633.085938 419.132812 632.476562 419.609375 631.871094 420.078125 C 631.246094 420.574219 630.621094 421.066406 629.992188 421.558594 C 629.90625 421.644531 629.820312 421.722656 629.742188 421.808594 C 629.835938 421.660156 629.945312 421.503906 630.046875 421.347656 Z M 348.039062 358.710938 L 348.359375 358.984375 L 347.867188 358.804688 C 347.292969 358.320312 346.722656 357.824219 346.152344 357.339844 C 345.972656 356.3125 346.074219 355.117188 345.5625 354.285156 C 332.722656 333.390625 319.570312 312.679688 306.980469 291.640625 C 289.027344 261.628906 275.769531 229.582031 268.761719 195.28125 C 265.628906 179.933594 264.261719 164.195312 262.695312 148.578125 C 260.816406 129.839844 261.777344 111.085938 264.652344 92.5 C 265.992188 83.839844 268.183594 75.320312 269.984375 66.730469 L 270.367188 66.511719 L 270.109375 66.835938 C 258.746094 73.558594 252.96875 84.535156 248.992188 96.328125 C 241.28125 119.160156 242.296875 142.601562 246.359375 165.902344 C 251.558594 195.6875 262.167969 223.695312 275.699219 250.675781 C 288.203125 275.621094 302.703125 299.359375 318.910156 322.011719 C 327.546875 334.078125 337.1875 345.4375 346.371094 357.121094 C 346.933594 357.636719 347.488281 358.167969 348.039062 358.710938 Z M 449.683594 126.128906 C 449.714844 126.800781 449.746094 127.484375 449.769531 128.15625 C 449.964844 128.125 450.160156 128.085938 450.355469 128.054688 C 450.050781 127.476562 449.753906 126.894531 449.449219 126.316406 C 444.382812 117.5 439.792969 108.363281 434.148438 99.9375 C 424.183594 85.0625 413.839844 70.453125 399.355469 59.316406 C 386.691406 49.59375 372.9375 42.375 357.246094 39.296875 C 349.085938 37.699219 340.929688 38.027344 332.152344 42.695312 C 335.472656 43.886719 337.726562 44.589844 339.902344 45.488281 C 350.316406 49.796875 361.027344 53.539062 371.058594 58.621094 C 398.820312 72.707031 421.128906 93.4375 440.71875 117.34375 C 443.355469 120.578125 446.675781 123.222656 449.683594 126.128906 Z M 314.894531 57.875 C 308.425781 66.621094 304.582031 76.339844 301.757812 86.425781 C 295.023438 110.5 295.453125 134.960938 298.054688 159.578125 C 301.992188 196.878906 313.964844 231.664062 331.375 264.550781 C 348.8125 297.472656 369.484375 328.480469 390.625 359.101562 C 422.183594 404.820312 456.878906 448.054688 495.023438 488.480469 C 499.183594 492.878906 503.378906 497.320312 508.046875 501.148438 C 514.121094 506.128906 516.644531 505.640625 521.945312 499.707031 C 523.226562 498.265625 524.394531 496.722656 525.609375 495.214844 C 535.425781 482.9375 545.199219 470.621094 555.054688 458.382812 C 574.441406 434.3125 593.953125 410.347656 613.269531 386.222656 C 635.515625 358.445312 657.304688 330.3125 677.339844 300.863281 C 695.339844 274.414062 713.035156 247.785156 727.128906 218.949219 C 738.78125 195.109375 748.433594 170.570312 753.820312 144.496094 C 756.984375 129.175781 757.289062 113.898438 753.585938 98.566406 C 752.652344 94.722656 750.757812 92.335938 747.472656 90.332031 C 733.472656 81.796875 718.140625 77.820312 701.972656 76.832031 C 682.398438 75.632812 663.535156 79.234375 645.152344 85.867188 C 621.089844 94.542969 600.648438 108.902344 582.15625 126.167969 C 576.75 131.210938 571.492188 136.808594 567.691406 143.085938 C 561.296875 153.671875 555.902344 164.902344 550.476562 176.050781 C 542.402344 192.65625 535.324219 209.664062 529.828125 227.34375 C 527.566406 234.625 524.503906 241.9375 520.371094 248.3125 C 514.152344 257.902344 499.839844 259.078125 493.167969 250.824219 C 488.214844 244.695312 484.046875 237.835938 480.125 230.960938 C 473.570312 219.472656 467.925781 207.449219 461.121094 196.117188 C 442.910156 165.816406 423.335938 136.472656 398.695312 110.84375 C 381.777344 93.242188 363.367188 77.515625 341.429688 66.496094 C 333.167969 62.339844 324.535156 58.589844 314.894531 57.875 Z M 734.191406 65.691406 C 723.644531 55.035156 710.796875 49.011719 695.644531 48.441406 C 680.128906 47.855469 665.792969 52.648438 651.824219 58.777344 C 649.75 59.683594 647.851562 61.023438 645.878906 62.160156 C 675.65625 56.171875 704.902344 55.496094 734.191406 65.691406 Z M 734.191406 65.691406 " fill-opacity="1" fill-rule="nonzero"/></svg>