<svg xmlns="http://www.w3.org/2000/svg" xmlns:xlink="http://www.w3.org/1999/xlink" width="1366" zoomAndPan="magnify" viewBox="0 0 1024.5 1022.25" height="1363" preserveAspectRatio="xMidYMid meet" version="1.0"><defs><clipPath id="852816b41b"><path d="M 0.125 0 L 1023.875 0 L 1023.875 1021.5 L 0.125 1021.5 Z M 0.125 0 " clip-rule="nonzero"/></clipPath></defs><g clip-path="url(#852816b41b)"><path fill="#000000" d="M 299.871094 3.519531 C 245.429688 6.074219 208.25 14.804688 175.75 27.535156 C 142.089844 40.652344 113.589844 58.203125 85.238281 86.703125 C 56.835938 115.203125 39.378906 143.75 26.40625 177.457031 C 13.820312 210.054688 5.285156 247.234375 2.875 301.722656 C 0.464844 356.261719 -0.0664062 373.671875 0.175781 512.644531 C 0.414062 651.574219 1.042969 669.027344 3.644531 723.617188 C 6.25 778.058594 14.929688 815.191406 27.660156 847.738281 C 40.777344 881.398438 58.328125 909.847656 86.828125 938.25 C 115.328125 966.652344 143.875 984.0625 177.582031 997.082031 C 210.132812 1009.667969 247.359375 1018.25 301.800781 1020.613281 C 356.386719 1023.027344 373.796875 1023.554688 512.722656 1023.265625 C 651.699219 1023.027344 669.105469 1022.398438 723.695312 1019.792969 C 778.136719 1017.191406 815.265625 1008.460938 847.816406 995.78125 C 881.476562 982.617188 909.976562 965.109375 938.328125 936.613281 C 966.683594 908.113281 984.140625 879.566406 997.160156 845.859375 C 1009.746094 813.308594 1018.328125 776.082031 1020.691406 721.6875 C 1023.054688 667.101562 1023.632812 649.644531 1023.390625 510.71875 C 1023.152344 371.789062 1022.476562 354.382812 1019.921875 299.796875 C 1017.316406 245.304688 1008.636719 208.171875 995.90625 175.625 C 982.742188 141.964844 965.238281 113.515625 936.738281 85.113281 C 908.238281 56.757812 879.691406 39.253906 845.984375 26.28125 C 813.433594 13.695312 776.207031 5.113281 721.765625 2.75 C 667.179688 0.335938 649.722656 -0.191406 510.792969 0.046875 C 371.867188 0.289062 354.460938 0.917969 299.871094 3.519531 M 305.851562 928.460938 C 255.992188 926.292969 228.890625 918 210.808594 911.054688 C 186.890625 901.796875 169.867188 890.703125 151.878906 872.910156 C 133.941406 855.019531 122.851562 838 113.496094 814.175781 C 106.503906 796.140625 98.0625 769.089844 95.703125 719.179688 C 93.144531 665.269531 92.566406 649.066406 92.324219 512.453125 C 92.085938 375.890625 92.566406 359.6875 94.929688 305.726562 C 97.050781 255.863281 105.394531 228.765625 112.335938 210.730469 C 121.597656 186.8125 132.640625 169.789062 150.480469 151.800781 C 168.371094 133.863281 185.394531 122.773438 209.265625 113.417969 C 227.296875 106.378906 254.351562 97.988281 304.210938 95.625 C 358.171875 93.066406 374.328125 92.539062 510.9375 92.25 C 647.550781 91.960938 663.753906 92.441406 717.714844 94.851562 C 767.574219 97.023438 794.675781 105.269531 812.710938 112.261719 C 836.628906 121.519531 853.699219 132.511719 871.636719 150.402344 C 889.578125 168.292969 900.714844 185.269531 910.023438 209.1875 C 917.0625 227.171875 925.453125 254.273438 927.816406 304.085938 C 930.371094 358.046875 930.953125 374.25 931.191406 510.8125 C 931.433594 647.425781 930.953125 663.628906 928.589844 717.539062 C 926.417969 767.402344 918.125 794.550781 911.179688 812.585938 C 901.921875 836.457031 890.878906 853.527344 872.988281 871.464844 C 855.097656 889.355469 838.125 900.492188 814.207031 909.847656 C 796.21875 916.890625 769.117188 925.28125 719.304688 927.644531 C 665.34375 930.199219 649.191406 930.777344 512.53125 931.019531 C 375.964844 931.257812 359.765625 930.777344 305.804688 928.414062 M 722.96875 238.167969 C 723.019531 272.066406 750.601562 299.503906 784.453125 299.410156 C 818.351562 299.359375 845.792969 271.828125 845.742188 237.925781 C 845.695312 204.027344 818.113281 176.589844 784.210938 176.636719 C 750.3125 176.683594 722.875 204.265625 722.921875 238.121094 M 249.046875 512.164062 C 249.335938 657.261719 367.191406 774.636719 512.242188 774.347656 C 657.339844 774.054688 774.761719 656.25 774.472656 511.152344 C 774.183594 366.101562 656.328125 248.679688 511.230469 248.921875 C 366.175781 249.210938 248.757812 367.0625 249.046875 512.164062 M 341.199219 511.972656 C 341.054688 417.792969 417.246094 341.265625 511.421875 341.121094 C 605.597656 340.929688 682.125 417.117188 682.320312 511.34375 C 682.511719 605.519531 606.273438 682.050781 512.097656 682.195312 C 417.917969 682.386719 341.390625 606.148438 341.246094 511.972656 " fill-opacity="1" fill-rule="nonzero"/></g></svg>