<svg width="1366" height="994" viewBox="0 0 1366 994" fill="none" xmlns="http://www.w3.org/2000/svg">
<path d="M1084.69 335.552C1080.5 335.625 1073.75 335.625 1069.69 335.552C1065.62 335.473 1069.05 335.413 1077.3 335.413C1085.55 335.413 1088.87 335.473 1084.69 335.552Z" fill="#383838"/>
<path d="M1046.72 369.609C1046.64 373.418 1046.58 370.407 1046.58 362.913C1046.58 355.418 1046.64 352.301 1046.72 355.986C1046.8 359.671 1046.8 365.799 1046.72 369.609Z" fill="#383838"/>
<path d="M1085.38 390.504C1081.32 390.578 1074.46 390.578 1070.15 390.504C1065.83 390.426 1069.15 390.366 1077.53 390.366C1085.91 390.366 1089.44 390.426 1085.38 390.504Z" fill="#383838"/>
<path d="M967.679 647.25C966.663 647.347 965.108 647.347 964.217 647.25C963.326 647.149 964.157 647.07 966.063 647.07C967.969 647.07 968.694 647.149 967.679 647.25Z" fill="#383838"/>
<path d="M963.063 656.486C962.048 656.583 960.594 656.583 959.832 656.481C959.07 656.38 959.901 656.297 961.678 656.301C963.455 656.301 964.078 656.384 963.063 656.486Z" fill="#383838"/>
<path d="M971.833 656.486C970.817 656.583 969.363 656.583 968.602 656.481C967.84 656.38 968.671 656.297 970.448 656.301C972.225 656.301 972.848 656.384 971.833 656.486Z" fill="#383838"/>
<path d="M853.32 762.591C853.228 764.115 853.154 763.076 853.15 760.282C853.15 757.488 853.224 756.242 853.32 757.512C853.413 758.782 853.413 761.067 853.32 762.591Z" fill="#383838"/>
<path d="M306.597 579.931C306.915 579.917 308.522 578.776 310.174 577.4C311.822 576.024 312.435 576.21 312.5 576.201C312.565 576.197 314.248 579.978 316 583.201C318.137 586.438 321.934 593.701 323.297 596.201C325.078 599.469 326.189 602.099 327.46 605.107L327.5 605.201C328.783 608.249 330.526 612.278 331.5 615.201L331.523 615.27C332.491 618.189 333.854 622.301 334.5 625.201C335.155 628.124 336.358 635.275 337 638.701C337.646 642.128 338.869 650.836 340 658.201C341.131 665.567 342.984 678.701 344 686.281C345.14 694.787 347.821 715.684 350 732.701C352.179 749.718 354.86 770.944 356 779.201C357.14 787.453 358.975 800.235 360 806.201C361.025 812.168 362.14 818.915 362.5 821.201C362.86 823.487 363.732 828.262 364 832.201C364.342 837.184 364.332 840.38 364 845.201C363.737 849.011 363.017 854.45 362.5 857.374C361.983 860.297 361.151 864.037 360.5 866.448C359.849 868.858 358.502 872.728 357.5 875.268C356.498 877.808 355.812 880.348 355 881.701C354.183 883.054 353.386 883.656 352.5 884.201C351.226 884.986 350.962 885.558 347.5 885.701C344.855 885.812 342.48 885.181 339 884.701C334.32 884.055 330.534 884.281 328.286 884.701C326.763 884.988 324.015 885.716 323 886.201C321.985 886.686 319.375 888.977 318 890.201C316.629 891.425 314.435 894.294 313 896.201C311.56 898.104 308.177 902.762 305.5 906.701C302.828 910.64 299.654 916.169 298.5 918.201C297.346 920.233 296.239 923.049 295.658 924.448C295.076 925.848 294.5 927.201 294.5 927.201C294.5 927.201 293.668 927.21 291.827 927.21C289.985 927.215 288.66 926.873 288.66 926.873C288.66 926.873 284.072 926.619 281.788 926.3C279.503 925.986 276.337 925.335 274.749 924.855C273.161 924.379 272 923.701 272 923.701C272 923.701 270.211 923.003 269.325 922.37C268.333 921.659 267.941 920.836 267.941 920.836C267.941 920.836 266.556 919.124 265.979 917.983C265.24 916.515 264.931 915.097 264.931 913.135C264.931 911.611 265.268 909.223 265.679 907.824C266.094 906.425 267.216 903.723 268.176 901.821C269.131 899.914 271.425 896.071 273.267 893.278C275.109 890.484 277.417 887.108 278.395 885.774C279.554 884.19 280.5 883.201 280.5 883.201C281 882.701 281.275 881.987 282.194 880.694C283.048 879.489 285.296 877.046 287.183 875.268C289.339 873.241 291.896 871.393 294.052 870.308C295.935 869.357 298.727 868.267 300.25 867.884C301.774 867.496 306.135 866.854 309.943 866.448C314.55 865.963 320.098 864.573 320.098 864.573C320.098 864.573 322.549 863.878 324.09 863.344C324.251 863.289 324.5 863.201 324.5 863.201C324.5 863.201 326 862.701 326.5 862.201C327.479 861.287 328.517 859.913 328.517 859.913C328.517 859.913 329.16 858.851 330 857.701C330.769 856.642 330.914 856.406 331.422 855.576L331.452 855.526C332.109 854.454 332.363 854.225 333 852.701C333.794 850.789 334.5 849.201 334.5 849.201L335.214 847.21C335.214 847.21 335.851 844.171 336.77 841.442C337.693 838.713 338.934 834.298 339.535 831.629C340.139 828.96 340.984 824.42 340.984 824.42C340.984 824.42 341.39 821.765 341.468 818.302C341.542 814.838 341.381 808.364 341.108 803.921C340.841 799.474 340.088 790.022 339.438 782.91C338.805 775.943 338.349 769.791 338.404 769.036C338.313 768.533 337.559 762.752 337.028 757.355C336.442 751.347 335.551 742.688 335.048 738.116C334.55 733.545 333.511 725.339 332.745 719.876C331.979 714.413 331.406 708.562 331.406 708.562C331.406 708.562 331.166 706.234 331 704.701C330.838 703.242 330.709 702.406 330.709 702.406C330.709 702.406 330.308 699.592 329.5 694.701C328.78 690.342 327.829 685.897 327.829 685.897C327.829 685.897 326.481 680.55 325.258 673.775C324.03 667.001 323.149 661.201 323.297 660.882C323.44 660.564 323.403 660.393 323.213 660.499C323.024 660.605 322.267 657.747 321.538 654.149C320.804 650.552 320.241 646.701 320.241 646.701L319.664 644.078C319.664 644.078 319.567 643.543 319.5 643.201C319.391 642.64 319.202 641.769 319.202 641.769C319.202 641.769 319.061 640.267 318.944 639.307C318.22 633.365 315.528 624.364 315.528 624.364C315.528 624.364 314.136 614.411 312.5 608.201C312.105 606.701 312.411 606.029 312 604.201C311.49 601.934 310.579 599.208 310.29 597.705C310 596.201 308.637 592.048 308.637 592.048C308.637 592.048 307.968 589.718 307.5 587.201C307.316 586.211 306.597 583.154 306.597 583.154C306.597 583.154 306.02 580.669 306.02 580.415C306.02 580.161 306.278 579.944 306.597 579.931Z" fill="white"/>
<path d="M447.722 342.469C446.577 342.566 444.5 342.566 443.106 342.474C441.712 342.381 442.644 342.303 445.183 342.303C447.722 342.298 448.866 342.377 447.722 342.469Z" fill="#754A2D"/>
<path d="M932.161 621.515C933.131 619.737 967.633 644.675 970.914 646.682C971.44 647.005 969.534 647.167 964.596 647.218C917.594 647.72 874.57 678.748 859.298 723.339C851.051 747.419 851.005 774.659 859.819 798.61C867.955 820.718 882.802 840.038 902.251 853.352C904.092 854.612 905.694 855.59 905.814 855.526C913.876 851.01 891.643 833.878 891.866 832.118C892.156 829.925 898.962 823.678 900.054 822.624C900.954 821.756 901.01 821.197 901.005 813.619C900.991 798.504 903.662 783.167 907.485 768.248C911.309 753.33 913.219 755.275 911.137 754.51C903.5 751.701 871 744.004 863.6 744.004C863.639 738.104 871 713.202 874.903 711.827C883 715.202 921.462 733.614 921.462 733.614C921.462 733.614 928.769 721.766 936 713.201L936.13 713.047C938.382 710.389 950.071 696.593 953.407 691.476C956.008 687.485 948.985 662.201 948.985 657.834C948.987 653.177 982.498 654.528 982.5 657.834C982.5 659.701 981.197 670.797 982.5 672.201C982.5 672.201 994 665.703 1001 662.201C1037.06 644.162 1080.61 637.755 1119.54 647.846C1156.33 657.327 1189.76 679.206 1213.03 709.255C1231.7 733.247 1247 771.702 1248.81 790.184C1251.11 813.619 1250.5 824.201 1244.85 860.952C1236.04 901.553 1206.27 933.798 1200.06 940.523L1199.97 940.623C1165.47 982.123 1107.74 991.755 1092 992.701C1007.38 997.786 959.628 947.701 959.628 947.701C959.572 947.653 949.332 938.858 946 935.201C925.511 912.714 919.007 895.72 919 895.701C919 895.701 907.485 889.846 892.327 882.084C853.5 862.201 830.737 809.607 827.307 795.263C821.639 771.626 822.281 752.06 826.669 727.957C835.438 679.625 876.294 640.458 920.483 625.145C921.79 624.685 931.66 622.434 932.161 621.515ZM1074.99 678.375C1070.29 678.407 1064.69 678.619 1062.53 678.846C1060.37 679.072 1056.12 679.682 1053.07 680.199C1050.02 680.716 1045.14 681.737 1042.22 682.471C1039.3 683.205 1034.73 684.517 1032.07 685.39C1029.4 686.262 1025.14 687.851 1022.61 688.927C1020.07 690.003 1015.6 692.104 1012.68 693.596C1009.76 695.087 1005.19 697.677 1002.53 699.354C999.86 701.025 995.705 703.88 993.296 705.694C990.882 707.509 986.746 710.871 984.102 713.166C981.457 715.461 977.51 719.28 975.331 721.658C973.153 724.032 969.848 727.878 967.983 730.201C966.119 732.524 962.805 737.124 960.612 740.426C958.425 743.728 955.239 749.13 953.531 752.432C951.823 755.733 949.673 760.204 948.75 762.36C947.822 764.517 946.243 768.674 945.232 771.597C944.222 774.52 942.791 779.295 942.053 782.218C941.319 785.141 940.307 789.814 939.813 792.607C939.315 795.401 938.66 800.181 938.351 803.229C937.986 806.826 937.875 812.825 938.032 820.315C938.217 828.932 938.526 833.384 939.255 837.863C939.795 841.165 940.848 846.359 941.596 849.407C942.343 852.455 944.009 858.066 945.302 861.876C946.663 865.907 949.354 872.276 951.74 877.115C953.993 881.687 957.686 888.235 959.952 891.661C962.218 895.088 965.588 899.872 967.448 902.282C969.304 904.693 974.371 910.216 978.715 914.548C983.815 919.641 988.666 923.964 992.446 926.785C995.663 929.182 1000.44 932.479 1003.06 934.113C1005.69 935.743 1010.43 938.399 1013.6 940.011C1016.78 941.622 1022.07 943.996 1025.38 945.284C1028.68 946.573 1033.87 948.346 1036.91 949.232C1039.96 950.115 1044.84 951.334 1047.76 951.935C1050.68 952.54 1055.77 953.389 1059.07 953.832C1063.33 954.395 1068.23 954.627 1075.92 954.622C1083.46 954.617 1088.59 954.373 1092.76 953.823C1096.06 953.389 1101.26 952.507 1104.3 951.86C1107.35 951.214 1112.23 949.99 1115.15 949.141C1118.07 948.291 1123.37 946.43 1126.92 944.998C1130.47 943.571 1136.08 941.013 1139.37 939.314C1142.66 937.614 1148.06 934.442 1151.37 932.267C1154.68 930.092 1159.56 926.578 1162.23 924.458C1164.89 922.338 1169.99 917.679 1173.56 914.1C1177.12 910.521 1181.61 905.617 1183.53 903.206C1185.44 900.796 1188.36 896.843 1190.03 894.433C1191.68 892.022 1194.35 887.76 1195.96 884.966C1197.57 882.172 1200.1 877.185 1201.6 873.883C1203.09 870.581 1205.24 865.178 1206.37 861.876C1207.51 858.574 1209.04 853.486 1209.79 850.563C1210.53 847.64 1211.54 842.865 1212.04 839.941C1212.54 837.018 1213.19 831.929 1213.5 828.627C1213.85 824.84 1213.96 818.957 1213.8 812.695C1213.63 806.341 1213.2 800.606 1212.61 796.764C1212.1 793.462 1211.28 788.89 1210.77 786.605C1210.27 784.319 1209.2 780.162 1208.39 777.368C1207.58 774.574 1205.77 769.38 1204.37 765.824C1202.97 762.268 1200.61 756.971 1199.13 754.048C1197.65 751.125 1195.13 746.66 1193.55 744.12C1191.96 741.58 1189.55 737.945 1188.19 736.038C1186.83 734.136 1184.08 730.599 1182.1 728.189C1180.11 725.778 1175.6 720.989 1172.08 717.549C1168.57 714.113 1163.72 709.768 1161.31 707.898C1158.89 706.027 1154.74 703.052 1152.08 701.293C1149.41 699.529 1145.15 696.916 1142.61 695.48C1140.07 694.048 1135.61 691.813 1132.69 690.506C1129.77 689.204 1124.68 687.195 1121.38 686.045C1118.08 684.891 1112.37 683.214 1108.69 682.318C1105 681.418 1100.02 680.366 1097.61 679.978C1095.2 679.585 1091.04 679.049 1088.38 678.786C1085.71 678.523 1079.69 678.338 1074.99 678.375ZM974.044 910.133C973.845 910.128 975.655 912.104 978.064 914.52C980.474 916.939 982.55 918.916 982.68 918.916C982.809 918.916 980.999 916.94 978.659 914.524C976.32 912.11 974.243 910.134 974.044 910.133ZM937.792 812.927C937.704 810.641 937.635 812.303 937.635 816.621C937.635 820.939 937.704 822.808 937.787 820.776C937.875 818.745 937.875 815.213 937.792 812.927ZM1214.27 814.081C1214.17 812.941 1214.09 813.979 1214.09 816.39C1214.09 818.805 1214.17 819.738 1214.27 818.468C1214.36 817.198 1214.36 815.226 1214.27 814.081ZM1173.31 718.61C1175.98 721.34 1178.2 723.574 1178.27 723.574C1178.33 723.57 1178.38 723.52 1178.39 723.455C1178.39 723.391 1176.16 721.159 1173.43 718.49L1168.46 713.642L1173.31 718.61ZM1058.14 336.48C1070.15 332.322 1098.53 329.796 1106.1 344.787C1110.31 353.173 1110.31 372.652 1106.1 381.038C1097.36 398.335 1056.33 396.111 1047.07 378.383C1046.97 368.684 1044.37 355.833 1047.71 346.75C1049.4 342.102 1053.46 338.112 1058.14 336.48ZM477.04 331.973C534.616 331.973 537.714 332.015 537.497 332.781C537.37 333.231 531.961 345.854 525.482 360.835C519.005 375.814 513.638 388.121 513.546 388.195C513.463 388.26 483.996 388.26 382.732 388.08C393.675 369.755 404.009 350.88 415.675 333.012L477.04 331.973ZM1078.46 346.598C1077.19 346.455 1075.01 346.597 1073.61 346.916C1072.21 347.235 1070.24 347.928 1069.22 348.454C1068.21 348.981 1066.48 350.32 1065.38 351.428C1064.28 352.536 1062.83 354.591 1062.15 355.985C1061.08 358.193 1060.92 359.103 1060.92 362.912C1060.92 366.676 1061.09 367.66 1062.11 369.84C1062.77 371.235 1064.22 373.294 1065.34 374.416C1066.46 375.534 1068.73 377.08 1070.38 377.852C1072.92 379.038 1073.91 379.251 1076.84 379.228C1079.16 379.209 1081.14 378.886 1082.84 378.244C1084.27 377.704 1086.45 376.319 1087.85 375.063C1089.47 373.603 1090.82 371.816 1091.77 369.849C1093.05 367.207 1093.23 366.394 1093.23 362.912C1093.23 359.431 1093.05 358.618 1091.77 355.977C1090.82 354.009 1089.47 352.222 1087.85 350.763C1086.49 349.539 1084.34 348.163 1083.07 347.701C1081.8 347.239 1079.72 346.741 1078.46 346.598ZM441.246 342.313C428.909 342.082 426.143 342.146 425.728 342.658C425.451 343.005 421.325 350.352 416.557 358.987C411.793 367.623 407.819 374.947 407.727 375.266C407.661 375.504 410.204 375.648 417.878 375.735C411.302 375.774 407.106 375.853 407.104 375.958C407.104 376.147 428.239 376.253 454.068 376.193C479.898 376.133 493.454 376.032 484.186 375.963C479.833 375.933 472.865 375.894 464.981 375.854L500.571 375.861C511.433 351.699 514.711 344.367 514.856 343.98C515.092 343.37 511.566 343.245 485.69 342.94C469.503 342.747 449.504 342.465 441.246 342.313ZM494.571 342.788C489.748 342.788 487.878 342.857 490.417 342.94C492.956 343.024 496.902 343.023 499.187 342.936C501.471 342.852 499.394 342.788 494.571 342.788ZM458.338 342.326C453.385 342.326 451.308 342.395 453.722 342.479C456.136 342.562 460.184 342.562 462.723 342.479C465.261 342.395 463.29 342.326 458.338 342.326Z" fill="white"/>
<path d="M1097.99 746.738C1097.95 725.191 1098.09 707.421 1098.3 707.255C1099.44 706.336 1103 716.701 1104 720.201C1104.55 722.143 1106.09 728.201 1106.85 735.115C1108.46 749.701 1108.46 756.201 1108.46 767.135C1108.46 768.17 1106.39 793.752 1105.34 791.227C1104.71 789.701 1100.39 785.907 1098.42 785.907C1098.23 785.912 1098.04 768.28 1097.99 746.738Z" fill="white"/>
<path d="M983 764.201C976.4 760.992 969.688 758.126 964.5 755.701C969.476 747.163 973.994 741.037 979.85 733.111C980.483 732.279 989.07 738.245 990.296 740.102C993 744.201 999 741.201 999 741.201C999 741.201 1054.66 712.589 1054.92 712.663C1056.86 713.209 1056.23 743.869 1055.39 747.468C1054.06 753.117 1003.35 755.477 998.027 758.37C996.704 759.056 994.5 766.233 994.5 769.201C994.5 770.201 989.6 767.411 983 764.201Z" fill="white"/>
<path d="M1015.91 851.139C1013.75 852.289 1011.73 853.148 1011.41 853.051C1009.32 852.415 992.723 818.008 992.557 818.043C992.525 817.664 985.628 806.627 986 806.701C991 807.701 1001.71 809.2 1004.5 809.701C1013.01 811.23 1020.96 813.158 1021.5 813.701C1024.5 816.701 1021.5 813.701 1035.76 827.251C1036.29 827.752 1039.9 831.204 1040.11 831.86C1040.34 832.594 1039.67 833.453 1036.81 836.048C1030.43 841.853 1023.55 847.075 1015.91 851.139Z" fill="white"/>
<path d="M962.371 873.536C962.366 873.471 965.639 873.264 969.64 873.074C993.082 871.964 1015.63 864.32 1034.38 850.073C1034.34 850.29 1030.67 852.345 1015 868.701C999.334 885.058 983.211 901.883 982.5 902.201C974.529 896.887 968.06 884.972 963.82 876.538C963.021 874.949 962.371 873.601 962.371 873.536Z" fill="white"/>
<path d="M1053 874.701C1053 874.383 1054.64 870.486 1058 864.201C1062.68 855.45 1064 852.701 1064 852.701C1065.48 853.349 1072.13 853.593 1072.43 855.065C1064.5 865.701 1061.38 871.019 1053 874.701Z" fill="white"/>
<path d="M1060.72 735.346C1056.18 702.166 1054.86 691.397 1055.28 691.157C1058.01 689.585 1063.13 690.039 1066.22 689.67C1074.58 688.674 1084.54 689.156 1092.84 690.432C1094.91 690.755 1096.7 691.116 1096.81 691.245C1096.93 691.374 1094.36 710.908 1091.1 734.653C1087.84 758.403 1085.17 778.195 1085.16 778.638C1085.15 779.943 1078.62 778.711 1077.76 778.671C1076.6 778.616 1067.45 780.009 1066.82 779.322C1066.76 779.262 1064.02 759.474 1060.72 735.346Z" fill="white"/>
<path d="M1112 803.701C1111.18 800.137 1108.39 796.445 1108.6 795.688C1108.6 795.688 1140.27 779.82 1142.96 778.491C1142.96 778.491 1187.39 758.08 1187.39 757.29C1188 757.701 1188.84 758.366 1190.92 762.693C1195.35 771.929 1198.51 781.649 1200.55 791.684C1201.12 794.482 1201.16 797.999 1201 798.701C1156 807.177 1156 807.177 1156 807.177C1141.86 809.662 1142.96 809.701 1114 814.312C1113.5 812.201 1114.18 809.637 1112 803.701Z" fill="white"/>
<path d="M959.693 765.131C961.207 761.705 962.634 758.657 962.86 758.357C965.156 755.388 1038.65 796.078 1043.28 795.725C1043.36 796.043 1042.63 797.863 1041.67 799.765C1040.71 801.67 1038.73 814.543 1036.36 814.543C1035.26 814.543 1030.6 813.389 1028.72 813.097C1019.97 811.737 1011.41 808.992 1002.64 807.413C985.853 804.389 970.869 802.389 954.242 799.65C952.308 799.331 950.559 798.865 950.351 798.611C950.139 798.357 950.573 795.134 951.307 791.453C953.117 782.43 955.969 773.545 959.693 765.131Z" fill="white"/>
<path d="M1131.86 930.309C1131.85 929.907 1093 850.558 1093 850.558C1096.8 848.554 1101.33 845.86 1103.92 842.31C1104.47 841.557 1166.46 904.665 1166.85 904.707C1166.85 904.707 1165.24 906.868 1163.27 908.808C1155.65 916.291 1146.84 922.579 1137.54 927.806C1135 929.228 1132.44 930.355 1131.86 930.309Z" fill="white"/>
<path d="M988.735 909.209C986.409 907.076 984.96 905.39 984.96 904.822C1005.83 884.015 1026.14 862.656 1046.52 841.373C1048.43 843.176 1061.15 850.891 1061.15 851.948C1061.15 852.201 1058.73 856.93 1055.79 862.453C1054.79 864.328 1050.43 872.604 1045.08 882.766C1034.66 902.545 1020.5 929.467 1020.07 930.221C1020.05 930.244 1020.05 930.244 1020.06 930.222C1019.55 930.348 1018.15 929.956 1016.95 929.353C1006.62 924.167 997.219 916.999 988.735 909.209Z" fill="white"/>
<path d="M1050.99 802.19C1050.96 794.407 1063.24 789.753 1069.22 788.41C1074.16 787.289 1089.46 786.294 1089.31 794.917C1089.22 802.33 1078.48 806.977 1072.69 808.465C1066.84 809.985 1050.99 811.938 1050.99 802.19Z" fill="white"/>
<path d="M382.063 510.703C382.129 510.691 383.27 511.573 384.603 512.653C385.936 513.738 388.171 515.114 389.564 515.714C391.715 516.633 392.634 516.767 395.564 516.573C397.701 516.434 400.665 515.792 407.565 513.455L408.646 515.188C409.241 516.14 411.291 519.723 413.201 523.154C415.117 526.58 418.472 532.972 420.66 537.354C422.852 541.731 425.913 548.279 427.464 551.9C429.015 555.515 431.169 560.868 432.259 563.791C433.348 566.71 435.088 571.904 436.127 575.335C437.161 578.762 439.063 586.451 440.351 592.422C441.634 598.388 443.305 605.869 444.066 609.046C444.823 612.219 446.18 617.52 447.085 620.822C447.985 624.123 449.669 629.735 450.818 633.29C451.972 636.846 453.717 641.778 454.7 644.258C455.688 646.733 457.249 650.265 458.167 652.108C459.09 653.945 460.47 656.389 461.236 657.534C462.002 658.675 463.139 660.13 464.888 661.921L463.286 667.694C462.409 670.866 461.195 675.474 460.59 677.931C459.985 680.391 459.335 682.312 459.146 682.202C458.957 682.097 458.92 682.268 459.067 682.586C459.214 682.903 458.781 685.867 458.103 689.166C457.429 692.464 456.737 695.265 456.57 695.401C456.4 695.526 456.251 696.358 456.237 697.248C456.223 698.137 455.347 703.854 454.29 709.948C453.228 716.043 451.539 726.743 450.528 733.73C449.518 740.712 447.864 753.078 446.854 761.205C445.838 769.332 444.74 778.407 444.407 781.367C444.07 784.33 443.697 786.689 443.567 786.618C443.443 786.545 443.406 786.923 443.484 787.463C443.567 788.011 442.999 794.688 442.229 802.305C441.453 809.924 440.41 820.832 439.902 826.549C439.399 832.261 438.749 840.574 438.458 845.021C438.144 849.8 437.562 854.515 437.031 856.566C436.542 858.468 435.481 861.275 434.678 862.799C433.87 864.323 431.751 867.048 429.965 868.854C427.602 871.25 425.718 872.635 423.027 873.984C420.581 875.203 418.745 876.51 417.591 877.854C416.626 878.971 415.042 881.442 414.073 883.349C413.099 885.251 411.914 887.791 411.434 888.988C410.94 890.234 410.367 891.023 410.104 890.839C409.827 890.646 409.781 890.747 409.988 891.088C410.177 891.404 409.6 894.207 408.7 897.319C407.8 900.427 406.439 906.508 405.673 910.825C404.902 915.143 403.859 920.338 403.355 922.37C402.848 924.402 401.634 927.727 400.665 929.759C399.447 932.312 398.062 934.289 396.192 936.159C394.706 937.651 391.932 939.904 390.025 941.174C388.124 942.439 384.487 944.481 381.948 945.709C379.41 946.933 375.464 948.586 373.179 949.375C370.894 950.165 367.261 951.117 365.101 951.491C362.945 951.86 358.791 952.156 355.869 952.147C352.952 952.133 349.006 951.925 347.1 951.685C345.198 951.44 342.036 950.877 340.074 950.429C337.878 949.926 336.42 949.348 336.271 948.923C336.142 948.539 335.288 947.293 334.379 946.153C333.465 945.007 332.394 942.929 332.002 941.534C331.462 939.609 331.355 937.821 331.567 934.146C331.724 931.477 331.997 928.051 332.173 926.527C332.44 924.223 332.38 923.798 331.836 924.019C331.471 924.167 330.631 925.104 329.962 926.097C329.293 927.095 327.432 930.507 325.826 933.684C324.22 936.856 321.953 942.26 318.662 951.925L315.224 951.846C313.336 951.804 310.441 951.426 308.789 951.001C307.141 950.576 304.353 949.468 302.6 948.535C300.652 947.506 298.617 945.94 297.375 944.536C296.111 943.1 295.09 941.35 294.675 939.918C294.31 938.648 294.01 936.464 294.01 935.07C294.01 933.671 294.273 931.329 294.592 929.866C294.914 928.4 295.498 927.205 295.52 927.21C295.709 927.213 296.983 924.876 298.349 922.024C299.71 919.165 303.274 913.19 306.265 908.747C309.255 904.301 312.847 899.105 314.255 897.202C315.658 895.295 317.855 892.696 319.143 891.421C320.43 890.147 322.729 888.485 324.252 887.732C326.301 886.721 327.866 886.314 330.252 886.18C332.029 886.078 335.459 886.281 337.868 886.632C340.282 886.983 344.228 887.26 346.638 887.242C350.201 887.218 351.392 887.024 352.984 886.202C354.064 885.648 355.375 884.623 355.901 883.926C356.423 883.224 357.485 881.303 358.261 879.655C359.036 878.001 360.282 874.99 361.034 872.958C361.782 870.926 363.005 866.77 363.753 863.723C364.496 860.675 365.456 855.79 365.89 852.871C366.434 849.196 366.684 844.503 366.698 837.632C366.707 831.939 366.453 825.635 366.098 822.855C365.756 820.186 364.894 814.782 364.169 810.848C363.449 806.909 362.327 800.259 361.681 796.071C361.03 791.877 359.673 782.425 358.662 775.06C357.656 767.694 355.154 748.575 353.104 732.575C351.055 716.574 348.545 697.248 347.524 689.628C346.509 682.009 344.949 670.787 344.062 664.692C343.172 658.596 341.819 649.868 341.053 645.296C340.287 640.725 339.036 633.969 338.274 630.288C337.508 626.604 336.363 621.723 335.722 619.437C335.085 617.151 333.825 613.303 332.925 610.893C332.025 608.478 330.363 604.428 329.232 601.888C328.102 599.348 325.854 594.878 324.243 591.96C322.637 589.037 319.59 583.993 313.636 574.846L320.56 568.75C324.367 565.398 330.912 559.543 335.099 555.738C339.29 551.932 350.299 541.301 359.562 532.112C368.83 522.918 377.655 514.348 379.179 513.059C380.701 511.776 381.998 510.713 382.063 510.703ZM1245.76 657.525C1246.4 657.978 1248.7 659.986 1250.86 661.981C1253.02 663.98 1258.32 668.737 1262.63 672.556C1266.94 676.375 1275.77 684.166 1282.24 689.868C1288.71 695.571 1297.42 703.357 1301.6 707.167C1305.77 710.982 1311.9 716.68 1315.22 719.834C1318.53 722.988 1321.86 725.818 1322.62 726.128C1323.39 726.438 1327.15 729.989 1330.98 734.02C1334.82 738.051 1339.08 742.614 1340.45 744.161C1341.82 745.708 1344.11 748.41 1345.54 750.164C1346.97 751.919 1349.33 755.018 1350.78 757.05C1352.23 759.082 1353.81 761.52 1354.29 762.476C1354.77 763.426 1355.01 764.465 1354.82 764.784C1354.6 765.166 1354.68 765.243 1355.05 765.016C1355.44 764.781 1355.93 765.372 1356.57 766.863C1357.09 768.068 1357.85 770.719 1358.25 772.75C1358.76 775.327 1358.9 777.628 1358.71 780.37C1358.55 782.527 1357.92 786.059 1357.29 788.22C1356.66 790.376 1355.72 793.129 1355.2 794.339C1354.67 795.544 1354.04 796.425 1353.78 796.302C1353.53 796.173 1353.44 796.33 1353.58 796.648C1353.72 796.963 1353.06 798.574 1352.11 800.227C1351.15 801.875 1349.65 804.267 1348.75 805.537C1347.86 806.807 1345.87 809.403 1344.35 811.31C1342.81 813.212 1339.49 816.861 1336.94 819.409C1334.4 821.963 1331.07 825.002 1326.78 828.285L1324.24 826.996C1322.85 826.29 1320.84 824.808 1319.79 823.704C1318.73 822.601 1317.22 820.661 1316.43 819.391C1315.63 818.121 1314.27 815.156 1313.38 812.811C1312.34 810.036 1311.54 808.54 1311.09 808.539C1310.65 808.539 1310.28 809.172 1310.09 810.271C1309.93 811.223 1309.92 814.598 1310.08 817.775C1310.25 820.947 1310.67 825.209 1311.04 827.242C1311.4 829.273 1312 832.077 1312.38 833.476C1312.76 834.87 1312.93 836.274 1312.77 836.593C1312.6 836.907 1310.5 837.581 1308.09 838.084C1305.68 838.592 1302.61 839.008 1301.28 839.008C1299.06 839.017 1298.67 838.846 1296.66 837.013C1295.46 835.914 1293.8 833.988 1292.98 832.742C1292.16 831.495 1290.98 829.019 1290.38 827.242C1289.77 825.464 1289.03 822.346 1288.73 820.315C1288.44 818.284 1288.1 816.049 1287.99 815.351C1287.87 814.65 1287.57 814.081 1287.32 814.08C1287.06 814.08 1286.63 814.857 1286.35 815.813C1286.08 816.765 1285.74 820.764 1285.59 824.701C1285.45 828.894 1285.56 833.72 1285.87 836.362C1286.16 838.835 1286.29 841.071 1286.16 841.326C1286.04 841.58 1285.58 841.631 1285.16 841.442C1284.74 841.247 1283.59 840.056 1282.61 838.786C1281.62 837.517 1280.93 836.214 1281.07 835.9C1281.2 835.581 1281 835.323 1280.62 835.323C1280.21 835.322 1279.2 833.757 1278.08 831.398C1277.07 829.237 1276.34 827.159 1276.47 826.78C1276.6 826.397 1276.39 825.982 1276.01 825.857C1275.63 825.727 1274.88 824.221 1274.36 822.508C1273.83 820.792 1273.52 819.338 1273.67 819.276C1273.81 819.211 1273.62 818.846 1273.24 818.468C1272.74 817.969 1272.54 816.758 1272.54 814.196C1272.55 812.223 1272.87 807.5 1273.26 803.691C1273.65 799.881 1273.99 793.854 1274 790.298C1274.02 786.743 1273.79 782.171 1273.49 780.139C1273.19 778.107 1272.63 775.198 1272.26 773.674C1271.88 772.152 1271.69 770.642 1271.83 770.326C1271.97 770.008 1271.88 769.75 1271.62 769.749C1271.37 769.749 1270.77 768.654 1270.29 767.325C1269.81 765.99 1268.77 763.496 1267.98 761.783C1267.19 760.053 1266.7 758.41 1266.89 758.089C1267.09 757.743 1267.04 757.646 1266.77 757.849C1266.51 758.037 1265.51 756.929 1264.48 755.309C1263.47 753.725 1261.03 750.404 1259.05 747.929C1257.08 745.449 1253.24 740.877 1250.52 737.77C1247.8 734.657 1243.18 729.651 1240.25 726.65C1237.32 723.643 1233.23 719.695 1227.4 714.565L1230.16 706.715C1231.67 702.397 1234.33 694.186 1236.05 688.474C1237.78 682.757 1240.4 673.271 1241.88 667.393L1244.58 656.702L1245.76 657.525ZM1261.1 553.705C1261.34 553.794 1262.77 557.29 1264.28 561.482C1265.79 565.668 1266.92 569.358 1266.78 569.679C1266.66 569.993 1266.8 570.33 1267.12 570.422C1267.44 570.515 1268.17 571.969 1268.74 573.655C1269.31 575.339 1269.67 576.928 1269.54 577.183C1269.42 577.437 1269.57 577.719 1269.89 577.816C1270.21 577.908 1270.83 579.053 1271.28 580.355C1271.72 581.656 1271.93 582.981 1271.74 583.301C1271.54 583.638 1271.59 583.749 1271.86 583.56C1272.13 583.38 1273.89 587.151 1276.12 592.68C1278.22 597.868 1279.83 602.323 1279.7 602.581C1279.57 602.835 1279.68 603.043 1279.93 603.043C1280.18 603.043 1281.13 604.65 1282.02 606.621C1282.92 608.587 1283.54 610.458 1283.41 610.778C1283.27 611.092 1283.37 611.355 1283.62 611.355C1283.88 611.359 1285.65 614.368 1287.55 618.051C1289.45 621.73 1290.91 624.953 1290.78 625.209C1290.65 625.463 1290.8 625.676 1291.12 625.685C1291.44 625.694 1292.32 626.604 1293.08 627.712C1293.85 628.817 1297.41 632.913 1301 636.814C1304.6 640.716 1309.76 646.507 1312.48 649.684C1315.19 652.856 1319.31 657.913 1321.63 660.919C1323.95 663.925 1327.27 668.497 1329 671.078C1330.73 673.66 1332.98 677.331 1334 679.239C1335.02 681.14 1335.73 682.958 1335.59 683.279C1335.42 683.643 1335.53 683.731 1335.89 683.51C1336.29 683.261 1336.36 683.395 1336.12 683.972C1335.88 684.544 1335.95 684.677 1336.35 684.433C1336.75 684.184 1336.82 684.318 1336.58 684.895C1336.34 685.467 1336.41 685.601 1336.81 685.357C1337.21 685.108 1337.28 685.242 1337.04 685.819C1336.84 686.303 1336.89 686.534 1337.16 686.396C1337.42 686.267 1338.56 688.036 1339.7 690.322C1340.9 692.717 1341.63 694.717 1341.43 695.05C1341.21 695.428 1341.28 695.505 1341.67 695.281C1342.05 695.05 1342.62 695.693 1343.4 697.248C1344.03 698.517 1344.45 699.764 1344.32 700.019C1344.19 700.273 1344.35 700.485 1344.67 700.49C1344.98 700.495 1346.33 702.471 1347.67 704.876C1349 707.281 1349.99 709.46 1349.86 709.716C1349.73 709.97 1349.94 710.178 1350.32 710.178C1350.7 710.178 1351.12 710.488 1351.24 710.87C1351.37 711.249 1351.37 711.772 1351.24 712.026C1351.12 712.279 1351.27 712.492 1351.59 712.501C1351.91 712.512 1353.73 714.954 1355.63 717.927C1357.53 720.899 1359.04 723.595 1358.97 723.916C1358.91 724.23 1359.04 724.438 1359.26 724.378C1359.49 724.315 1360.94 725.664 1362.5 727.38C1364.5 729.592 1365.32 730.862 1365.33 731.767C1365.33 732.999 1365.28 733.028 1363.37 732.723C1362.28 732.552 1356.59 731.512 1350.7 730.413C1344.83 729.315 1340.08 728.314 1340.16 728.188C1340.24 728.059 1339.65 728.018 1338.85 728.096C1337.55 728.225 1336.79 727.657 1331.63 722.73C1328.45 719.696 1323.23 714.334 1320.03 710.811C1316.82 707.287 1311.04 700.767 1307.17 696.325C1303.31 691.878 1298.87 686.941 1297.31 685.352C1295.48 683.491 1294.1 682.461 1293.43 682.466C1292.66 682.466 1291.83 681.63 1290.16 679.122C1288.93 677.28 1287.27 675.203 1286.47 674.505C1285.66 673.804 1284.8 673.235 1284.55 673.235C1284.29 673.235 1283.46 673.651 1282.7 674.158C1281.69 674.832 1281.26 674.925 1281.11 674.505C1281 674.186 1280.66 672.68 1280.36 671.157C1280.07 669.633 1279.3 666.931 1278.66 665.154C1278.02 663.376 1276.49 659.787 1275.25 657.188C1274.02 654.584 1272.75 652.46 1272.43 652.463C1272.11 652.472 1271.46 652.833 1270.99 653.272C1270.4 653.83 1269.42 654.057 1267.76 654.025C1265.97 653.992 1264.04 653.383 1259.85 651.54C1256.81 650.201 1252.7 648.298 1250.74 647.315C1248.77 646.332 1247.16 645.422 1247.16 645.296C1247.16 645.156 1247.67 642.717 1248.29 639.87C1248.91 637.012 1250.25 630.103 1251.26 624.516C1252.27 618.928 1253.83 609.471 1254.72 603.505C1255.62 597.534 1256.88 588.39 1257.52 583.186C1258.15 577.977 1259.1 569.456 1259.62 564.252C1260.13 559.046 1260.57 554.513 1260.6 554.167C1260.63 553.831 1260.85 553.623 1261.1 553.705ZM1050.12 384.247C1050.77 385.088 1052.38 386.501 1056.05 389.003L1056.07 627.748L1050.42 633.29C1047.3 636.343 1043.72 636.156 1038 641.701L1027.5 644.201C1023.18 645.444 1017.8 647.052 1014.5 648.252C1011.2 649.448 1006.52 652.153 996.5 656.701L990 652.695C989.951 652.654 982.037 646.112 979 644.201C975.954 642.285 969.546 637.738 966.5 635.701C962.146 632.79 954.293 626.729 951.5 624.701C948.708 622.674 944.22 620.438 942 618.701C939.78 616.965 933.087 617.266 932.5 617.201C931.913 617.137 928.149 616.212 928.1 616.2C928.072 616.182 925.224 614.418 922.445 611.988C919.653 609.545 915.964 606.22 914.252 604.604C912.54 602.984 911.239 601.451 911.367 601.196C911.496 600.942 911.34 600.854 911.021 600.997C910.689 601.149 909.216 599.925 907.555 598.111C905.963 596.38 904.772 594.704 904.9 594.384C905.029 594.066 904.928 593.807 904.675 593.807C904.421 593.807 903.091 592.819 901.721 591.614C900.35 590.408 897.94 588.691 896.361 587.804C894.783 586.918 893.145 585.879 892.72 585.495C892.295 585.112 891.543 584.77 891.045 584.733C890.542 584.696 888.058 584.123 885.52 583.453C882.981 582.788 879.104 581.985 876.902 581.676C874.703 581.362 872.973 581.007 873.053 580.877C873.124 580.748 869.009 580.669 863.896 580.697C856.104 580.738 853.509 580.937 847.901 581.93C844.223 582.586 838.195 583.869 834.517 584.783C830.84 585.702 827.62 586.376 827.362 586.284C827.108 586.192 826.586 586.414 826.208 586.779C825.825 587.143 825.072 587.365 824.532 587.278C823.993 587.185 823.615 587.213 823.692 587.342C823.766 587.473 820.994 588.474 817.521 589.573C814.051 590.672 806.952 593.119 801.745 595.008C796.541 596.9 792.028 598.336 791.706 598.203C791.388 598.07 791.051 598.222 790.958 598.54C790.865 598.859 789.72 599.483 788.419 599.926C787.118 600.369 785.793 600.581 785.475 600.392C785.133 600.189 785.032 600.236 785.226 600.508C785.414 600.777 782.808 602.102 778.879 603.736C775.211 605.259 772.05 606.353 771.858 606.164C771.669 605.98 771.304 606.11 771.051 606.46C770.793 606.813 762.38 610.534 752.357 614.731C742.334 618.928 733.242 622.746 732.159 623.209C731.08 623.675 730.04 623.901 729.851 623.712C729.661 623.528 729.301 623.663 729.048 624.018C728.793 624.374 727.025 625.214 725.124 625.888C723.218 626.562 719.793 627.634 717.509 628.271C715.225 628.908 712.991 629.309 712.547 629.166C712.09 629.019 711.841 629.102 711.97 629.365C712.099 629.618 712.044 629.831 711.854 629.831C711.665 629.836 708.6 630.445 705.046 631.189C701.492 631.928 695.053 633.059 690.737 633.697C686.422 634.334 678.635 635.285 673.429 635.812C668.222 636.334 659.084 637.081 653.12 637.474C647.032 637.871 631.339 638.305 617.349 638.457C603.642 638.61 591.489 638.601 590.347 638.435C588.404 638.153 588.191 637.977 587.056 635.71C586.386 634.38 584.429 631.42 582.707 629.134C580.981 626.848 577.063 621.99 573.998 618.337L572.287 616.299C569.158 612.57 564.835 607.418 561.799 603.791C558.157 599.441 553.357 593.498 551.132 590.575C548.907 587.651 545.741 583.186 544.093 580.646C542.449 578.106 538.396 571.354 535.087 565.638C531.773 559.926 526.682 550.989 523.765 545.781C520.852 540.571 514.732 529.456 510.172 521.075C505.607 512.694 499.472 501.265 496.532 495.677C493.592 490.089 489.378 481.883 483.147 469.355L485.746 465.892C487.172 463.99 488.681 461.39 489.092 460.119C489.599 458.554 489.78 456.766 489.655 454.577C489.521 452.32 489.087 450.541 488.21 448.69C487.517 447.231 485.915 444.995 482.339 441.416L490.8 422.829C495.452 412.606 500.903 400.664 506.571 388.334H513.957L515.198 385.554L516.44 382.77H529.622C541.781 382.77 542.823 382.835 543.021 383.577C543.142 384.022 543.862 387.504 544.619 391.313C545.376 395.122 546.419 401.149 546.932 404.704C547.444 408.26 548.081 414.494 548.349 418.558C548.686 423.665 548.685 427.873 548.362 432.181C548.099 435.607 547.569 440.286 547.186 442.572C546.798 444.857 545.787 449.327 544.938 452.499C544.093 455.676 542.454 461.288 541.296 464.968C540.142 468.652 539.126 472.393 539.038 473.281C538.923 474.462 539.062 474.897 539.556 474.897C539.93 474.896 541.102 473.649 542.158 472.125C543.22 470.601 545.229 467.069 546.627 464.276C548.025 461.482 549.894 457.427 550.785 455.271C551.671 453.114 553.241 448.852 554.271 445.804C555.3 442.756 556.781 437.769 557.565 434.721C558.345 431.673 559.417 426.791 559.938 423.868C560.525 420.604 560.986 415.533 561.139 410.707C561.291 405.924 561.175 400.963 560.838 398.008C560.538 395.344 559.897 391.188 559.417 388.773C558.937 386.363 558.429 384.022 558.29 383.577C558.057 382.807 570.078 382.769 1048.92 382.728L1050.12 384.247ZM1175.01 383L1177.25 384.848C1178.48 385.861 1183.75 391.5 1183.79 391.543C1183.83 391.586 1187.97 396.65 1187.85 396.969C1187.72 397.288 1187.93 397.546 1188.31 397.546C1188.69 397.546 1190.33 399.366 1191.94 401.587C1193.56 403.813 1196.05 407.447 1197.48 409.668C1198.91 411.893 1199.98 413.916 1199.85 414.171C1199.72 414.425 1199.88 414.633 1200.19 414.628C1200.51 414.625 1201.45 415.77 1202.27 417.168C1203.1 418.566 1203.67 419.919 1203.54 420.174C1203.42 420.428 1203.62 420.636 1204 420.636C1204.38 420.636 1204.8 420.95 1204.92 421.328C1205.05 421.712 1205.16 422.594 1205.17 423.291C1205.17 423.994 1204.16 427.264 1202.91 430.565C1201.67 433.866 1199.56 439.062 1198.23 442.11C1196.9 445.158 1193.94 451.392 1191.66 455.963C1189.38 460.535 1185.79 467.291 1183.7 470.971C1181.61 474.656 1179.19 478.868 1176.77 482.996L1171.52 471.788C1168.64 465.624 1165.32 458.609 1164.15 456.194C1162.98 453.783 1160.45 449.314 1158.53 446.266C1156.6 443.218 1153.3 438.336 1151.18 435.413C1149.05 432.495 1145.33 427.61 1142.9 424.562C1140.48 421.514 1136.07 416.319 1133.11 413.017C1130.15 409.715 1126.92 406.261 1125.94 405.337C1124.95 404.418 1123.16 402.908 1121.96 401.99C1120.75 401.071 1119.56 400.318 1119.3 400.318C1119.05 400.318 1118.84 400.84 1118.84 401.472C1118.84 402.11 1119.88 404.655 1121.14 407.129C1122.4 409.609 1125.24 414.439 1127.45 417.866C1129.65 421.297 1133.16 426.801 1135.24 430.103C1137.33 433.405 1140.51 438.863 1142.32 442.225C1144.13 445.591 1146.94 451.308 1148.56 454.924C1150.18 458.544 1152.55 464.312 1153.82 467.739C1155.09 471.169 1156.87 476.466 1157.77 479.514C1158.67 482.562 1159.95 487.24 1160.62 489.905C1161.29 492.574 1162.24 496.68 1163.61 503.296L1159.16 509.646C1156.71 513.141 1151.98 519.634 1148.66 524.076C1145.34 528.523 1139.21 536.421 1135.05 541.625C1130.88 546.834 1124.76 554.297 1121.43 558.217C1118.1 562.133 1112.7 568.367 1109.43 572.071C1106.15 575.769 1102.25 580.152 1098.04 584.802L1098.04 389.465L1100.58 387.757C1101.98 386.815 1103.68 385.305 1104.35 384.4L1105.57 382.755L1175.01 383ZM359.488 427.563C359.636 427.563 360.024 428.238 360.347 429.064C360.665 429.886 361.612 430.975 362.438 431.474C363.836 432.319 364.658 432.379 373.409 432.245C380.974 432.135 384.445 432.305 390.718 433.095C395.033 433.635 402.304 434.808 406.873 435.695C411.443 436.581 419.751 438.433 425.336 439.805C430.921 441.181 439.542 443.457 444.49 444.87C449.443 446.283 457.853 448.815 463.185 450.487C471.025 452.947 473.186 453.465 474.492 453.193C475.383 453.003 476.643 452.301 477.299 451.636C477.954 450.967 478.6 450.108 478.734 449.729C478.937 449.148 479.141 449.185 480.013 449.96C480.585 450.468 481.342 451.452 481.697 452.154C482.048 452.851 482.339 454.462 482.339 455.732C482.339 457.117 481.97 458.78 481.416 459.888C480.908 460.904 480.285 461.736 480.031 461.736C479.778 461.736 479.473 461.472 479.357 461.158C479.237 460.84 478.457 460.285 477.627 459.925C476.667 459.514 475.342 459.371 474.031 459.533C472.891 459.676 470.293 460.479 468.262 461.32C466.231 462.16 461.974 464.423 458.799 466.344C455.628 468.265 447.527 473.599 440.798 478.189C434.073 482.783 425.973 488.168 422.797 490.154C419.626 492.139 414.849 494.882 412.181 496.244C409.517 497.607 405.622 499.233 399.719 500.988L401.796 504.22C402.939 505.996 403.871 507.551 403.873 507.684C403.868 507.809 402.831 508.123 401.564 508.376C400.295 508.63 398.427 508.838 397.411 508.838C396.396 508.838 394.891 508.551 394.064 508.2C393.238 507.849 391.991 506.967 390.025 504.912L392.564 502.719C394.091 501.394 395.208 500.018 395.37 499.256C395.527 498.504 395.37 497.607 394.992 497.062C394.635 496.553 392.282 495.066 389.763 493.76C386.578 492.107 384.357 490.556 382.479 488.681C380.997 487.194 378.473 484.002 376.871 481.592C375.27 479.177 372.611 474.504 370.968 471.202C369.32 467.901 367.136 463.222 366.116 460.812C365.092 458.397 363.702 454.971 363.023 453.193C362.345 451.415 360.97 447.567 359.964 444.649C358.819 441.306 357.743 438.993 357.069 438.415C356.483 437.907 355.653 437.284 355.219 437.03C354.522 436.619 354.499 436.29 354.997 434.028C355.412 432.163 356.045 430.966 357.388 429.526C358.389 428.445 359.336 427.563 359.488 427.563ZM206.091 0.0110344C213.817 -0.0443728 215.438 0.0803767 219.707 1.0501C222.37 1.65503 226.058 2.59257 227.899 3.12822C229.739 3.66343 231.244 4.30934 231.246 4.56377C231.246 4.81739 231.505 4.90082 231.823 4.75322C232.143 4.60604 233.855 4.94309 235.631 5.50615C237.408 6.06956 241.668 7.56071 245.093 8.8167C248.518 10.0774 256.249 13.2178 262.268 15.7991C268.739 18.5774 273.072 20.678 272.884 20.9524C272.69 21.2245 272.792 21.2713 273.133 21.0687C273.452 20.8796 275.192 21.2993 277.006 21.9964C278.819 22.6934 280.374 23.5251 280.468 23.844C280.56 24.1621 280.893 24.3056 281.211 24.1673C281.531 24.0247 284.489 24.985 287.788 26.2962C291.088 27.6076 295.76 29.4034 298.174 30.2854C300.587 31.1672 303.079 32.1553 303.712 32.4788C304.349 32.8068 306.113 34.2113 307.636 35.6058C309.159 36.9957 311.6 39.7244 313.059 41.6683C314.687 43.8324 315.578 45.4213 315.367 45.7737C315.14 46.1521 315.216 46.2297 315.598 46.0052C315.986 45.7748 316.987 46.9061 318.667 49.4729C320.042 51.5693 322.013 54.8944 323.052 56.8616C324.094 58.8278 324.838 60.6473 324.714 60.9026C324.59 61.1562 324.737 61.3128 325.041 61.2483C325.35 61.1838 325.627 61.6506 325.664 62.2874C325.697 62.9255 326.874 65.9367 328.281 68.9837C329.684 72.0313 331.573 76.5018 332.473 78.9124C333.373 81.3228 334.586 84.9617 335.168 86.9935C336.036 90.0224 336.225 91.7688 336.207 96.6907C336.193 100.454 335.874 104.329 335.357 107.081C334.9 109.492 333.825 113.805 332.967 116.663C332.108 119.522 330.557 123.988 329.519 126.592C328.48 129.196 326.463 133.611 325.037 136.405C323.611 139.198 321.058 143.563 319.364 146.103C317.675 148.642 315.118 151.916 313.691 153.375C312.266 154.834 310.525 156.321 309.828 156.677C309.131 157.033 304.926 158.58 300.481 160.117C296.041 161.655 289.495 164.107 285.941 165.567C282.387 167.026 272.417 171.792 263.786 176.16C255.155 180.524 245.185 185.248 241.631 186.657C238.077 188.065 233.092 189.769 230.554 190.444C227.521 191.252 224.59 191.699 222.015 191.745C219.052 191.801 217.726 191.621 216.591 191.011C215.733 190.549 214.795 189.51 214.398 188.587C214.02 187.696 213.711 185.881 213.716 184.546C213.721 183.211 214.016 179.937 214.371 177.273C214.722 174.608 215.566 169.931 216.24 166.883C216.914 163.835 218.373 158.118 219.48 154.184C220.588 150.25 222.623 143.595 224.013 139.407C225.397 135.219 226.755 130.643 227.032 129.247C227.309 127.853 227.752 124.943 228.015 122.783C228.282 120.621 228.495 113.763 228.49 107.543C228.49 101.323 228.278 93.5278 228.024 90.2259C227.771 86.924 227.092 79.9094 226.52 74.636C225.947 69.3677 225.37 65.0503 225.245 65.0403C225.119 65.0402 224.22 67.167 223.247 69.7776C222.278 72.3867 220.551 77.1248 219.406 80.2972C218.266 83.4739 216.794 88.0457 216.139 90.4563C214.985 94.6767 214.93 95.4912 214.625 111.93C214.343 127.011 214.186 129.612 213.272 134.096C212.705 136.89 210.475 145.619 208.324 153.492C206.169 161.365 203.584 171.132 202.578 175.196C201.18 180.843 200.64 184.164 200.284 189.28C199.947 194.22 199.966 196.401 200.362 197.592C200.653 198.483 201.424 199.933 202.065 200.825C202.707 201.716 203.977 203.24 204.891 204.214C205.805 205.188 207.484 206.463 208.629 207.049C209.774 207.636 211.952 208.338 213.476 208.606C214.999 208.874 221.281 209.21 227.438 209.349C238.52 209.594 238.664 209.589 241.747 208.449C243.46 207.816 246.487 206.311 248.477 205.101C250.461 203.891 255.137 200.543 258.861 197.657C262.586 194.771 267.4 191.219 269.556 189.769C271.711 188.314 275.922 185.636 278.903 183.817C281.885 181.997 286.662 179.181 289.519 177.56C292.376 175.934 297.827 173.057 301.635 171.159C305.443 169.262 310.529 166.952 312.943 166.037C315.357 165.118 318.783 163.354 320.56 162.121C322.337 160.888 324.954 158.542 326.371 156.912C327.793 155.287 330.317 152.083 331.983 149.797C333.65 147.511 335.861 144.237 336.899 142.524C337.942 140.811 339.502 137.693 340.365 135.597C341.233 133.5 343.103 128.046 344.524 123.475C345.941 118.904 348.055 113.186 349.223 110.776C350.39 108.365 352.758 104.311 354.489 101.771C356.22 99.2314 358.071 96.7888 358.598 96.345C359.544 95.551 359.636 95.6202 363.601 100.214C365.82 102.79 367.638 105.154 367.64 105.47C367.64 105.788 367.746 105.972 367.87 105.88C367.995 105.793 368.568 106.237 369.14 106.865C369.711 107.492 370.071 108.212 369.947 108.466C369.823 108.72 370.026 108.928 370.409 108.928C370.793 108.929 373.253 111.682 375.879 115.047C378.505 118.414 382.401 123.66 384.533 126.707C386.665 129.755 389.707 134.377 391.295 136.982C392.882 139.585 394.073 142.028 393.949 142.408C395.894 142.543 451.72 217.114 451.986 217.55C452.175 217.878 452.226 218.4 452.102 218.719C451.977 219.045 451.668 224.861 451.419 231.649C451.165 238.441 450.74 247.225 450.468 251.159C450.2 255.094 449.461 261.952 448.829 266.399C448.197 270.841 447.246 276.451 446.72 278.867C446.194 281.282 445.039 285.438 444.153 288.103C443.267 290.767 441.296 295.861 439.773 299.416C438.25 302.972 436.077 307.751 434.937 310.037C433.801 312.323 430.652 318.193 423.027 331.958L415.685 332.203L409.643 342.173L390.718 342.146C379.765 342.132 370.774 342.317 369.37 342.589C368.036 342.848 365.779 343.628 364.357 344.325C362.89 345.041 360.781 346.653 359.512 348.02C358.27 349.354 356.681 351.641 355.984 353.1C354.835 355.505 354.702 356.315 354.582 361.758C354.476 366.44 354.614 368.27 355.224 370.071C355.648 371.34 356.682 373.418 357.513 374.688C358.343 375.958 359.927 377.713 361.025 378.59C362.124 379.467 364.169 380.715 365.562 381.357C367.912 382.437 368.744 382.543 385.405 383L382.179 388.311L385.451 388.541L381.893 393.391C379.94 396.056 374.889 402.66 363.023 417.87L359.331 418.996C357.3 419.62 354.342 420.969 352.754 421.998C350.839 423.24 349.338 424.682 348.286 426.293C347.414 427.628 346.334 429.965 345.886 431.489C345.36 433.276 345.073 435.816 345.068 443.033L341.814 445.868C340.023 447.425 336.377 450.454 333.714 452.601C331.051 454.743 325.646 458.891 321.714 461.809C317.782 464.727 311.029 469.585 306.713 472.601C302.397 475.616 293.779 481.445 287.558 485.55C281.336 489.651 271.472 496.01 265.633 499.681C259.795 503.347 254.654 506.491 254.209 506.667C253.767 506.847 253.402 506.889 253.401 506.76C253.399 506.623 252.477 502.94 251.356 498.563C250.23 494.181 248.864 488.312 248.314 485.518C247.77 482.725 247.429 480.023 247.562 479.514C247.68 479.048 247.524 476.41 247.215 473.444C247.217 473.466 247.219 473.489 247.221 473.511C247.433 475.884 247.372 476.618 246.994 476.282C246.707 476.02 245.637 470.828 244.608 464.738C243.584 458.645 242.799 453.242 242.863 452.731C242.932 452.223 242.845 451.599 242.675 451.345C242.504 451.089 241.825 447.871 241.17 444.188C240.515 440.508 239.66 436.037 239.268 434.259C238.88 432.482 238.682 430.769 238.825 430.45C238.973 430.131 238.885 429.872 238.631 429.872C238.377 429.872 237.947 428.99 237.68 427.909C237.412 426.829 237.306 425.688 237.449 425.369C237.61 425.005 237.5 424.922 237.149 425.139C236.744 425.388 236.679 425.198 236.919 424.446C237.099 423.869 237.043 423.306 236.785 423.176C236.532 423.051 236.476 422.686 236.665 422.367C236.868 422.027 236.821 421.92 236.549 422.114C236.29 422.293 235.644 421.346 235.054 419.92C234.482 418.536 234.168 417.146 234.356 416.826C234.581 416.445 234.504 416.368 234.126 416.596C233.724 416.835 233.198 415.998 232.377 413.825C231.727 412.112 231.31 410.45 231.453 410.13C231.591 409.812 231.397 409.452 231.015 409.323C230.57 409.17 228.332 403.028 224.752 392.12C221.689 382.792 219.298 374.792 219.443 374.342C219.586 373.899 219.549 373.626 219.36 373.742C219.171 373.85 218.322 371.722 217.478 369.008C216.633 366.289 216.061 363.81 216.208 363.49C216.355 363.172 216.319 363.006 216.13 363.12C215.941 363.235 215.497 362.455 215.146 361.389C214.764 360.212 214.671 359.177 214.911 358.756C215.165 358.318 215.146 358.184 214.855 358.382C214.583 358.575 213.512 355.717 212.179 351.225C210.961 347.117 210.052 343.543 210.157 343.286C210.267 343.032 210.101 342.515 209.792 342.132C209.483 341.748 208.873 340.09 208.439 338.438C208.001 336.785 207.762 335.178 207.904 334.859C208.047 334.54 207.96 334.389 207.706 334.513C207.452 334.641 206.879 333.398 206.437 331.755C205.994 330.112 205.786 328.607 205.975 328.408C206.168 328.209 206.007 327.738 205.624 327.355C205.236 326.971 204.83 325.729 204.715 324.584C204.599 323.444 204.323 322.299 204.097 322.044C203.875 321.789 203.026 318.986 202.209 315.81C201.392 312.639 200.843 309.781 200.985 309.46C201.128 309.142 201.086 308.972 200.897 309.077C200.706 309.18 199.216 304.763 197.588 299.264C195.959 293.761 194.612 288.718 194.588 288.061C194.569 287.401 194.32 286.57 194.034 286.214C193.748 285.854 193.263 284.732 192.954 283.716C192.645 282.701 192.516 281.61 192.663 281.291C192.815 280.973 192.727 280.82 192.474 280.945C192.22 281.073 192.064 280.792 192.128 280.322C192.192 279.855 192.013 279.181 191.727 278.821C191.444 278.463 189.834 273.965 188.149 268.823C186.471 263.683 185.197 259.27 185.319 259.01C185.448 258.756 185.278 258.391 184.946 258.201C184.614 258.011 183.574 255.619 182.638 252.891C181.701 250.163 181.042 247.721 181.166 247.465C181.295 247.211 181.073 246.847 180.677 246.658C180.28 246.468 179.878 245.581 179.79 244.695C179.698 243.809 179.44 242.977 179.209 242.847C178.983 242.721 178.082 240.898 177.21 238.802C176.343 236.707 175.784 234.887 175.973 234.761C176.161 234.636 175.904 234.119 175.396 233.612C174.843 233.058 174.566 232.318 174.704 231.764C174.865 231.119 174.763 230.947 174.367 231.187C173.966 231.431 173.896 231.297 174.136 230.725C174.33 230.253 174.245 229.842 173.914 229.614L173.775 229.528C173.416 229.277 172.846 228.498 172.461 227.724C172.046 226.898 171.842 225.965 172.008 225.646C172.174 225.328 172.123 225.221 171.893 225.406C171.661 225.594 170.692 225.022 169.742 224.136C168.791 223.254 166.298 221.656 164.203 220.589C162.108 219.523 160.192 218.701 159.947 218.756C159.724 218.807 159.674 218.668 159.825 218.444C159.672 218.44 159.512 218.436 159.356 218.428C158.784 218.396 157.902 217.956 157.395 217.449C156.887 216.941 156.422 216.646 156.356 216.793C156.29 216.936 155.15 216.728 153.817 216.331C152.485 215.93 151.502 215.394 151.625 215.14C151.749 214.886 151.542 214.785 151.164 214.909C150.833 215.018 150.552 214.954 150.486 214.766L150.457 214.59C150.392 214.402 150.11 214.339 149.779 214.448C149.401 214.572 149.087 214.47 149.087 214.216C149.086 213.963 148.828 213.87 148.51 214.013C148.191 214.156 146.114 213.74 143.895 213.089C141.676 212.438 139.857 211.7 139.855 211.446C139.855 211.192 139.597 211.095 139.278 211.224C138.959 211.358 136.107 210.85 132.932 210.102C129.761 209.349 125.293 208.393 123.008 207.978C120.723 207.567 115.581 207.086 111.584 206.91C107.587 206.74 104.322 206.49 104.314 206.366C104.304 206.242 102.079 206.205 99.3525 206.292C96.6247 206.375 90.6524 206.208 86.083 205.922C81.5135 205.636 74.8666 204.985 71.3125 204.477C67.7586 203.969 62.8753 203.064 60.4658 202.459C58.0565 201.854 54.1047 200.496 51.6953 199.439C49.2857 198.381 44.0931 195.865 40.1562 193.852C36.2193 191.839 31.5487 189.183 29.7715 187.95C27.996 186.713 26.5931 185.471 26.6553 185.184C26.7195 184.898 26.4617 184.769 26.0791 184.893C25.645 185.036 23.7199 183.521 20.9463 180.852C18.5048 178.501 15.49 175.227 14.2529 173.578C13.016 171.93 11.1834 169.02 10.1865 167.114C9.18959 165.211 7.64812 161.78 6.7666 159.494C5.88502 157.208 4.42194 152.327 3.5127 148.642C2.60347 144.957 1.44495 139.036 0.932617 135.481C0.378813 131.607 0.00462547 126.563 0 116.779L4.38477 114.7C7.41204 113.265 8.94943 112.262 9.34668 111.454C9.84495 110.439 9.74819 109.8 8.6084 106.721C7.88396 104.759 7.06228 102.219 6.78516 101.078C6.35606 99.3242 6.39715 98.8008 7.06152 97.7298C7.49099 97.0325 8.83461 95.8315 10.0391 95.0696C11.2435 94.3032 12.5452 93.6708 12.9238 93.6614C13.3022 93.6522 13.8842 93.916 14.2119 94.2483C14.65 94.6875 14.7423 96.0154 14.3086 103.849L15.8086 103.853C16.6348 103.857 19.0769 103.535 21.2324 103.133C23.3877 102.736 26.0876 102.136 27.2324 101.808C28.377 101.48 29.9327 100.889 30.6943 100.496C31.4558 100.104 32.6011 99.2256 33.2334 98.5423C34.1652 97.5453 34.3827 96.8471 34.3643 94.9222C34.3457 93.3385 33.907 91.6015 33.0625 89.764C32.1163 87.7046 30.7444 85.9859 27.7168 83.0677C25.1246 80.5711 23.754 78.9181 23.9414 78.5198C24.1217 78.1368 24.7865 77.961 25.6816 78.0579C26.4793 78.1455 27.065 78.1175 26.9834 77.9886C26.9078 77.8582 31.0315 77.0688 36.1504 76.2337C41.2736 75.3933 48.5797 74.2018 52.3877 73.5784C56.1956 72.9596 62.2194 71.7405 65.7734 70.8724C69.3274 70.0042 74.8339 68.4529 78.0049 67.4231C81.1758 66.398 85.3346 64.9148 87.2363 64.139C89.1422 63.3587 90.9565 62.8324 91.2754 62.9661C91.5936 63.0999 91.8523 63.0029 91.8525 62.7493C91.8544 62.4947 93.1001 61.664 94.6221 60.9026C96.1443 60.1412 97.5976 59.6188 97.8525 59.7474C98.1061 59.8764 98.3141 59.6645 98.3145 59.2864C98.3147 58.9079 98.6286 58.4919 99.0068 58.3626C99.3851 58.2335 99.9063 58.2335 100.16 58.3626C100.414 58.4917 100.622 58.2836 100.622 57.9007C100.623 57.5173 101.296 56.8153 102.122 56.3353C102.948 55.8549 104.711 54.2935 106.045 52.8714C107.489 51.3246 108.653 49.5835 108.926 48.5491C109.18 47.5974 109.392 45.0487 109.396 42.8929C109.401 39.9982 109.637 38.4825 110.287 37.1204C110.772 36.1043 112.914 33.61 115.046 31.5784C117.174 29.5466 120.881 26.291 123.271 24.347C125.667 22.403 129.077 19.96 130.854 18.9163C132.632 17.8773 136.371 16.0715 139.163 14.9124C141.955 13.749 144.498 12.9232 144.817 13.0706C145.135 13.218 145.287 13.1299 145.163 12.8763C145.04 12.6219 146.646 11.8734 148.74 11.2181C150.835 10.5626 152.805 10.1479 153.125 10.2952C153.443 10.4428 153.596 10.3592 153.472 10.1058C153.345 9.84676 155.513 9.03868 158.434 8.26787C161.291 7.51055 166.22 6.27697 169.396 5.5335C172.566 4.78544 177.45 3.72856 180.242 3.179C183.034 2.62954 185.684 2.30088 186.128 2.44853C186.571 2.59609 186.986 2.51742 187.051 2.27764C187.121 2.03235 189.454 1.437 192.243 0.957323C195.89 0.320064 199.79 0.057213 206.091 0.0110344ZM246.103 441.36C246.052 443.658 246.024 446.088 246.025 448.344C246.025 454.31 246.233 461.69 246.478 464.738C246.582 466.011 246.701 467.442 246.815 468.806C246.541 464.583 246.284 458.418 246.173 452.961C246.083 448.594 246.061 444.673 246.103 441.36ZM247.522 424.173C247.06 427.452 246.66 430.619 246.491 432.411C246.458 432.768 246.425 433.198 246.394 433.686C246.403 433.567 246.412 433.449 246.422 433.335C246.611 431.187 247.04 427.665 247.522 424.173ZM250.069 401.425C250.079 402.751 250.053 404.038 249.985 405.166C249.897 406.659 249.641 409.106 249.311 411.777C249.644 409.106 249.901 406.659 249.99 405.166C250.054 404.044 250.079 402.755 250.069 401.425ZM249.791 395.595C249.848 396.195 249.897 396.831 249.938 397.488C249.897 396.83 249.848 396.193 249.791 395.594V395.595ZM576 249.701C579.679 252.052 584.844 251.158 587 252.201C589 252.729 592.738 253.192 593.5 253.201C598.5 253.701 599 253.701 601.5 254.201C604 254.701 605 254.701 607 254.701C608.172 254.849 610.577 254.858 615.271 255.5C619.966 256.142 629.418 257.296 636.272 258.063C643.127 258.829 653.619 259.864 659.582 260.363C665.545 260.861 674.375 261.49 679.198 261.762C684.022 262.03 698.977 262.658 712.432 263.161C725.886 263.66 740.684 264.228 745.318 264.427C749.944 264.621 753.728 264.888 753.741 265.013C753.744 265.142 754.934 265.175 756.396 265.092C757.854 265.009 768.706 265.378 780.513 265.913C792.32 266.449 811.632 267.4 823.438 268.024C835.245 268.647 846.927 269.317 849.406 269.511C851.883 269.705 853.853 270.042 853.791 270.264C853.724 270.487 852.53 271.262 851.133 271.987C849.734 272.716 846.309 274.276 843.517 275.463C840.724 276.65 833.662 279.274 827.823 281.296C821.985 283.314 814.716 286.154 811.669 287.604C808.623 289.054 805.35 290.901 804.398 291.709C803.448 292.522 802.669 293.492 802.668 293.875C802.668 294.258 803.084 294.776 803.591 295.03C804.099 295.284 805.918 295.492 807.63 295.492C809.342 295.491 812.615 295.159 814.899 294.757C817.184 294.355 821.029 293.514 823.438 292.891C825.848 292.267 831.978 290.402 837.055 288.74C842.132 287.082 849.402 284.916 853.21 283.923C857.018 282.935 863.766 281.402 868.211 280.515C872.651 279.633 879.819 278.387 884.135 277.749C888.45 277.117 896.034 276.166 900.982 275.644C905.93 275.122 914.036 274.452 918.983 274.152C923.929 273.856 928.082 273.441 928.215 273.233C928.352 273.021 932.503 272.942 937.446 273.053C942.394 273.164 950.185 273.46 954.755 273.704C959.324 273.949 965.348 274.387 968.141 274.678C970.933 274.969 975.812 275.634 978.987 276.152C982.157 276.673 985.171 276.969 985.68 276.817C986.188 276.66 988.838 277.057 991.565 277.699C994.384 278.363 996.422 279.065 996.296 279.328C996.167 279.582 996.324 279.67 996.643 279.523C996.963 279.371 999.348 279.892 1001.95 280.677C1004.56 281.462 1006.58 282.306 1006.45 282.561C1006.32 282.815 1006.48 282.907 1006.8 282.769C1007.12 282.631 1008.73 283.018 1010.37 283.632C1012.02 284.242 1014.98 285.396 1016.95 286.191C1018.92 286.989 1020.43 287.848 1020.3 288.103C1020.17 288.356 1020.33 288.444 1020.64 288.296C1020.96 288.149 1021.89 288.357 1022.72 288.758C1023.55 289.159 1024.22 289.695 1024.22 289.95C1024.22 290.203 1024.53 290.31 1024.91 290.181C1025.29 290.057 1031.11 292.652 1037.84 295.953C1044.56 299.254 1049.96 302.162 1049.84 302.418C1049.71 302.672 1049.87 302.769 1050.18 302.63C1050.5 302.497 1051.75 302.913 1052.95 303.554C1054.16 304.2 1055.35 305.143 1055.61 305.651C1055.88 306.212 1056.07 312.574 1056.1 336.822L1053.69 338.438C1052.37 339.324 1051.01 340.521 1050.07 342.132H540.959L539.062 338.323C537.456 335.105 537.243 334.35 537.677 333.473C537.958 332.901 538.189 332.333 538.189 332.203C538.188 332.079 537.667 331.973 537.035 331.973C536.398 331.973 535.688 331.608 535.452 331.164C535.125 330.545 535.887 328.803 538.738 323.66C540.783 319.98 544.541 313.746 547.084 309.807C549.627 305.873 553.407 299.74 555.488 296.184C557.565 292.628 560.788 286.81 562.652 283.254C564.509 279.704 566.045 276.737 566.072 276.655C566.106 276.558 568.506 271.686 571 265.201C572.671 260.857 575 253.701 576 249.701ZM1098.84 329.663C1098.93 329.666 1103.24 332.316 1108.43 335.551C1113.61 338.785 1117.76 341.591 1117.66 341.785C1117.55 341.975 1114.65 342.132 1111.23 342.132C1105.33 342.132 1104.95 342.076 1104.14 341.093C1103.67 340.52 1102.1 339.222 1098.04 336.36L1097.98 333.321C1097.95 331.65 1098.09 330.14 1098.3 329.973C1098.51 329.802 1098.76 329.663 1098.84 329.663ZM146.737 58.7415C145.888 58.5661 145.39 58.7416 145.021 59.3509C144.73 59.8214 144.591 60.3156 144.706 60.4407C144.751 60.4916 144.825 60.7434 144.916 61.1282C144.659 60.4291 144.484 60.7551 144.185 62.5188C143.972 63.7888 143.834 66.181 143.885 67.8294C143.936 69.4778 144.069 71.3529 144.185 71.9856C144.3 72.621 144.41 73.1879 144.434 73.2552C144.452 73.3202 144.536 73.5281 144.619 73.7171C144.703 73.907 145.062 74.688 145.417 75.4495C145.777 76.2113 146.281 76.9775 146.539 77.1575C146.798 77.3331 148.363 77.7163 150.01 78.0071C151.658 78.2934 153.426 78.6405 153.934 78.7698C154.08 78.8071 154.135 78.7884 154.111 78.7239C154.413 78.7926 154.805 78.8608 155.244 78.9124C156.301 79.0417 160.104 79.1438 163.704 79.1438C167.298 79.1438 170.362 78.9864 170.513 78.7972C170.66 78.6079 170 77.2687 169.05 75.8235C168.099 74.3736 166.437 72.1931 165.357 70.9739L163.396 68.7532C161.429 70.2077 160.598 70.6238 160.279 70.6146C159.961 70.6103 159.596 71.016 159.472 71.5237C159.347 72.0317 158.567 72.8635 157.741 73.3714C156.915 73.8746 155.567 74.2895 154.741 74.2942C153.643 74.2942 152.811 73.8647 151.625 72.678C150.259 71.3115 150.01 70.7427 150.01 68.9837C150.01 67.4832 150.297 66.5828 151.049 65.7425C151.621 65.1053 152.71 64.4026 153.472 64.181C154.404 63.9132 155.461 63.9877 156.702 64.4124C157.718 64.7587 158.757 65.0449 159.011 65.0403C159.263 65.0395 158.017 64.1026 156.241 62.9534C154.464 61.8083 151.866 60.4453 150.472 59.928C149.078 59.4062 147.393 58.8754 146.737 58.7415ZM141.609 70.3187C140.866 71.6162 139.804 73.2007 139.241 73.8333C138.683 74.4707 137.501 75.5927 136.615 76.3313L135.009 77.6751C138.586 77.1995 141.028 77.0608 142.74 77.0608L145.855 77.0657C144.425 73.4875 143.774 71.4365 143.483 70.2034L142.957 67.9632L141.609 70.3187ZM151.958 77.0374C152.264 77.2477 152.542 77.4581 152.776 77.6487C152.739 77.6243 152.702 77.5985 152.664 77.5735C152.369 77.3803 152.048 77.136 151.719 76.8606C151.801 76.9248 151.881 76.9845 151.958 77.0374ZM146.629 69.0188C147.037 70.2914 148.005 72.33 148.796 73.5745C149.256 74.3022 149.929 75.1288 150.596 75.8235C149.968 75.1928 149.391 74.5233 149.008 73.9485C148.2 72.7434 147.158 70.6144 146.691 69.2151C146.67 69.1516 146.65 69.0854 146.629 69.0188ZM160.57 65.9632C159.698 65.3676 159.135 65.262 158.53 65.5853C157.949 65.8947 157.723 66.504 157.778 67.6214C157.829 68.7018 158.156 69.362 158.779 69.6761C159.287 69.9301 160.118 70.138 160.626 70.138C161.134 70.1379 161.854 69.6715 162.228 69.0989C162.763 68.2771 162.79 67.9264 162.343 67.4231C162.034 67.0768 161.235 66.4157 160.57 65.9632ZM145.683 65.1937C145.957 66.5486 146.314 68.0116 146.601 68.93C146.252 67.8231 145.892 66.3485 145.683 65.1937Z" fill="white"/>
</svg>
