<svg xmlns="http://www.w3.org/2000/svg" xmlns:xlink="http://www.w3.org/1999/xlink" width="1366" zoomAndPan="magnify" viewBox="0 0 1024.5 930.75" height="1241" preserveAspectRatio="xMidYMid meet" version="1.0"><defs><clipPath id="408f862a23"><path d="M 273 9 L 1024 9 L 1024 922.953125 L 273 922.953125 Z M 273 9 " clip-rule="nonzero"/></clipPath></defs><path fill="#ffffff" d="M 200.257812 379.070312 L 29.230469 379.070312 C 13.257812 379.070312 0.722656 391.605469 0.722656 407.578125 L 0.722656 863.648438 C 0.722656 879.617188 13.257812 892.15625 29.230469 892.15625 L 200.257812 892.15625 C 216.230469 892.15625 228.75 879.617188 228.75 863.648438 L 228.75 407.578125 C 228.765625 391.605469 216.230469 379.070312 200.257812 379.070312 Z M 200.257812 379.070312 " fill-opacity="1" fill-rule="nonzero"/><g clip-path="url(#408f862a23)"><path fill="#ffffff" d="M 1024.921875 433.09375 C 1024.921875 386.644531 993.03125 339.636719 932.121094 339.636719 L 655.96875 339.636719 C 695.417969 269.066406 707.019531 169.804688 679.59375 97.179688 C 659.449219 43.765625 620.953125 12.59375 571.132812 9.425781 L 570.328125 9.359375 C 537.910156 7.371094 509.847656 31.65625 507.152344 64.023438 C 500.054688 136.058594 468.492188 263.460938 423.257812 308.695312 C 385.171875 346.78125 352.570312 362.738281 298.53125 389.15625 C 290.710938 392.984375 282.164062 397.160156 273.128906 401.660156 C 273.292969 403.617188 273.390625 405.570312 273.390625 407.578125 L 273.390625 858.996094 C 279.914062 861.230469 286.355469 863.449219 292.679688 865.621094 C 381.867188 896.359375 458.945312 922.898438 576.753906 922.898438 L 800.015625 922.898438 C 860.941406 922.898438 892.816406 875.871094 892.816406 829.4375 C 892.816406 815.652344 890.023438 801.835938 884.488281 789.183594 C 904.777344 785.535156 922.539062 775.773438 935.703125 760.839844 C 950.636719 743.867188 958.871094 721.308594 958.871094 697.316406 C 958.871094 683.582031 956.078125 669.761719 950.554688 657.144531 C 999.46875 648.699219 1024.9375 606.71875 1024.9375 565.214844 C 1024.9375 541.144531 1016.359375 516.90625 999.632812 499.164062 C 1016.328125 481.398438 1024.921875 457.164062 1024.921875 433.09375 Z M 1024.921875 433.09375 " fill-opacity="1" fill-rule="nonzero"/></g></svg>