<svg width="1222" height="1080" viewBox="0 0 1222 1080" fill="none" xmlns="http://www.w3.org/2000/svg">
<path d="M417.885 520.183C407.353 518.58 398.654 516.003 390.353 512.055C384.914 509.421 374.383 502.725 370.092 499.175C352.233 484.348 339.698 463.969 334.949 442.044C333.175 433.916 332.888 430.824 332.888 419.432C332.946 407.926 333.289 404.49 335.35 394.53C335.98 391.495 339.129 381.821 340.216 379.359C340.674 378.443 341.648 376.095 342.449 374.206C345.827 366.078 354.24 354.4 362.595 346.212C374.157 334.82 387.322 326.749 401.631 322.225C407.471 320.336 409.014 319.935 415.655 318.446C433.5 314.445 454.404 317.587 457.267 318.389C458.412 318.675 461.16 319.363 463.335 319.878C473.637 322.283 491.325 331.556 501.112 339.741C511.356 348.27 514.62 352.335 515.02 357.088L515.249 360.18H512.788C511.414 360.18 509.696 359.836 509.009 359.436C508.322 359.092 505.231 357.317 502.142 355.542C488.29 347.529 481.423 344.895 471.007 343.578C454.293 341.516 436.15 345.467 420.695 354.626C411.252 360.237 398.545 374.26 393.049 385.251C379.999 411.012 382.232 440.094 398.946 463.336C401.866 467.402 410.565 476.388 414.344 479.251C421.325 484.577 430.371 489.383 437.524 491.559C454.467 496.655 470.377 496.77 484.515 491.788C489.496 490.013 498.595 485.149 504.604 481.084C509.127 477.992 510.157 477.534 512.444 477.534H515.135V480.282C515.135 483.603 512.845 487.322 507.524 492.533C492.813 506.902 475.701 515.946 455.896 519.725C449.315 520.985 425.046 521.271 417.89 520.183H417.885Z" fill="#FEFEFE"/>
<path d="M521.939 458.529C521.481 457.728 521.367 455.609 521.653 452.119C522.741 435.746 522.798 433.515 521.767 432.37C520.737 431.225 519.821 430.881 509.977 427.446C499.789 423.896 499.102 423.438 499.102 419.948C499.102 416.798 499.904 416.226 507.114 414.336C519.248 411.187 521.767 410.443 522.626 409.641C523.714 408.668 524.63 402.83 525.431 392.294C525.775 388.057 526.29 384.223 526.634 383.823C527.034 383.422 528.294 383.078 529.553 383.078C532.53 383.078 533.561 384.281 539.111 393.668C545.349 404.259 545.349 404.259 547.123 404.259C547.925 404.259 552.734 403.228 557.769 401.968C567.67 399.506 571.449 399.105 572.021 400.594C573.224 403.686 571.678 407.176 566.926 412.272C565.609 413.703 563.09 416.738 561.316 419.026L558.052 423.263L559.255 425.553C559.884 426.813 562.06 430.249 564.006 433.109C566.01 435.972 568.186 439.404 568.873 440.721C570.304 443.527 570.476 447.303 569.216 448.334C568.128 449.25 562.177 448.735 559.887 447.532C559.029 447.074 555.136 445.414 551.245 443.811C544.894 441.234 544.092 441.005 543.004 441.749C541.516 442.723 538.997 445.757 534.362 452.053C528.924 459.379 528.523 459.78 525.32 459.78C523.144 459.78 522.515 459.551 521.942 458.521L521.939 458.529Z" fill="#FEFEFE"/>
<path d="M467.509 881.291C466.993 880.661 466.478 878.543 466.249 876.252C466.02 874.077 465.734 871.156 465.562 869.785C465.276 868.01 465.505 866.979 466.192 865.891C467.28 864.231 467.394 864.231 477.754 865.834C483.021 866.693 483.934 867.208 484.449 869.842C485.594 875.282 486.052 879.344 485.708 880.719L485.365 882.265H476.838C469.512 882.265 468.253 882.15 467.509 881.291Z" fill="#FEFEFE"/>
<path d="M596.519 976.723C595.202 976.494 593.828 976.093 593.484 975.75C592.912 975.177 592.225 961.094 592.339 952.68C592.454 940.372 593.599 913.58 594.057 912.091C594.801 909.743 594.114 908.197 592.11 907.682C591.309 907.51 590.679 906.938 590.679 906.48C590.679 905.735 591.194 905.678 593.713 905.964C604.359 907.224 654.384 906.651 662.224 905.105C668.576 903.903 671.439 902.815 673.442 900.811C678.824 895.371 673.385 890.393 660.85 889.247C652.323 888.446 649.632 885.984 649.632 879.058C649.632 876.195 649.976 874.878 651.407 872.19C655.128 865.321 656.502 862.229 658.217 856.733C659.19 853.583 660.392 850.265 660.793 849.234C661.652 847.288 664.629 844.654 675.389 836.468C678.08 834.407 680.885 832.174 681.684 831.487C683.287 829.998 687.58 829.654 688.379 830.914C690.097 833.548 693.761 846.543 694.047 850.778C694.161 852.839 694.562 859.364 694.906 865.376C695.822 882.322 697.882 889.247 703.948 895.66C709.616 901.673 716.14 903.216 729.075 901.73C734.743 901.1 739.778 899.039 740.694 896.92C742.297 893.485 738.69 889.193 731.251 885.471C724.956 882.322 723.41 880.604 722.208 875.396C719.975 865.493 719.918 864.348 720.204 846.944C720.548 830.17 720.834 825.248 722.551 809.219C723.181 803.095 723.696 800.632 724.612 799.086C725.815 797.082 730.337 793.418 737.491 788.668C754.319 777.505 763.82 767.43 770.687 753.576C774.809 745.162 777.039 737.776 778.699 726.727C779.73 719.745 779.902 688.372 778.986 678.183C777.898 666.619 774.635 647.669 771.26 633.532C764.679 605.709 760.729 591.855 757.236 584.243C756.263 582.239 755.519 580.463 755.519 580.292C755.519 580.177 754.546 578.459 753.401 576.455L751.225 572.848V550.694C751.225 529.113 751.282 528.54 752.427 526.937C754.66 523.96 754.889 523.902 775.894 523.902H795.353L797.3 525.907C798.788 527.453 799.304 528.54 799.647 531.174C799.933 533.007 800.105 552.297 800.105 573.993C800.105 596.09 800.334 614.238 800.62 615.211C802.624 621.851 806.915 626.89 813.212 629.924L817.048 631.814L844.637 631.986C861.752 632.1 873.428 631.928 875.372 631.585C881.724 630.44 886.876 626.947 890.368 621.51C894.204 615.441 894.032 619.563 894.032 537.187C894.032 469.867 893.918 462.766 893.116 462.423C891.971 461.965 884.646 461.965 883.501 462.423C882.7 462.766 882.585 470.035 882.585 539.019C882.585 598.841 882.413 615.501 881.841 616.646C881.44 617.39 880.238 618.65 879.207 619.337L877.204 620.711L846.867 620.54L816.473 620.368L814.584 618.993C813.553 618.249 812.408 617.047 812.122 616.245C811.836 615.443 811.607 598.154 811.607 574.969C811.607 550.64 811.378 533.694 811.034 531.464C809.775 523.908 805.252 517.781 798.442 514.518L794.721 512.743H775.548C756.833 512.743 756.318 512.8 753.57 514.06C749.677 515.835 746.073 518.927 743.783 522.417C740.577 527.226 740.061 529.743 740.061 541.478C740.061 547.204 739.89 552.24 739.718 552.756C739.145 554.302 734.909 553.958 732.565 552.183C729.53 549.835 720.831 545.887 715.163 544.227C705.205 541.364 692.784 541.994 679.849 546.059C677.215 546.861 673.669 547.548 671.951 547.605L668.802 547.662L668.631 505.184L668.516 462.649L667.199 462.363C666.512 462.191 663.993 462.076 661.646 462.191L657.352 462.363L657.066 512.74C656.894 540.448 656.723 563.231 656.608 563.346C656.551 563.46 654.891 565.121 652.944 567.068C649.108 570.847 643.959 574.566 640.18 576.226C633.313 579.204 630.164 580.578 625.527 582.35C619.917 584.526 615.969 587.16 615.454 588.989C615.111 590.535 617.343 595.686 621.236 602.328C622.267 604.046 623.698 606.966 624.385 608.738C626.732 614.636 633.599 620.016 641.328 622.077C643.618 622.649 647.397 622.936 652.947 622.936H661.188L662.677 624.539C667.486 629.635 672.177 631.522 681.621 632.037L688.259 632.381L689.003 634.671C690.263 638.336 689.633 650.357 687.973 654.706C684.595 663.464 679.502 671.652 673.491 677.833C670.285 681.154 649.28 699.987 640.467 707.431C634.115 712.813 617.63 725.977 610.359 731.474C607.554 733.593 605.149 735.482 604.977 735.712C604.806 735.883 602.458 737.773 599.768 739.891C595.474 743.212 594.443 743.728 592.442 743.728H590.095V455.838C590.095 297.552 589.923 166.86 589.752 165.486L589.408 162.966L597.592 162.795C607.493 162.566 624.895 163.883 640.349 165.887C646.529 166.746 652.541 167.49 653.628 167.662C658.437 168.234 683.564 173.159 688.256 174.473C703.253 178.596 711.894 181.169 717.219 183.002C720.482 184.147 725.632 185.922 728.609 186.953C731.586 187.983 737.823 190.445 742.517 192.392C747.155 194.282 751.045 195.885 751.159 195.885C751.331 195.885 758.427 199.321 767.072 203.555C791.741 215.634 803.016 222.273 822.361 236.013C836.613 246.202 854.641 260.285 862.256 267.21C876.68 280.377 897.914 303.046 907.529 315.583C909.418 317.988 912.223 321.481 913.766 323.368C920.347 331.267 934.142 351.305 940.096 361.609C941.928 364.758 943.989 368.248 944.733 369.393C945.935 371.34 949.885 378.666 954.749 388.226C963.391 405.057 977.185 440.607 981.879 458.352C982.624 461.215 983.769 465.449 984.456 467.797C985.486 471.576 987.719 480.792 989.036 486.687C990.639 493.841 992.413 503.174 992.929 507.581C993.329 510.444 994.245 517.655 994.99 523.61C997.623 543.474 998.253 576.736 996.535 600.035C995.734 610.911 992.299 634.668 989.955 645.659C989.497 647.778 988.581 652.012 987.951 654.99C985.604 665.809 978.221 693.574 976.79 697.067C976.389 698.04 974.958 702.392 973.641 706.741C972.324 711.093 970.664 716.014 969.92 717.617C969.176 719.221 967.115 724.257 965.397 728.837C963.622 733.418 960.874 739.886 959.274 743.15C954.523 752.938 948.972 763.7 947.197 766.735C946.281 768.281 945.537 769.598 945.537 769.712C945.537 770.228 938.956 781.448 936.552 784.998C935.063 787.231 932.373 791.236 930.655 793.87C924.246 803.544 914.914 816.768 912.681 819.345C911.365 820.776 907.529 825.414 904.04 829.649C900.605 833.886 894.653 840.525 890.818 844.476C887.039 848.427 881.546 854.207 878.626 857.357C875.707 860.506 872.332 863.881 871.187 864.798C869.068 866.515 860.026 874.643 856.591 877.85C851.782 882.488 841.079 891.131 834.212 895.998C831.75 897.716 827.574 900.751 824.883 902.752C822.249 904.699 819.501 906.588 818.814 906.932C818.185 907.333 816.353 908.535 814.75 909.738C813.204 910.94 810.685 912.543 809.196 913.402C807.651 914.204 804.387 916.208 801.929 917.869C792.714 923.993 783.328 929.26 772.393 934.471C771.134 935.101 767.527 936.876 764.381 938.365C749.385 945.748 712.467 958.801 695.985 962.637C693.924 963.095 690.832 963.897 689.118 964.412C685.225 965.557 683.106 966.13 677.957 967.218C675.781 967.676 671.261 968.649 667.941 969.451C657.238 971.97 646.535 973.345 620.721 975.575C604.98 976.892 599.773 977.178 596.51 976.72L596.519 976.723ZM791.581 479.884C829.128 443.247 829.93 442.388 833.078 433.744C836.971 423.04 833.25 410.503 823.578 401.745C811.558 390.868 795.302 390.582 782.824 400.943C777.958 405.009 774.698 405.238 770.862 401.802C767.656 398.882 761.59 395.449 757.64 394.247C754.033 393.159 744.59 393.101 741.155 394.132C728.677 397.969 718.432 409.704 716.887 422.012C716.314 426.764 717.402 431.972 720.093 437.469C722.783 442.909 725.302 445.597 747.796 466.952C759.3 477.886 772.98 491.053 774.927 493.114C775.442 493.629 776.129 494.03 776.53 493.973C776.873 493.916 783.683 487.563 791.584 479.89L791.581 479.884ZM626.054 459.391C627.886 457.845 635.669 451.263 643.283 444.621C650.952 438.039 659.425 430.71 662.17 428.362C664.861 426.072 668.636 422.808 670.526 421.15C674.476 417.715 677.908 414.74 682.259 411.133C686.209 407.811 689.47 405.009 691.989 402.775C693.076 401.802 698 397.565 702.863 393.388C707.729 389.208 713.165 384.573 714.883 383.084C716.6 381.595 723.696 375.528 730.624 369.631C737.548 363.676 744.876 357.38 746.937 355.605C748.998 353.83 754.262 349.309 758.67 345.53C763.079 341.808 767.198 338.261 767.828 337.631C769.717 335.856 772.465 334.997 776.011 334.997C779.904 334.997 781.164 335.684 788.088 341.751C790.493 343.87 793.985 346.904 795.872 348.448C797.704 350.051 800.566 352.456 802.166 353.887C805.315 356.636 806.288 357.495 812.182 362.473C814.243 364.191 817.048 366.596 818.477 367.913C819.908 369.173 821.854 370.833 822.828 371.635C823.744 372.436 828.095 376.158 832.443 379.935C836.794 383.714 841.428 387.719 842.745 388.807C845.092 390.811 855.623 399.798 867.414 409.93C870.906 412.908 875.025 416.398 876.571 417.772C878.174 419.089 880.235 420.921 881.151 421.723C882.124 422.582 884.93 424.986 887.446 427.162C889.965 429.281 897.061 435.405 903.244 440.673C919.328 454.527 927.856 461.796 928.371 461.968C928.6 462.025 930.145 460.536 931.863 458.589L934.897 455.039L932.092 452.463C929.287 449.943 895.69 421.036 891.682 417.715C890.537 416.741 884.872 411.874 879.09 406.838C873.308 401.799 866.383 395.79 863.693 393.557C861.002 391.324 855.452 386.574 851.33 382.967C847.208 379.416 836.047 369.8 826.489 361.614C810.691 348.104 797.24 336.483 793.178 332.933C792.262 332.189 791.575 331.158 791.575 330.7C791.575 330.242 791.174 329.841 790.602 329.841C790.086 329.841 788.884 329.211 787.911 328.467C783.503 325.146 777.838 323.256 773.83 323.829C772.285 324.058 769.537 324.917 767.707 325.833C764.043 327.608 761.012 330.07 734.912 352.739C732.851 354.514 725.926 360.466 719.457 366.021C712.991 371.575 704.747 378.615 701.14 381.764C691.697 389.892 667.543 410.674 661.703 415.653C659.013 417.944 655.237 421.207 653.348 422.865C651.459 424.526 646.194 429.046 641.614 432.94C637.034 436.834 633.03 440.266 632.686 440.61C632.286 440.896 629.767 443.129 627.019 445.477C624.213 447.824 620.667 450.974 619.121 452.402L616.316 454.979L619.235 458.529C620.896 460.476 622.327 462.079 622.441 462.079C622.613 462.079 624.216 460.877 626.048 459.388L626.054 459.391Z" fill="#FBF0C4"/>
<path d="M396.078 871.617C386.177 867.838 382.684 858.279 380.566 829.311C379.65 816.602 379.249 783.114 379.994 777.502C380.337 774.811 380.681 767.485 380.738 761.186C380.795 750.482 380.738 749.508 379.478 746.302C377.589 741.435 375.872 738.975 372.783 736.57C368.718 733.478 366.829 732.849 361.221 732.849C352.98 732.906 347.026 735.998 342.506 742.637C337.354 750.25 335.296 759.01 336.495 767.883C337.068 772.521 340.274 784.829 341.705 788.09C342.793 790.609 347.029 801.944 348.114 805.208C351.778 816.313 351.778 824.67 348.228 832.171C345.366 838.241 338.213 842.589 332.144 842.017C326.19 841.387 321.67 838.009 318.979 832.114C316.117 825.875 315.888 824.1 315.373 802.688C314.743 778.358 313.369 757.579 312.052 752.311C311.365 749.505 310.621 748.303 307.472 744.469C301.178 736.857 295.51 729.241 289.044 719.911C286.754 716.647 280.173 706.687 279.543 705.656C271.302 691.229 269.012 687.11 265.977 681.212C262.886 675.142 258.366 665.411 255.446 658.428C254.988 657.34 254.244 655.565 253.786 654.535C253.328 653.504 252.24 650.641 251.324 648.239C250.408 645.834 248.863 641.714 247.889 639.137C246.115 634.385 245.886 633.698 243.08 624.654C239.187 612.231 235.412 596.831 233.522 586.298C233.179 584.237 232.664 581.546 232.377 580.286C231.347 575.877 229.458 561.282 228.313 549.088C226.767 533.058 226.309 515.027 227.168 504.437C228.656 486.117 230.087 471.235 230.946 466.082C232.664 455.434 236.328 436.828 237.527 432.593C237.813 431.677 238.844 427.898 239.817 424.294C242.851 413.474 245.027 406.603 247.371 400.25C248.574 396.929 250.119 392.809 250.749 391.092C251.436 389.374 252.638 386.282 253.554 384.223C254.413 382.162 256.245 377.928 257.562 374.778C260.31 368.196 270.841 347.013 272.501 344.666C273.074 343.807 273.589 342.948 273.589 342.833C273.589 342.375 282.231 328.349 285.666 323.142C289.673 317.072 301.464 301.045 305.526 296.064C315.656 283.813 321.553 277.288 331.683 267.153C346.68 252.154 360.36 240.877 382.624 225.133C389.033 220.61 403.687 211.337 404.431 211.337C404.488 211.337 407.351 209.733 410.783 207.844C416.622 204.523 431.158 197.025 431.788 197.025C431.959 197.025 433.448 196.395 435.108 195.65C449.647 189.068 476.491 179.162 485.935 176.989C487.022 176.76 492.058 175.501 497.096 174.241C507.856 171.492 517.814 169.317 523.425 168.4C525.658 168.057 528.749 167.542 530.292 167.255C536.131 166.167 541.224 165.595 559.484 163.82C562.632 163.533 570.816 163.133 577.629 163.018C588.275 162.732 590.164 162.846 590.965 163.591C591.71 164.392 591.824 194.445 591.824 453.256C591.824 663.808 591.996 742.004 592.454 742.004C592.797 742.004 594.057 741.26 595.259 740.287C597.893 738.168 598.122 738.168 598.122 740.115C598.122 741.718 595.488 744.524 593.427 745.154C592.912 745.325 592.339 746.127 592.168 746.871C591.767 748.36 590.221 749.448 587.588 749.963C585.985 750.307 585.355 750.937 584.725 753.055C584.496 753.685 583.088 755.5 582 755.5C580.34 755.5 581.004 753.972 581.805 752.483C582.664 750.765 583.695 733.822 584.21 714.242C584.439 705.255 584.324 702.736 583.523 699.644C581.176 690.657 576.198 683.728 570.072 680.868C566.351 679.15 560.171 678.864 555.476 680.181C550.381 681.613 544.487 688.595 541.625 696.612C540.48 699.876 540.308 713.1 541.338 717.678C541.682 719.281 542.655 723.404 543.457 726.836C545.174 734.506 548.323 750.364 548.323 751.509C548.323 753.285 546.72 752.139 543.628 748.074C536.818 739.259 530.349 733.304 519.704 726.149C512.207 721.11 512.55 721.797 512.607 710.062C512.607 698.957 512.55 699.357 516.729 692.83C517.932 690.998 519.649 687.218 520.508 684.415C521.367 681.61 522.569 678.234 523.199 676.917C523.771 675.543 524.286 674.112 524.286 673.654C524.286 671.936 522.512 668.901 520.279 666.728C518.962 665.468 517.359 663.407 516.729 662.147C515.642 660.086 515.584 659.284 515.928 653.847C517.76 625.739 517.645 622.363 514.268 614.576C511.176 607.536 504.366 601.867 497.668 600.836C494.92 600.436 490.457 601.295 486.793 602.955C485.534 603.528 483.587 604.043 482.5 604.043C480.324 604.043 478.721 604.902 475.919 607.536L474.201 609.139L471.568 608.223C469.106 607.307 468.763 607.307 466.301 608.28C462.923 609.54 458.46 614.292 452.335 623.222C445.697 632.839 445.181 633.411 441.231 635.53C437.853 637.305 437.567 637.362 434.879 636.733C430.929 635.874 425.436 635.931 422.459 637.019C415.305 639.481 409.18 646.521 406.489 655.225C405.287 659.175 405.401 677.092 406.661 687.911C408.378 702.681 408.378 707.145 406.661 713.959C404.542 722.545 403.34 728.271 402.31 735.425C401.451 741.266 401.966 759.068 403.168 764.908C405.974 778.762 410.207 791.185 416.276 803.55C421.314 813.739 422.001 815.4 422.456 818.721C422.742 820.439 423.315 824.504 423.773 827.765C424.231 831.026 424 836 423.83 837.496C421.883 846.426 420.91 849.174 416.963 857.36C411.982 867.721 407.863 871.385 400.764 871.729C398.646 871.843 396.527 871.786 396.069 871.614L396.078 871.617ZM454.172 518.008C470.887 514.858 485.079 508.219 498.53 497.285C508.66 489.043 516.274 479.251 512.439 479.251C511.923 479.251 509.175 480.855 506.316 482.802C491.147 493.105 478.784 497.228 462.76 497.228C443.415 497.228 426.93 491.903 412.62 480.969C406.326 476.217 396.937 465.512 393.276 459.045C385.95 445.992 382.859 434.543 382.802 420.117C382.745 402.369 387.84 386.514 398.027 372.946C407.356 360.466 418.116 351.995 430.709 347.185C449.309 340.03 469.515 339.286 486.227 345.009C490.864 346.612 506.831 354.912 509.407 357.088C509.865 357.489 511.01 358.004 511.926 358.233C513.529 358.634 513.586 358.577 513.186 356.974C511.411 350.048 493.955 335.564 478.386 328.178C469.744 324.055 466.08 322.623 461.615 321.596C459.439 321.08 461.615 321.596 455.546 320.107C449.477 318.618 429.738 316.967 417.369 320.164C405 323.361 409.185 322.054 403.346 323.943C389.036 328.467 375.872 336.538 364.31 347.929C355.954 356.115 347.539 367.793 344.164 375.924C343.362 377.813 342.389 380.161 341.931 381.077C340.843 383.539 337.695 393.213 337.065 396.248C335.118 405.636 334.717 409.758 334.66 419.432C334.603 428.992 334.946 432.599 336.664 440.326C341.416 462.251 353.951 482.633 371.807 497.457C376.101 501.007 386.632 507.704 392.068 510.338C400.366 514.289 409.068 516.862 419.599 518.466C426.581 519.496 447.531 519.267 454.17 518.008H454.172ZM527.836 456.525C528.637 455.609 531.156 452.345 533.446 449.256C539.229 441.414 541.573 439.181 543.92 439.181C545.523 439.181 556.913 443.418 561.493 445.763C564.012 447.023 566.989 447.309 567.788 446.336C568.818 445.133 567.845 443.072 562.75 435.517C557.654 427.904 556.341 425.442 556.341 423.209C556.341 421.491 560.234 415.997 565.498 410.271C566.929 408.725 568.704 406.492 569.391 405.346C570.65 403.285 570.593 401.396 569.276 401.396C568.933 401.396 564.467 402.426 559.489 403.686C546.497 406.892 545.294 407.064 543.634 405.232C542.489 403.972 534.763 391.435 532.931 387.771C532.53 387.084 531.614 386.11 530.813 385.537C528.351 383.991 527.836 385.194 527.149 393.952C526.347 404.542 525.431 410.382 524.344 411.356C523.485 412.157 520.966 412.902 508.832 416.051C501.22 418.055 499.388 419.487 501.85 421.491C503.224 422.693 504.827 423.38 511.694 425.728C520.909 428.935 522.168 429.45 523.599 430.767C525.031 432.084 525.031 432.313 523.657 448.4C522.97 456.127 523.313 458.074 525.317 458.074C525.889 458.074 527.034 457.387 527.836 456.528V456.525Z" fill="#991E16"/>
<path d="M767.427 489.155C762.961 484.803 756.667 478.793 753.518 475.816C721.925 445.703 721.238 444.962 718.375 439.178C711.623 425.324 714.883 409.982 726.903 399.506C730.681 396.185 735.716 393.382 740.067 392.237C743.788 391.206 755.293 391.378 759.068 392.466C763.362 393.726 769.371 397.161 772.92 400.365C774.523 401.854 776.069 403.056 776.355 403.113C776.584 403.113 778.244 401.854 779.962 400.25C786.543 394.238 793.355 391.664 802.742 391.664C812.013 391.664 818.826 394.184 825.292 400.021C833.075 407.061 836.224 414.448 836.224 425.496C836.224 430.42 835.995 432.135 834.793 435.456C831.587 444.214 831.816 443.985 796.845 478.106C786.371 488.353 777.328 496.767 776.699 496.882C775.954 496.996 773.092 494.649 767.427 489.155Z" fill="#991E16"/>
<path d="M549.528 1059.67C541.458 1059.16 540.886 1059.04 540.886 1057.55C540.886 1056.75 541.401 1056.35 542.718 1056.06C545.294 1055.55 546.038 1054.69 546.038 1052.29C546.038 1048.79 544.321 1041.98 543.233 1041.47C542.718 1041.18 539.054 1040.84 535.107 1040.61C529.496 1040.32 527.781 1040.38 527.266 1040.95C526.236 1042.27 523.659 1050.63 523.831 1052.17C523.946 1053.37 524.633 1054 526.751 1055.03C529.442 1056.29 530.071 1057.21 528.697 1057.73C528.354 1057.9 524.633 1057.84 520.571 1057.61C513.704 1057.21 513.131 1057.1 513.131 1056.01C513.131 1055.32 513.818 1054.58 514.849 1054.06C517.711 1052.69 517.539 1053.09 524.349 1035.69C529.96 1021.26 534.938 1008.78 535.911 1006.66C536.426 1005.52 536.884 1005.34 540.033 1005.34C542.838 1005.34 543.811 1005.57 544.613 1006.49C545.185 1007.12 546.388 1011.01 547.475 1015.48C548.506 1019.83 549.88 1025.72 550.567 1028.53C551.311 1031.39 551.998 1034.31 552.17 1035.11C553.029 1039.41 556.521 1053.26 557.093 1054.4C557.437 1055.15 558.582 1056.29 559.612 1056.92C560.815 1057.67 561.502 1058.52 561.387 1059.1C561.158 1060.24 559.269 1060.36 549.539 1059.67H549.528ZM542.5 1033C542.314 1032 541.859 1030.3 541.516 1028.99C541.172 1027.61 540.657 1025.44 540.371 1024.12C539.054 1018.05 537.852 1013.93 537.394 1013.93C536.649 1013.93 536.191 1014.96 533.558 1022.52C532.184 1026.47 530.695 1030.76 530.237 1032.13C528.921 1035.86 529.264 1036.48 532.585 1036.89C534.188 1037.11 536.993 1037.23 538.879 1037.17L542.314 1037.11H543.5L542.5 1033Z" fill="#1C1B1A"/>
<path d="M586.217 1059.84C585.358 1059.27 586.789 1057.78 588.793 1057.21C590.911 1056.52 591.369 1053.37 591.026 1042.04C589.938 1009.75 590.11 1010.84 586.446 1010.15C584.442 1009.81 583.354 1008.44 584.27 1007.52C584.556 1007.23 590.393 1006.83 597.32 1006.66C608.138 1006.37 610.313 1006.43 613.29 1007.29C623.191 1010.1 628.115 1017.65 628.802 1030.99C629.203 1038.72 628.287 1043.76 625.596 1048.57C622.562 1053.95 619.301 1056.64 613.863 1058.47C611.115 1059.39 608.138 1059.67 598.694 1059.96C592.228 1060.19 586.617 1060.13 586.217 1059.84ZM610.141 1054.98C613.118 1053.43 615.981 1049.65 617.352 1045.25C618.783 1040.66 619.069 1030.53 617.924 1024.81C615.806 1014.56 611.344 1009.92 603.5 1009.92C599.894 1009.92 599.665 1010.55 600.065 1018.34C600.237 1022.06 600.581 1031.51 600.752 1039.41C600.924 1047.25 601.325 1054.29 601.611 1054.98C602.012 1056.12 602.527 1056.29 604.817 1056.29C606.534 1056.29 608.538 1055.78 610.141 1054.98Z" fill="#1C1B1A"/>
<path d="M498.816 1055.72C497.27 1055.44 493.778 1054.92 491.09 1054.58C488.399 1054.23 484.452 1053.66 482.219 1053.32C480.044 1053.03 476.265 1052.57 473.921 1052.34C470.142 1052.06 469.627 1051.88 469.627 1050.85C469.627 1050.17 470.085 1049.65 470.772 1049.54C475.008 1048.85 475.352 1048.28 476.726 1039.81C477.814 1032.65 477.356 1031.28 474.15 1032.77C473.005 1033.28 472.661 1033.22 472.375 1032.54C472.031 1031.62 473.634 1029.39 474.665 1029.39C474.951 1029.39 475.867 1028.87 476.726 1028.3C478.157 1027.27 478.386 1026.64 479.016 1021.26C479.359 1018 479.989 1013.25 480.333 1010.67C481.077 1005 480.619 1003.51 477.642 1002.08C476.44 1001.51 475.638 1000.71 475.638 1000.08C475.638 998.877 477.127 998.762 482.963 999.621C485.082 999.907 489.143 1000.48 492.063 1000.82C496.242 1001.4 497.387 1001.74 497.559 1002.54C497.903 1003.92 497.502 1004.2 495.441 1004.2C491.605 1004.2 490.689 1006.26 489.659 1017.54C489.315 1021.15 489.372 1021.38 490.46 1021.38C491.09 1021.38 493.151 1020.63 494.926 1019.66C496.758 1018.74 498.475 1018.23 498.704 1018.46C499.906 1019.66 498.303 1021.38 493.666 1023.72C491.033 1025.04 488.685 1026.53 488.514 1027.05C488.285 1027.56 487.884 1030.02 487.598 1032.54C487.311 1035.06 486.853 1039.07 486.51 1041.42C485.708 1047.26 485.651 1049.37 486.281 1050C486.853 1050.57 494.866 1051.83 498.129 1051.89C501.392 1051.95 503.568 1049.43 506.026 1042.73C506.713 1040.79 508.431 1040.16 509.003 1041.59C509.347 1042.45 507.458 1054.75 506.828 1055.67C506.427 1056.36 503.049 1056.36 498.816 1055.73V1055.72Z" fill="#1C1B1A"/>
<path d="M652.487 1054.98C650.487 1054.18 646.031 1051.2 643.684 1048.11C642.539 1046.62 642.531 1046.61 641.623 1044.9C640.881 1043.5 640.965 1043.32 640.5 1042L639.5 1038.5C639.11 1036.61 638.016 1032.99 637.959 1025.67C637.902 1019.71 638.074 1018.28 639.333 1015.08C641.68 1008.72 647.746 1003.8 654.788 1002.48C661.598 1001.16 666.693 1002.02 670.987 1005.12C677.055 1009.52 680.373 1016.56 681.747 1027.56C682.983 1037.87 679.755 1049.82 669.67 1054.52C666.979 1055.78 666.649 1055.99 661.5 1056.1C658.888 1056.14 654.987 1055.98 652.487 1054.98ZM666.864 1050.97C670.7 1048.16 672.246 1042.61 671.788 1033.11C670.872 1014.9 666.464 1005.91 658.337 1005.91C655.188 1005.91 653.528 1006.6 651.413 1008.89C648.722 1011.75 647.92 1015.19 647.92 1024.29C647.92 1039.69 652.1 1050.74 658.509 1052.46C660.627 1053.03 665.204 1052.23 666.864 1050.97Z" fill="#1C1B1A"/>
<path d="M459.892 1050.34C451.308 1047.88 450.451 1046.85 445.986 1033.22C443.18 1024.69 442.379 1022.75 441.406 1022.63C440.146 1022.46 437.455 1025.32 437.055 1027.27C434.65 1039.06 434.65 1040.61 437.455 1042.78C439.631 1044.5 439.287 1046.28 436.826 1045.82C435.967 1045.65 432.074 1044.96 428.127 1044.27C420.401 1042.96 418.111 1042.15 418.111 1040.84C418.111 1040.26 418.855 1039.92 420.515 1039.81C424.294 1039.52 424.752 1038.72 426.982 1027.96C428.699 1019.66 432.134 1001.34 432.535 998.072C432.878 995.266 432.248 994.179 429.443 993.033C428.184 992.518 427.554 991.831 427.554 991.087C427.554 989.712 428.527 989.598 432.249 990.399C435.684 991.201 442.894 992.575 445.356 993.033C449.02 993.606 449.879 996.183 446.444 996.183C444.44 996.183 442.608 998.358 442.15 1001.28C441.806 1003.57 440.432 1010.95 439.459 1015.48C438.715 1019.03 439.116 1020.52 440.547 1019.71C441.119 1019.43 445.241 1015.42 449.761 1010.9C456.399 1004.14 457.888 1002.31 457.888 1000.94C457.888 999.907 457.43 999.048 456.686 998.59C455.14 997.617 455.426 995.327 457.029 995.384C460.235 995.556 471.339 998.018 471.74 998.59C472.656 1000.08 471.911 1001 469.335 1001.45C467.961 1001.68 465.957 1002.54 464.87 1003.29C459.946 1006.78 450.503 1014.91 450.216 1015.88C449.93 1016.91 450.216 1017.88 452.735 1024.24C453.823 1027.16 453.709 1026.76 457.201 1035.97C460.063 1043.53 460.75 1044.84 463.212 1047.54C464.243 1048.62 464.758 1049.71 464.586 1050.23C464.185 1051.26 463.155 1051.26 459.892 1050.34Z" fill="#1C1B1A"/>
<path d="M712.481 1048.45C710.706 1047.99 711.393 1046.68 713.912 1045.53C716.431 1044.44 716.832 1042.84 715.802 1037.63C714.829 1032.82 713.397 1025.84 712.596 1022.52C712.367 1021.43 711.737 1018.45 711.222 1015.94C709.447 1007.58 708.474 1003.34 707.901 1001.85C707.329 1000.19 705.325 999.048 703.149 999.048C701.546 999.048 700.745 998.075 701.604 997.216C702.119 996.701 707.727 995.327 715.169 993.895C716.772 993.609 720.207 992.922 722.895 992.406C729.819 991.089 734.113 991.777 739.151 995.098C743.674 998.075 746.247 1001.68 748.251 1007.69C751.285 1016.97 751.629 1022.86 749.568 1029.44C746.648 1038.6 741.098 1043.01 729.479 1045.36C727.589 1045.76 725.013 1046.33 723.754 1046.56C721.177 1047.14 715.627 1048.28 714.31 1048.57C713.852 1048.62 712.994 1048.57 712.478 1048.45H712.481ZM734 1040.5C739.839 1038.09 740.64 1033.8 740.64 1024.41C740.64 1018.57 740.468 1017.25 738.521 1010.5C736.747 1004.14 733.369 999.22 729.479 997.331C726.673 995.956 720.264 995.727 718.661 996.93C717.402 997.846 717.516 999.736 719.635 1009.35C720.436 1012.96 721.467 1017.88 721.982 1020.23C722.497 1022.58 723.331 1026.35 723.528 1027.67C723.725 1028.99 724 1031 724.5 1033.5C725 1036 724.843 1035.23 725 1036C725.157 1036.77 725.989 1039.69 726.333 1040.49C726.963 1042.27 727 1042.5 730.5 1041.5C734 1040.5 734 1040.5 734 1040.5Z" fill="#1C1B1A"/>
<path d="M402.373 1038.2C399.396 1037.46 395.334 1036.31 393.387 1035.68C391.441 1035.05 386.462 1033.99 385.5 1033.78C384.538 1033.57 386.5 1034 385.5 1033.78C384.5 1033.56 382.968 1033.05 380.62 1032.53C375.296 1031.27 374.326 1030.76 374.326 1029.38C374.326 1028.41 374.727 1028.24 376.845 1028.24C379.879 1028.24 380.738 1027.5 381.94 1023.83C382.856 1021.08 386.005 1009.4 386.921 1005.34C387.15 1004.25 388.295 999.73 389.44 995.324C390.585 990.915 391.501 986.623 391.501 985.822C391.501 984.218 390.241 982.787 388.18 982.157C387.379 981.928 386.921 981.413 387.035 980.84C387.322 979.466 390.07 979.637 396.937 981.527C402.833 983.188 405.407 983.817 408.384 984.505C414.281 985.764 421.09 987.768 421.72 988.398C422.35 989.028 422.235 990.116 421.09 994.522C419.716 999.733 419.659 999.905 418.056 999.905C416.396 999.905 416.396 999.905 416.11 995.667C415.766 990.514 415.136 989.884 408.441 988.112C401.917 986.451 401.746 986.509 400.2 992.864C399.456 995.785 398.597 999.217 398.311 1000.48C396.994 1005.69 396.994 1005.86 398.597 1006.49C399.398 1006.78 402.318 1007.58 405.063 1008.21C410.388 1009.52 411.93 1010.38 411.358 1011.87C410.957 1012.9 408.61 1013.07 407.064 1012.27C406.549 1011.99 405.347 1011.59 404.373 1011.41C403.457 1011.24 401.282 1010.78 399.622 1010.38C397.389 1009.87 396.473 1009.87 395.958 1010.38C395.614 1010.73 394.698 1013.3 393.954 1016.05C391.149 1026.3 390.347 1029.91 390.748 1030.88C390.92 1031.28 392.466 1032.02 394.24 1032.54C396.072 1033 398.477 1033.74 399.736 1034.09C403.858 1035.35 405.747 1035 407.92 1032.54C408.951 1031.34 409.5 1030.34 409.809 1029.62C410.5 1028 411.813 1027.62 412.901 1028.02C414.16 1028.47 414.046 1029.85 412.328 1035.11C410.611 1040.5 410.897 1040.38 402.37 1038.21L402.373 1038.2Z" fill="#1C1B1A"/>
<path d="M776.126 1032.37C762.626 1028.15 757.065 1012.36 757.065 999.332C757.065 994.751 757.5 993.5 758.267 990.918C761.587 983.477 770 978.438 779.215 978.438C787.799 978.438 795.07 984.562 799.075 995.155C803.554 1006.95 804.801 1024.09 791.063 1030.3C786.505 1032.42 781.5 1033.5 776.126 1032.37ZM788.89 1027.27C799.762 1020.8 789.726 994.627 784.198 987.139C779.618 980.957 770.805 981.183 767.541 987.539C761.908 999.162 772.691 1036.58 788.89 1027.27Z" fill="#1C1B1A"/>
<path fill-rule="evenodd" clip-rule="evenodd" d="M358.588 1025.61C354.523 1024.29 350.404 1023.03 349.545 1022.81C348 1022.52 346.912 1021.15 347.656 1020.4C347.828 1020.23 348.915 1020.06 350.003 1020.11C353.438 1020.23 354.297 1018.8 358.473 1006.2C360.477 999.907 362.366 993.838 362.595 992.75C363.454 989.887 363.454 989.887 363.454 989.887C363.454 989.887 364.198 987.883 364.599 986.451C365 985.02 365.515 983.302 365.801 982.558C366.088 981.813 366.317 979.981 366.317 978.378C366.317 975.801 366.145 975.4 364.599 974.541C362.137 973.11 362.309 970.59 364.771 971.564C365.458 971.793 369.923 973.224 374.615 974.713C379.367 976.202 383.429 977.633 383.715 977.92C384.688 978.779 383.085 979.809 380.509 979.924C378.62 980.038 377.761 980.439 376.788 981.699C376.043 982.558 375.5 983.599 375.5 984C375.5 984 373.811 989.658 371.864 995.725C365.684 1014.39 364.024 1020 364.024 1021.49C364.024 1022.92 366.314 1025.49 368.089 1026.07C369.176 1026.41 368.203 1028.24 367.058 1028.19C366.486 1028.13 362.707 1026.98 358.588 1025.61Z" fill="#1C1B1A"/>
<path d="M816.994 1021.32C816.822 1020.97 817.395 1020 818.368 1019.14C821.001 1016.68 821.059 1015.71 818.826 1010.1C817.738 1007.29 816.021 1002.88 815.047 1000.19C814.074 997.502 813.044 994.811 812.757 994.181C811.441 990.917 810.353 987.943 808.464 982.732C805.888 975.749 805.2 974.948 801.539 974.833C799.192 974.719 798.734 974.547 798.734 973.631C798.734 972.829 800.223 971.97 805.716 969.852C816.075 965.786 814.93 965.614 819.796 972.314C822.029 975.463 824.949 979.468 826.148 981.243C827.351 983.019 829.297 985.652 830.442 987.141C831.587 988.63 833.133 990.749 833.934 991.894C838.743 998.877 839.316 998.476 838.457 988.744C838.114 984.794 837.598 979.815 837.369 977.582C836.453 969.797 835.766 959.949 836.052 959.262C836.281 958.574 842.121 956.055 850.076 953.249C851.736 952.677 853.339 952.39 853.568 952.677C854.312 953.307 853.454 955.54 852.538 955.54C851.393 955.54 849.961 957.83 849.961 959.72C849.961 960.636 850.591 962.926 851.335 964.873C853.454 970.255 857.289 980.502 858.889 985.023C859.691 987.256 860.664 989.832 861.065 990.749C861.466 991.722 862.382 993.955 863.126 995.787C864.614 999.567 864.843 999.796 868.278 1000.2C871.771 1000.6 872 1001.97 868.736 1003.29C867.362 1003.86 864 1005 864 1005C864 1005 852.881 1009.01 852.423 1008.61C852.194 1008.33 852.309 1007.7 852.709 1007.18C855.171 1003.69 855.286 1003.06 854.255 999.684C853.683 997.909 852.767 995.332 852.251 993.901C851.679 992.469 850.362 989.148 849.389 986.46C845.782 977.015 842.293 968.426 841.777 967.742C840.575 966.138 840.06 967.055 840.403 970.318C840.747 973.296 842.064 988.807 842.751 997.053C842.865 998.942 843.266 1003.07 843.667 1006.21C844.296 1011.82 844.296 1011.88 842.98 1012.91C842.235 1013.48 841.205 1013.94 840.69 1013.94C840.174 1013.94 838.056 1011.59 835.652 1008.38C833.419 1005.29 829.812 1000.49 827.64 997.623C825.464 994.817 823.002 991.441 822.144 990.182C821.342 988.922 820.426 987.777 820.254 987.605C820.025 987.433 818.594 985.544 817.048 983.311C813.213 977.928 811.61 976.671 811.61 979.073C811.61 979.761 811.953 981.077 812.411 982.051C812.812 983.082 813.499 984.799 813.9 985.887C814.3 986.975 814.816 988.407 815.102 989.037C815.388 989.666 816.533 992.758 817.621 995.905C823.801 1013.02 825.118 1015.37 828.553 1015.37C830.213 1015.37 830.843 1015.6 830.957 1016.34C831.186 1017.43 831.072 1017.49 823.403 1020.29C818.422 1022.12 817.564 1022.24 816.994 1021.32Z" fill="#1C1B1A"/>
<path d="M322.815 1013.41C321.384 1012.84 319.495 1012.1 318.522 1011.7C317.606 1011.3 314.629 1010.21 311.941 1009.23C309.25 1008.32 306.731 1007.17 306.273 1006.77C305.071 1005.63 306.044 1004.77 308.677 1004.77C309.994 1004.77 311.483 1004.43 311.941 1004.02C312.914 1003.22 314 1001 314.231 1000.19C314.326 999.858 316.298 994.23 317.5 992C317.786 991.427 317.762 991.346 318 990.803C318.333 990.042 318.696 988.796 319.326 987.422C321.215 983.07 321.73 981.696 323.734 975.572C324.822 972.251 326.139 968.761 326.597 967.73C327.913 964.753 327.627 962.978 325.337 960.633C323.162 958.4 323.162 956.911 325.337 957.426C326.997 957.827 338.101 961.721 340.563 962.809C349.949 966.932 352.983 969.105 354.815 972.884C358.078 979.637 354.414 989.944 347.376 993.778C346.288 994.408 343.826 995.095 341.937 995.266C338.731 995.61 336.841 995.381 330.89 993.892C327.57 993.091 327.284 993.434 324.768 1000.53C322.02 1008.49 321.962 1008.2 326.943 1012.5C327.916 1013.3 327.974 1013.58 327.344 1013.98C326.313 1014.61 325.855 1014.56 322.821 1013.41H322.815ZM338.499 990.803C339.529 990.345 341.018 989.143 341.819 988.112C343.022 986.394 343.766 984.848 345.77 979.698C346.457 977.865 346.399 971.741 345.655 970.367C344.968 968.993 340.159 965.844 338.845 965.844C337.872 965.844 336.145 968.335 335 972C334.599 973.26 334.557 973.5 334 975C334 975 332.5 979.336 332.313 979.698C329.508 985.137 328.884 988.401 329.628 989.833C330.601 991.55 335.468 992.066 338.499 990.806V990.803Z" fill="#1C1B1A"/>
<path d="M277.596 994.983C276.509 994.468 273.932 993.265 271.871 992.292C265.176 989.2 251.038 982.446 249.149 981.416C246.057 979.87 246.802 978.438 252.985 973.917C254.416 972.887 257.908 970.367 260.768 968.249C263.687 966.13 267.463 963.382 269.295 962.125C271.07 960.865 274.906 958.002 277.823 955.829C280.685 953.596 284.232 950.962 285.72 949.931C289.327 947.469 290.014 946.209 288.296 945.122C285.72 943.404 278.109 940.025 276.277 939.682C274.674 939.453 273.987 939.682 272.212 941.228C271.067 942.258 269.693 943.862 269.235 944.721C268.319 946.553 267.518 946.725 265.972 945.58C264.999 944.835 265.056 944.492 267.289 939.968C268.605 937.391 269.865 934.815 270.151 934.357C271.067 932.639 271.64 932.811 294.019 943.573C297.282 945.119 300.141 946.378 300.428 946.378C301.515 946.378 302.26 948.611 301.63 949.757C301.115 950.73 293.103 956.625 283.656 962.981C282.053 964.069 278.275 966.817 275.301 969.05C272.324 971.226 267.632 974.719 264.884 976.72C259.846 980.385 259.102 981.244 259.732 982.274C259.961 982.618 262.823 984.221 266.141 985.882C275.298 990.52 278.847 990.176 281.939 984.393C283.027 982.389 284.286 981.931 285.488 983.133C286.519 984.164 286.347 985.252 284.286 989.314C280.679 996.355 280.565 996.469 277.591 994.983H277.596Z" fill="#1C1B1A"/>
<path d="M886.65 991.548C883.444 990.574 880.298 988.112 877.951 984.679C876.803 983 876 981 876 981C876 981 872.626 973.917 869.309 966.989C867.992 964.298 866.103 960.235 865.015 958.002C863.985 955.712 862.553 953.593 861.924 953.192C860.131 952.367 855.111 954.39 855.111 951.99C855.111 950.558 856.027 950.043 867.417 945.064C870.279 943.862 872.913 942.602 873.256 942.258C874.172 941.514 875.718 942.087 875.718 943.175C875.718 943.69 875.088 944.492 874.287 945.007C873.428 945.522 872.741 946.725 872.512 947.87C872.168 949.874 872.512 951.134 875.432 957.544C876.29 959.433 877.378 961.896 877.836 962.984C879.611 967.049 884.932 977.639 886.65 980.445C887.623 982.048 889.226 983.938 890.257 984.625C894.092 987.259 901.589 985.426 903.994 981.304C904.795 979.987 905.081 978.441 905.024 975.921C905.024 972.314 904.738 971.627 900.158 961.838C899.07 959.491 896.551 954.054 894.605 949.817C892.658 945.58 890.654 941.632 890.139 941.116C889.509 940.372 888.422 940.085 886.246 940.085C882.983 940.085 882.067 939.398 883.212 938.024C884.071 936.993 895.403 931.499 896.663 931.499C897.751 931.499 897.693 933.446 896.548 934.42C896.09 934.82 895.289 935.851 894.888 936.71C893.686 938.943 893.743 939 902.614 957.547C909.023 970.771 909.195 971.343 909.195 976.15C909.195 979.872 908.966 980.788 907.535 983.019C905.187 986.741 900.438 989.773 894.313 991.376C891.853 992.066 886.911 991.627 886.65 991.548Z" fill="#1C1B1A"/>
<path d="M957.854 930.18C939.082 910.316 936.964 907.968 936.964 906.938C936.964 906.594 941.429 901.899 946.865 896.462C961.566 881.761 974.108 865.74 987.965 850.322C1010.5 821 1016.14 808.643 1029.35 787.806C1068.46 723.965 1086.94 644.844 1090.65 570.841C1093.02 524.315 1088.41 478.322 1077.72 433.163C1062.91 379.835 1042.44 330.511 1013.37 283.003C948.82 169.25 820.174 91.2115 693.7 66.3753C628.857 54.0727 562.038 55.1147 497.385 68.2648C424.364 82.8689 353.689 117.845 295.627 163.533C229.443 213.769 172.975 287.893 143.944 366.759C122.656 422.097 110.363 479.115 109.024 538.787C107.61 593.8 115.685 649.931 133.126 702.226C152.547 766.286 188.959 828.23 234.67 877.286C238.506 881.409 239.937 883.582 239.537 884.67C239.365 885.128 237.361 887.132 235.071 889.193C230.198 893.566 225.597 898.242 220.704 902.589C217.098 906.025 215.094 907.456 213.894 907.456C212.349 907.456 210.631 905.91 203.764 898.297C176.229 867.58 153.256 834.249 133.077 798.119C109.362 755.434 93.157 708.095 82.7605 660.441C67.1703 594.473 68.0398 523.517 79.0393 457.212C93.1344 364.18 136.803 277.273 197.475 206.186C239.103 157.358 290.889 113.63 348.011 83.9654C393.537 60.4676 441.255 41.5578 491.677 31.4698C526.899 24.3533 563.041 20.1324 598.995 20.1324C701.084 20.1324 803.539 49.7554 888.903 105.839C947.873 144.679 1003.87 195.971 1040.86 256.451C1064.23 293.26 1084.53 331.473 1098.96 372.78C1104.8 393.147 1113.13 412.957 1116.42 434.034C1126.55 481.909 1130.67 530.358 1127.7 579.436C1124.14 635.57 1113.4 692.566 1091.52 744.59C1068.58 807.433 1028.55 867.716 981.107 914.903C966.911 928.986 962.904 932.65 961.476 932.65C959.851 932.535 959.111 930.85 957.854 930.18Z" fill="#1C1B1A"/>
<path d="M437.255 908.479C436.167 908.192 433.991 907.334 432.388 906.589C430.843 905.788 428.037 904.471 426.265 903.612C423.804 902.467 422.888 901.665 422.43 900.348C420.941 896.053 422.201 894.11 429.354 889.758C434.907 886.322 436.221 885.005 437.137 881.802C438.74 876.247 437.309 859.591 434.103 845.794C433.359 842.645 432.614 839.441 432.443 838.639C432.328 837.838 431.641 835.032 431.011 832.344C430.324 829.652 429.294 825.017 428.664 822.04C427.519 816.6 425.63 811.965 425.63 811.965C425.468 811.453 425.229 810.762 425.229 810.762C425.229 810.696 424.485 808.415 423.569 806.468C421.451 801.887 416.473 790.324 415.5 787.693C415.099 786.605 414.584 785.459 414.355 785.116C414.183 784.83 414.355 785.116 413.21 781.967C412.809 780.535 412.179 778.359 411.778 777.099C410.118 771.66 408.801 764.219 408 755.919C407.37 748.994 407.943 738.172 409.202 732.162C409.488 730.731 410.175 727.123 410.633 724.149C411.149 721.171 411.95 716.765 412.408 714.417C412.923 712.07 413.553 708.179 413.839 705.831C415.042 696.043 415.442 693.81 416.874 688.313C419.851 676.692 424.886 665.586 431.927 654.939C436.507 648.013 440.684 643.547 446.581 639.138C450.588 636.103 450.588 636.103 454.478 630.266C459.631 622.481 467.013 613.663 468.387 613.663C469.418 613.663 470.276 614.751 470.792 616.813C471.765 620.993 473.54 620.935 476.116 616.755C478.749 612.404 481.211 609.658 482.184 610.002C483.1 610.345 484.303 614.296 485.333 620.248C487.108 630.209 488.31 635.705 489.054 637.137C489.455 637.939 491.287 639.599 493.005 640.744C497.642 643.836 503.249 649.559 505.024 652.995C505.826 654.656 506.513 656.259 506.513 656.545C506.513 658.148 509.661 663.642 512.636 667.135C517.902 673.374 518.189 673.889 517.158 676.294C516.7 677.439 516.013 679.844 515.727 681.676C515.04 685.169 512.349 690.95 510.346 693.125C509.659 693.87 505.823 696.618 501.818 699.307C490.371 706.919 488.653 709.095 490.772 713.103C491.917 715.165 495.695 718.657 498.898 720.487C499.872 721.117 503.593 723.407 507.197 725.583C510.746 727.816 514.293 729.935 515.094 730.336C518.415 732.053 526.771 738.521 531.007 742.586C543.256 754.551 557.966 775.616 563.516 789.127C564.318 791.016 565.177 793.078 565.463 793.708C565.692 794.338 566.093 795.368 566.207 795.998C566.379 796.628 567.18 799.434 568.039 802.179C573.134 819.297 575.364 840.248 573.936 857.821C572.963 870.186 572.963 870.358 574.337 870.587C578.688 871.217 591.337 859.539 599.063 847.861C605.186 838.645 607.648 832.06 610.109 818.607C610.5 817 611.483 806.228 610.468 794.453C610.483 793.728 609.537 789.353 609.537 789.353C609.193 786.719 608.678 782.886 608.392 780.881C607.762 776.072 608.564 773.612 611.254 772.124C615.205 769.948 619.381 771.837 621.614 776.647C631.4 798.171 632.259 826.394 623.732 849.521C621.556 855.419 616.178 866.009 612.915 870.874C606.505 880.376 598.719 888.049 589.619 893.772C578.115 901.041 575.539 902.243 565.752 905.049C555.965 907.797 553.045 908.026 529.693 908.313C507.715 908.599 504.623 908.427 493.634 906.652C487.566 905.622 469.08 905.851 461.583 906.996C449.563 908.885 448.418 909.057 443.838 909C441.319 908.943 438.342 908.714 437.257 908.485L437.255 908.479ZM483.787 877.911C483.673 874.418 482.471 870.298 481.268 869.21C480.753 868.752 478.291 868.122 475.83 867.836C473.368 867.55 470.792 867.149 470.105 866.92C468.387 866.462 466.841 868.18 467.242 870.069C467.414 870.871 467.757 873.218 467.929 875.28C468.502 880.891 468.788 881.063 476.972 880.891L483.896 880.719L483.782 877.914L483.787 877.911Z" fill="#1C1B1A"/>
<mask id="path-22-inside-1_0_1" fill="white">
<path d="M596.977 907.969C594.916 907.739 590.453 907.281 587.018 906.938C583.526 906.594 580.494 906.079 580.265 905.85C579.979 905.564 582.269 904.075 585.303 902.586C588.395 901.04 591.77 899.151 592.8 898.463C592.8 898.463 595.249 897.096 595.148 897.146C595.663 897.089 606.652 886.384 610.43 882.262C622.736 868.694 632.523 846.884 634.584 828.449C635.214 822.551 635.099 805.036 634.355 799.825C633.783 795.702 631.722 787.002 630.748 784.654C630.519 784.024 629.489 781.39 628.458 778.814C624.508 768.682 619.759 764.902 612.259 765.876C608.824 766.277 606.248 767.995 604.534 770.915C603.331 773.033 603.217 773.606 603.56 779.501C603.732 782.994 604.076 788.144 604.362 790.95C605.106 798.677 604.763 819.574 603.847 823.007C601.27 832.795 598.637 838.693 593.144 847.05C588.564 854.033 581.697 861.076 579.464 861.076C579.235 861.076 579.235 855.751 579.407 849.226C580.094 826.786 577.059 804.231 571.852 792.668C568.417 785.17 564.928 776.294 564.928 775.206C564.928 772.229 569.336 766.334 580.554 754.255C582.043 752.652 582.29 752.324 583.5 751C584.365 750.054 585.009 749.313 586 748.5C587.735 747.076 589.5 745.5 589.5 745.5C590.72 744.498 593.836 742.173 595.039 740.971C597.157 739.024 602.364 734.79 619.25 721.508C628.521 714.239 650.442 696.034 652.389 693.972C653.248 693.056 656.282 690.308 659.084 687.903C670.302 678.171 676.6 671.472 680.089 665.577C683.238 660.309 686.1 654.243 687.071 650.921C688.159 647.371 688.273 638.442 687.3 635.808L686.67 633.976L679.574 633.632C673.05 633.346 672.249 633.231 668.356 631.399C666.009 630.254 663.203 628.364 661.832 626.933L659.428 624.413L651.244 624.585C645.347 624.642 642.144 624.47 639.739 623.783C631.67 621.665 624.972 616.285 622.453 609.815C621.594 607.753 620.449 605.291 619.819 604.318C618.216 601.856 613.808 592.583 613.41 590.807C612.838 588.517 613.983 585.998 616.33 584.397C618.62 582.794 619.879 582.221 627.605 579.129C630.468 577.984 633.559 576.724 634.472 576.266C635.446 575.866 637.22 575.064 638.48 574.491C642.144 572.888 647.294 569.166 651.301 565.275L655.08 561.668L655.366 511.119L655.652 460.628L661.947 460.456C665.439 460.399 668.642 460.57 669.1 460.914C669.844 461.372 669.959 466.869 670.073 503.621C670.131 527.493 670.417 546.042 670.703 546.328C670.989 546.615 672.249 546.386 673.737 545.756C679.348 543.351 694.628 540.488 701.899 540.488C707.967 540.488 712.601 541.289 719.414 543.408C724.624 545.068 731.663 548.447 735.041 550.963C738.132 553.254 738.361 552.509 738.361 540.946C738.361 532.302 738.533 529.84 739.449 526.863C741.567 519.937 745.288 515.643 751.926 512.551L755.247 511.005H775.279H795.31L799.49 512.723C805.727 515.299 809.906 519.934 812.082 526.748C812.54 528.123 812.826 541.977 812.941 571.17C813.112 618.341 812.883 615.306 816.948 617.768C818.723 618.856 820.04 618.913 847.113 618.913C874.187 618.913 875.503 618.856 877.278 617.768C878.309 617.196 879.568 615.993 880.083 615.191C880.999 613.76 881.057 608.667 880.942 537.393C880.828 467.038 880.885 461.026 881.744 460.682C882.946 460.224 893.649 460.224 894.851 460.682C895.652 461.026 895.767 468.295 895.767 537.164C895.767 611.298 895.71 613.474 894.622 617.135C892.504 624.347 887.927 629.386 881.057 632.192L877.736 633.509H846.543H815.351L811.629 631.677C807.45 629.615 805.049 627.554 802.415 623.663C798.293 617.708 798.465 620.17 798.465 573.973C798.408 528.062 798.522 529.208 794.801 526.574C793.083 525.314 792.74 525.314 775.571 525.314C756.398 525.314 756.283 525.314 753.993 528.864C753.077 530.296 752.963 532.3 752.963 550.502V570.538L756.34 577.406C760.52 585.935 760.233 585.248 762.921 593.207C765.04 599.502 769.788 617.937 771.792 627.497C772.25 629.844 773.166 633.735 773.796 636.083C774.998 640.778 777.861 655.545 779.235 664.191C781.41 677.816 782.097 716.172 780.38 728.308C778.834 739.585 774.826 751.95 770.249 759.448C762.237 772.615 755.31 779.484 738.083 791.104C725.434 799.691 725.091 800.206 724.06 811.54C723.717 815.32 723.03 823.047 722.514 828.715C721.255 842.627 721.255 861.746 722.457 867.071C722.972 869.304 723.716 872.625 724.117 874.454C725.033 878.806 727.266 881.036 734.019 884.415C741.63 888.251 744.95 893.459 742.718 898.097C740.886 901.991 733.389 903.937 720.339 903.995C711.525 903.995 706.659 902.162 701.853 896.897C696.128 890.716 694.07 883.043 693.211 865.356C692.409 850.07 692.467 850.07 690.348 842.973C686.856 831.295 686.341 830.551 683.424 833.185C682.623 833.872 679.531 836.277 676.557 838.567C662.934 848.871 662.934 848.871 660.244 857.629C658.469 863.469 656.465 868.047 653.548 873.086C651.029 877.38 650.743 880.355 652.518 883.218C654.235 886.024 655.953 886.825 661.732 887.455C673.981 888.715 678.389 891.692 677.416 898.045C676.786 902.34 672.721 905.086 664.595 906.632C657.212 908.12 606.386 909.094 597 907.948L596.977 907.969Z"/>
</mask>
<path d="M596.977 907.969C594.916 907.739 590.453 907.281 587.018 906.938C583.526 906.594 580.494 906.079 580.265 905.85C579.979 905.564 582.269 904.075 585.303 902.586C588.395 901.04 591.77 899.151 592.8 898.463C592.8 898.463 595.249 897.096 595.148 897.146C595.663 897.089 606.652 886.384 610.43 882.262C622.736 868.694 632.523 846.884 634.584 828.449C635.214 822.551 635.099 805.036 634.355 799.825C633.783 795.702 631.722 787.002 630.748 784.654C630.519 784.024 629.489 781.39 628.458 778.814C624.508 768.682 619.759 764.902 612.259 765.876C608.824 766.277 606.248 767.995 604.534 770.915C603.331 773.033 603.217 773.606 603.56 779.501C603.732 782.994 604.076 788.144 604.362 790.95C605.106 798.677 604.763 819.574 603.847 823.007C601.27 832.795 598.637 838.693 593.144 847.05C588.564 854.033 581.697 861.076 579.464 861.076C579.235 861.076 579.235 855.751 579.407 849.226C580.094 826.786 577.059 804.231 571.852 792.668C568.417 785.17 564.928 776.294 564.928 775.206C564.928 772.229 569.336 766.334 580.554 754.255C582.043 752.652 582.29 752.324 583.5 751C584.365 750.054 585.009 749.313 586 748.5C587.735 747.076 589.5 745.5 589.5 745.5C590.72 744.498 593.836 742.173 595.039 740.971C597.157 739.024 602.364 734.79 619.25 721.508C628.521 714.239 650.442 696.034 652.389 693.972C653.248 693.056 656.282 690.308 659.084 687.903C670.302 678.171 676.6 671.472 680.089 665.577C683.238 660.309 686.1 654.243 687.071 650.921C688.159 647.371 688.273 638.442 687.3 635.808L686.67 633.976L679.574 633.632C673.05 633.346 672.249 633.231 668.356 631.399C666.009 630.254 663.203 628.364 661.832 626.933L659.428 624.413L651.244 624.585C645.347 624.642 642.144 624.47 639.739 623.783C631.67 621.665 624.972 616.285 622.453 609.815C621.594 607.753 620.449 605.291 619.819 604.318C618.216 601.856 613.808 592.583 613.41 590.807C612.838 588.517 613.983 585.998 616.33 584.397C618.62 582.794 619.879 582.221 627.605 579.129C630.468 577.984 633.559 576.724 634.472 576.266C635.446 575.866 637.22 575.064 638.48 574.491C642.144 572.888 647.294 569.166 651.301 565.275L655.08 561.668L655.366 511.119L655.652 460.628L661.947 460.456C665.439 460.399 668.642 460.57 669.1 460.914C669.844 461.372 669.959 466.869 670.073 503.621C670.131 527.493 670.417 546.042 670.703 546.328C670.989 546.615 672.249 546.386 673.737 545.756C679.348 543.351 694.628 540.488 701.899 540.488C707.967 540.488 712.601 541.289 719.414 543.408C724.624 545.068 731.663 548.447 735.041 550.963C738.132 553.254 738.361 552.509 738.361 540.946C738.361 532.302 738.533 529.84 739.449 526.863C741.567 519.937 745.288 515.643 751.926 512.551L755.247 511.005H775.279H795.31L799.49 512.723C805.727 515.299 809.906 519.934 812.082 526.748C812.54 528.123 812.826 541.977 812.941 571.17C813.112 618.341 812.883 615.306 816.948 617.768C818.723 618.856 820.04 618.913 847.113 618.913C874.187 618.913 875.503 618.856 877.278 617.768C878.309 617.196 879.568 615.993 880.083 615.191C880.999 613.76 881.057 608.667 880.942 537.393C880.828 467.038 880.885 461.026 881.744 460.682C882.946 460.224 893.649 460.224 894.851 460.682C895.652 461.026 895.767 468.295 895.767 537.164C895.767 611.298 895.71 613.474 894.622 617.135C892.504 624.347 887.927 629.386 881.057 632.192L877.736 633.509H846.543H815.351L811.629 631.677C807.45 629.615 805.049 627.554 802.415 623.663C798.293 617.708 798.465 620.17 798.465 573.973C798.408 528.062 798.522 529.208 794.801 526.574C793.083 525.314 792.74 525.314 775.571 525.314C756.398 525.314 756.283 525.314 753.993 528.864C753.077 530.296 752.963 532.3 752.963 550.502V570.538L756.34 577.406C760.52 585.935 760.233 585.248 762.921 593.207C765.04 599.502 769.788 617.937 771.792 627.497C772.25 629.844 773.166 633.735 773.796 636.083C774.998 640.778 777.861 655.545 779.235 664.191C781.41 677.816 782.097 716.172 780.38 728.308C778.834 739.585 774.826 751.95 770.249 759.448C762.237 772.615 755.31 779.484 738.083 791.104C725.434 799.691 725.091 800.206 724.06 811.54C723.717 815.32 723.03 823.047 722.514 828.715C721.255 842.627 721.255 861.746 722.457 867.071C722.972 869.304 723.716 872.625 724.117 874.454C725.033 878.806 727.266 881.036 734.019 884.415C741.63 888.251 744.95 893.459 742.718 898.097C740.886 901.991 733.389 903.937 720.339 903.995C711.525 903.995 706.659 902.162 701.853 896.897C696.128 890.716 694.07 883.043 693.211 865.356C692.409 850.07 692.467 850.07 690.348 842.973C686.856 831.295 686.341 830.551 683.424 833.185C682.623 833.872 679.531 836.277 676.557 838.567C662.934 848.871 662.934 848.871 660.244 857.629C658.469 863.469 656.465 868.047 653.548 873.086C651.029 877.38 650.743 880.355 652.518 883.218C654.235 886.024 655.953 886.825 661.732 887.455C673.981 888.715 678.389 891.692 677.416 898.045C676.786 902.34 672.721 905.086 664.595 906.632C657.212 908.12 606.386 909.094 597 907.948L596.977 907.969Z" fill="#1C1B1A"/>
<path d="M596.922 908.466C596.959 908.135 596.995 907.803 597.032 907.472C593.71 907.108 590.389 906.774 587.068 906.44C584.896 906.228 582.245 905.875 580.619 905.496C580.742 905.604 580.753 905.829 580.732 905.871C580.715 905.938 580.706 905.938 580.707 905.941C580.708 905.938 580.734 905.904 580.764 905.874C580.827 905.808 580.913 905.733 581.002 905.661C581.181 905.517 581.381 905.375 581.585 905.238C581.993 904.964 582.423 904.703 582.855 904.452C583.724 903.949 584.617 903.48 585.523 903.035C588.09 901.735 590.601 900.424 593.078 898.879L593.044 898.9C593.433 898.682 593.824 898.464 594.213 898.246C594.41 898.136 594.609 898.024 594.806 897.914C594.905 897.859 595.004 897.803 595.103 897.747C595.152 897.72 595.2 897.693 595.252 897.663C595.274 897.651 595.304 897.634 595.326 897.621C595.341 897.613 595.352 897.606 595.365 897.599C595.373 897.594 595.38 897.59 595.386 897.587C595.389 897.585 595.394 897.582 595.401 897.578C595.404 897.576 595.408 897.574 595.413 897.571C595.416 897.569 595.419 897.567 595.424 897.563C595.427 897.562 595.422 897.565 595.442 897.552C595.452 897.544 595.46 897.54 595.499 897.504C595.519 897.478 595.551 897.474 595.617 897.325C595.646 897.256 595.694 897.066 595.571 896.873C595.444 896.687 595.286 896.66 595.219 896.649C594.969 896.641 595.014 896.673 594.978 896.676C594.959 896.683 594.952 896.686 594.946 896.689C594.934 896.694 594.93 896.696 594.925 896.698L595.203 897.643C601.194 892.732 605.78 887.809 610.799 882.6C623.996 867.477 632.487 848.391 635.081 828.505C635.434 824.729 635.46 820.986 635.49 817.232C635.477 811.41 635.495 805.601 634.85 799.754C634.001 794.557 632.927 789.514 631.21 784.462L631.218 784.483C630.471 782.507 629.699 780.575 628.922 778.628C626.589 771.777 620.62 763.547 612.195 765.38C608.88 765.68 605.716 767.743 604.103 770.662C602.241 773.36 603.019 776.678 603.061 779.53C603.259 783.356 603.497 787.172 603.865 791.001C604.506 801.555 604.586 812.5 603.364 822.878C601.252 831.43 597.68 839.493 592.726 846.775C589.073 852.016 584.773 858.024 579.464 860.576C580.143 857.71 579.684 853.021 579.907 849.239C580.219 830.134 579.411 810.532 572.308 792.463C569.782 786.807 567.081 780.856 565.428 775.206C567.911 767.353 575.274 761.123 580.92 754.595C581.926 753.523 582.887 752.409 583.869 751.337C584.67 750.458 585.431 749.603 586.317 748.887C587.513 747.904 588.677 746.899 589.833 745.873L589.817 745.886C591.654 744.395 593.595 743.02 595.392 741.325L595.377 741.339C603.179 734.626 611.441 728.341 619.559 721.901C630.796 712.931 641.934 703.909 652.753 694.315C654.837 692.238 657.145 690.243 659.41 688.282C667.072 681.488 675.024 674.711 680.519 665.832C683.272 661.127 685.836 656.322 687.551 651.061C688.688 645.934 688.929 640.862 687.769 635.635L687.773 635.645C687.563 635.035 687.353 634.424 687.143 633.813L687.033 633.493L686.694 633.477C684.329 633.362 681.964 633.247 679.598 633.133C675.715 632.968 671.967 632.868 668.569 630.947C666.275 629.791 663.992 628.357 662.193 626.587C661.392 625.748 660.591 624.908 659.79 624.068L659.638 623.909L659.417 623.913C656.689 623.97 653.962 624.028 651.234 624.085C647.406 624.075 643.484 624.251 639.876 623.302L639.866 623.299C632.639 621.39 625.729 616.636 622.919 609.634L622.915 609.623C622.107 607.732 621.33 605.88 620.239 604.046C617.806 599.841 615.523 595.187 613.898 590.698L613.895 590.686C613.322 588.466 614.672 586.095 616.612 584.81C619.918 582.445 623.965 581.21 627.791 579.593C630.098 578.659 632.387 577.778 634.696 576.713L634.662 576.729C636.029 576.158 637.354 575.55 638.687 574.946C643.583 572.652 647.785 569.303 651.649 565.634C652.906 564.434 654.166 563.232 655.425 562.03L655.579 561.883L655.58 561.671C655.675 544.821 655.771 527.971 655.866 511.122C655.961 494.291 656.057 477.461 656.152 460.631L655.666 461.128C657.764 461.07 659.862 461.013 661.961 460.956C664.255 460.939 667.013 460.902 668.8 461.314L668.838 461.34C669.898 474.508 669.404 489.48 669.573 503.623C669.716 517.969 669.362 531.762 670.349 546.682C670.66 546.951 670.865 546.922 671.041 546.946C671.219 546.957 671.373 546.945 671.524 546.929C671.823 546.894 672.099 546.833 672.371 546.761C672.912 546.617 673.428 546.429 673.932 546.216C682.797 543.056 692.472 541.386 701.899 540.988C707.813 540.908 713.622 542.085 719.266 543.885C724.688 545.71 730.072 548.118 734.742 551.364C735.223 551.712 735.68 552.068 736.304 552.342C736.608 552.465 737.071 552.618 737.559 552.373C738.02 552.118 738.173 551.728 738.294 551.424C738.697 550.173 738.7 549.033 738.771 547.866C738.866 545.55 738.857 543.26 738.861 540.946C738.951 536.244 738.572 531.417 739.927 527.01C741.632 520.742 746.171 515.564 752.137 513.004C753.244 512.489 754.351 511.974 755.458 511.458L755.247 511.505C761.924 511.505 768.602 511.505 775.279 511.505C781.956 511.505 788.633 511.505 795.31 511.505L795.12 511.467C796.513 512.04 797.907 512.613 799.3 513.185C805.282 515.512 809.775 520.767 811.606 526.9C812.578 541.349 812.292 556.393 812.441 571.172C812.472 579.248 812.485 587.178 812.542 595.183C812.576 599.177 812.609 603.168 812.753 607.197C812.833 609.19 812.919 611.22 813.209 613.224C813.376 614.235 813.539 615.27 814.153 616.266C814.801 617.301 815.902 617.693 816.689 618.196C826.992 620.477 836.948 619.097 847.113 619.413C857.278 619.097 867.234 620.477 877.539 618.194L877.521 618.205C878.725 617.486 879.682 616.625 880.504 615.461C882.48 589.095 881.199 563.484 881.442 537.392C881.54 511.909 880.891 485.544 881.93 461.146C885.877 460.686 890.718 460.686 894.673 461.149L894.654 461.141C895.692 485.496 895.138 511.749 895.267 537.164C894.971 563.836 896.261 590.771 894.143 616.993C892.328 623.662 887.318 629.245 880.868 631.729C879.766 632.166 878.659 632.605 877.552 633.044L877.736 633.009C867.338 633.009 856.941 633.009 846.543 633.009C836.146 633.009 825.748 633.009 815.351 633.009L815.572 633.06C814.331 632.45 813.09 631.839 811.85 631.228C808.139 629.5 805.046 626.823 802.829 623.383C797.293 616.857 799.584 607.438 798.995 599.255C798.948 590.807 798.968 582.473 798.965 573.973C798.953 565.803 798.957 557.846 798.908 549.716C798.878 545.65 798.847 541.623 798.7 537.581C798.616 535.541 798.529 533.554 798.237 531.488C798.079 530.472 797.895 529.429 797.392 528.43C796.892 527.383 795.881 526.719 795.09 526.166C788.537 523.611 782.084 525.168 775.571 524.814C771.742 524.818 767.96 524.799 764.144 524.875C762.241 524.926 760.319 524.966 758.394 525.26C757.422 525.425 756.414 525.65 755.516 526.277C754.618 526.908 754.09 527.806 753.573 528.593C751.596 536.091 752.723 543.189 752.463 550.502C752.463 557.181 752.463 563.859 752.463 570.538L752.514 570.759C753.64 573.048 754.766 575.337 755.891 577.627C758.496 582.755 760.745 587.87 762.447 593.367C765.925 604.583 768.774 616.104 771.303 627.6C771.884 630.494 772.561 633.355 773.313 636.213C775.465 645.451 777.188 654.881 778.741 664.269C781.148 685.401 781.654 707.064 779.885 728.238C778.292 739.007 775.286 749.783 769.822 759.188C762.354 772.507 750.452 782.357 737.803 790.689C734.181 793.227 730.395 795.449 727.264 798.784C723.997 802.285 724.048 807.219 723.562 811.495C723.045 817.216 722.537 822.948 722.016 828.67C721.057 841.476 720.324 854.286 721.969 867.181C722.534 869.639 723.087 872.101 723.629 874.561C724.389 879.91 729.588 882.749 733.795 884.862C738.754 887.297 744.898 892.27 742.267 897.88C737.585 903.921 727.934 903.13 720.337 903.495C713.586 903.674 706.597 901.878 702.222 896.56C694.497 888.369 694.475 876.211 693.71 865.332C693.185 857.831 693.48 850.041 690.827 842.83C690.108 840.44 689.414 838.08 688.58 835.713C688.142 834.547 687.769 833.355 686.925 832.22C686.699 831.944 686.409 831.647 685.963 831.5C685.509 831.35 685.034 831.467 684.702 831.625C684.027 831.955 683.569 832.392 683.089 832.814L683.098 832.805C680.882 834.62 678.547 836.396 676.252 838.171C669.741 843.348 661.014 848.326 659.766 857.482C658.161 862.851 655.945 868.003 653.115 872.836C653.019 872.999 652.927 873.16 652.834 873.327C651.125 876.203 649.916 880.345 652.093 883.481C653.867 887.091 658.329 887.571 661.678 887.952C665.243 888.338 668.831 888.828 672.091 890.125C675.45 891.272 677.728 894.449 676.922 897.969C676.076 903.418 669.563 905.113 664.502 906.141C642.244 908.114 619.399 908.46 597.061 907.452L596.833 907.424L596.663 907.579C596.655 907.586 596.648 907.593 596.64 907.6C596.865 907.846 597.089 908.092 597.314 908.338C597.322 908.331 597.329 908.324 597.337 908.317L596.939 908.444C619.561 909.463 642.089 909.131 664.694 907.122C669.777 906.04 676.793 904.487 677.911 898.118C678.203 896.29 678.075 894.216 676.975 892.561C675.894 890.905 674.167 889.899 672.471 889.2C669.019 887.831 665.39 887.352 661.783 886.958C658.353 886.55 654.529 886.177 652.944 882.957C651.041 880.194 652.048 876.662 653.706 873.815C653.796 873.654 653.885 873.5 653.979 873.339C656.843 868.453 659.103 863.196 660.722 857.774C662.004 848.738 670.22 844.28 676.859 838.966C679.167 837.179 681.469 835.432 683.75 833.565L683.759 833.556C684.211 833.152 684.676 832.744 685.121 832.532C685.578 832.33 685.782 832.421 686.147 832.847C686.797 833.706 687.225 834.924 687.638 836.049C688.456 838.37 689.151 840.732 689.869 843.116C692.49 850.242 692.182 857.83 692.712 865.382C693.499 876.273 693.423 888.622 701.486 897.237C705.983 902.758 713.544 904.71 720.339 904.495C728.069 903.994 737.498 905.377 743.17 898.31C746.13 891.635 739.247 886.464 734.244 883.968C730.002 881.826 725.298 879.253 724.606 874.351C724.063 871.881 723.51 869.42 722.944 866.959C721.349 854.44 722.051 841.453 723.012 828.76C723.533 823.038 724.041 817.304 724.558 811.585C725.033 807.266 725.038 802.589 728.013 799.446C730.938 796.318 734.755 794.038 738.364 791.518C751.015 783.196 763.162 773.133 770.676 759.708C776.259 750.086 779.257 739.276 780.875 728.376C782.662 706.95 782.154 685.463 779.729 664.112C778.168 654.681 776.455 645.295 774.28 635.959C773.535 633.13 772.857 630.26 772.283 627.401C769.738 615.839 766.906 604.371 763.395 593.047C761.712 587.596 759.373 582.263 756.789 577.186C755.663 574.896 754.537 572.607 753.412 570.317L753.463 570.538C753.463 563.859 753.463 557.181 753.463 550.502C753.671 543.341 752.77 535.591 754.414 529.133C755.989 525.413 760.535 526.151 764.166 525.875C767.958 525.799 771.744 525.818 775.571 525.814C781.924 526.105 789.077 524.824 794.505 526.977C798.188 528.837 797.29 533.793 797.701 537.619C797.847 541.636 797.878 545.661 797.908 549.722C797.957 557.846 797.953 565.804 797.965 573.974C797.968 582.473 797.948 590.806 797.995 599.261C798.619 607.459 796.17 616.836 802.004 623.948C804.253 627.465 807.616 630.376 811.408 632.125C812.649 632.736 813.89 633.347 815.13 633.958L815.351 634.009C825.748 634.009 836.146 634.009 846.543 634.009C856.941 634.009 867.338 634.009 877.736 634.009L877.92 633.974C879.027 633.535 880.134 633.096 881.241 632.657C887.932 630.096 893.239 624.182 895.102 617.276C897.307 590.474 895.957 563.925 896.267 537.164C895.936 511.447 897.365 486.499 895.048 460.223L895.029 460.215C890.322 459.636 886.273 459.636 881.566 460.215C879.193 486.563 880.75 511.606 880.442 537.394C880.251 563.31 881.305 589.68 879.662 614.921C879.017 615.851 878.03 616.75 877.035 617.331L877.017 617.342C867.753 619.314 857.122 618.145 847.113 618.413C837.104 618.145 826.473 619.314 817.209 617.342C816.309 616.79 815.416 616.436 814.994 615.725C814.538 615.002 814.348 614.033 814.198 613.074C813.919 611.16 813.831 609.136 813.752 607.159C813.609 603.154 813.576 599.165 813.542 595.175C813.485 587.176 813.472 579.245 813.441 571.168C813.275 556.293 813.634 541.65 812.556 526.59C810.683 520.259 805.912 514.668 799.681 512.261C798.287 511.688 796.893 511.115 795.5 510.543L795.31 510.505C788.633 510.505 781.956 510.505 775.279 510.505C768.602 510.505 761.924 510.505 755.247 510.505L755.036 510.552C753.929 511.067 752.822 511.582 751.715 512.098C745.577 514.7 740.696 520.269 738.971 526.717C737.543 531.421 737.959 536.231 737.861 540.946C737.857 543.256 737.866 545.547 737.772 547.821C737.711 548.943 737.667 550.138 737.356 551.078C737.279 551.3 737.153 551.469 737.1 551.485C737.066 551.514 736.905 551.513 736.688 551.419C736.26 551.235 735.793 550.895 735.339 550.561C730.472 547.185 725.121 544.808 719.566 542.932C713.888 541.117 707.902 539.903 701.899 539.988C692.222 540.408 682.708 542.037 673.54 545.296C673.073 545.494 672.594 545.667 672.115 545.795C671.876 545.858 671.636 545.909 671.411 545.935C671.298 545.948 671.189 545.954 671.102 545.948C671.021 545.954 670.941 545.888 671.057 545.975C670.687 532.507 670.618 517.736 670.573 503.62C670.245 489.203 671.426 475.415 669.362 460.488L669.4 460.514C666.56 459.689 664.416 460.002 661.939 459.956C659.835 460.014 657.737 460.071 655.638 460.128L655.155 460.141L655.152 460.625C655.057 477.455 654.961 494.286 654.866 511.116C654.771 527.966 654.675 544.816 654.58 561.665L654.735 561.306C653.475 562.509 652.215 563.711 650.956 564.913C647.174 568.512 642.965 571.843 638.28 574.033C636.945 574.638 635.611 575.249 634.282 575.803L634.248 575.819C632.056 576.83 629.709 577.739 627.419 578.665C623.589 580.289 619.554 581.494 616.043 583.987C613.877 585.422 612.227 588.168 612.925 590.928L612.922 590.916C614.681 595.8 616.853 600.166 619.4 604.591C620.389 606.25 621.206 608.16 621.991 610.007L621.987 609.996C624.983 617.418 632.143 622.282 639.612 624.267L639.602 624.264C643.492 625.277 647.388 625.068 651.249 625.085C653.983 625.028 656.71 624.97 659.438 624.913L659.066 624.758C659.868 625.598 660.669 626.438 661.47 627.278C663.452 629.22 665.726 630.626 668.137 631.848C671.566 633.814 675.769 633.986 679.552 634.132C681.915 634.246 684.28 634.361 686.646 634.475L686.197 634.139C686.407 634.749 686.617 635.36 686.827 635.971L686.831 635.981C687.875 640.633 687.671 646.052 686.593 650.775C684.944 655.841 682.378 660.683 679.66 665.32C674.318 673.968 666.392 680.763 658.756 687.525C656.47 689.507 654.206 691.456 652.024 693.63C641.38 703.058 630.128 712.189 618.941 721.115C610.809 727.567 602.6 733.805 594.701 740.603L594.686 740.617C593.012 742.198 591.049 743.6 589.183 745.114L589.167 745.127C588.024 746.141 586.862 747.144 585.683 748.113C584.731 748.883 583.918 749.799 583.131 750.663C582.133 751.752 581.187 752.85 580.188 753.915C574.497 760.609 567.258 766.186 564.428 775.206C566.212 781.589 568.843 787.088 571.397 792.876C578.371 810.588 579.23 830.221 578.907 849.211C578.855 851.195 578.815 853.174 578.795 855.158C578.785 856.146 578.78 857.142 578.788 858.135C578.792 858.632 578.799 859.132 578.814 859.629C578.822 859.884 578.831 860.131 578.847 860.385C578.855 860.519 578.864 860.645 578.878 860.778C578.886 860.851 578.894 860.915 578.908 860.996C578.913 861.028 578.924 861.083 578.938 861.133C578.943 861.154 578.956 861.199 578.98 861.252C578.995 861.283 578.997 861.295 579.042 861.36C579.091 861.426 579.223 861.573 579.464 861.576C586.14 858.527 589.656 852.713 593.562 847.324C598.548 840.006 602.214 831.731 604.331 823.134C605.62 812.308 605.5 801.664 604.86 790.902C604.495 787.112 604.257 783.287 604.059 779.476C604.005 776.561 603.297 773.516 604.969 771.162C606.473 768.475 609.245 766.668 612.317 766.373C620.199 764.693 625.587 772.152 627.992 778.996C628.767 780.937 629.547 782.891 630.278 784.825L630.286 784.846C631.918 789.646 633.038 794.832 633.86 799.894C634.487 805.576 634.48 811.444 634.49 817.228C634.461 820.961 634.431 824.721 634.087 828.396C631.539 848.013 623.08 867.023 610.06 881.926C605.28 886.996 599.861 892.306 595.093 896.649L595.371 897.594C595.368 897.595 595.365 897.596 595.355 897.601C595.349 897.604 595.342 897.607 595.324 897.614C595.288 897.616 595.333 897.648 595.083 897.64C595.016 897.629 594.858 897.602 594.731 897.416C594.608 897.224 594.656 897.034 594.685 896.964C594.751 896.816 594.783 896.812 594.803 896.786C594.841 896.75 594.85 896.746 594.86 896.738C594.878 896.725 594.873 896.729 594.876 896.728C594.88 896.725 594.882 896.723 594.884 896.722C594.888 896.72 594.888 896.719 594.888 896.719C594.888 896.72 594.885 896.722 594.883 896.722C594.879 896.725 594.874 896.728 594.867 896.732C594.856 896.738 594.846 896.744 594.832 896.752C594.81 896.764 594.782 896.78 594.76 896.793C594.709 896.821 594.661 896.848 594.613 896.876C594.515 896.931 594.415 896.987 594.317 897.042C594.12 897.152 593.922 897.263 593.725 897.373C593.336 897.591 592.945 897.809 592.556 898.026L592.522 898.047C590.16 899.52 587.605 900.861 585.079 902.139C584.159 902.591 583.249 903.069 582.354 903.587C581.908 903.845 581.463 904.115 581.026 904.409C580.807 904.556 580.59 904.709 580.375 904.883C580.265 904.972 580.157 905.063 580.043 905.181C579.986 905.241 579.929 905.301 579.86 905.409C579.827 905.465 579.789 905.519 579.756 905.653C579.721 905.752 579.74 906.051 579.911 906.204C582.637 907.164 584.61 907.13 586.969 907.436C590.287 907.769 593.611 908.103 596.922 908.466ZM597.032 907.472L596.922 908.466L597.147 908.491L597.314 908.338L596.64 907.6L597.032 907.472Z" fill="black" mask="url(#path-22-inside-1_0_1)"/>
<path d="M617.638 460.247C615.405 457.613 613.573 455.094 613.573 454.636C613.573 454.177 615.463 452.231 617.695 450.341C633.065 437.655 648.017 424.406 663.083 411.359C689.679 388.927 715.908 366.032 742.243 343.294C764.622 323.889 766.282 322.744 773.035 322.057C779.272 321.37 785.398 323.374 790.493 327.783C815.842 349.324 841.192 370.901 866.272 392.758C874.79 400.162 883.292 407.705 892.031 414.857C902.966 424.137 913.561 433.827 924.658 442.909C932.785 449.663 937.25 453.785 937.422 454.644C937.594 455.675 929.696 464.948 928.666 464.948C927.921 464.948 927.406 464.49 915.215 454.072C891.61 433.709 867.853 413.523 844.296 393.104C833.436 383.742 822.366 374.601 811.615 365.113C805.173 359.527 783.306 335.118 773.727 336.944C772.639 337.116 770.292 338.605 768.403 340.208C745.338 360.012 722.532 380.137 699.202 399.629C688.554 408.377 678.48 417.827 667.895 426.65C661.085 432.261 624.511 463.803 624.167 464.375C622.605 466.817 618.44 461.049 617.638 460.247Z" fill="#1C1B1A"/>
</svg>
