<svg xmlns="http://www.w3.org/2000/svg" xmlns:xlink="http://www.w3.org/1999/xlink" width="1366" zoomAndPan="magnify" viewBox="0 0 1024.5 1052.25" height="1403" preserveAspectRatio="xMidYMid meet" version="1.0"><defs><clipPath id="b98ee331c1"><path d="M 0.113281 3 L 856 3 L 856 859 L 0.113281 859 Z M 0.113281 3 " clip-rule="nonzero"/></clipPath></defs><g clip-path="url(#b98ee331c1)"><path fill="#000000" d="M 427.675781 858.027344 C 420.679688 858.027344 413.683594 857.855469 406.695312 857.511719 C 399.707031 857.167969 392.730469 856.65625 385.765625 855.96875 C 378.804688 855.285156 371.859375 854.425781 364.941406 853.402344 C 358.019531 852.375 351.125 851.179688 344.261719 849.816406 C 337.398438 848.449219 330.574219 846.917969 323.785156 845.21875 C 317 843.519531 310.257812 841.652344 303.5625 839.621094 C 296.867188 837.59375 290.222656 835.398438 283.636719 833.042969 C 277.046875 830.683594 270.519531 828.167969 264.054688 825.492188 C 257.589844 822.816406 251.195312 819.980469 244.871094 816.988281 C 238.542969 814 232.296875 810.855469 226.125 807.558594 C 219.953125 804.261719 213.867188 800.8125 207.867188 797.21875 C 201.863281 793.621094 195.953125 789.878906 190.136719 785.992188 C 184.316406 782.105469 178.597656 778.082031 172.976562 773.914062 C 167.359375 769.746094 161.84375 765.445312 156.433594 761.007812 C 151.023438 756.570312 145.726562 752 140.542969 747.304688 C 135.359375 742.605469 130.292969 737.785156 125.34375 732.835938 C 120.398438 727.890625 115.574219 722.824219 110.875 717.644531 C 106.175781 712.460938 101.605469 707.164062 97.167969 701.757812 C 92.726562 696.351562 88.425781 690.835938 84.253906 685.21875 C 80.085938 679.601562 76.058594 673.882812 72.171875 668.066406 C 68.285156 662.25 64.542969 656.34375 60.945312 650.34375 C 57.347656 644.34375 53.898438 638.257812 50.601562 632.089844 C 47.300781 625.917969 44.15625 619.671875 41.164062 613.347656 C 38.171875 607.027344 35.339844 600.632812 32.660156 594.167969 C 29.984375 587.707031 27.464844 581.183594 25.109375 574.597656 C 22.75 568.011719 20.558594 561.371094 18.527344 554.675781 C 16.496094 547.980469 14.628906 541.242188 12.929688 534.457031 C 11.226562 527.671875 9.695312 520.847656 8.332031 513.988281 C 6.964844 507.125 5.769531 500.238281 4.742188 493.316406 C 3.714844 486.398438 2.859375 479.457031 2.171875 472.496094 C 1.488281 465.535156 0.972656 458.558594 0.628906 451.574219 C 0.285156 444.585938 0.113281 437.597656 0.113281 430.601562 C 0.113281 423.605469 0.285156 416.613281 0.628906 409.628906 C 0.972656 402.640625 1.488281 395.667969 2.171875 388.707031 C 2.859375 381.742188 3.714844 374.804688 4.742188 367.882812 C 5.769531 360.964844 6.964844 354.074219 8.332031 347.214844 C 9.695312 340.351562 11.226562 333.53125 12.929688 326.746094 C 14.628906 319.957031 16.496094 313.21875 18.527344 306.523438 C 20.558594 299.832031 22.75 293.191406 25.109375 286.605469 C 27.464844 280.019531 29.984375 273.496094 32.660156 267.03125 C 35.339844 260.570312 38.171875 254.175781 41.164062 247.851562 C 44.15625 241.527344 47.300781 235.28125 50.601562 229.113281 C 53.898438 222.945312 57.347656 216.859375 60.945312 210.859375 C 64.542969 204.859375 68.285156 198.953125 72.171875 193.136719 C 76.058594 187.320312 80.085938 181.601562 84.253906 175.984375 C 88.425781 170.363281 92.726562 164.851562 97.167969 159.445312 C 101.605469 154.035156 106.175781 148.742188 110.875 143.558594 C 115.574219 138.375 120.398438 133.3125 125.34375 128.363281 C 130.292969 123.417969 135.359375 118.597656 140.542969 113.898438 C 145.726562 109.199219 151.023438 104.632812 156.433594 100.195312 C 161.84375 95.757812 167.359375 91.457031 172.976562 87.289062 C 178.597656 83.121094 184.316406 79.09375 190.136719 75.207031 C 195.953125 71.320312 201.863281 67.582031 207.867188 63.984375 C 213.867188 60.386719 219.953125 56.941406 226.125 53.644531 C 232.296875 50.347656 238.542969 47.203125 244.871094 44.210938 C 251.195312 41.21875 257.589844 38.386719 264.054688 35.710938 C 270.519531 33.03125 277.046875 30.515625 283.632812 28.160156 C 290.222656 25.804688 296.863281 23.609375 303.5625 21.578125 C 310.257812 19.546875 317 17.683594 323.785156 15.984375 C 330.574219 14.285156 337.398438 12.75 344.261719 11.386719 C 351.125 10.023438 358.019531 8.828125 364.941406 7.800781 C 371.859375 6.773438 378.804688 5.917969 385.765625 5.230469 C 392.730469 4.546875 399.707031 4.03125 406.695312 3.6875 C 413.683594 3.34375 420.679688 3.175781 427.675781 3.175781 C 434.671875 3.175781 441.667969 3.34375 448.65625 3.6875 C 455.644531 4.03125 462.621094 4.546875 469.585938 5.230469 C 476.546875 5.917969 483.492188 6.773438 490.410156 7.800781 C 497.332031 8.828125 504.226562 10.023438 511.089844 11.386719 C 517.953125 12.75 524.777344 14.285156 531.5625 15.984375 C 538.351562 17.683594 545.09375 19.546875 551.789062 21.578125 C 558.484375 23.609375 565.128906 25.804688 571.714844 28.160156 C 578.304688 30.515625 584.832031 33.03125 591.296875 35.710938 C 597.761719 38.386719 604.15625 41.21875 610.480469 44.210938 C 616.808594 47.203125 623.054688 50.347656 629.226562 53.644531 C 635.398438 56.941406 641.484375 60.386719 647.484375 63.984375 C 653.488281 67.582031 659.398438 71.320312 665.214844 75.207031 C 671.035156 79.09375 676.753906 83.121094 682.375 87.289062 C 687.992188 91.457031 693.507812 95.757812 698.917969 100.195312 C 704.328125 104.632812 709.625 109.199219 714.808594 113.898438 C 719.992188 118.597656 725.058594 123.417969 730.007812 128.363281 C 734.953125 133.3125 739.777344 138.375 744.476562 143.558594 C 749.175781 148.742188 753.746094 154.035156 758.183594 159.445312 C 762.625 164.851562 766.925781 170.363281 771.09375 175.984375 C 775.265625 181.601562 779.292969 187.320312 783.179688 193.136719 C 787.066406 198.953125 790.808594 204.859375 794.40625 210.859375 C 798.003906 216.859375 801.453125 222.945312 804.75 229.113281 C 808.046875 235.28125 811.195312 241.527344 814.1875 247.851562 C 817.175781 254.175781 820.011719 260.570312 822.691406 267.03125 C 825.367188 273.496094 827.886719 280.019531 830.242188 286.605469 C 832.601562 293.191406 834.792969 299.832031 836.824219 306.523438 C 838.855469 313.21875 840.722656 319.957031 842.421875 326.746094 C 844.125 333.53125 845.65625 340.351562 847.019531 347.214844 C 848.386719 354.074219 849.582031 360.964844 850.609375 367.882812 C 851.636719 374.804688 852.492188 381.742188 853.175781 388.707031 C 853.863281 395.667969 854.378906 402.640625 854.722656 409.628906 C 855.066406 416.613281 855.238281 423.605469 855.238281 430.601562 C 855.238281 437.597656 855.066406 444.585938 854.722656 451.574219 C 854.378906 458.558594 853.863281 465.535156 853.175781 472.496094 C 852.492188 479.457031 851.636719 486.398438 850.609375 493.316406 C 849.582031 500.238281 848.386719 507.125 847.019531 513.988281 C 845.65625 520.847656 844.125 527.671875 842.421875 534.457031 C 840.722656 541.242188 838.855469 547.980469 836.824219 554.675781 C 834.792969 561.371094 832.601562 568.011719 830.242188 574.597656 C 827.886719 581.183594 825.367188 587.707031 822.691406 594.167969 C 820.011719 600.632812 817.175781 607.027344 814.1875 613.347656 C 811.195312 619.671875 808.046875 625.917969 804.75 632.089844 C 801.453125 638.257812 798.003906 644.34375 794.40625 650.34375 C 790.808594 656.34375 787.066406 662.25 783.179688 668.066406 C 779.292969 673.882812 775.265625 679.601562 771.09375 685.21875 C 766.925781 690.835938 762.625 696.351562 758.183594 701.757812 C 753.746094 707.164062 749.175781 712.460938 744.476562 717.644531 C 739.777344 722.824219 734.953125 727.890625 730.007812 732.835938 C 725.058594 737.785156 719.992188 742.605469 714.808594 747.304688 C 709.625 752 704.328125 756.570312 698.917969 761.007812 C 693.507812 765.445312 687.992188 769.746094 682.375 773.914062 C 676.753906 778.082031 671.035156 782.105469 665.214844 785.992188 C 659.398438 789.878906 653.488281 793.621094 647.484375 797.21875 C 641.484375 800.8125 635.398438 804.261719 629.226562 807.558594 C 623.054688 810.855469 616.808594 814 610.480469 816.988281 C 604.15625 819.980469 597.761719 822.816406 591.296875 825.492188 C 584.832031 828.167969 578.304688 830.683594 571.714844 833.042969 C 565.128906 835.398438 558.484375 837.59375 551.789062 839.621094 C 545.09375 841.652344 538.351562 843.519531 531.5625 845.21875 C 524.777344 846.917969 517.953125 848.449219 511.089844 849.816406 C 504.226562 851.179688 497.332031 852.375 490.410156 853.402344 C 483.492188 854.425781 476.546875 855.285156 469.585938 855.96875 C 462.621094 856.65625 455.644531 857.167969 448.65625 857.511719 C 441.667969 857.855469 434.671875 858.027344 427.675781 858.027344 Z M 427.675781 98.15625 C 422.234375 98.15625 416.792969 98.292969 411.359375 98.558594 C 405.921875 98.824219 400.496094 99.226562 395.082031 99.757812 C 389.664062 100.292969 384.265625 100.957031 378.882812 101.757812 C 373.496094 102.554688 368.136719 103.484375 362.800781 104.546875 C 357.460938 105.605469 352.152344 106.796875 346.875 108.121094 C 341.59375 109.441406 336.351562 110.894531 331.140625 112.472656 C 325.933594 114.050781 320.769531 115.757812 315.644531 117.589844 C 310.519531 119.421875 305.445312 121.382812 300.414062 123.464844 C 295.386719 125.546875 290.414062 127.75 285.492188 130.074219 C 280.574219 132.402344 275.714844 134.847656 270.914062 137.414062 C 266.113281 139.976562 261.378906 142.65625 256.710938 145.453125 C 252.042969 148.25 247.449219 151.160156 242.921875 154.183594 C 238.398438 157.207031 233.949219 160.339844 229.578125 163.578125 C 225.207031 166.820312 220.917969 170.167969 216.710938 173.617188 C 212.503906 177.070312 208.382812 180.621094 204.351562 184.277344 C 200.316406 187.929688 196.378906 191.679688 192.527344 195.527344 C 188.679688 199.375 184.929688 203.3125 181.273438 207.34375 C 177.621094 211.375 174.066406 215.496094 170.613281 219.699219 C 167.160156 223.90625 163.8125 228.195312 160.570312 232.566406 C 157.328125 236.933594 154.195312 241.382812 151.171875 245.90625 C 148.148438 250.429688 145.238281 255.023438 142.441406 259.691406 C 139.640625 264.355469 136.960938 269.089844 134.394531 273.886719 C 131.828125 278.6875 129.382812 283.542969 127.054688 288.460938 C 124.730469 293.382812 122.523438 298.355469 120.441406 303.378906 C 118.359375 308.40625 116.402344 313.480469 114.566406 318.605469 C 112.734375 323.726562 111.027344 328.890625 109.449219 334.097656 C 107.867188 339.304688 106.417969 344.546875 105.09375 349.824219 C 103.773438 355.101562 102.578125 360.40625 101.519531 365.746094 C 100.457031 371.082031 99.527344 376.4375 98.726562 381.820312 C 97.929688 387.203125 97.261719 392.601562 96.730469 398.015625 C 96.195312 403.429688 95.796875 408.855469 95.527344 414.289062 C 95.261719 419.722656 95.128906 425.160156 95.128906 430.601562 C 95.128906 436.042969 95.261719 441.480469 95.527344 446.914062 C 95.796875 452.347656 96.195312 457.773438 96.730469 463.1875 C 97.261719 468.601562 97.929688 474 98.726562 479.378906 C 99.527344 484.761719 100.457031 490.121094 101.519531 495.457031 C 102.578125 500.792969 103.773438 506.101562 105.09375 511.378906 C 106.417969 516.65625 107.867188 521.898438 109.449219 527.105469 C 111.027344 532.308594 112.734375 537.476562 114.566406 542.597656 C 116.402344 547.71875 118.359375 552.792969 120.441406 557.820312 C 122.523438 562.847656 124.730469 567.820312 127.054688 572.738281 C 129.382812 577.65625 131.828125 582.515625 134.394531 587.3125 C 136.960938 592.113281 139.640625 596.84375 142.441406 601.511719 C 145.238281 606.175781 148.148438 610.773438 151.171875 615.296875 C 154.195312 619.820312 157.328125 624.265625 160.570312 628.636719 C 163.8125 633.007812 167.160156 637.292969 170.613281 641.5 C 174.066406 645.707031 177.621094 649.824219 181.273438 653.855469 C 184.929688 657.886719 188.679688 661.828125 192.527344 665.671875 C 196.378906 669.519531 200.316406 673.269531 204.351562 676.925781 C 208.382812 680.578125 212.503906 684.132812 216.710938 687.582031 C 220.917969 691.035156 225.207031 694.378906 229.578125 697.621094 C 233.949219 700.863281 238.398438 703.996094 242.921875 707.015625 C 247.449219 710.039062 252.042969 712.949219 256.710938 715.746094 C 261.378906 718.542969 266.113281 721.222656 270.914062 723.789062 C 275.714844 726.355469 280.574219 728.800781 285.492188 731.125 C 290.414062 733.453125 295.386719 735.65625 300.414062 737.738281 C 305.445312 739.820312 310.519531 741.777344 315.644531 743.609375 C 320.769531 745.441406 325.933594 747.148438 331.140625 748.730469 C 336.351562 750.308594 341.59375 751.757812 346.875 753.082031 C 352.152344 754.402344 357.460938 755.59375 362.800781 756.65625 C 368.136719 757.71875 373.496094 758.648438 378.878906 759.445312 C 384.265625 760.242188 389.664062 760.910156 395.082031 761.441406 C 400.496094 761.976562 405.921875 762.375 411.359375 762.644531 C 416.792969 762.910156 422.234375 763.042969 427.675781 763.042969 C 433.117188 763.042969 438.558594 762.910156 443.992188 762.644531 C 449.429688 762.375 454.855469 761.976562 460.269531 761.441406 C 465.6875 760.910156 471.085938 760.242188 476.46875 759.445312 C 481.855469 758.648438 487.214844 757.71875 492.550781 756.65625 C 497.890625 755.59375 503.199219 754.402344 508.476562 753.082031 C 513.757812 751.757812 519 750.308594 524.207031 748.730469 C 529.417969 747.148438 534.582031 745.441406 539.707031 743.609375 C 544.832031 741.777344 549.90625 739.820312 554.9375 737.738281 C 559.964844 735.65625 564.9375 733.453125 569.859375 731.125 C 574.777344 728.800781 579.636719 726.355469 584.4375 723.789062 C 589.238281 721.222656 593.972656 718.542969 598.640625 715.746094 C 603.308594 712.949219 607.902344 710.039062 612.429688 707.015625 C 616.953125 703.996094 621.402344 700.863281 625.773438 697.621094 C 630.144531 694.378906 634.433594 691.035156 638.640625 687.582031 C 642.847656 684.132812 646.96875 680.578125 651 676.925781 C 655.03125 673.269531 658.972656 669.519531 662.820312 665.671875 C 666.671875 661.828125 670.421875 657.886719 674.078125 653.855469 C 677.730469 649.824219 681.285156 645.707031 684.738281 641.5 C 688.191406 637.292969 691.539062 633.007812 694.78125 628.636719 C 698.023438 624.265625 701.15625 619.820312 704.179688 615.296875 C 707.203125 610.773438 710.113281 606.175781 712.910156 601.511719 C 715.707031 596.84375 718.390625 592.113281 720.957031 587.3125 C 723.523438 582.515625 725.96875 577.65625 728.292969 572.738281 C 730.621094 567.820312 732.828125 562.847656 734.910156 557.820312 C 736.992188 552.792969 738.949219 547.71875 740.785156 542.597656 C 742.617188 537.476562 744.324219 532.308594 745.902344 527.105469 C 747.484375 521.898438 748.933594 516.65625 750.257812 511.378906 C 751.578125 506.101562 752.769531 500.792969 753.832031 495.457031 C 754.894531 490.121094 755.824219 484.761719 756.625 479.378906 C 757.421875 474 758.089844 468.601562 758.621094 463.1875 C 759.15625 457.773438 759.554688 452.347656 759.824219 446.914062 C 760.089844 441.480469 760.222656 436.042969 760.222656 430.601562 C 760.222656 425.160156 760.089844 419.722656 759.824219 414.289062 C 759.554688 408.855469 759.15625 403.429688 758.621094 398.015625 C 758.089844 392.601562 757.421875 387.203125 756.625 381.820312 C 755.824219 376.4375 754.894531 371.082031 753.832031 365.746094 C 752.769531 360.40625 751.578125 355.101562 750.257812 349.824219 C 748.933594 344.546875 747.484375 339.304688 745.902344 334.097656 C 744.324219 328.890625 742.617188 323.726562 740.785156 318.605469 C 738.949219 313.480469 736.992188 308.40625 734.910156 303.378906 C 732.828125 298.355469 730.621094 293.382812 728.292969 288.460938 C 725.96875 283.542969 723.523438 278.6875 720.957031 273.886719 C 718.390625 269.089844 715.707031 264.355469 712.910156 259.691406 C 710.113281 255.023438 707.203125 250.429688 704.179688 245.90625 C 701.15625 241.382812 698.023438 236.933594 694.78125 232.566406 C 691.539062 228.195312 688.191406 223.90625 684.738281 219.699219 C 681.285156 215.496094 677.730469 211.375 674.078125 207.34375 C 670.421875 203.3125 666.671875 199.375 662.820312 195.527344 C 658.972656 191.679688 655.035156 187.929688 651 184.277344 C 646.96875 180.621094 642.847656 177.070312 638.640625 173.617188 C 634.433594 170.167969 630.144531 166.820312 625.773438 163.578125 C 621.402344 160.339844 616.953125 157.207031 612.429688 154.183594 C 607.902344 151.160156 603.308594 148.25 598.640625 145.453125 C 593.972656 142.65625 589.238281 139.976562 584.4375 137.414062 C 579.636719 134.847656 574.777344 132.402344 569.859375 130.074219 C 564.9375 127.75 559.964844 125.546875 554.9375 123.464844 C 549.90625 121.382812 544.832031 119.421875 539.707031 117.589844 C 534.582031 115.757812 529.417969 114.050781 524.207031 112.472656 C 519 110.894531 513.757812 109.441406 508.476562 108.121094 C 503.199219 106.796875 497.890625 105.605469 492.550781 104.546875 C 487.214844 103.484375 481.855469 102.554688 476.46875 101.753906 C 471.085938 100.957031 465.6875 100.292969 460.269531 99.757812 C 454.855469 99.226562 449.429688 98.824219 443.992188 98.558594 C 438.558594 98.292969 433.117188 98.15625 427.675781 98.15625 Z M 427.675781 98.15625 " fill-opacity="1" fill-rule="nonzero"/></g><path fill="#000000" d="M 972.339844 1047.996094 C 969.226562 1047.980469 966.144531 1047.664062 963.089844 1047.046875 C 960.039062 1046.425781 957.074219 1045.515625 954.203125 1044.316406 C 951.328125 1043.113281 948.601562 1041.644531 946.015625 1039.90625 C 943.433594 1038.167969 941.042969 1036.191406 938.847656 1033.984375 L 651.433594 746.660156 C 650.332031 745.558594 649.289062 744.40625 648.304688 743.203125 C 647.316406 742 646.394531 740.75 645.527344 739.457031 C 644.664062 738.164062 643.867188 736.832031 643.136719 735.457031 C 642.402344 734.085938 641.738281 732.679688 641.144531 731.242188 C 640.550781 729.804688 640.027344 728.34375 639.574219 726.855469 C 639.125 725.367188 638.746094 723.859375 638.445312 722.332031 C 638.140625 720.808594 637.914062 719.269531 637.761719 717.722656 C 637.609375 716.171875 637.535156 714.621094 637.535156 713.066406 C 637.535156 711.511719 637.613281 709.960938 637.765625 708.410156 C 637.917969 706.863281 638.148438 705.328125 638.453125 703.800781 C 638.757812 702.273438 639.132812 700.769531 639.585938 699.28125 C 640.039062 697.792969 640.5625 696.328125 641.15625 694.890625 C 641.753906 693.453125 642.417969 692.050781 643.152344 690.679688 C 643.886719 689.308594 644.683594 687.972656 645.550781 686.679688 C 646.414062 685.386719 647.339844 684.140625 648.328125 682.9375 C 649.3125 681.734375 650.359375 680.585938 651.457031 679.484375 C 652.558594 678.382812 653.710938 677.339844 654.914062 676.355469 C 656.117188 675.367188 657.363281 674.441406 658.65625 673.578125 C 659.953125 672.714844 661.285156 671.914062 662.65625 671.179688 C 664.027344 670.445312 665.433594 669.78125 666.871094 669.1875 C 668.308594 668.589844 669.769531 668.066406 671.261719 667.617188 C 672.75 667.164062 674.257812 666.785156 675.78125 666.480469 C 677.308594 666.179688 678.847656 665.949219 680.394531 665.796875 C 681.941406 665.644531 683.496094 665.566406 685.050781 665.566406 C 686.605469 665.566406 688.160156 665.640625 689.707031 665.792969 C 691.257812 665.945312 692.792969 666.171875 694.320312 666.476562 C 695.847656 666.777344 697.355469 667.15625 698.84375 667.605469 C 700.332031 668.054688 701.796875 668.578125 703.234375 669.171875 C 704.671875 669.765625 706.078125 670.429688 707.449219 671.164062 C 708.824219 671.894531 710.15625 672.695312 711.449219 673.558594 C 712.746094 674.421875 713.992188 675.34375 715.199219 676.332031 C 716.402344 677.316406 717.554688 678.359375 718.65625 679.457031 L 1006.070312 966.785156 C 1007.734375 968.4375 1009.269531 970.199219 1010.675781 972.078125 C 1012.078125 973.957031 1013.335938 975.929688 1014.449219 977.996094 C 1015.5625 980.0625 1016.515625 982.195312 1017.308594 984.402344 C 1018.105469 986.609375 1018.734375 988.863281 1019.195312 991.164062 C 1019.65625 993.460938 1019.945312 995.78125 1020.0625 998.125 C 1020.179688 1000.46875 1020.125 1002.804688 1019.898438 1005.140625 C 1019.667969 1007.472656 1019.265625 1009.777344 1018.695312 1012.054688 C 1018.125 1014.328125 1017.390625 1016.550781 1016.492188 1018.714844 C 1015.59375 1020.882812 1014.539062 1022.96875 1013.328125 1024.980469 C 1012.121094 1026.988281 1010.769531 1028.898438 1009.277344 1030.710938 C 1007.785156 1032.519531 1006.167969 1034.207031 1004.425781 1035.777344 C 1002.683594 1037.347656 1000.832031 1038.78125 998.878906 1040.078125 C 996.921875 1041.375 994.882812 1042.523438 992.757812 1043.515625 C 990.632812 1044.511719 988.445312 1045.34375 986.199219 1046.011719 C 983.949219 1046.683594 981.664062 1047.183594 979.34375 1047.515625 C 977.019531 1047.851562 974.6875 1048.007812 972.339844 1047.996094 Z M 972.339844 1047.996094 " fill-opacity="1" fill-rule="nonzero"/></svg>