<?xml version="1.0"?>
<!--********* Copyright (c) 2024 Pareto Software, LLC DBA Simplemaps.com ***************************************
************* Free for Commercial Use, full terms at  https://simplemaps.com/resources/svg-license ************
************* Attribution is appreciated! https://simplemaps.com *******************************************-->

<svg baseprofile="tiny" height="422" stroke="#ffffff" stroke-linecap="round" stroke-linejoin="round" stroke-width=".5" version="1.2" viewbox="0 0 1000 422" width="1000" xmlns="http://www.w3.org/2000/svg">
  <style>
    .region {
      fill: #6f9c76;
      stroke: #ffffff;
      stroke-width: 0.5;
      cursor: pointer;
      transition: all 0.3s ease;
    }
    
    .region:hover {
      fill: #fca5a5;
      stroke: #ffffff;
      stroke-width: 1;
      transform: scale(1.02);
      transform-origin: center;
    }
    
    .region.active {
      fill: #f87171;
      stroke: #ffffff;
      stroke-width: 2;
    }
    
    .region-label {
      fill: #1f2937;
      font-family: 'Arial', sans-serif;
      font-size: 10px;
      font-weight: bold;
      text-anchor: middle;
      pointer-events: none;
      opacity: 0.8;
    }
    
    .region-label:hover {
      opacity: 1;
    }
  </style>
  
  <g id="turkey-regions">
    <!-- Marmara Region -->
    <g id="marmara-region" class="region-group">
      <path d="M166.1 54.8l-2.2 3-0.1 0-8.3 0.9-8.2 1.1-5.2 1.2-4.6 1.4-2.3 3.4-1.7 3.5-2.7 2.1-3.1 0.8-2.6-1.7-2.1-2.8-2.7-1.8-5.5 0-7.7 0.6-7.2 1.6-1.4-2.9 2.3-4.8 0.7-4.6 1.9-2.9 1.1-6.2-0.6-6.1-1.5-6.1-1.2-7.3 0-0.1 0.6-0.5 0.5-0.3 0.5 0 0.5 0.1 0.4 0 0.5-0.5 0.5-0.2 0.9 0.2 0.4-0.1 0.6-0.7 0.3-0.8 0.5-0.6 0.6-0.3 1-0.6 1-2 1.1-0.6 0.1 0 0.8 0 0.9 0.3 0.8 0.5 0.7 0.6 0.6-0.1 1 0.1 1.2 0.3 0.2-0.1 0-0.2 0.2-0.3 1-1.4 0.6-0.5 1-0.1 1.7 0.3 1.5 1 1.3 1.2 2 3.2 1.1 1.2 1.1 1 3.5 2 0.7 0.6 1.2 1.6 0.6 0.4 0.8-0.3-0.7-0.3 0.1-0.1 0.3-0.2 0.2-0.1-0.2-0.1-0.1-0.1-0.1-0.1-0.1-0.1 1-0.4 0.5-0.3 0.4-0.5 0.3 0.2 0.3 0 0.2-0.3 0.1-0.6 3.7-1 1.7 0.1 2.5 1.4 0.6 0.2 0.7-0.1 0.6-0.2 0.1-0.4-0.7-0.4 0.1-0.7 0-0.8 0.1-0.7 0.2 0 0.2-0.1 0.2 0.1 0.2 0 0.9-0.1 0.4 0 1.2 0.3 1.2 0.6 0.7 0.2 2.3-0.2 0.7 0.2 1.7 0.4 0.7 3 0 0.7 0.2 0.2 0.3 0.4 0.2 0.5 0 0.4-0.5 0.3-0.5-0.1-0.8-0.4-0.8 0.1-0.6 0.3-0.4 0.9-0.2 1.6 0.3 1.7 0.7 1.1 0.9 1 0.7 1.2 0.9 2.8 0.6 0.9 0.8 0.8 0.4 0.4 0.3 0.7 0.1 0.1 0.1 0.2 0.1 0.4-0.1 0.2-0.3 0-0.2 0-0.1 0.4 0.4 1 0.6 1.2 0.8 1 1.4 0.8 0.7 0.9 1 1.6 1.2 1.2z" id="TR39" name="Kirklareli" class="region" data-region="marmara">
    </path>
      <path d="M101.2 27.1l0 0.1 1.2 7.3 1.5 6.1 0.6 6.1-1.1 6.2-1.9 2.9-0.7 4.6-2.3 4.8 1.4 2.9 0.6 1.1 0.3 8.8-0.7 3.8-2.3 3-1.5 3.8-0.8 4.4 0.3 5.1 1.8 3.9 1.2 4.1 0 0.2-0.3 3.7 0 0.3-3.1 0.5-1.2 0.5-0.6 0.2-3.2 0-1.3 0.4-3.6 2.2-1.4-0.9-0.8-0.3-0.7-0.1-0.7 0.3-0.7 0.4-0.8 0.3-1.2-0.7-0.8 0.1-2.6 0.7-8.8 0-1.2-0.2-0.7-0.4-0.4-1-0.3-1.1-0.4-1 0.3-0.9-0.1-1.4-0.5-1.4-0.7-0.9 0.4-0.1 0.1-0.2 1.8 0.2 1.5-0.7 1-1.3 0.4-1.6 0.8-1.2 2.5-2.2-0.3-0.7 0-0.4 0.2-0.2 0.4-0.2-0.1-0.1-0.2 0 0-0.1 0-0.3 0.4-0.1 0.2-0.2 0.1-0.3 0-0.6 0.2 0.5 0.1 0.3 0.3 0 0.3-0.4 0.3-0.5 0.4-1.3 0.3 0 0.2 0.4 0.2 0.3 0.3 0.2 0.4 0 0.7-0.2-0.1-0.4-0.2-0.4-0.2-0.3 0.6-0.6 1.4-0.6 0.6-0.5 0.5-0.7-0.1-0.2-0.5-0.2-0.5-0.6-0.1-0.6 0.1-0.4 0.4-0.2 0.7-0.1 0.4-0.4 0.4-0.7-0.1-0.7-1.2-0.7-0.5-0.6-0.6-1.4-0.1-1 0.8-1.6-0.4-0.3-0.7-0.2 0-0.5 0.9-1.4-0.6-1.1-0.1-1.1 0.2-1.2 0.5-1.4-0.7-1.1 0.5-0.5 3-0.3 0.8-0.4 1.3-1.2 1.3-0.8 0.3-0.3 0.1-0.3 0.2-0.2 0.5-0.1 2.4-2.6 0.5 0.7 0.9 0.5 1 0.2 0.9 0 0.6-0.7 0.4-1 0.3-1.4 0-1.3-0.2-1.3-0.8-3.1-0.2-2.3-0.3-1.1-0.5-0.9 0.3-0.7-0.2-1.6 0.2-0.8-0.1-0.3-0.1-0.5-0.1-0.4 0-0.5-0.9 1.4-0.5-0.5-2.1-1.2-2.7-2 0.4-0.8 0.2-0.9-0.8-0.2-0.8-0.4-1.9-0.4-1.2-1.2-0.9-0.3-1.2 0.1-0.5-0.7-0.3-1.2 0.1-1.4 0.7-1.6 2-1.7 4.9 0.2 2.2-0.7 0.7-0.8 0.4-1.2 0.2-1.2 0-0.4 0-0.4 0.1-0.4 0.2-0.5 0-0.4-0.1-0.2-0.6-0.4-0.1-0.2 0.2-0.4 0.3-0.3 0.4-0.3 1.3-1.5 0.8-0.5 0.9-0.1 4.4 0.7 0.9-0.1 0.5-0.3 1-1.1 0.6-0.1 0.5 0.2 0.8 0.8 0.6 0.1 0.4-0.2 0.4-0.4z" id="TR22" name="Edirne" class="region" data-region="marmara">
    </path>
      <path d="M163.8 57.8l0.1 0 2.2-3 1.4 1.3 7.2 4.6 10.3 4.4 14.6 7 4.7 1.1 0.2 0.1 0.1 0.1 0.2 0.2 0.3 0 0.3-0.1 0.3-0.6 0.4-0.1 1.1 0.1 1.2 0.5 0.7 0.7-0.4 1.6-0.7 1.1-0.8 1.1-0.8 0.5-0.6 0.2 0.2 0.4 0.4 0.5 0.2 0.5 0.3 0.4 0.1 0.1 0.3 0.2-0.1 0.4-0.2 0.3-0.1 0-0.2 1.2-0.3 1.2-0.5 0.9-0.5 0.8-0.4 0.3-0.8 0.3-0.4 0.3-0.4 0.6-0.1 0.3 0.1 0.3 0 0.2 0.2 0.3-0.1 0.3-0.2 0.4-0.2 0-1.1-0.1-0.4-0.3-0.2-0.1-0.3 0.2-0.4 0.6-0.2 0.1-0.5 0.1-0.9 0.6-1.9 0.4-0.4 0.2-0.3 0.2-0.2 0.3-0.3 0.2-0.5 0.1-1.2 0-0.6-0.2-0.2-0.4-0.5-0.5-1.2 0-5.7 0.7-1.4-0.6 0.4-2-0.6-0.6-0.3-0.2-0.4-0.1 0.3-1.4-0.5-1.3-1-0.8-1.1-0.3 0.2 0.9 1.1 1 0.3 1.1 0 0.6-0.1 0.9-0.3 0.9-0.6 0.6-1.3-0.2-2.5-2.5-1.2-0.7-1.6-0.3-3.3-1.2-1.6-0.2-1.6 0-0.4-0.2-0.5-0.6-0.4-0.1-1.8 0.4-0.9 0-0.3-0.2-0.5-3.5-0.7-4.8 0.7-3.8 1.4-5.2-0.5-4.2-1.3-4.5z m52.2 38.9l-0.6-0.4-1 0.2-0.9-0.9-2.7-1.3-1-0.8-1-1.2-0.9-0.8-2.7-1.5 0.2-0.1 0.1 0 0-0.1 0.1-0.2-0.6-0.3-0.2-0.6-0.2-0.9-0.3-0.8 0.8-0.5 1-1.1 0.8-1.3 0.6-2.4 0.6-0.9 0.1-0.8-1-0.7 1.1-1.7 1.8-2 1.9-1.4 1.4 0.3 0.3 0 0.5-0.7 0.7-0.1 8.9 1.7 9.5 2.2 12.6 1.9-1 0.5 0.5 1.9 0.2 2-1.4 3.2-2.5 1.4-3.1 1.2-2.7 1.9-0.5 1.5-0.8 1.5-1.7 0.2-1.4-1.2-1.4-3.1-2.3-1.9-2.5-0.2-2.1 1.5-2 2-1.1 0.6-2.5 2.1-1.6 2.1z" id="TR34" name="Istanbul" class="region" data-region="marmara">
    </path>
      <path d="M99.9 68.1l7.2-1.6 7.7-0.6 5.5 0 2.7 1.8 2.1 2.8 2.6 1.7 3.1-0.8 2.7-2.1 1.7-3.5 2.3-3.4 4.6-1.4 5.2-1.2 8.2-1.1 8.3-0.9 1.3 4.5 0.5 4.2-1.4 5.2-0.7 3.8 0.7 4.8 0.5 3.5-0.4-0.2-2.3 0.8-0.4 0.3-0.4 0-2.6 1-0.7 0.2-0.9 0.5-0.7 0.5-0.5 0.5-1.1 1.8-0.3 0.8 0.1 0.5-0.9 0.2-3.8-0.4-0.7-0.5-0.7-0.6-0.8-0.4-1.8-0.6-1.8-0.1-10.2 1.5-1.4 0.9-1.1 2.1-1.2 5-1 1.9-4.5 4.4-2 3.6-4.3 3.2-0.2 0.3-0.5 0.7-0.2 0.3-0.5 0.1-1.2 0.2-1.3 0.9-2.2-0.1-1 0.1-0.8 0.7-1.4 2-0.6 0.4-1.2 0.1-1.5-4.6 0-5-6.9-0.7-1.2-4.1-1.8-3.9-0.3-5.1 0.8-4.4 1.5-3.8 2.3-3 0.7-3.8-0.3-8.8-0.6-1.1z" id="TR59" name="Tekirdag" class="region" data-region="marmara">
    </path>
      <path d="M98.5 110.3l0-0.3 0.3-3.7 0-0.2 6.9 0.7 0 5 1.5 4.6-0.6 0.1-1.9 0.6-2.7 1.7-0.7 0.7-0.9 0.6-2.9 0.4-0.9 0.5-1.5 1.4-0.7 0.3-0.5 0.3-0.4 1.9-0.5 0.8-1.6 0.8-0.3 0.5-0.1 1-0.3 1-0.7 0.9-2.6 2.4-0.3 0.2-1.4 0.3-0.6 0.6-1 1-0.1 0.2-0.2 0.3-1.2 1.5-0.9 0.7-1.1 0.6-1.1 0.6-1 0.1-0.6 0.6 0.1 1.1 0.6 1.2 0.7 0.5-2.3 2.2-0.7 0.5-1.9 1.1-1.4 1.4-0.6 0.3-2.5 0.9-0.5 0.1-0.5-0.4 0.1-0.7 0.4-0.7 0.3-0.4 0.8-0.6 0.5-1.3 0.4-1.3 0.2-0.6 2.2-3 0.6-2.2-0.3-1.7-0.9-1.4-1.4-1.1 0.5-0.4 0.2-0.4-0.3-0.3-0.6-0.1-0.2-0.3 0.4-0.6 0.7-0.6 0.3-0.1 0.5-0.5 2.5-0.9 0.9 0 0.7-1.3 2.4-1.5 2.2-1.9 2.8-1 2.1-1.8 1.4-0.9 1.4-0.7 1.3-0.3 2.3 0.3 0.6-0.3 0.7-0.7 1-1.6 0.6-0.7 1.2 0.5 1.5-0.5 1.3-1.1 0.6-1.3-1.4-3.1-0.4-0.6-0.5 0.1z m-5.4 68.8l-10 1.9-1 0.4-0.5 0.5-0.5 0-2.1 1.2-0.4 0.3-0.5 0-2.5-0.5-0.5 0.1-0.7 0.3-0.5 0.1-0.4 0.5-0.1 0.2-0.1 0.3-0.3-0.2-0.5-0.4-3.8 1-1.9 0-1.8-1-0.2-1.3 1.2-3.2 0.7-3.1 1.8-1.7 0.4-1.4 0.3-3.4-0.2-0.7-0.9-1.7-0.2-0.8 0.1-0.6 0.2-0.2 0.2-0.1 0.2-0.4 0-1.4 0.2-1.7-0.2-0.5-0.7-0.2 0.3-0.7 0.7-3.1 0-0.3-0.3-1.3 0-0.5 0.1-0.6 0.4-0.8 0.1-0.5 0.2-0.6 1-1.7 0.4-0.5 2.6 0.9 0.7-0.5 1.6-0.7 0.5-0.3 2-2.1 0.4-0.7 0.2-0.5 0-0.8 0.2-0.4 0-0.2 0-0.3 0-0.2 0.1-0.1 0.6 0 0.2-0.1 0.2-0.1 0.3-0.8 0.2-1.2 0-1.1-0.3-1 0.3-0.9 0.2-0.4 0.3 0 0.7 0 0.6-0.1 1.2-0.6 1.6-0.5 0.9-0.7 2.1-2.8 0.4-0.3 0.5-0.1 0.6-0.4 0.6-0.5 5.1-6.2 1-0.8 1.9-0.1 4.1 0.3 1.7-0.4 0.5 0.2 1.2 0.7 2.7 0.2 1.1-0.2 1.3-1.1 1.2-1.5 1.4-1.2 2.2-0.1 1.6 0.4 1.9 0 1-0.2 1.6-1 0.8-0.1 0.7 0.7 0.5 0.9 0.7 1.9-0.6 0.4-0.3 0-0.3-0.3 0 0.1-0.4 0.2 2.1 2.3 2.6 1.7 2.8 1.3 3.4 0.8 1.3 0 0.5-0.1 0.5-0.3 0.2 0.5-0.5 2.8-2.3 1.3-3.3 3.5-0.8 0.3-0.5 0.4 0.9 1.9 1.9 0.8 0.8 0.1 0.2 0.4-0.3 1.2-0.6 2.1-0.2 1.6-0.5 1.4-0.4 0.5-0.5 1 0.9 1.4 0.8 0.6-0.3 2.5-0.8 2.6-1 2.3-1.9 1.4-2 0.9-1.9 1.3-2 0.8-3.5-1.1-3.5-0.6-1.3 0.7-1.5-0.2-2.2 0-2 1.6-3.5 1.5-1.7 1.5-2.1 0.6-4.3-0.5-1.9 0.4-1.5 4.9 0.1 4.9z m-28.8-17.7l0.8-0.4 0.3 0.6-0.1 2.2-0.3 0.9-0.7-0.1-1.6-1.1-1.4-0.6-0.6-0.5-0.3-0.8 0.4-0.5 0.8-0.1 1.7 0 0.3 0 0.3 0 0.2 0.1 0.2 0.3z m-2.3-20.4l0 1.3-1 0.6-1.1 0.4-3.2 0.5-2.1 0.9-4.3 0.6-0.9 0-1.2-0.4-0.6-0.3-0.2-0.4-1.9-0.7 0-0.3 1-1.8 1.6-1.6 1.9-1.3 3.2-0.6 4.1-1.5 0.6-0.1 0.6 0.1 0.3 0.3 0.3 0.4 0.3 0.4 0.7 0.1 0 0.5-0.1 0.5-0.1 0.8 0 0.8 0.2 0.4-0.4 1 0.5 0.3 0.8-0.3 0.7-0.6 0.3 0z" id="TR17" name="Çanakkale" class="region" data-region="marmara">
    </path>
    </g>

    <!-- Aegean Region -->
    <g id="aegean-region" class="region-group">
      <path d="M216 96.7l1.6-2.1 2.5-2.1 1.1-0.6 2-2 2.1-1.5 2.5 0.2 2.3 1.9 1.4 3.1 1.4 1.2 1.7-0.2 0.8-1.5 0.5-1.5 2.7-1.9 3.1-1.2 2.5-1.4 1.4-3.2-0.2-2-0.5-1.9 1-0.5 12 0.4 1.3-0.2 0.7-0.3 1.2-0.8 0.6-0.2 0.4-0.4 0.4-0.7 0.3-0.5 0.4 0.3 0.5-0.5 0.6-1 0.5-0.3 0.6 0.5 2 0.5 1.6 1.2 2.8 0.7-0.3 0.9-1.5 3.9 0.9 3.2 3.4 0.6 0.3 2.1-1.1 1.9-0.3 2.2-0.9 0.1-2.6 0.1-1.6-0.7-1.8-0.4-0.9 0.5 0.4 1.4 0.6 0.2 0.6 0.4-3.1 3.3-1.9 9.3-1.9 3.9-2.8 1.9-3.1 0.7-1.5 0.9-1.5 0.5-3.3 0.3-6.5-2.3-3.3 0.6-8.8 3.3-2.7 0.2-2.7-0.9 0.4-2.4 0-5.6 0.4-0.3 0.6-0.2 0.5-0.3 0.2-0.5 0.2-0.4 0.5-0.4 0.5-0.2 0.5-0.1 0.5 0.1 0.8 0.4 0.7 0.7 0.3 1.2 0.5 0 9.2-2.1 5.4-0.3 1.7 0.8 1 0 0.7-1.1-0.5-1.5-1.8-0.3-3.9 0.5-0.3 0.1-0.3 0.1-0.4 0.2-0.6 0-0.5-0.3-1-0.8-0.3-0.2-0.7-0.2-1.7-0.6-1-0.1-11.2 0.5-0.9 0.3-0.8 0.6-0.8 0.3-0.9-0.4-0.4-0.5-0.2-0.6-0.3-0.4-0.5-0.2 0.2-0.1 0.1-0.2 0.2-0.1 0.2-0.1-0.2-0.6-0.3-0.4-0.3-0.4-0.5-0.2-0.2 0.3-0.5-0.3-0.4 0.3-0.5 0.2-1.3 0.3 0-0.4 0.5 0 0.3-0.3 0.1-0.4 0-0.6 0.5 0.3 0.2 0.1 0-0.2 0-0.2 0.1 0 0.2 0-0.5-0.9-1-1.1-0.4-0.4z" id="TR41" name="Kocaeli" class="region" data-region="aegean">
    </path>
      <path d="M224.3 108.3l0 5.6-0.4 2.4-3-0.6-3 3.2-3 0.6-7.3-3.2-1.4 0.2-3.3-0.8 0.1 6.8-0.5 0.2-2.5-0.6-4.2-2.7-2.6-0.6 0.9-1.9 1.6-1.1 3.4-1.3 1.4-0.9 2-2.1 0.8-0.3 14-1.3 2-0.7 1.9-1.1 1-0.8 0.3 0 0.4 0.3 0.3 0.6 0.5 0.4 0.6-0.3z" id="TR77" name="Yalova" class="region" data-region="aegean">
    </path>
      <path d="M247.9 115.4l0.2 1.5 0.5 1.3-2.5 1.4-1.1 0.8-0.9 1-0.9 1.7-0.2 2-0.5 1.7-0.6 1.5 0.2 1.9 1.1 1.4 0.2 1.7-0.8 1.7-4.6 4.9-1.3 6.2 0 3.1 2.5 3.6 1.3 1 0.6 3.1-2.3 0.8-2.7-0.5-1.5 0.1-1.3 0.7-1.5 0.2-1.6-0.1-4.9-2-2.4 1.7-1 3.7-0.5 1.4-1 1-1.3 5-2.2 1.6-1 2.8-0.3 4.1-2.6 1.6-3.4 0.1-3.4-0.4-2.1-0.5-1.8-1.4-1.1-1.3-1.5-0.6-2.2-0.1-2.2 0.4-1.8-0.3-1.2-1.8-0.7-0.5-0.9 0-0.5-0.4-0.3-0.7-0.9-1.5-0.1-1.7 0.2-1.3-0.7-1-1.3 0.5-1 1.1-3.8-0.5-12.5-9.3-0.9-1.9-0.8-4.3-0.9-1.6-2.6-1.8-1.7-2.8-0.9-2.3-0.2-1.2 0.6-2.4 0.6-1 0.5-1.2-0.9-2-1.1-0.3-0.4-2.1 1.3-1.3 1.4-1.1 2.3-3.5 0.2-0.5 6.6-0.2 2.5 0.4 4.1-0.2-0.5 0.1-0.4 0.3-0.3 0.3-0.1 0.6 1.9-0.7 2.2-0.1 2.3 0.6 2.1 1.1 0.3-0.4 0.2 0.1 0.1 0.2 0.4 0.1 0.4-0.2 0.5-0.5 0.4-0.2 2.7-0.5 0.7-0.6 0.7-0.4 0.9 0.2 1.6 0.5 1.5 0.1 1.3 0.3 0.7 0.3 1.1 0.7 0.8 0.3 0.8 0.1 3.7-0.1 0.9-0.2 0.6-0.5 0.4-0.8 0.4-1.7 0.4-0.7 0.6 0.3 0.8-0.1 0.8-0.2 0.7-0.4-0.8-1.1-1.1-0.9-1.1-0.7-1.1-0.3-2.6 0-0.4 0.2-1 0.9-0.1-6.8 3.3 0.8 1.4-0.2 7.3 3.2 3-0.6 3-3.2 3 0.6 2.7 0.9 2.7-0.2 8.8-3.3 3.3-0.6 6.5 2.3z" id="TR16" name="Bursa" class="region" data-region="aegean">
    </path>
    </g>

    <!-- Mediterranean Region -->
    <g id="mediterranean-region" class="region-group">
      <path d="M557.8 335.8l3.1 3.1 3.8 1.7 0.8 0.8 0.4 1.2 0.6 0.5 0.8 0.1 0.3 0.5-0.5-0.1-0.4 0.1 0.2 1.4-0.6 1.2-0.7 1-0.6 1.2-0.2 1.3-0.1 1.1-0.1 1.2-0.6 1.4-0.6 2.5 0 2.6-0.2 2.6-1.4 2.2-0.3 0.9 0.2 1 0.9 3.2 0.2 0.5 0.4 0.3 0.7 0.3 0.2 0.2 0.3 0.4 0.1 0.4 0.1 0.4-0.1 0.5-0.3 0.9-0.2 0.5-0.2 0.1 0.4 0.4 1.6 0.2 0.8 0.3 0.5 0.6 0 0.1 0.5 0.8 0.3 1 0.2 0.9 0 1.3-0.2 0.5-3.4 0.6-0.9 0-3.6-0.6-0.9 0.2-0.5 0.2-0.2 0.3 0 0.5-0.3 0.3-0.4 0.2-0.2 0-0.3-0.1-1.3-0.2-0.7-0.2-0.6-0.4-0.6-0.7-0.5 0.5 0.7 0.8-0.1 0.5-0.4 0.4-0.3 0.5 0 0.8-0.2 8.5 0.1 1.7-1 0.3-1.9-0.7-0.9 0.4-0.4 2.1-0.8 0.1-1.1-0.3-1.5 0.6-1.1 1.7-0.3 4.1-0.5 1.7-0.1 0.1-0.8 0.1-2.8-2-1.4-0.7-1.5 0-0.7-0.2-0.5-0.5-0.1-0.7 0.1-0.7 0-0.8-0.6-0.7-0.9 0.2-1 0.3-0.9 0.2-0.5-0.1 0-0.1 0.6-0.8 2-3.6 0.5-0.4 0-1.1-1.3-4-3.4-5.6-0.6-0.8-0.6-1-0.5-1.8-0.7-0.8-0.8-0.7-0.5-0.7-0.6-1.4 0.1-0.9 1.3-1.9 0.4-0.5 0.5-0.3 0.5-0.2 0.5 0 0.3-0.2 0.5-1.5 0.4-0.4 0.8-0.4 0.5-0.4 0.2-0.5 0.3-1.3 0.5-0.3 0.3-0.3 0.3-0.3 1.9-0.7 0.4-0.2 2.2-2.8 0.4-0.6 0.5-0.1 5.1-3.2 0.7-0.2 0.5-0.5 0.6-1 0.5-1.2 0.2-0.9 0-0.8-0.2-0.6-0.3-0.5-0.2-0.6 0-0.4 0-3.7-0.1-1-0.5-1-2.8-4-1.6-1.6-1.8-1.3-1.8-0.5-1.7 0.7-1.6 1.4-0.9 1.1-0.7-1.2 0-2.5 3.9-4.5 0.9-0.5 1 0.2 1 0.4 2.1-0.4 2 0.6 1.9 0 2.3-0.6 2.1 0.7 1.6 1.7 1.8 1.1 2.4 0.1 2.4-0.3z" id="TR31" name="Hatay" class="region" data-region="mediterranean">
    </path>
    </g>

    <!-- Central Anatolia Region -->
    <g id="central-anatolia-region" class="region-group">
      <path d="M512.6 48.4l-1.9 4.2-0.2 3.2 0.8 3.1 0.1 1.8-0.2 1.9 0.3 1.5 0.6 1.3 0.3 1.8 0.4 3.8-0.9 0.7-2.5-0.6-0.9 0.4-1.5 1-2 0.4-2.1-0.3-1.5-0.8-0.8-0.9-0.4-0.2-2.1-0.3-0.5-0.3 0.5-0.8-1.5-0.8-0.8-0.5-0.3-0.6-0.1-1.1-0.3-1.2-0.4-0.9-0.5-0.5-0.5 0.9-1.2 0.7-2.5 1-1.6 1.5-0.6 0.2-1.2 0.1-0.4 0.3-0.5 0.5 0.4 1.1-0.7 0.8-1.1 0.5-0.8 0.6-0.1 0.4-0.1 1.1-0.1 0.5-0.2 0.3-0.9 0.8-1 1.2-5.4-1.7-0.8-0.6-0.5-0.9-1.2-0.9-1.4-0.3-1.6 0.4-1.6-0.3-0.8-0.9-1-0.2-1.8 0.1-1.2-1.6 0.3-8.3-0.5-1.2-0.3-1.2 0.5-2.4 0.9-2.2 1.4-1.4 1.5-1 1.7-4.3-2.7-3.5-3.1-0.9-5.8-0.3-2.9-0.8-2-0.3-1.7 0.1-3.1-1.2 0.1-2.1 2.4-2.9 1.3-3.7-0.2-3.6 5.5 0.7 5.4-1.6 1.8-0.1 0.7 0.2 1.4 0.7 1.6 0.6 6.3 0.4 2.5-0.3 2.5-0.8 0.8-0.4 1.7-1.4 1.8-1.1 1.4-1.8 1.1-2.1 0.3-1.9 0.6 0.2 1.4 0.3 0.6 0.4 0.1-0.4 0.2-0.1 0.3 0 0.4 0 0.3 0.8 0.5 0.5 0.4 0.4-0.3 0.5 0 0.4 1.8 1.4 1.1 0.5 1.4-0.1 0.5-0.3 0.8-0.8 0.5-0.2 0.7 0.1 0.4 0.3 1 0.9 0 0.4-2.5-0.3-1.2 0.2-1 0.8-0.5 0.9-0.4 1.4-0.2 1.5-0.1 1.2 0.3 1 1.3 2.4 1.4 1.9 2.6 2.1 0 0.5-0.7 0 0.3 0.8 0.5 1 0.6 0.9 1.4 0.7 1.4 1.7 0.7 0.6 2.8 1.1 2.1 0.4 0.8 0.5 1.5 1.4 1.7 1 0.7 0.3z" id="TR57" name="Sinop" class="region" data-region="central-anatolia">
    </path>
    </g>

    <!-- Eastern Anatolia Region -->
    <g id="eastern-anatolia-region" class="region-group">
      <path d="M889.7 82.2l-3.1 1.1-4.8 2.7-7.7 3.3-7.8 3.3-5.7 3-1.1 4.8-0.7 7.5-0.9 4.5-5.7 0.6-5.5 1.1-1.4-2.6-1.9-1.9-1.4-2.1-1-2.4-1.3-1.7-1.8-1.2-2.4-3.7-1-4.9 3-5.9 4.1-4.6 4-2 1.2-4.2-1.3-4.4-0.9-2.3-0.4-0.7-0.5-1.5-0.3-2.7-0.7-3.6 0.5 0 1-0.7 1.4-2.2 1.1-1 0.5-1.1 0.4-2.6 0.5-1 0.9-0.8 0.1 0 0.2 0 0.9-0.4 2.4-0.2 6.7 0.6 0.9 0.4-0.4 0.6-0.1 0.7-0.1 0.6-0.2 0.6-0.4 0.4-1 0.8-0.4 0.7 1.3 0.7 0.9 1 0.9 0.3 1.1-1.4 0.7-0.4 0.3 0.4 0.3 0.8 0.4 0.7 0.3 0.3 1.4 0.4 0.3 0.3 0.2 0.3 0.2 0.2 0.5 0.2 0.3 0.4 1.4 2.7 0.7 0.8 3.5 2.4 2.3 2 1.5 0.7 1.4 0.2 0 0.3-0.6 0.9-0.7 0.6-2.6 1.3 1.3 0.4 1.1-0.1 0.9 0.1 1 1.1 1.1 2.8 0.7 0.5 4.4-1.2 1.3-0.1 1.5 0.4 1.3 0.8 1.3 1.2 0.7 1.5-0.5 1.6z" id="TR75" name="Ardahan" class="region" data-region="eastern-anatolia">
    </path>
      <path d="M842.7 61.7l0.7 3.6 0.3 2.7 0.5 1.5 0.4 0.7 0.9 2.3 1.3 4.4-1.2 4.2-4 2-4.1 4.6-3 5.9-2.8 0.3-2.8 0.6-3.3-0.3-3.2 0.3-1.6 0.8-1.5 1.3-0.6 2.5 0.3 2.7-1.2 2.5-1.9 1.9-0.9 2.5-0.1 2.8-2.2 3.3-4-2.3-3.8-1.1-3.7 1.1-4 2.6-4.4 1.7-3.2-2.9 0.6-5.3 1.3-2.2-0.4-2.1-1.7-0.6-5.9-0.9-3.7-2.1 0.7-2.5 4.5-5.3 1.1-0.6 1-0.9 0.4-1.3 0.7-1.3 2.6-1.7 1.3-2.9-1.4-1.6-1.9-0.9-0.5-1.1-0.6-1.1-0.9-0.6-0.9-0.9-0.9-2.1-0.4-2.5-1.3-3.3-0.1-0.2 4.1-3.3 1.2-0.4 1-0.6 0.5-0.2 1.7-0.2 0.6-0.2 0.9-0.7 0.7-1.1 0.5-1.4 0.2-1.4 0.5-0.3 2.7-2.5 0.7-1.2 5 2.2 0.7 0.1 1.4-0.1 1.2-0.6 0.3 0 0.1 0.3-0.1 0.5 0 0.5 0.2 0.4 0.6 0.2 1.4 0.2 0.6 0.2 1.9 1.7 0.6 0.3 0.4-0.3 1.9-1.6 1.5-2.1 0.7-0.5 1.9-0.8 3.4 1.3 1.7-0.5 0.6-0.4 0.7-0.1 0.7 0.1 0.7 0.4 1.4-0.5 0.8 0 0.6 0.5 0.8 0.7 1.2 0.1 2.3-0.1 8.3 3.2 0.7 0z" id="TR08" name="Artvin" class="region" data-region="eastern-anatolia">
    </path>
    </g>

    <!-- Southeastern Anatolia Region -->
    <g id="southeastern-anatolia-region" class="region-group">
      <path d="M886 315.3l-1.3-0.9-0.6-0.1-0.8 0.1-0.5 0.2-0.4 0.4-0.4 0.1-0.4 0-0.4-0.2-6.2-3.3-0.8-0.3-1.5 0.2-1.9 0.5-1.8 0.8-1.2 0.9-2.1 0.7-1.9-0.3-3.9-1.3-0.4-0.3-0.2-1-0.4-0.4-0.6 0-0.4 0-2.4 1-0.3 0.2-0.3 0.5-0.1 0.4 0 0.4-0.2 0.5-6 8.7-0.5 1.6-0.2 0.3-0.8 0.4-4 0.7-2.8 0.9-2.1 0.2 0-1.7-0.1-0.8-0.4-0.4-0.5-0.7 0.8-3.4-0.3-0.7-0.3-0.2-1.6-1.3-0.2-0.3-0.3-0.6-0.2-0.3-0.3-0.1-0.3 0.2-0.3 0.4-0.3 0.1-1.4-0.7-0.7-0.1 0-0.3 0.1-0.6-0.1-0.7-0.5-0.6-0.9 0.7-0.7 0.4-2.4 3.2-3.5 3.3-2.1 1.3-5.4 1.3-0.9-3.8-3-2.4-5.5-1.7-0.8-2.5 2-2.2 4.5-2.5 3.5-1.7 0.6-4-1.3-5.2-2.8-7.5 6.7 3.3 9.4 0.7 3.7-3.7 6.3 0.3 9.6 2.5 10 1.4 8.1 0.8 2.9-3 0.5-3.4 3.8-2 4.1 0.5 3.6 1.5 1.2 0.3 2.3-0.1 2.3-0.3-0.3 5.5-1 3.5 0.8 3.2 1.6 3.9-0.4 5.2-1.2 3.2-0.6 1.2z" id="TR73" name="Sirnak" class="region" data-region="southeastern-anatolia">
    </path>
    </g>

    <!-- Black Sea Region -->
    <g id="black-sea-region" class="region-group">
      <path d="M783.2 69.9l0.1 0.2 1.3 3.3 0.4 2.5 0.9 2.1 0.9 0.9 0.9 0.6 0.6 1.1 0.5 1.1 1.9 0.9 1.4 1.6-1.3 2.9-2.6 1.7-0.7 1.3-0.4 1.3-1 0.9-1.1 0.6-4.5 5.3-0.7 2.5-3.6 2.1-5.1 4.4-2 0.7-2.1 0-1.7 0.7-1.4 3.6-2.9 0.8-1.9 0.2-1.9 0.6-7.7 3.8-0.7-3.9 0.6-4.3-3-7.6-0.5-4.4-1.2-4.2-1.7-3.9 5.3-3.6 1.7 0.8 1.4 0.1 1.3-0.4 1.5-0.9 1.8-1.6 0.6-0.1 1.5-0.2 0.7-0.3 0.6-0.4 2.8-3.8 3.4-2.5 0.5-0.2 0.7 0.2 2.1 0.7 1.2-0.2 1.8-1.3 0.7-0.3 1-0.1 1.1-0.4 1.1-0.5 0.9-0.7 1.8-2 1-0.7 1.2-0.3 1.3 0 0.8-0.3 0.4-0.4z" id="TR53" name="Rize" class="region" data-region="black-sea">
    </path>
    </g>
  </g>

  <!-- Region Labels -->
  <g id="region-labels">
    <text x="150" y="80" class="region-label">Marmara</text>
    <text x="250" y="150" class="region-label">Aegean</text>
    <text x="550" y="350" class="region-label">Mediterranean</text>
    <text x="450" y="200" class="region-label">Central Anatolia</text>
    <text x="850" y="120" class="region-label">Eastern Anatolia</text>
    <text x="850" y="300" class="region-label">Southeastern Anatolia</text>
    <text x="750" y="80" class="region-label">Black Sea</text>
  </g>

  <!-- Legend -->
  <g id="legend">
    <rect x="20" y="20" width="200" height="120" fill="rgba(255,255,255,0.9)" stroke="#ccc" stroke-width="1" rx="5"/>
    <text x="30" y="40" font-family="Arial" font-size="14" font-weight="bold">Turkey Regions</text>
    <circle cx="30" cy="60" r="8" fill="#6f9c76"/>
    <text x="45" y="65" font-family="Arial" font-size="12">Normal Region</text>
    <circle cx="30" cy="80" r="8" fill="#fca5a5"/>
    <text x="45" y="85" font-family="Arial" font-size="12">Hover Region</text>
    <circle cx="30" cy="100" r="8" fill="#f87171"/>
    <text x="45" y="105" font-family="Arial" font-size="12">Selected Region</text>
  </g>
</svg>


















