<svg xmlns="http://www.w3.org/2000/svg" xmlns:xlink="http://www.w3.org/1999/xlink" width="1366" zoomAndPan="magnify" viewBox="0 0 1024.5 1029" height="1372" preserveAspectRatio="xMidYMid meet" version="1.0"><defs><clipPath id="36874494c0"><path d="M 0 4 L 1024 4 L 1024 1025 L 0 1025 Z M 0 4 " clip-rule="nonzero"/></clipPath></defs><g clip-path="url(#36874494c0)"><path fill="#ffffff" d="M 873.695312 143.203125 C 777.03125 53.46875 648.597656 4.046875 512.042969 4.046875 C 375.488281 4.046875 247.050781 53.46875 150.390625 143.203125 C 53.410156 233.238281 0 353.035156 0 480.523438 C 0 620.613281 65.441406 752.339844 179.84375 843.121094 L 179.84375 1009.410156 C 179.84375 1014.757812 182.605469 1019.722656 187.144531 1022.550781 C 189.640625 1024.105469 192.476562 1024.890625 195.328125 1024.890625 C 197.660156 1024.890625 199.996094 1024.363281 202.15625 1023.300781 L 373.109375 939.238281 C 418.125 951.027344 464.835938 957.003906 512.042969 957.003906 C 648.59375 957.003906 777.03125 907.578125 873.695312 817.839844 C 970.675781 727.804688 1024.082031 608.011719 1024.082031 480.523438 C 1024.082031 353.03125 970.675781 233.238281 873.695312 143.203125 Z M 828.289062 359.488281 L 571.0625 642.121094 C 570.113281 643.164062 568.78125 643.773438 567.367188 643.804688 C 567.328125 643.808594 567.289062 643.808594 567.246094 643.808594 C 565.882812 643.808594 564.566406 643.265625 563.597656 642.296875 L 431.363281 510.0625 L 201.339844 635.242188 C 199.089844 636.46875 196.277344 635.855469 194.742188 633.800781 C 193.203125 631.746094 193.410156 628.875 195.226562 627.0625 L 457.214844 365.070312 C 459.230469 363.054688 462.5 363.054688 464.511719 365.070312 L 592.621094 493.179688 L 821.761719 351.625 C 823.949219 350.277344 826.800781 350.738281 828.445312 352.71875 C 830.085938 354.699219 830.019531 357.585938 828.289062 359.488281 Z M 828.289062 359.488281 " fill-opacity="1" fill-rule="nonzero"/></g></svg>