<svg xmlns="http://www.w3.org/2000/svg" xmlns:xlink="http://www.w3.org/1999/xlink" width="1366" zoomAndPan="magnify" viewBox="0 0 1024.5 1167" height="1556" preserveAspectRatio="xMidYMid meet" version="1.0"><defs><g/><clipPath id="01fe440804"><path d="M 0.101562 43.355469 L 1023.398438 43.355469 L 1023.398438 871.296875 L 0.101562 871.296875 Z M 0.101562 43.355469 " clip-rule="nonzero"/></clipPath><clipPath id="c6684e16eb"><path d="M 84.042969 81.257812 L 921 81.257812 L 921 850.550781 L 84.042969 850.550781 Z M 84.042969 81.257812 " clip-rule="nonzero"/></clipPath></defs><g clip-path="url(#01fe440804)"><path fill="#ffffff" d="M 0.101562 43.355469 L 1023.398438 43.355469 L 1023.398438 871.296875 L 0.101562 871.296875 Z M 0.101562 43.355469 " fill-opacity="1" fill-rule="nonzero"/><path fill="#ffffff" d="M 0.101562 43.355469 L 1023.398438 43.355469 L 1023.398438 871.296875 L 0.101562 871.296875 Z M 0.101562 43.355469 " fill-opacity="1" fill-rule="nonzero"/></g><g clip-path="url(#c6684e16eb)"><path fill="#000000" d="M 908.46875 160.449219 L 885.003906 153.324219 C 875.640625 150.507812 866.273438 147.707031 856.886719 144.90625 C 852.296875 143.550781 852.359375 143.570312 853.386719 138.773438 C 854.6875 132.722656 853.71875 127.167969 849.375 122.429688 C 850.054688 120.96875 849.003906 119.820312 847.316406 118.582031 C 846.53125 118.007812 845.503906 117.675781 844.804688 116.976562 C 843.015625 115.207031 841.285156 113.351562 839.617188 111.484375 C 835.109375 106.417969 830.457031 101.519531 825.003906 97.441406 C 820.761719 94.277344 815.886719 92.300781 811.210938 89.910156 C 803.082031 85.796875 794.496094 84.085938 785.480469 84.105469 C 785.480469 84.105469 774.285156 81.84375 768.914062 84.105469 C 757.425781 79.992188 744.890625 82.664062 732.953125 82.832031 C 717.207031 82.832031 708.191406 78.058594 695.964844 91.476562 C 691.273438 96.683594 684.191406 98.082031 678.40625 101.683594 C 674.761719 103.804688 671.097656 106.109375 668.03125 108.929688 C 659.960938 117.535156 647.136719 120.582031 642.566406 132.332031 C 635.710938 145.398438 645.554688 150.898438 652.921875 160.738281 C 654.570312 162.710938 654.878906 164.625 653.664062 167.097656 C 638.535156 195.003906 642.257812 231.664062 620.359375 255.847656 C 604.632812 270.359375 587.238281 283.652344 576.496094 302.34375 C 574.269531 306.210938 570.546875 309.011719 566.164062 309.875 C 548.914062 313.289062 536.746094 326.773438 521.367188 334.761719 C 479.441406 347.992188 434.28125 345.996094 391.425781 355.300781 C 377.945312 358.140625 364.707031 361.761719 352.210938 367.570312 C 345.832031 370.550781 339.839844 374.359375 333.6875 377.835938 C 332.042969 378.761719 330.539062 380 328.394531 379.691406 C 318.0625 378.042969 307.667969 377.15625 297.273438 377.238281 C 297.070312 377.21875 296.863281 377.199219 296.679688 377.199219 C 293.875 377.15625 284.304688 375.574219 284.304688 375.574219 C 279.714844 374.523438 273.683594 372.816406 265.058594 370.035156 C 265.058594 370.015625 265.039062 369.972656 265.039062 369.953125 C 264.957031 369.953125 264.894531 369.953125 264.8125 369.953125 C 253.859375 366.4375 238.734375 361.207031 217.101562 353.507812 C 216.234375 353.136719 215.351562 352.832031 214.445312 352.542969 C 189.683594 342.972656 155.453125 313.207031 138.554688 297.625 C 130.648438 290.339844 123.976562 281.800781 118.875 272.335938 C 117.925781 270.5625 116.957031 268.792969 115.972656 267.0625 C 109.652344 257.160156 103.828125 244.382812 92.402344 239.875 C 90.46875 239.113281 88.304688 240.183594 87.792969 242.199219 C 83.199219 259.878906 84.148438 279.3125 90.078125 296.519531 C 92.835938 303.023438 95.570312 309.546875 98.230469 316.070312 C 100.554688 324.734375 106.027344 332.082031 110.167969 339.964844 C 111.769531 342.765625 113.667969 345.398438 116.488281 347.191406 C 116.957031 347.5 117.492188 348.011719 117.617188 348.507812 C 118.480469 351.554688 121.984375 352.070312 123.710938 354.496094 C 125.769531 356.886719 128.074219 359.253906 129.949219 361.71875 C 131.863281 366.746094 137.316406 368.785156 140.566406 372.570312 C 142.339844 375.472656 145.691406 376.398438 148.101562 378.144531 C 147.980469 379.894531 149.484375 379.976562 150.429688 380.492188 C 151.992188 381.5625 154.628906 381.789062 155.804688 383.273438 C 154.320312 385.144531 165.992188 389.609375 169.40625 390.539062 C 169.777344 390.640625 169.941406 391.074219 169.714844 391.382812 C 169.46875 391.753906 169.242188 392.101562 168.972656 392.496094 C 168.769531 392.804688 168.910156 393.210938 169.261719 393.335938 C 173.441406 394.835938 177.394531 396.257812 181.570312 397.78125 C 181.738281 397.84375 181.859375 397.96875 181.921875 398.132812 C 182.644531 400.378906 186.636719 400.128906 189.148438 400.625 C 189.539062 400.707031 189.726562 401.113281 189.539062 401.464844 C 189.355469 401.792969 189.167969 402.101562 188.984375 402.433594 C 188.777344 402.78125 188.984375 403.214844 189.375 403.277344 C 192.933594 403.914062 196.265625 404.492188 199.644531 405.089844 C 200.097656 405.171875 200.261719 405.726562 199.933594 406.058594 L 199.914062 406.078125 C 199.582031 406.386719 199.75 406.941406 200.203125 407.046875 C 204.625 407.867188 208.699219 408.652344 212.882812 409.429688 C 213.148438 409.492188 213.351562 409.738281 213.332031 410.007812 C 213.269531 411.511719 215.515625 411.695312 216.832031 411.820312 C 220.929688 412.3125 225.0625 411.878906 229.058594 413.816406 C 245.402344 418.546875 262.550781 419.371094 279.304688 422.851562 C 274.984375 432.03125 271.316406 441.414062 265.222656 449.546875 C 252.546875 465.476562 240.648438 482.25 232.1875 500.859375 C 220.105469 524.570312 220.105469 551.902344 209.503906 576.046875 C 200.839844 596.710938 192.523438 617.515625 183.363281 637.957031 C 171.300781 667.511719 145.941406 668.210938 142.238281 684.78125 C 132.316406 724.773438 123.402344 765.753906 106.644531 803.542969 C 104.425781 807.722656 104.054688 812.351562 103.703125 817.003906 C 103.703125 817.003906 104.28125 822.210938 106.007812 822.5 C 106.191406 822.519531 106.359375 822.519531 106.542969 822.539062 C 111.75 822.847656 156.644531 825.253906 162.449219 825.480469 C 162.613281 825.480469 162.796875 825.480469 162.964844 825.5 C 164.816406 825.5 166.816406 822.828125 168.109375 820.667969 C 169.054688 819.082031 169.46875 817.246094 169.304688 815.417969 C 168.519531 806.691406 168.683594 795.824219 160.597656 790.988281 C 158.972656 790.082031 158.207031 788.867188 158.230469 787.117188 C 157.054688 751.738281 171.652344 710.964844 204.234375 693.507812 C 234.761719 680.667969 263.25 663.605469 285.128906 638.390625 C 303.945312 617.804688 320.207031 594.527344 343.464844 578.679688 C 345.5 577.277344 348.324219 578.019531 349.414062 580.242188 C 358.550781 599.015625 356.988281 621.902344 344.367188 638.945312 C 337.621094 648.703125 328.621094 655.90625 318.785156 662.246094 C 311.085938 667.347656 301.039062 673.03125 302.195312 683.753906 C 305.238281 713.285156 310.179688 742.597656 314.441406 771.96875 C 316.558594 783.539062 318.640625 794.855469 323.1875 805.847656 C 323.1875 805.847656 326.296875 811.402344 329.46875 811.34375 C 329.46875 811.34375 329.488281 811.34375 329.488281 811.34375 C 332 811.300781 334.488281 811.257812 336.980469 811.28125 C 341.015625 811.21875 364.417969 810.1875 371.664062 809.199219 C 381.832031 807.824219 394.574219 814.820312 382.492188 787.714844 C 381.175781 784.753906 379.03125 782.179688 376.976562 779.6875 C 371.625 773.203125 363.265625 772.523438 355.570312 771.164062 C 348.015625 770.136719 347.4375 756.59375 345.996094 750.523438 C 341.796875 726.007812 346.117188 698.117188 368.679688 683.753906 C 385.105469 672.640625 403.671875 665.246094 420.507812 654.898438 C 451.570312 636.535156 467.996094 602.679688 472.503906 567.710938 C 473.082031 563.242188 477.09375 560.097656 481.558594 560.570312 C 520.550781 564.765625 551.648438 597 592.015625 594.402344 C 594.527344 626.304688 595.203125 658.1875 597.714844 690.070312 C 598.519531 710.632812 601.277344 731.257812 598.3125 751.757812 C 597.941406 755.730469 598.417969 759.621094 601.007812 762.644531 C 604.386719 766.597656 605.4375 771.144531 605.726562 776.066406 C 606.296875 792.800781 608.996094 809.550781 606.320312 826.222656 C 606.320312 826.222656 605.972656 827.273438 605.519531 828.835938 C 605.621094 828.835938 605.726562 828.835938 605.828125 828.859375 C 605.726562 828.859375 605.621094 828.878906 605.5 828.878906 C 605.273438 829.683594 605.003906 830.628906 604.734375 831.660156 C 604.941406 831.84375 605.085938 832.171875 605.128906 832.75 C 604.902344 832.75 604.675781 832.75 604.449219 832.75 C 604.179688 833.835938 603.914062 834.992188 603.6875 836.125 C 603.769531 836.125 603.828125 836.125 603.914062 836.125 C 603.914062 836.390625 603.933594 836.660156 603.933594 836.925781 C 603.808594 836.925781 603.664062 836.925781 603.542969 836.925781 C 603.109375 839.375 602.902344 841.617188 603.335938 842.769531 C 604.261719 845.242188 609.882812 848.742188 615.605469 849.996094 C 617.785156 850.078125 644.402344 850.078125 646.582031 850.160156 C 646.582031 850.160156 670.769531 850.550781 676.386719 844.066406 C 676.386719 844.066406 683.964844 845.367188 689.789062 838.449219 C 690.242188 837.914062 690.839844 836.660156 690.550781 835.691406 C 676.179688 804.550781 667.414062 813.628906 661.03125 800.621094 C 654.320312 783.660156 649.753906 765.074219 652.984375 746.816406 C 655.082031 732.839844 653.230469 718.558594 652.960938 704.480469 C 651.175781 667.367188 650.679688 629.601562 659.386719 593.25 C 659.796875 591.195312 660.828125 589.917969 662.886719 589.175781 C 670.316406 586.519531 676.902344 582.878906 683.179688 577.957031 C 692.523438 624.847656 699.832031 671.878906 709.195312 718.742188 C 711.03125 727.410156 711.546875 736.117188 710.472656 744.945312 C 709.339844 752.539062 717.660156 754.019531 719.941406 760.28125 C 723.546875 767.75 726.878906 775.34375 727.867188 783.679688 C 728.628906 789.894531 726.507812 798.683594 734.226562 801.054688 C 743.820312 804.40625 741.949219 821.304688 751.457031 829.992188 C 751.457031 829.992188 754.75 840.199219 763.109375 840.199219 C 771.460938 840.199219 800.09375 839.769531 811.582031 839.707031 C 815 839.171875 818.394531 838.738281 821.792969 838.246094 C 832.023438 836.863281 818.683594 812.453125 814.03125 806.527344 C 806.1875 796.132812 796.226562 801.707031 787.953125 794.875 C 772.429688 780.757812 762.078125 756.757812 759.199219 736.117188 C 758.992188 706.082031 755.511719 676.261719 754.976562 646.273438 C 754.191406 612.867188 758.105469 579.707031 763.003906 546.714844 C 764.40625 530.703125 777.84375 519.753906 782.417969 504.75 C 790.773438 481.242188 798.636719 456.503906 796.433594 431.269531 C 795.011719 416.554688 795.363281 401.816406 796.125 387.058594 C 796.742188 374.855469 797.339844 362.625 796.289062 350.402344 C 796.371094 343.054688 792.460938 330.992188 795.15625 324.714844 C 813.105469 291.183594 796.101562 274.429688 811.375 264.144531 C 816.851562 259.550781 824.753906 262.125 831.097656 257.265625 C 831.941406 256.710938 833.257812 256.445312 834.242188 256.609375 C 840.523438 257.695312 846.265625 256.257812 851.71875 253.210938 C 853.015625 252.492188 854.335938 252.449219 855.796875 252.882812 C 863.617188 255.1875 871.503906 255.3125 879.464844 253.625 C 891.261719 251.75 898.464844 242.777344 903.714844 232.714844 C 910.777344 222.070312 912.136719 209.535156 913.414062 197.144531 C 913.449219 192.84375 917.15625 188.296875 915.222656 185.824219 C 916.375 184.078125 917.34375 182.554688 918.394531 181.070312 C 924.570312 172.570312 917.382812 162.359375 908.46875 160.449219 Z M 908.46875 160.449219 " fill-opacity="1" fill-rule="nonzero"/></g><path fill="#000000" d="M 596.417969 829.96875 C 596.605469 829.96875 596.808594 829.96875 596.996094 829.96875 C 596.808594 829.96875 596.605469 829.949219 596.417969 829.96875 Z M 596.417969 829.96875 " fill-opacity="1" fill-rule="nonzero"/><g fill="#000000" fill-opacity="1"><g transform="translate(211.022004, 983.310441)"><g><path d="M 84.15625 -15.921875 C 83.695312 -12.773438 82.804688 -9.972656 81.484375 -7.515625 C 80.160156 -5.066406 78.507812 -2.941406 76.53125 -1.140625 C 74.550781 0.648438 72.332031 2.164062 69.875 3.40625 C 67.425781 4.644531 64.863281 5.644531 62.1875 6.40625 C 59.507812 7.175781 56.796875 7.726562 54.046875 8.0625 C 51.304688 8.394531 48.675781 8.5625 46.15625 8.5625 C 42.695312 8.5625 39.28125 8.191406 35.90625 7.453125 C 32.53125 6.710938 29.207031 5.675781 25.9375 4.34375 C 22.675781 3.019531 19.460938 1.4375 16.296875 -0.40625 C 13.128906 -2.25 9.992188 -4.273438 6.890625 -6.484375 L 16.734375 -18.078125 C 20.242188 -14.972656 23.71875 -12.53125 27.15625 -10.75 C 30.601562 -8.976562 33.695312 -7.644531 36.4375 -6.75 C 39.632812 -5.664062 42.695312 -4.945312 45.625 -4.59375 C 48.851562 -4.40625 51.863281 -4.648438 54.65625 -5.328125 C 57.445312 -6.003906 59.890625 -6.984375 61.984375 -8.265625 C 64.078125 -9.546875 65.753906 -11.070312 67.015625 -12.84375 C 68.273438 -14.625 69.015625 -16.503906 69.234375 -18.484375 C 69.367188 -20.148438 69.078125 -21.671875 68.359375 -23.046875 C 67.640625 -24.421875 66.582031 -25.679688 65.1875 -26.828125 C 63.789062 -27.972656 62.144531 -28.984375 60.25 -29.859375 C 58.363281 -30.734375 56.351562 -31.519531 54.21875 -32.21875 C 52.082031 -32.914062 49.878906 -33.523438 47.609375 -34.046875 C 45.335938 -34.566406 43.144531 -35.003906 41.03125 -35.359375 C 38.46875 -35.804688 35.769531 -36.398438 32.9375 -37.140625 C 30.101562 -37.890625 27.3125 -38.867188 24.5625 -40.078125 C 21.820312 -41.296875 19.234375 -42.804688 16.796875 -44.609375 C 14.367188 -46.410156 12.265625 -48.582031 10.484375 -51.125 C 8.710938 -53.664062 7.363281 -56.617188 6.4375 -59.984375 C 5.519531 -63.359375 5.21875 -67.226562 5.53125 -71.59375 C 5.800781 -75.195312 6.554688 -78.445312 7.796875 -81.34375 C 9.035156 -84.25 10.628906 -86.847656 12.578125 -89.140625 C 14.535156 -91.429688 16.785156 -93.398438 19.328125 -95.046875 C 21.867188 -96.691406 24.578125 -98.050781 27.453125 -99.125 C 30.335938 -100.207031 33.320312 -100.984375 36.40625 -101.453125 C 39.488281 -101.929688 42.5625 -102.144531 45.625 -102.09375 C 49.851562 -101.875 54.101562 -101.222656 58.375 -100.140625 C 60.175781 -99.691406 62.078125 -99.117188 64.078125 -98.421875 C 66.078125 -97.722656 68.085938 -96.890625 70.109375 -95.921875 C 72.140625 -94.953125 74.144531 -93.804688 76.125 -92.484375 C 78.101562 -91.160156 79.988281 -89.640625 81.78125 -87.921875 L 74.234375 -75.984375 C 72.796875 -77.609375 71.265625 -79.023438 69.640625 -80.234375 C 68.023438 -81.453125 66.394531 -82.507812 64.75 -83.40625 C 63.101562 -84.300781 61.46875 -85.0625 59.84375 -85.6875 C 58.226562 -86.320312 56.703125 -86.84375 55.265625 -87.25 C 51.804688 -88.195312 48.410156 -88.738281 45.078125 -88.875 C 40.984375 -88.875 37.335938 -88.253906 34.140625 -87.015625 C 30.953125 -85.773438 28.265625 -84.175781 26.078125 -82.21875 C 23.898438 -80.269531 22.238281 -78.09375 21.09375 -75.6875 C 19.945312 -73.28125 19.375 -70.90625 19.375 -68.5625 C 19.375 -66.269531 20.054688 -64.039062 21.421875 -61.875 C 22.796875 -59.71875 24.695312 -57.757812 27.125 -56 C 29.550781 -54.25 32.40625 -52.753906 35.6875 -51.515625 C 38.976562 -50.285156 42.515625 -49.421875 46.296875 -48.921875 C 49.578125 -48.566406 52.847656 -47.984375 56.109375 -47.171875 C 59.367188 -46.359375 62.484375 -45.320312 65.453125 -44.0625 C 68.421875 -42.800781 71.15625 -41.28125 73.65625 -39.5 C 76.15625 -37.726562 78.257812 -35.679688 79.96875 -33.359375 C 81.675781 -31.046875 82.921875 -28.4375 83.703125 -25.53125 C 84.492188 -22.632812 84.644531 -19.429688 84.15625 -15.921875 Z M 84.15625 -15.921875 "/></g></g></g><g fill="#000000" fill-opacity="1"><g transform="translate(299.625162, 983.310441)"><g><path d="M 87.046875 3.84375 C 85.742188 -0.738281 84.394531 -5.289062 83 -9.8125 C 81.601562 -14.332031 80.140625 -18.890625 78.609375 -23.484375 L 24.296875 -21.125 C 22.628906 -16.800781 21.03125 -12.503906 19.5 -8.234375 C 17.96875 -3.960938 16.484375 0.351562 15.046875 4.71875 L -0.265625 2.625 C 6.078125 -14.375 13.101562 -31.101562 20.8125 -47.5625 C 28.53125 -64.03125 36.753906 -80.34375 45.484375 -96.5 L 64.375 -96.15625 C 72.113281 -80.550781 79.175781 -64.640625 85.5625 -48.421875 C 91.957031 -32.203125 97.765625 -15.546875 102.984375 1.546875 Z M 53.515625 -85.296875 C 48.972656 -76.660156 44.675781 -67.988281 40.625 -59.28125 C 36.570312 -50.570312 32.703125 -41.765625 29.015625 -32.859375 L 74.640625 -34.828125 C 71.578125 -43.460938 68.289062 -51.941406 64.78125 -60.265625 C 61.269531 -68.585938 57.515625 -76.929688 53.515625 -85.296875 Z M 53.515625 -85.296875 "/></g></g></g><g fill="#000000" fill-opacity="1"><g transform="translate(405.908504, 983.310441)"><g><path d="M 122.484375 2.90625 L 108.515625 5.671875 L 94.953125 -79.015625 L 72.671875 -5.671875 L 55.9375 -3.71875 L 30.703125 -74.90625 L 18.484375 2.5 L 4.25 0.546875 L 22.9375 -97.84375 L 36.90625 -97.84375 L 64.109375 -20.046875 L 88.328125 -97.046875 L 104.1875 -97.4375 Z M 122.484375 2.90625 "/></g></g></g><g fill="#000000" fill-opacity="1"><g transform="translate(532.773695, 983.310441)"><g><path d="M 96.5 -60.671875 C 96.320312 -56.390625 95.457031 -52.550781 93.90625 -49.15625 C 92.351562 -45.757812 90.304688 -42.753906 87.765625 -40.140625 C 85.222656 -37.535156 82.285156 -35.3125 78.953125 -33.46875 C 75.617188 -31.625 72.070312 -30.101562 68.3125 -28.90625 C 64.5625 -27.71875 60.679688 -26.84375 56.671875 -26.28125 C 52.671875 -25.71875 48.757812 -25.4375 44.9375 -25.4375 C 42.414062 -25.4375 39.601562 -25.523438 36.5 -25.703125 C 33.394531 -25.890625 30.066406 -26.296875 26.515625 -26.921875 L 26.796875 0.140625 L 12.546875 0.671875 L 12.546875 -94.8125 C 17.316406 -96.382812 21.894531 -97.578125 26.28125 -98.390625 C 30.664062 -99.203125 34.546875 -99.804688 37.921875 -100.203125 C 41.878906 -100.660156 45.59375 -100.929688 49.0625 -101.015625 C 51.988281 -101.015625 55.21875 -100.78125 58.75 -100.3125 C 62.28125 -99.84375 65.84375 -99.019531 69.4375 -97.84375 C 73.039062 -96.675781 76.515625 -95.101562 79.859375 -93.125 C 83.210938 -91.144531 86.160156 -88.660156 88.703125 -85.671875 C 91.242188 -82.679688 93.234375 -79.125 94.671875 -75 C 96.117188 -70.882812 96.726562 -66.109375 96.5 -60.671875 Z M 49.0625 -86.109375 C 46.5 -86.109375 43.910156 -86.019531 41.296875 -85.84375 C 39.003906 -85.65625 36.53125 -85.328125 33.875 -84.859375 C 31.21875 -84.390625 28.628906 -83.703125 26.109375 -82.796875 L 26.390625 -40.765625 C 29.171875 -40.222656 31.921875 -39.859375 34.640625 -39.671875 C 37.367188 -39.492188 39.925781 -39.40625 42.3125 -39.40625 C 44.875 -39.40625 47.617188 -39.53125 50.546875 -39.78125 C 53.472656 -40.03125 56.375 -40.476562 59.25 -41.125 C 62.125 -41.78125 64.890625 -42.691406 67.546875 -43.859375 C 70.203125 -45.035156 72.539062 -46.53125 74.5625 -48.34375 C 76.59375 -50.164062 78.210938 -52.359375 79.421875 -54.921875 C 80.640625 -57.492188 81.25 -60.507812 81.25 -63.96875 C 81.25 -67.4375 80.492188 -70.519531 78.984375 -73.21875 C 77.484375 -75.914062 75.328125 -78.195312 72.515625 -80.0625 C 69.703125 -81.9375 66.316406 -83.390625 62.359375 -84.421875 C 58.398438 -85.453125 53.96875 -86.015625 49.0625 -86.109375 Z M 49.0625 -86.109375 "/></g></g></g><g fill="#000000" fill-opacity="1"><g transform="translate(632.578826, 983.310441)"><g><path d="M 86.375 1.546875 L 12.828125 6.609375 L 12.421875 -96.03125 L 26.390625 -96.765625 L 25.984375 -8.171875 L 85.703125 -12.828125 Z M 86.375 1.546875 "/></g></g></g><g fill="#000000" fill-opacity="1"><g transform="translate(721.856845, 983.310441)"><g><path d="M 65.9375 -36.375 L 25.84375 -34.421875 L 26.109375 -13.296875 L 84.421875 -16.59375 L 84.6875 -3.3125 L 13.421875 0.546875 L 11.875 -95.625 L 85.15625 -96.765625 L 84.6875 -83.875 L 25.171875 -82.9375 L 25.578125 -47.703125 L 65.65625 -49.328125 Z M 65.9375 -36.375 "/></g></g></g><g fill="#000000" fill-opacity="1"><g transform="translate(195.736496, 1104.751168)"><g><path d="M 97.984375 -17.6875 C 95.691406 -14.351562 93.035156 -11.347656 90.015625 -8.671875 C 87.003906 -5.992188 83.734375 -3.707031 80.203125 -1.8125 C 76.671875 0.0703125 72.910156 1.53125 68.921875 2.5625 C 64.941406 3.59375 60.816406 4.109375 56.546875 4.109375 C 51.828125 4.109375 47.296875 3.488281 42.953125 2.25 C 38.609375 1.019531 34.546875 -0.726562 30.765625 -3 C 26.992188 -5.269531 23.554688 -7.988281 20.453125 -11.15625 C 17.347656 -14.332031 14.691406 -17.851562 12.484375 -21.71875 C 10.273438 -25.59375 8.5625 -29.753906 7.34375 -34.203125 C 6.132812 -38.660156 5.53125 -43.296875 5.53125 -48.109375 C 5.53125 -52.921875 6.132812 -57.554688 7.34375 -62.015625 C 8.5625 -66.472656 10.273438 -70.632812 12.484375 -74.5 C 14.691406 -78.363281 17.347656 -81.878906 20.453125 -85.046875 C 23.554688 -88.222656 26.992188 -90.945312 30.765625 -93.21875 C 34.546875 -95.5 38.617188 -97.253906 42.984375 -98.484375 C 47.347656 -99.722656 51.867188 -100.34375 56.546875 -100.34375 C 60.554688 -100.34375 64.425781 -99.890625 68.15625 -98.984375 C 71.894531 -98.085938 75.445312 -96.804688 78.8125 -95.140625 C 82.1875 -93.484375 85.335938 -91.460938 88.265625 -89.078125 C 91.191406 -86.691406 93.820312 -84.035156 96.15625 -81.109375 L 85.84375 -72.671875 C 82.332031 -77.035156 78.066406 -80.5 73.046875 -83.0625 C 68.035156 -85.632812 62.535156 -86.921875 56.546875 -86.921875 C 51.328125 -86.921875 46.445312 -85.894531 41.90625 -83.84375 C 37.363281 -81.800781 33.378906 -79.023438 29.953125 -75.515625 C 26.535156 -72.003906 23.847656 -67.894531 21.890625 -63.1875 C 19.941406 -58.488281 18.96875 -53.460938 18.96875 -48.109375 C 18.96875 -42.753906 19.941406 -37.710938 21.890625 -32.984375 C 23.847656 -28.265625 26.535156 -24.148438 29.953125 -20.640625 C 33.378906 -17.140625 37.363281 -14.363281 41.90625 -12.3125 C 46.445312 -10.269531 51.328125 -9.25 56.546875 -9.25 C 59.703125 -9.25 62.738281 -9.628906 65.65625 -10.390625 C 68.582031 -11.160156 71.335938 -12.238281 73.921875 -13.625 C 76.515625 -15.019531 78.921875 -16.707031 81.140625 -18.6875 C 83.367188 -20.664062 85.335938 -22.875 87.046875 -25.3125 Z M 97.984375 -17.6875 "/></g></g></g><g fill="#000000" fill-opacity="1"><g transform="translate(297.16117, 1104.751168)"><g><path d="M 77.53125 -32.734375 C 77.53125 -27.054688 76.585938 -21.8125 74.703125 -17 C 72.816406 -12.1875 70.226562 -8.003906 66.9375 -4.453125 C 63.65625 -0.898438 59.8125 1.875 55.40625 3.875 C 51 5.882812 46.296875 6.890625 41.296875 6.890625 C 36.304688 6.890625 31.628906 5.941406 27.265625 4.046875 C 22.898438 2.160156 19.085938 -0.523438 15.828125 -4.015625 C 12.566406 -7.503906 9.988281 -11.675781 8.09375 -16.53125 C 6.207031 -21.394531 5.265625 -26.796875 5.265625 -32.734375 C 5.265625 -38.710938 6.207031 -44.140625 8.09375 -49.015625 C 9.988281 -53.898438 12.566406 -58.070312 15.828125 -61.53125 C 19.085938 -65 22.898438 -67.675781 27.265625 -69.5625 C 31.628906 -71.457031 36.304688 -72.40625 41.296875 -72.40625 C 46.296875 -72.40625 51 -71.40625 55.40625 -69.40625 C 59.8125 -67.40625 63.65625 -64.640625 66.9375 -61.109375 C 70.226562 -57.578125 72.816406 -53.390625 74.703125 -48.546875 C 76.585938 -43.710938 77.53125 -38.441406 77.53125 -32.734375 Z M 63.296875 -32.859375 C 63.296875 -36.097656 62.890625 -39.367188 62.078125 -42.671875 C 61.273438 -45.984375 59.992188 -48.953125 58.234375 -51.578125 C 56.484375 -54.210938 54.210938 -56.363281 51.421875 -58.03125 C 48.628906 -59.695312 45.253906 -60.53125 41.296875 -60.53125 C 37.472656 -60.53125 34.1875 -59.695312 31.4375 -58.03125 C 28.695312 -56.363281 26.445312 -54.210938 24.6875 -51.578125 C 22.9375 -48.953125 21.65625 -45.984375 20.84375 -42.671875 C 20.039062 -39.367188 19.640625 -36.097656 19.640625 -32.859375 C 19.640625 -29.617188 20.078125 -26.359375 20.953125 -23.078125 C 21.828125 -19.796875 23.164062 -16.835938 24.96875 -14.203125 C 26.769531 -11.566406 29.03125 -9.414062 31.75 -7.75 C 34.46875 -6.09375 37.648438 -5.265625 41.296875 -5.265625 C 45.117188 -5.265625 48.410156 -6.09375 51.171875 -7.75 C 53.941406 -9.414062 56.226562 -11.566406 58.03125 -14.203125 C 59.832031 -16.835938 61.160156 -19.796875 62.015625 -23.078125 C 62.867188 -26.359375 63.296875 -29.617188 63.296875 -32.859375 Z M 63.296875 -32.859375 "/></g></g></g><g fill="#000000" fill-opacity="1"><g transform="translate(379.825992, 1104.751168)"><g><path d="M 23.890625 -52.234375 C 25.328125 -54.035156 26.84375 -55.890625 28.4375 -57.796875 C 30.039062 -59.710938 31.773438 -61.457031 33.640625 -63.03125 C 35.503906 -64.601562 37.523438 -65.894531 39.703125 -66.90625 C 41.890625 -67.914062 44.3125 -68.421875 46.96875 -68.421875 C 48.851562 -68.421875 50.671875 -68.117188 52.421875 -67.515625 C 54.179688 -66.910156 55.78125 -65.976562 57.21875 -64.71875 C 58.664062 -63.457031 59.882812 -61.847656 60.875 -59.890625 C 61.863281 -57.929688 62.492188 -55.601562 62.765625 -52.90625 C 64.148438 -54.65625 65.617188 -56.441406 67.171875 -58.265625 C 68.722656 -60.085938 70.410156 -61.753906 72.234375 -63.265625 C 74.054688 -64.773438 76.023438 -66.007812 78.140625 -66.96875 C 80.253906 -67.9375 82.59375 -68.421875 85.15625 -68.421875 C 87.132812 -68.421875 89.066406 -68.082031 90.953125 -67.40625 C 92.847656 -66.738281 94.523438 -65.695312 95.984375 -64.28125 C 97.453125 -62.863281 98.65625 -61.039062 99.59375 -58.8125 C 100.539062 -56.582031 101.0625 -53.9375 101.15625 -50.875 C 101.425781 -47.59375 101.671875 -43.457031 101.890625 -38.46875 C 102.117188 -34.1875 102.3125 -28.75 102.46875 -22.15625 C 102.625 -15.570312 102.703125 -7.671875 102.703125 1.546875 L 88.609375 2.234375 C 88.609375 -5.960938 88.582031 -12.972656 88.53125 -18.796875 C 88.488281 -24.617188 88.445312 -29.441406 88.40625 -33.265625 C 88.3125 -37.722656 88.242188 -41.410156 88.203125 -44.328125 C 88.066406 -48.023438 87.46875 -50.769531 86.40625 -52.5625 C 85.351562 -54.363281 83.972656 -55.265625 82.265625 -55.265625 C 81.140625 -55.265625 80 -54.925781 78.84375 -54.25 C 77.695312 -53.582031 76.550781 -52.707031 75.40625 -51.625 C 74.257812 -50.539062 73.132812 -49.300781 72.03125 -47.90625 C 70.9375 -46.507812 69.894531 -45.09375 68.90625 -43.65625 C 67.914062 -42.21875 66.96875 -40.820312 66.0625 -39.46875 C 65.164062 -38.125 64.378906 -36.9375 63.703125 -35.90625 C 63.796875 -33.925781 63.882812 -31.742188 63.96875 -29.359375 C 64.0625 -26.972656 64.140625 -24.269531 64.203125 -21.25 C 64.273438 -18.238281 64.320312 -14.863281 64.34375 -11.125 C 64.363281 -7.394531 64.375 -3.171875 64.375 1.546875 L 51.28125 2.234375 C 51.28125 -5.960938 51.203125 -12.972656 51.046875 -18.796875 C 50.890625 -24.617188 50.722656 -29.441406 50.546875 -33.265625 C 50.367188 -37.722656 50.144531 -41.410156 49.875 -44.328125 C 49.738281 -48.023438 49.140625 -50.769531 48.078125 -52.5625 C 47.023438 -54.363281 45.644531 -55.265625 43.9375 -55.265625 C 42.757812 -55.265625 41.5625 -54.878906 40.34375 -54.109375 C 39.132812 -53.347656 37.910156 -52.359375 36.671875 -51.140625 C 35.441406 -49.929688 34.238281 -48.550781 33.0625 -47 C 31.894531 -45.445312 30.769531 -43.882812 29.6875 -42.3125 C 28.613281 -40.738281 27.601562 -39.226562 26.65625 -37.78125 C 25.707031 -36.34375 24.875 -35.085938 24.15625 -34.015625 L 24.765625 1.546875 L 11.34375 2.234375 L 9.515625 -70.3125 L 23.625 -71.875 Z M 23.890625 -52.234375 "/></g></g></g><g fill="#000000" fill-opacity="1"><g transform="translate(491.777778, 1104.751168)"><g><path d="M 24.765625 -70.78125 L 24.625 -60.9375 C 27.195312 -63.457031 29.875 -65.398438 32.65625 -66.765625 C 35.445312 -68.140625 38.015625 -69.1875 40.359375 -69.90625 C 43.097656 -70.71875 45.773438 -71.238281 48.390625 -71.46875 C 51.441406 -71.46875 54.472656 -71.023438 57.484375 -70.140625 C 60.503906 -69.265625 63.363281 -68.03125 66.0625 -66.4375 C 68.757812 -64.84375 71.253906 -62.921875 73.546875 -60.671875 C 75.847656 -58.421875 77.804688 -55.910156 79.421875 -53.140625 C 81.046875 -50.367188 82.296875 -47.382812 83.171875 -44.1875 C 84.046875 -41 84.414062 -37.648438 84.28125 -34.140625 C 84.144531 -30.273438 83.5625 -26.628906 82.53125 -23.203125 C 81.5 -19.785156 80.140625 -16.648438 78.453125 -13.796875 C 76.765625 -10.941406 74.796875 -8.363281 72.546875 -6.0625 C 70.296875 -3.769531 67.898438 -1.835938 65.359375 -0.265625 C 62.816406 1.304688 60.179688 2.507812 57.453125 3.34375 C 54.734375 4.175781 52.023438 4.59375 49.328125 4.59375 C 46.585938 4.5 43.800781 4.09375 40.96875 3.375 C 38.488281 2.738281 35.765625 1.757812 32.796875 0.4375 C 29.828125 -0.882812 26.90625 -2.785156 24.03125 -5.265625 L 23.625 40.484375 L 11.0625 40.765625 L 9.921875 -70.1875 Z M 69.109375 -32.859375 C 69.285156 -36.148438 68.863281 -39.3125 67.84375 -42.34375 C 66.832031 -45.382812 65.328125 -48.050781 63.328125 -50.34375 C 61.328125 -52.632812 58.929688 -54.453125 56.140625 -55.796875 C 53.359375 -57.148438 50.300781 -57.804688 46.96875 -57.765625 C 44.175781 -57.722656 41.550781 -57.21875 39.09375 -56.25 C 36.644531 -55.28125 34.441406 -53.992188 32.484375 -52.390625 C 30.535156 -50.796875 28.875 -48.941406 27.5 -46.828125 C 26.125 -44.710938 25.097656 -42.507812 24.421875 -40.21875 L 24.296875 -27.390625 C 24.972656 -24.421875 26.03125 -21.8125 27.46875 -19.5625 C 28.90625 -17.320312 30.601562 -15.445312 32.5625 -13.9375 C 34.519531 -12.425781 36.644531 -11.273438 38.9375 -10.484375 C 41.226562 -9.703125 43.546875 -9.289062 45.890625 -9.25 C 49.035156 -9.15625 51.988281 -9.710938 54.75 -10.921875 C 57.519531 -12.140625 59.941406 -13.828125 62.015625 -15.984375 C 64.085938 -18.148438 65.738281 -20.671875 66.96875 -23.546875 C 68.207031 -26.429688 68.921875 -29.535156 69.109375 -32.859375 Z M 69.109375 -32.859375 "/></g></g></g><g fill="#000000" fill-opacity="1"><g transform="translate(581.190726, 1104.751168)"><g><path d="M 62.359375 4.25 L 63.296875 -5.265625 C 57.804688 -1.753906 52.414062 0.785156 47.125 2.359375 C 41.84375 3.929688 36.910156 4.71875 32.328125 4.71875 C 29.085938 4.71875 25.945312 4.300781 22.90625 3.46875 C 19.875 2.644531 17.195312 1.367188 14.875 -0.359375 C 12.5625 -2.097656 10.695312 -4.304688 9.28125 -6.984375 C 7.863281 -9.660156 7.15625 -12.820312 7.15625 -16.46875 C 7.15625 -20.113281 7.691406 -23.375 8.765625 -26.25 C 9.847656 -29.125 11.332031 -31.664062 13.21875 -33.875 C 15.113281 -36.082031 17.34375 -37.972656 19.90625 -39.546875 C 22.46875 -41.117188 25.222656 -42.398438 28.171875 -43.390625 C 31.117188 -44.378906 34.210938 -45.109375 37.453125 -45.578125 C 40.691406 -46.054688 43.910156 -46.296875 47.109375 -46.296875 C 50.078125 -46.296875 52.84375 -46.179688 55.40625 -45.953125 C 57.96875 -45.734375 60.238281 -45.441406 62.21875 -45.078125 C 61.632812 -47.328125 60.914062 -49.539062 60.0625 -51.71875 C 59.207031 -53.90625 58.113281 -55.863281 56.78125 -57.59375 C 55.457031 -59.320312 53.828125 -60.726562 51.890625 -61.8125 C 49.953125 -62.894531 47.632812 -63.4375 44.9375 -63.4375 C 43.1875 -63.4375 41.1875 -63.175781 38.9375 -62.65625 C 36.6875 -62.132812 34.210938 -61.195312 31.515625 -59.84375 C 28.816406 -58.5 25.867188 -56.644531 22.671875 -54.28125 C 19.472656 -51.925781 16.054688 -48.90625 12.421875 -45.21875 L 4.25 -55.125 C 8.570312 -59.175781 12.710938 -62.484375 16.671875 -65.046875 C 20.628906 -67.617188 24.347656 -69.632812 27.828125 -71.09375 C 31.316406 -72.550781 34.554688 -73.550781 37.546875 -74.09375 C 40.546875 -74.632812 43.238281 -74.90625 45.625 -74.90625 C 49.757812 -74.90625 53.445312 -74.195312 56.6875 -72.78125 C 59.925781 -71.363281 62.769531 -69.425781 65.21875 -66.96875 C 67.675781 -64.519531 69.742188 -61.640625 71.421875 -58.328125 C 73.109375 -55.023438 74.492188 -51.472656 75.578125 -47.671875 C 76.660156 -43.867188 77.4375 -39.921875 77.90625 -35.828125 C 78.375 -31.734375 78.609375 -27.664062 78.609375 -23.625 C 78.609375 -19.300781 78.359375 -14.664062 77.859375 -9.71875 C 77.367188 -4.769531 76.609375 0.628906 75.578125 6.484375 Z M 64.25 -20.3125 C 64.332031 -22.5625 64.394531 -24.785156 64.4375 -26.984375 C 64.488281 -29.191406 64.378906 -31.488281 64.109375 -33.875 C 61.898438 -34.550781 59.582031 -35.09375 57.15625 -35.5 C 54.726562 -35.90625 52.300781 -36.109375 49.875 -36.109375 C 45.820312 -36.109375 41.894531 -35.632812 38.09375 -34.6875 C 34.289062 -33.738281 31.015625 -32.363281 28.265625 -30.5625 C 25.523438 -28.769531 23.46875 -26.566406 22.09375 -23.953125 C 20.726562 -21.347656 20.445312 -18.378906 21.25 -15.046875 C 21.882812 -12.347656 23.113281 -10.457031 24.9375 -9.375 C 26.757812 -8.300781 28.953125 -7.765625 31.515625 -7.765625 C 34.117188 -7.765625 36.9375 -8.203125 39.96875 -9.078125 C 43.007812 -9.953125 46.023438 -11.03125 49.015625 -12.3125 C 52.015625 -13.59375 54.835938 -14.953125 57.484375 -16.390625 C 60.140625 -17.835938 62.394531 -19.144531 64.25 -20.3125 Z M 64.25 -20.3125 "/></g></g></g><g fill="#000000" fill-opacity="1"><g transform="translate(667.432096, 1104.751168)"><g><path d="M 11.734375 5 C 11.472656 -2.738281 11.226562 -9.742188 11 -16.015625 C 10.769531 -22.296875 10.566406 -27.910156 10.390625 -32.859375 C 10.210938 -37.804688 10.066406 -42.171875 9.953125 -45.953125 C 9.835938 -49.734375 9.738281 -52.992188 9.65625 -55.734375 C 9.46875 -62.171875 9.332031 -66.941406 9.25 -70.046875 L 24.625 -70.3125 L 24.90625 -50.875 C 26.382812 -53.445312 28.066406 -55.867188 29.953125 -58.140625 C 31.847656 -60.410156 33.894531 -62.421875 36.09375 -64.171875 C 38.300781 -65.929688 40.65625 -67.347656 43.15625 -68.421875 C 45.65625 -69.503906 48.273438 -70.132812 51.015625 -70.3125 C 54.429688 -70.539062 57.410156 -70.25 59.953125 -69.4375 C 62.492188 -68.625 64.664062 -67.5 66.46875 -66.0625 C 68.269531 -64.625 69.753906 -62.925781 70.921875 -60.96875 C 72.085938 -59.007812 73.007812 -56.984375 73.6875 -54.890625 C 74.363281 -52.804688 74.847656 -50.726562 75.140625 -48.65625 C 75.429688 -46.582031 75.625 -44.691406 75.71875 -42.984375 C 75.988281 -35.242188 76.054688 -27.457031 75.921875 -19.625 C 75.785156 -11.800781 75.625 -3.6875 75.4375 4.71875 L 61.609375 4.25 C 61.972656 -2.988281 62.300781 -10.226562 62.59375 -17.46875 C 62.882812 -24.71875 62.847656 -32.03125 62.484375 -39.40625 C 62.484375 -40.21875 62.425781 -41.265625 62.3125 -42.546875 C 62.207031 -43.828125 61.960938 -45.1875 61.578125 -46.625 C 61.191406 -48.070312 60.660156 -49.503906 59.984375 -50.921875 C 59.316406 -52.335938 58.441406 -53.570312 57.359375 -54.625 C 56.273438 -55.6875 54.957031 -56.484375 53.40625 -57.015625 C 51.851562 -57.554688 50.046875 -57.671875 47.984375 -57.359375 C 44.429688 -56.816406 40.820312 -54.21875 37.15625 -49.5625 C 33.488281 -44.90625 29.539062 -38.101562 25.3125 -29.15625 C 25.488281 -21.90625 25.628906 -16.132812 25.734375 -11.84375 C 25.847656 -7.550781 25.953125 -4.300781 26.046875 -2.09375 C 26.140625 0.519531 26.207031 2.273438 26.25 3.171875 Z M 11.734375 5 "/></g></g></g><g fill="#000000" fill-opacity="1"><g transform="translate(752.391254, 1104.751168)"><g><path d="M 72.265625 -68.296875 C 69.890625 -61.273438 67.722656 -54.863281 65.765625 -49.0625 C 63.804688 -43.257812 62.039062 -38.015625 60.46875 -33.328125 C 58.894531 -28.648438 57.476562 -24.488281 56.21875 -20.84375 C 54.957031 -17.207031 53.851562 -14.015625 52.90625 -11.265625 C 50.695312 -4.835938 48.960938 0.109375 47.703125 3.578125 C 46.804688 6.234375 45.757812 9.054688 44.5625 12.046875 C 43.375 15.035156 41.914062 18.015625 40.1875 20.984375 C 38.457031 23.953125 36.429688 26.816406 34.109375 29.578125 C 31.796875 32.347656 29.097656 34.820312 26.015625 37 C 22.929688 39.1875 19.410156 40.976562 15.453125 42.375 C 11.492188 43.769531 7.039062 44.582031 2.09375 44.8125 L -0.546875 31.65625 C 2.242188 32.007812 4.863281 31.925781 7.3125 31.40625 C 9.769531 30.894531 12.046875 30.085938 14.140625 28.984375 C 16.234375 27.878906 18.164062 26.539062 19.9375 24.96875 C 21.71875 23.394531 23.335938 21.726562 24.796875 19.96875 C 26.265625 18.21875 27.554688 16.429688 28.671875 14.609375 C 29.796875 12.785156 30.789062 11.085938 31.65625 9.515625 L 3.171875 -66.0625 L 18.625 -68.15625 L 38.53125 -8.703125 C 39.613281 -12.035156 40.882812 -15.960938 42.34375 -20.484375 C 43.800781 -25.003906 45.351562 -29.875 47 -35.09375 C 48.644531 -40.3125 50.34375 -45.765625 52.09375 -51.453125 C 53.851562 -57.140625 55.5625 -62.796875 57.21875 -68.421875 Z M 72.265625 -68.296875 "/></g></g></g></svg>