<svg xmlns="http://www.w3.org/2000/svg" xmlns:xlink="http://www.w3.org/1999/xlink" width="1366" zoomAndPan="magnify" viewBox="0 0 1024.5 1167" height="1556" preserveAspectRatio="xMidYMid meet" version="1.0"><defs><clipPath id="484556578c"><path d="M 17 475 L 721 475 L 721 1126 L 17 1126 Z M 17 475 " clip-rule="nonzero"/></clipPath><clipPath id="aa93256d6f"><path d="M 288.039062 -196.257812 L 1280.796875 304.070312 L 784.855469 1288.125 L -207.902344 787.796875 Z M 288.039062 -196.257812 " clip-rule="nonzero"/></clipPath><clipPath id="cf144c0dea"><path d="M 288.039062 -196.257812 L 1280.796875 304.070312 L 784.855469 1288.125 L -207.902344 787.796875 Z M 288.039062 -196.257812 " clip-rule="nonzero"/></clipPath><clipPath id="80b630825c"><path d="M 288.039062 -196.257812 L 1280.796875 304.070312 L 784.855469 1288.125 L -207.902344 787.796875 Z M 288.039062 -196.257812 " clip-rule="nonzero"/></clipPath><clipPath id="198cc6f7ae"><path d="M 220.296875 329.378906 L 897.140625 670.492188 L 636.230469 1188.191406 L -40.609375 847.078125 Z M 220.296875 329.378906 " clip-rule="nonzero"/></clipPath><clipPath id="38e468b899"><path d="M 622 122 L 930 122 L 930 552 L 622 552 Z M 622 122 " clip-rule="nonzero"/></clipPath><clipPath id="8edc842951"><path d="M 288.039062 -196.257812 L 1280.796875 304.070312 L 784.855469 1288.125 L -207.902344 787.796875 Z M 288.039062 -196.257812 " clip-rule="nonzero"/></clipPath><clipPath id="c72686b76b"><path d="M 288.039062 -196.257812 L 1280.796875 304.070312 L 784.855469 1288.125 L -207.902344 787.796875 Z M 288.039062 -196.257812 " clip-rule="nonzero"/></clipPath><clipPath id="3f9a3a714b"><path d="M 288.039062 -196.257812 L 1280.796875 304.070312 L 784.855469 1288.125 L -207.902344 787.796875 Z M 288.039062 -196.257812 " clip-rule="nonzero"/></clipPath><clipPath id="1aba4c2ba1"><path d="M 370 24 L 707 24 L 707 439 L 370 439 Z M 370 24 " clip-rule="nonzero"/></clipPath><clipPath id="ae7b534b13"><path d="M 288.039062 -196.257812 L 1280.796875 304.070312 L 784.855469 1288.125 L -207.902344 787.796875 Z M 288.039062 -196.257812 " clip-rule="nonzero"/></clipPath><clipPath id="6cbe68f1de"><path d="M 288.039062 -196.257812 L 1280.796875 304.070312 L 784.855469 1288.125 L -207.902344 787.796875 Z M 288.039062 -196.257812 " clip-rule="nonzero"/></clipPath><clipPath id="f9d4072c6e"><path d="M 288.039062 -196.257812 L 1280.796875 304.070312 L 784.855469 1288.125 L -207.902344 787.796875 Z M 288.039062 -196.257812 " clip-rule="nonzero"/></clipPath><clipPath id="80fe4a86f9"><path d="M 724 568 L 993 568 L 993 903 L 724 903 Z M 724 568 " clip-rule="nonzero"/></clipPath><clipPath id="54b42066cd"><path d="M 288.039062 -196.257812 L 1280.796875 304.070312 L 784.855469 1288.125 L -207.902344 787.796875 Z M 288.039062 -196.257812 " clip-rule="nonzero"/></clipPath><clipPath id="85e5edc57a"><path d="M 288.039062 -196.257812 L 1280.796875 304.070312 L 784.855469 1288.125 L -207.902344 787.796875 Z M 288.039062 -196.257812 " clip-rule="nonzero"/></clipPath><clipPath id="d3a9b3fa26"><path d="M 288.039062 -196.257812 L 1280.796875 304.070312 L 784.855469 1288.125 L -207.902344 787.796875 Z M 288.039062 -196.257812 " clip-rule="nonzero"/></clipPath><clipPath id="ceb5b96417"><path d="M 822.488281 510.226562 L 1050.867188 625.324219 L 884.941406 954.550781 L 656.5625 839.457031 Z M 822.488281 510.226562 " clip-rule="nonzero"/></clipPath><clipPath id="55aad95577"><path d="M 68 226 L 324 226 L 324 570 L 68 570 Z M 68 226 " clip-rule="nonzero"/></clipPath><clipPath id="d85a35ee88"><path d="M 288.039062 -196.257812 L 1280.796875 304.070312 L 784.855469 1288.125 L -207.902344 787.796875 Z M 288.039062 -196.257812 " clip-rule="nonzero"/></clipPath><clipPath id="13b9ddd005"><path d="M 288.039062 -196.257812 L 1280.796875 304.070312 L 784.855469 1288.125 L -207.902344 787.796875 Z M 288.039062 -196.257812 " clip-rule="nonzero"/></clipPath><clipPath id="cc98ca8495"><path d="M 288.039062 -196.257812 L 1280.796875 304.070312 L 784.855469 1288.125 L -207.902344 787.796875 Z M 288.039062 -196.257812 " clip-rule="nonzero"/></clipPath></defs><g clip-path="url(#484556578c)"><g clip-path="url(#aa93256d6f)"><g clip-path="url(#cf144c0dea)"><g clip-path="url(#80b630825c)"><g clip-path="url(#198cc6f7ae)"><path fill="#ffffff" d="M 713.675781 941.757812 L 679.394531 826.984375 C 674.949219 812.085938 672.726562 797.039062 672.792969 782.257812 L 673.265625 668.332031 C 673.886719 521.988281 471.882812 420.183594 354.621094 507.742188 L 263.328125 575.898438 C 251.484375 584.742188 238.070312 591.910156 223.449219 597.199219 L 110.796875 637.921875 C -27.808594 688.054688 -7.308594 868.429688 136.394531 936.195312 C 147.507812 941.4375 159.316406 944.96875 171.339844 946.8125 C 268.410156 961.765625 359.621094 1007.730469 429.375 1076.859375 C 438.011719 1085.421875 447.875 1092.816406 458.703125 1098.628906 C 598.660156 1173.824219 755.839844 1082.992188 713.675781 941.757812 " fill-opacity="1" fill-rule="nonzero"/></g></g></g></g></g><g clip-path="url(#38e468b899)"><g clip-path="url(#8edc842951)"><g clip-path="url(#c72686b76b)"><g clip-path="url(#3f9a3a714b)"><path fill="#ffffff" d="M 908.230469 453.097656 C 948.625 345.238281 929.316406 153.96875 864.617188 127.761719 C 817.613281 108.722656 774.152344 149.054688 745.605469 200.203125 C 727.210938 233.128906 735.335938 235.925781 698.574219 308.910156 C 659.746094 385.984375 636.988281 406.152344 626.949219 437.84375 C 616.011719 472.328125 624.320312 504.691406 678.234375 537.105469 C 748.898438 579.613281 881.953125 523.238281 908.230469 453.097656 " fill-opacity="1" fill-rule="nonzero"/></g></g></g></g><g clip-path="url(#1aba4c2ba1)"><g clip-path="url(#ae7b534b13)"><g clip-path="url(#6cbe68f1de)"><g clip-path="url(#f9d4072c6e)"><path fill="#ffffff" d="M 628.472656 273.582031 C 665.269531 200.613281 672.339844 205.476562 687.875 171.105469 C 711.992188 117.730469 718.554688 58.800781 675.292969 32.347656 C 615.738281 -4.070312 450.503906 94.199219 387.84375 190.835938 C 347.097656 253.683594 380.9375 394.167969 457.140625 425.679688 C 515.269531 449.734375 546.222656 437.15625 567.449219 407.859375 C 586.941406 380.929688 589.609375 350.636719 628.472656 273.582031 " fill-opacity="1" fill-rule="nonzero"/></g></g></g></g><g clip-path="url(#80fe4a86f9)"><g clip-path="url(#54b42066cd)"><g clip-path="url(#85e5edc57a)"><g clip-path="url(#d3a9b3fa26)"><g clip-path="url(#ceb5b96417)"><path fill="#ffffff" d="M 922.679688 569.03125 C 856.46875 572.429688 737.800781 643.890625 724.871094 710.980469 C 721.453125 728.667969 732.214844 748.847656 744.355469 798.796875 C 756.050781 846.917969 746.816406 868.527344 762.539062 888.433594 C 795.332031 929.984375 920.75 870.097656 966.128906 792.804688 C 1011.492188 715.5 1000.179688 565.058594 922.679688 569.03125 " fill-opacity="1" fill-rule="nonzero"/></g></g></g></g></g><g clip-path="url(#55aad95577)"><g clip-path="url(#d85a35ee88)"><g clip-path="url(#13b9ddd005)"><g clip-path="url(#cc98ca8495)"><path fill="#ffffff" d="M 290.535156 250.445312 C 247.636719 185.792969 119.980469 266.199219 84.832031 348.652344 C 49.699219 431.109375 76.160156 567.542969 129.082031 569.1875 C 154.421875 569.976562 166.300781 549.699219 211.949219 530.476562 C 259.320312 510.519531 281.933594 507.15625 294.128906 493.894531 C 340.347656 443.585938 327.203125 305.691406 290.535156 250.445312 " fill-opacity="1" fill-rule="nonzero"/></g></g></g></g></svg>