<svg xmlns="http://www.w3.org/2000/svg" xmlns:xlink="http://www.w3.org/1999/xlink" width="1366" zoomAndPan="magnify" viewBox="0 0 1024.5 654.75" height="873" preserveAspectRatio="xMidYMid meet" version="1.0"><defs><clipPath id="e209442669"><path d="M 0.00390625 0.0351562 L 1023.996094 0.0351562 L 1023.996094 654.464844 L 0.00390625 654.464844 Z M 0.00390625 0.0351562 " clip-rule="nonzero"/></clipPath><clipPath id="21ca97b740"><path d="M 7.058594 0.0351562 L 1015.929688 0.0351562 L 1015.929688 329.804688 L 7.058594 329.804688 Z M 7.058594 0.0351562 " clip-rule="nonzero"/></clipPath><clipPath id="774eccaf31"><path d="M 0.0585938 0.0351562 L 1008.929688 0.0351562 L 1008.929688 329.804688 L 0.0585938 329.804688 Z M 0.0585938 0.0351562 " clip-rule="nonzero"/></clipPath><clipPath id="1f4fd6123a"><rect x="0" width="1009" y="0" height="330"/></clipPath><clipPath id="295b638aff"><path d="M 7.074219 0.0351562 L 1015.910156 0.0351562 L 1015.910156 329.792969 L 7.074219 329.792969 Z M 7.074219 0.0351562 " clip-rule="nonzero"/></clipPath></defs><g clip-path="url(#e209442669)"><path stroke-linecap="butt" transform="matrix(0.749634, 0, 0, 0.749634, 0.00465578, 0.0347701)" fill="none" stroke-linejoin="miter" d="M -0.000999867 0.00051513 L 1365.988223 0.00051513 L 1365.988223 874.421834 L -0.000999867 874.421834 Z M -0.000999867 0.00051513 " stroke="#ffffff" stroke-width="52" stroke-opacity="1" stroke-miterlimit="4"/></g><g clip-path="url(#21ca97b740)"><g transform="matrix(1, 0, 0, 1, 7, 0.000000000000042445)"><g clip-path="url(#1f4fd6123a)"><g clip-path="url(#774eccaf31)"><path fill="#ffffff" d="M 0.0585938 0.0351562 L 1008.6875 0.0351562 L 1008.6875 329.804688 L 0.0585938 329.804688 Z M 0.0585938 0.0351562 " fill-opacity="1" fill-rule="nonzero"/></g></g></g></g><g clip-path="url(#295b638aff)"><path stroke-linecap="butt" transform="matrix(0.749634, 0, 0, 0.749634, 7.075511, 0.0347701)" fill="none" stroke-linejoin="miter" d="M -0.0017241 0.00051513 L 1345.769303 0.00051513 L 1345.769303 439.89217 L -0.0017241 439.89217 Z M -0.0017241 0.00051513 " stroke="#ffffff" stroke-width="4" stroke-opacity="1" stroke-miterlimit="4"/></g></svg>