<svg xmlns="http://www.w3.org/2000/svg" xmlns:xlink="http://www.w3.org/1999/xlink" width="1366" zoomAndPan="magnify" viewBox="0 0 1024.5 654.75" height="873" preserveAspectRatio="xMidYMid meet" version="1.0"><defs><clipPath id="ecce231180"><path d="M 0.00390625 0.0351562 L 1023.996094 0.0351562 L 1023.996094 654.464844 L 0.00390625 654.464844 Z M 0.00390625 0.0351562 " clip-rule="nonzero"/></clipPath><clipPath id="eaae3640db"><path d="M 276.347656 137.871094 L 619 137.871094 L 619 516.433594 L 276.347656 516.433594 Z M 276.347656 137.871094 " clip-rule="nonzero"/></clipPath><clipPath id="80cfc1d21b"><path d="M 598 244 L 747.867188 244 L 747.867188 409 L 598 409 Z M 598 244 " clip-rule="nonzero"/></clipPath></defs><g clip-path="url(#ecce231180)"><path stroke-linecap="butt" transform="matrix(0.749634, 0, 0, 0.749634, 0.00465578, 0.0347701)" fill="none" stroke-linejoin="miter" d="M -0.000999867 0.00051513 L 1365.988223 0.00051513 L 1365.988223 874.421834 L -0.000999867 874.421834 Z M -0.000999867 0.00051513 " stroke="#ffffff" stroke-width="52" stroke-opacity="1" stroke-miterlimit="4"/></g><g clip-path="url(#eaae3640db)"><path fill="#ffffff" d="M 618.3125 414.582031 C 591.957031 450.40625 549.890625 473.675781 502.535156 473.675781 C 422.78125 473.675781 358.027344 407.832031 358.027344 326.757812 C 358.027344 245.683594 422.78125 179.839844 502.535156 179.839844 C 549.238281 179.839844 590.761719 202.480469 617.179688 237.453125 C 586.601562 178.078125 526.605469 137.78125 457.664062 137.78125 C 357.71875 137.78125 276.636719 222.621094 276.636719 327.203125 C 276.636719 431.785156 357.714844 516.625 457.664062 516.625 C 527.511719 516.625 588.117188 475.238281 618.3125 414.582031 Z M 618.3125 414.582031 " fill-opacity="1" fill-rule="nonzero"/></g><g clip-path="url(#80cfc1d21b)"><path fill="#ffffff" d="M 747.441406 276.433594 L 711.386719 326.882812 L 747.058594 377.867188 L 690.066406 357.566406 L 654.75 408.828125 L 655.589844 345.839844 L 598.089844 326.53125 L 655.597656 307.894531 L 655.375 244.703125 L 690.085938 296.179688 Z M 747.441406 276.433594 " fill-opacity="1" fill-rule="nonzero"/></g></svg>