<svg xmlns="http://www.w3.org/2000/svg" xmlns:xlink="http://www.w3.org/1999/xlink" width="1366" zoomAndPan="magnify" viewBox="0 0 1024.5 828.75" height="1105" preserveAspectRatio="xMidYMid meet" version="1.0"><defs><clipPath id="1407aedb94"><path d="M 4 5 L 1021 5 L 1021 826.6875 L 4 826.6875 Z M 4 5 " clip-rule="nonzero"/></clipPath></defs><g clip-path="url(#1407aedb94)"><path fill="#ffffff" d="M 885.617188 826.40625 C 883.394531 826.40625 881.199219 826.191406 879.023438 825.757812 C 876.84375 825.320312 874.730469 824.679688 872.683594 823.824219 C 870.636719 822.96875 868.691406 821.925781 866.847656 820.683594 C 865.007812 819.445312 863.304688 818.035156 861.742188 816.460938 L 115.757812 64.253906 C 114.960938 63.457031 114.210938 62.621094 113.496094 61.75 C 112.785156 60.878906 112.117188 59.972656 111.496094 59.035156 C 110.871094 58.097656 110.296875 57.132812 109.769531 56.136719 C 109.238281 55.144531 108.761719 54.125 108.332031 53.085938 C 107.90625 52.042969 107.527344 50.984375 107.203125 49.90625 C 106.882812 48.828125 106.609375 47.734375 106.394531 46.632812 C 106.175781 45.527344 106.015625 44.414062 105.90625 43.292969 C 105.800781 42.171875 105.746094 41.050781 105.75 39.921875 C 105.753906 38.796875 105.8125 37.675781 105.925781 36.554688 C 106.039062 35.433594 106.207031 34.320312 106.429688 33.21875 C 106.648438 32.113281 106.925781 31.023438 107.257812 29.949219 C 107.585938 28.871094 107.96875 27.8125 108.402344 26.773438 C 108.835938 25.734375 109.316406 24.722656 109.851562 23.730469 C 110.382812 22.738281 110.964844 21.773438 111.59375 20.839844 C 112.21875 19.90625 112.890625 19.003906 113.609375 18.136719 C 114.324219 17.265625 115.082031 16.4375 115.878906 15.640625 C 116.679688 14.847656 117.515625 14.09375 118.386719 13.382812 C 119.257812 12.671875 120.164062 12.003906 121.101562 11.378906 C 122.039062 10.757812 123.003906 10.183594 124 9.652344 C 124.992188 9.125 126.011719 8.648438 127.050781 8.21875 C 128.09375 7.789062 129.152344 7.414062 130.230469 7.089844 C 131.308594 6.765625 132.402344 6.496094 133.503906 6.28125 C 134.609375 6.0625 135.722656 5.902344 136.84375 5.792969 C 137.964844 5.683594 139.085938 5.632812 140.214844 5.636719 C 141.339844 5.640625 142.460938 5.695312 143.582031 5.808594 C 144.703125 5.921875 145.8125 6.089844 146.917969 6.3125 C 148.019531 6.535156 149.113281 6.8125 150.1875 7.140625 C 151.265625 7.472656 152.320312 7.851562 153.359375 8.285156 C 154.398438 8.71875 155.414062 9.203125 156.40625 9.738281 C 157.398438 10.269531 158.363281 10.851562 159.296875 11.476562 C 160.230469 12.105469 161.132812 12.777344 162 13.496094 C 162.867188 14.210938 163.699219 14.96875 164.496094 15.765625 L 910.480469 767.847656 C 911.699219 769.042969 912.820312 770.324219 913.84375 771.6875 C 914.871094 773.050781 915.789062 774.484375 916.597656 775.984375 C 917.40625 777.484375 918.101562 779.039062 918.679688 780.644531 C 919.257812 782.25 919.714844 783.890625 920.046875 785.5625 C 920.378906 787.238281 920.585938 788.925781 920.664062 790.628906 C 920.746094 792.335938 920.695312 794.035156 920.523438 795.730469 C 920.347656 797.429688 920.046875 799.105469 919.621094 800.757812 C 919.195312 802.410156 918.648438 804.019531 917.980469 805.589844 C 917.316406 807.160156 916.535156 808.671875 915.640625 810.125 C 914.75 811.582031 913.753906 812.960938 912.652344 814.265625 C 911.554688 815.570312 910.363281 816.785156 909.082031 817.910156 C 907.800781 819.035156 906.441406 820.0625 905.003906 820.984375 C 903.570312 821.90625 902.074219 822.71875 900.519531 823.417969 C 898.960938 824.117188 897.363281 824.695312 895.71875 825.15625 C 894.074219 825.613281 892.40625 825.949219 890.714844 826.160156 C 889.019531 826.367188 887.320312 826.449219 885.617188 826.40625 Z M 321.398438 368.246094 C 321.160156 367.699219 320.796875 367.253906 320.300781 366.917969 C 319.808594 366.582031 319.261719 366.402344 318.664062 366.378906 C 318.152344 366.359375 317.652344 366.4375 317.164062 366.605469 C 316.679688 366.773438 316.238281 367.023438 315.847656 367.359375 C 315.457031 367.691406 315.140625 368.085938 314.894531 368.539062 C 314.652344 368.992188 314.5 369.476562 314.4375 369.984375 C 311.15625 384.976562 309.5 400.144531 309.464844 415.492188 C 309.441406 418.835938 309.496094 422.179688 309.636719 425.523438 C 309.777344 428.867188 310 432.203125 310.304688 435.535156 C 310.609375 438.867188 310.992188 442.191406 311.460938 445.503906 C 311.929688 448.816406 312.476562 452.113281 313.109375 455.398438 C 313.738281 458.6875 314.449219 461.953125 315.238281 465.207031 C 316.03125 468.457031 316.898438 471.683594 317.847656 474.894531 C 318.800781 478.101562 319.828125 481.285156 320.933594 484.441406 C 322.039062 487.597656 323.222656 490.726562 324.480469 493.828125 C 325.742188 496.925781 327.078125 499.992188 328.488281 503.027344 C 329.898438 506.058594 331.382812 509.058594 332.941406 512.015625 C 334.5 514.976562 336.132812 517.898438 337.832031 520.777344 C 339.535156 523.660156 341.304688 526.496094 343.148438 529.289062 C 344.988281 532.082031 346.898438 534.828125 348.875 537.527344 C 350.851562 540.226562 352.894531 542.875 355 545.476562 C 357.109375 548.074219 359.277344 550.617188 361.507812 553.109375 C 363.742188 555.601562 366.035156 558.039062 368.386719 560.417969 C 370.738281 562.796875 373.148438 565.117188 375.613281 567.378906 C 378.078125 569.640625 380.597656 571.839844 383.171875 573.976562 C 385.746094 576.113281 388.375 578.183594 391.050781 580.191406 C 393.726562 582.199219 396.449219 584.140625 399.222656 586.015625 C 401.992188 587.886719 404.808594 589.691406 407.667969 591.425781 C 410.53125 593.164062 413.429688 594.828125 416.375 596.417969 C 419.316406 598.011719 422.296875 599.53125 425.3125 600.976562 C 428.328125 602.421875 431.378906 603.792969 434.464844 605.089844 C 437.550781 606.382812 440.664062 607.605469 443.808594 608.746094 C 446.953125 609.890625 450.125 610.953125 453.320312 611.941406 C 456.515625 612.925781 459.738281 613.835938 462.976562 614.664062 C 466.21875 615.492188 469.480469 616.238281 472.757812 616.90625 C 476.035156 617.574219 479.328125 618.160156 482.636719 618.667969 C 485.941406 619.171875 489.261719 619.597656 492.589844 619.941406 C 495.917969 620.28125 499.25 620.542969 502.59375 620.722656 C 505.933594 620.902344 509.277344 620.996094 512.621094 621.011719 C 527.84375 620.980469 542.890625 619.320312 557.753906 616.039062 C 558.257812 615.960938 558.734375 615.800781 559.183594 615.554688 C 559.628906 615.304688 560.015625 614.988281 560.347656 614.601562 C 560.679688 614.210938 560.933594 613.777344 561.105469 613.296875 C 561.28125 612.816406 561.363281 612.320312 561.359375 611.8125 C 561.382812 611.234375 561.261719 610.691406 560.996094 610.179688 C 560.730469 609.671875 560.351562 609.261719 559.867188 608.949219 Z M 512.621094 210.84375 C 497.398438 210.875 482.355469 212.53125 467.488281 215.816406 C 467.023438 215.9375 466.589844 216.136719 466.191406 216.402344 C 465.789062 216.671875 465.445312 216.996094 465.152344 217.378906 C 464.859375 217.761719 464.636719 218.179688 464.484375 218.636719 C 464.328125 219.09375 464.253906 219.5625 464.257812 220.042969 C 464.265625 221.246094 464.640625 222.324219 465.375 223.273438 L 703.84375 463.609375 C 704.699219 464.476562 705.734375 464.929688 706.953125 464.976562 C 707.4375 464.960938 707.90625 464.863281 708.355469 464.679688 C 708.804688 464.496094 709.207031 464.234375 709.5625 463.902344 C 709.917969 463.570312 710.203125 463.1875 710.417969 462.75 C 710.628906 462.3125 710.761719 461.855469 710.804688 461.371094 C 714.378906 446.496094 716.160156 431.410156 716.152344 416.113281 C 716.167969 412.769531 716.097656 409.425781 715.949219 406.082031 C 715.796875 402.742188 715.566406 399.40625 715.253906 396.074219 C 714.941406 392.742188 714.542969 389.421875 714.066406 386.113281 C 713.589844 382.800781 713.03125 379.503906 712.394531 376.21875 C 711.757812 372.9375 711.039062 369.667969 710.238281 366.421875 C 709.4375 363.171875 708.5625 359.945312 707.605469 356.742188 C 706.644531 353.535156 705.609375 350.355469 704.496094 347.203125 C 703.382812 344.046875 702.195312 340.921875 700.925781 337.824219 C 699.660156 334.730469 698.316406 331.667969 696.898438 328.636719 C 695.484375 325.605469 693.992188 322.613281 692.425781 319.65625 C 690.863281 316.699219 689.226562 313.78125 687.519531 310.90625 C 685.8125 308.03125 684.035156 305.195312 682.1875 302.40625 C 680.339844 299.617188 678.429688 296.875 676.445312 294.179688 C 674.464844 291.484375 672.417969 288.839844 670.308594 286.246094 C 668.195312 283.648438 666.023438 281.109375 663.789062 278.621094 C 661.550781 276.132812 659.253906 273.699219 656.898438 271.324219 C 654.546875 268.949219 652.132812 266.632812 649.664062 264.375 C 647.195312 262.117188 644.671875 259.921875 642.09375 257.789062 C 639.519531 255.65625 636.890625 253.589844 634.210938 251.585938 C 631.535156 249.582031 628.808594 247.644531 626.035156 245.773438 C 623.261719 243.902344 620.441406 242.101562 617.582031 240.371094 C 614.71875 238.636719 611.816406 236.976562 608.875 235.386719 C 605.929688 233.796875 602.949219 232.28125 599.929688 230.839844 C 596.914062 229.394531 593.863281 228.027344 590.777344 226.734375 C 587.691406 225.441406 584.578125 224.222656 581.429688 223.082031 C 578.285156 221.941406 575.117188 220.878906 571.917969 219.894531 C 568.722656 218.910156 565.503906 218.003906 562.261719 217.179688 C 559.019531 216.351562 555.761719 215.605469 552.480469 214.9375 C 549.203125 214.273438 545.910156 213.6875 542.605469 213.183594 C 539.296875 212.675781 535.980469 212.253906 532.652344 211.910156 C 529.324219 211.570312 525.992188 211.308594 522.648438 211.132812 C 519.308594 210.953125 515.96875 210.855469 512.621094 210.84375 Z M 1009.945312 378.8125 C 996.457031 357.484375 981.890625 336.921875 966.242188 317.121094 C 950.59375 297.324219 933.953125 278.398438 916.320312 260.34375 C 898.6875 242.292969 880.15625 225.210938 860.726562 209.105469 C 841.300781 193 821.082031 177.953125 800.074219 163.96875 C 789.503906 156.875 778.691406 150.167969 767.640625 143.851562 C 756.585938 137.535156 745.320312 131.621094 733.84375 126.117188 C 722.363281 120.609375 710.703125 115.523438 698.859375 110.855469 C 687.011719 106.1875 675.015625 101.953125 662.867188 98.148438 C 650.71875 94.34375 638.449219 90.980469 626.054688 88.058594 C 613.664062 85.136719 601.183594 82.664062 588.617188 80.640625 C 576.046875 78.613281 563.421875 77.046875 550.738281 75.929688 C 538.058594 74.8125 525.351562 74.15625 512.621094 73.953125 C 485.503906 73.933594 458.585938 76.226562 431.867188 80.839844 C 405.144531 85.457031 379.015625 92.316406 353.476562 101.429688 C 352.730469 101.609375 352.082031 101.96875 351.539062 102.511719 C 350.992188 103.050781 350.628906 103.695312 350.445312 104.441406 C 350.261719 105.191406 350.285156 105.929688 350.519531 106.660156 C 350.75 107.394531 351.15625 108.011719 351.738281 108.515625 L 397.492188 155.015625 C 398.246094 155.785156 399.121094 156.386719 400.109375 156.816406 C 401.097656 157.246094 402.132812 157.476562 403.210938 157.503906 C 404.203125 157.503906 404.949219 157.503906 405.695312 157.503906 C 423.097656 152.605469 440.75 148.90625 458.652344 146.410156 C 476.554688 143.910156 494.546875 142.636719 512.621094 142.585938 C 523.75 142.726562 534.855469 143.273438 545.945312 144.230469 C 557.03125 145.1875 568.066406 146.546875 579.054688 148.3125 C 590.042969 150.082031 600.949219 152.246094 611.777344 154.816406 C 622.605469 157.382812 633.324219 160.34375 643.9375 163.699219 C 654.546875 167.054688 665.019531 170.792969 675.355469 174.914062 C 685.691406 179.039062 695.863281 183.535156 705.867188 188.40625 C 715.875 193.277344 725.6875 198.507812 735.308594 204.097656 C 744.933594 209.691406 754.335938 215.625 763.523438 221.90625 C 782.542969 234.519531 800.847656 248.097656 818.433594 262.644531 C 836.019531 277.191406 852.789062 292.625 868.742188 308.945312 C 884.699219 325.265625 899.746094 342.382812 913.890625 360.292969 C 928.035156 378.203125 941.199219 396.8125 953.375 416.113281 C 934.894531 445.363281 914.273438 473.019531 891.507812 499.078125 C 868.746094 525.136719 844.109375 549.285156 817.605469 571.527344 C 817.101562 571.890625 816.695312 572.347656 816.394531 572.890625 C 816.089844 573.433594 815.914062 574.015625 815.867188 574.636719 C 815.855469 575.257812 815.980469 575.855469 816.242188 576.421875 C 816.503906 576.988281 816.875 577.472656 817.359375 577.867188 L 859.257812 620.140625 C 859.621094 620.628906 860.078125 621.003906 860.628906 621.265625 C 861.179688 621.53125 861.757812 621.652344 862.367188 621.632812 C 862.847656 621.65625 863.304688 621.570312 863.746094 621.375 C 864.183594 621.175781 864.550781 620.890625 864.851562 620.515625 C 893.171875 596.542969 919.492188 570.550781 943.816406 542.535156 C 968.144531 514.519531 990.1875 484.8125 1009.945312 453.414062 C 1010.824219 452.027344 1011.65625 450.613281 1012.433594 449.167969 C 1013.210938 447.722656 1013.941406 446.253906 1014.613281 444.757812 C 1015.289062 443.261719 1015.910156 441.746094 1016.480469 440.207031 C 1017.046875 438.667969 1017.558594 437.109375 1018.015625 435.535156 C 1018.476562 433.957031 1018.875 432.367188 1019.222656 430.765625 C 1019.566406 429.160156 1019.855469 427.546875 1020.085938 425.921875 C 1020.316406 424.296875 1020.492188 422.667969 1020.605469 421.03125 C 1020.722656 419.394531 1020.78125 417.753906 1020.78125 416.113281 C 1020.78125 414.472656 1020.722656 412.832031 1020.605469 411.195312 C 1020.492188 409.558594 1020.316406 407.929688 1020.085938 406.304688 C 1019.855469 404.679688 1019.566406 403.066406 1019.222656 401.460938 C 1018.875 399.859375 1018.476562 398.269531 1018.015625 396.691406 C 1017.558594 395.117188 1017.046875 393.558594 1016.480469 392.019531 C 1015.910156 390.480469 1015.289062 388.964844 1014.613281 387.46875 C 1013.941406 385.972656 1013.210938 384.503906 1012.433594 383.058594 C 1011.65625 381.613281 1010.824219 380.199219 1009.945312 378.8125 Z M 512.621094 689.640625 C 501.46875 689.5625 490.332031 689.078125 479.214844 688.183594 C 468.097656 687.289062 457.027344 685.992188 446.003906 684.289062 C 434.984375 682.585938 424.039062 680.480469 413.167969 677.976562 C 402.300781 675.472656 391.535156 672.578125 380.878906 669.285156 C 370.222656 665.996094 359.699219 662.320312 349.3125 658.257812 C 338.925781 654.195312 328.699219 649.761719 318.636719 644.953125 C 308.574219 640.144531 298.699219 634.972656 289.011719 629.441406 C 279.328125 623.910156 269.859375 618.035156 260.601562 611.808594 C 241.667969 599.15625 223.457031 585.527344 205.972656 570.929688 C 188.492188 556.332031 171.832031 540.84375 156.003906 524.46875 C 140.171875 508.09375 125.253906 490.925781 111.253906 472.960938 C 97.253906 454.996094 84.25 436.335938 72.242188 416.984375 C 91.746094 388.339844 113.058594 361.117188 136.183594 335.308594 C 159.304688 309.5 184.035156 285.332031 210.371094 262.8125 C 210.886719 262.441406 211.277344 261.96875 211.546875 261.394531 C 211.8125 260.816406 211.917969 260.210938 211.863281 259.578125 C 211.890625 258.472656 211.515625 257.519531 210.746094 256.71875 L 168.472656 214.074219 C 168.035156 213.667969 167.539062 213.367188 166.976562 213.171875 C 166.410156 212.980469 165.832031 212.90625 165.238281 212.957031 C 164.398438 213.035156 163.613281 213.28125 162.878906 213.703125 C 134.945312 237.824219 108.699219 263.660156 84.144531 291.214844 C 59.585938 318.769531 36.929688 347.800781 16.167969 378.316406 C 15.242188 379.691406 14.367188 381.097656 13.542969 382.535156 C 12.71875 383.972656 11.949219 385.4375 11.230469 386.933594 C 10.515625 388.425781 9.851562 389.945312 9.246094 391.484375 C 8.636719 393.027344 8.089844 394.589844 7.59375 396.171875 C 7.101562 397.753906 6.667969 399.351562 6.289062 400.964844 C 5.914062 402.578125 5.59375 404.203125 5.335938 405.839844 C 5.078125 407.476562 4.878906 409.121094 4.738281 410.773438 C 4.597656 412.421875 4.519531 414.078125 4.5 415.734375 C 4.480469 417.390625 4.523438 419.046875 4.621094 420.699219 C 4.722656 422.355469 4.886719 424.003906 5.105469 425.644531 C 5.328125 427.289062 5.605469 428.917969 5.945312 430.542969 C 6.285156 432.164062 6.683594 433.769531 7.140625 435.363281 C 7.597656 436.957031 8.109375 438.53125 8.683594 440.085938 C 9.253906 441.640625 9.878906 443.175781 10.5625 444.683594 C 11.246094 446.195312 11.980469 447.679688 12.769531 449.132812 C 13.5625 450.589844 14.402344 452.015625 15.296875 453.414062 C 28.539062 474.78125 42.882812 495.386719 58.324219 515.230469 C 73.761719 535.070312 90.214844 554.035156 107.675781 572.125 C 125.136719 590.210938 143.507812 607.320312 162.792969 623.449219 C 182.078125 639.582031 202.164062 654.640625 223.054688 668.628906 C 233.683594 675.789062 244.558594 682.546875 255.6875 688.90625 C 266.8125 695.265625 278.15625 701.207031 289.71875 706.734375 C 301.277344 712.261719 313.027344 717.355469 324.964844 722.019531 C 336.898438 726.683594 348.992188 730.902344 361.238281 734.675781 C 373.484375 738.453125 385.851562 741.773438 398.339844 744.640625 C 410.832031 747.507812 423.410156 749.910156 436.074219 751.855469 C 448.742188 753.796875 461.460938 755.273438 474.238281 756.28125 C 487.011719 757.292969 499.808594 757.832031 512.621094 757.898438 C 539.90625 757.703125 567 755.332031 593.902344 750.785156 C 620.808594 746.238281 647.175781 739.578125 673.007812 730.796875 C 673.433594 730.671875 673.828125 730.484375 674.195312 730.238281 C 674.566406 729.992188 674.886719 729.699219 675.164062 729.355469 C 675.441406 729.007812 675.664062 728.632812 675.824219 728.21875 C 675.988281 727.808594 676.085938 727.382812 676.117188 726.941406 C 676.046875 725.699219 675.589844 724.625 674.75 723.707031 L 628.375 677.207031 C 627.628906 676.480469 626.769531 675.933594 625.796875 675.566406 C 624.824219 675.199219 623.816406 675.042969 622.777344 675.09375 L 620.292969 675.09375 C 585.023438 684.546875 549.132812 689.394531 512.621094 689.640625 Z M 512.621094 689.640625 " fill-opacity="1" fill-rule="nonzero"/></g></svg>