<svg xmlns="http://www.w3.org/2000/svg" xmlns:xlink="http://www.w3.org/1999/xlink" width="500" zoomAndPan="magnify" viewBox="0 0 375 352.49999" height="470" preserveAspectRatio="xMidYMid meet" version="1.0"><defs><clipPath id="37515cd247"><path d="M 0.265625 4.445312 L 373 4.445312 L 373 347 L 0.265625 347 Z M 0.265625 4.445312 " clip-rule="nonzero"/></clipPath></defs><g clip-path="url(#37515cd247)"><path fill="#000000" d="M 366.886719 4.621094 L 355.832031 7.171875 C 349.042969 9.199219 341.832031 12.148438 334.203125 16.015625 L 322.445312 22.503906 C 314.394531 27.289062 305.925781 32.996094 297.035156 39.621094 C 279.257812 52.867188 259.796875 69.792969 238.65625 90.398438 C 186.921875 142.21875 141.042969 199.152344 101.019531 261.195312 C 93.914062 246.234375 83.304688 228.644531 69.183594 208.417969 C 61.664062 198.230469 53.921875 190.546875 45.953125 185.371094 C 37.066406 184.300781 22.460938 190.886719 2.140625 205.128906 C 0.84375 207.082031 0.527344 208.597656 1.1875 209.671875 C 19.433594 228.3125 32.183594 243.800781 39.441406 256.136719 C 52.984375 277.371094 67.191406 307.152344 82.066406 345.484375 C 82.894531 346.769531 83.941406 347.207031 85.199219 346.789062 L 133.695312 316.265625 C 136 314.675781 138.207031 312.550781 140.316406 309.898438 C 164.699219 241.390625 193.777344 185.671875 227.558594 142.746094 C 237.738281 128.28125 262.832031 102.75 302.835938 66.152344 C 319.039062 51.71875 342.113281 34.203125 372.0625 13.601562 C 373.800781 9.671875 372.074219 6.679688 366.886719 4.621094 " fill-opacity="0.996" fill-rule="nonzero"/></g></svg>